<svg xmlns="http://www.w3.org/2000/svg">
<!-- afghanistan --><symbol id="AF" viewBox="0 0 48 48"><path fill="#E56" d="M16 6h16v36H16z"/><path fill="#5C6" d="M48 40c0 1-1 2-2 2H32V6h14c1 0 2 1 2 2v32z"/><path fill="#445" d="M16 42H2c-1 0-2-1-2-2V8c0-1 1-2 2-2h14v36z"/><path fill="#FFF" d="M18 24c0 3.3 2.7 6 6 6s6-2.7 6-6m-6 4c-2.2 0-4-1.8-4-4s4-6 4-6 4 3.8 4 6-1.8 4-4 4z"/></symbol>
<!-- aland islands --><symbol id="AX" viewBox="0 0 260 170"><path fill="#0053A5" d="M0 0h260v170H0z"/><g fill="#FFCE00"><path d="M80 0h50v170H80z"/><path d="M0 60h260v50H0z"/></g><g fill="#D21034"><path d="M95 0h20v170H95z"/><path d="M0 75h260v20H0z"/></g></symbol>
<!-- albania --><symbol id="AL" viewBox="0 0 48 48"><path fill="#E56" d="M48 40c0 1-1 2-2 2H2c-1 0-2-1-2-2V8c0-1 1-2 2-2h44c1 0 2 1 2 2v32z"/><path fill="#455" d="M21.5 35.4c0 .4.5.6 1 .6h3c.5 0 1-.2 1-.6.2-.4 0-.8-.2-1L24 32l-2.3 2.3c-.3.3-.4.7-.2 1zM26 18v-2c0-1 1-2 2-2s2-1 2-2h-4c-1 0-2 1-2 2 0-1-1-2-2-2h-4c0 1 1 2 2 2s2 1 2 2v2H10c0 1 1 2 2 2h10v2H12c0 1 1 2 2 2h8v2h-8c0 1 1 2 2 2h6v2h-6c0 1 1 2 2 2h12c1 0 2-1 2-2h-6v-2h6c1 0 2-1 2-2h-8v-2h8c1 0 2-1 2-2H26v-2h10c1 0 2-1 2-2H26z"/></symbol>
<!-- algeria --><symbol id="DZ" viewBox="0 0 48 48"><path fill="#5C6" d="M24 42H2c-1 0-2-1-2-2V8c0-1 1-2 2-2h22v36z"/><path fill="#EEE" d="M24 6h24v36H24z"/><path fill="#E56" d="M31.2 22.7L30 20l-1.3 2.7H26l2 2-.8 3.3 2.8-1.6 2.7 1.6-.7-3.2 2-2h-2.8z"/><path fill="#E56" d="M28 32c-4.4 0-8-3.6-8-8s3.6-8 8-8c1 0 1.7.2 2.5.4-1.8-1.5-4-2.4-6.5-2.4-5.5 0-10 4.5-10 10s4.5 10 10 10c2.5 0 4.7-1 6.5-2.4-.8.2-1.6.4-2.5.4z"/></symbol>
<!-- andorra --><symbol id="AD" viewBox="0 0 48 48"><path fill="#FC5" d="M16 6h16v36H16z"/><path fill="#E56" d="M48 40c0 1-1 2-2 2H32V6h14c1 0 2 1 2 2v32zM30 18H18v8l6 4 6-4"/><path fill="#45A" d="M16 42H2c-1 0-2-1-2-2V8c0-1 1-2 2-2h14v36z"/></symbol>
<!-- angola --><symbol id="AO" viewBox="0 0 48 48"><path fill="#445" d="M48 40c0 1-1 2-2 2H2c-1 0-2-1-2-2V24h48v16z"/><path fill="#E56" d="M48 24H0V8c0-1 1-2 2-2h44c1 0 2 1 2 2v16z"/><path fill="#FC5" d="M36 36.4L27 28c.6-.3 1-.7 1.5-1.2 2-2.3 3-5 2.7-8-.2-3-1.6-5.6-3.8-7.6L26 12.8c2 1.5 3 3.7 3.2 6 .2 2.5-.6 4.8-2.2 6.7-.4.4-.8 1-1.3 1.2L18.4 20 17 21.5l6.8 6.3c-3 1.3-6.8 1-9.5-1.4L13 28c2 1.7 4.7 2.6 7.2 2.6 1.8 0 3.6-.5 5.2-1.4l9.2 8.6 1.4-1.4zM24.3 12.6h-3L20 10l-1 2.6h-3l2 2.2-.7 3.2 2.8-1.6 3 1.6-1-3.2 2.4-2.2z"/></symbol>
<!-- antigua barbuda --><symbol id="AG" viewBox="0 0 48 48"><path fill="#E56" d="M48 40c0 1-1 2-2 2H24L42 6h4c1 0 2 1 2 2v32zm-24 2H2c-1 0-2-1-2-2V8c0-1 1-2 2-2h4l18 36z"/><path fill="#EEE" d="M24 42l-9-18h18"/><path fill="#45A" d="M33 24H15l-3-6h24"/><path fill="#445" d="M6 6l6 12h4c0-4.4 3.6-8 8-8s8 3.6 8 8h4l6-12H6z"/><path fill="#FC5" d="M32 18c0-4.4-3.6-8-8-8s-8 3.6-8 8h16z"/></symbol>
<!-- argentina --><symbol id="AR" viewBox="0 0 48 48"><path fill="#3AD" d="M48 18H0V8c0-1 1-2 2-2h44c1 0 2 1 2 2v10z"/><path fill="#EEE" d="M0 18h48v12H0z"/><path fill="#3AD" d="M48 40c0 1-1 2-2 2H2c-1 0-2-1-2-2V30h48v10z"/><path fill="#FC5" d="M24 20c-2.2 0-4 1.8-4 4s1.8 4 4 4 4-1.8 4-4-1.8-4-4-4z"/></symbol>
<!-- armenia --><symbol id="AM" viewBox="0 0 48 48"><path fill="#E56" d="M48 18H0V8c0-1 1-2 2-2h44c1 0 2 1 2 2v10z"/><path fill="#45A" d="M0 18h48v12H0z"/><path fill="#FC5" d="M48 40c0 1-1 2-2 2H2c-1 0-2-1-2-2V30h48v10z"/></symbol>
<!-- aruba --><symbol id="AW" viewBox="0 0 27 18"><path fill="#4189DD" d="M0 0h27v18H0V0z"/><path fill="#F9D616" d="M0 12h27v1H0v1h27v1H0v-3z"/><path fill="#D21034" stroke="#FFF" stroke-width=".2" stroke-miterlimit="10" d="M4.63 3.38L4 1.35l-.62 2.03L1.35 4l2.03.63L4 6.65l.63-2.02L6.65 4z"/></symbol>
<!-- australia --><symbol id="AU" viewBox="0 0 48 48"><path fill="#EEE" d="M20 22H0V8c0-1 1-2 2-2h18v16z"/><path fill="#0402FB" d="M46 6H20v16H0v18c0 1 1 2 2 2h44c1 0 2-1 2-2V8c0-1-1-2-2-2z"/><path fill="#F00" d="M20 12h-4.6L19 9.3l-1-1.6-6 4.3V6H8v5.4L3 7.7 1.8 9.3 5.5 12H0v4h6.6l-4.8 3.6L3 21.2l5-3.7V22h4v-5.2l6 4.4 1-1.6-4.7-3.6H20"/><path fill="#EEE" d="M28.8 18.3l1 2.6 2.4-1.5-1 2.4 2.5 1-2.6 1 1.5 2.4-2.4-1.2-1 2.6-1-2.8-2.4 1.2 1.2-2.5-2.6-1 2.8-1-1.2-2.3 2.5 1M41 14l.6 1.5 1.4-.7-.7 1.5 2 .5-1.7.6.8 1.4L42 18l-.6 2-.5-1.5-1.6.8.7-1.4-1.4-.7 1.5-.5-1-1.8 1.5.7M18 31.2l.5 1.5L20 32l-.7 1.5 1.5.5-1.5.5.7 1.5-1.5-.7-.5 1.5-.5-1.5-1.5.7.7-1.5-1.5-.5 1.5-.5L16 32l1.5.7m17.3-.7l.6 1.5 1.4-.7-.7 1.5 2 .5-1.6.6.8 1.4L36 36l-.8 2-.5-1.5-1.5.8.7-1.4-1.6-.7 1.5-.5-1-1.8 1.5.7"/></symbol>
<!-- austria --><symbol id="AT" viewBox="0 0 48 48"><path fill="#E56" d="M48 18H0V8a2 2 0 0 1 2-2h44a2 2 0 0 1 2 2v10z"/><path fill="#EEE" d="M0 18h48v12H0z"/><path fill="#E56" d="M48 40a2 2 0 0 1-2 2H2a2 2 0 0 1-2-2V30h48v10z"/></symbol>
<!-- azerbaijan --><symbol id="AZ" viewBox="0 0 48 48"><path fill="#3AD" d="M48 18H0V8c0-1.1.9-2 2-2h44c1.1 0 2 .9 2 2v10z"/><path fill="#E56" d="M0 18h48v12H0z"/><path fill="#5C6" d="M48 40c0 1.1-.9 2-2 2H2c-1.1 0-2-.9-2-2V30h48v10z"/><path fill="#EEE" d="M26 28c-2.2 0-4-1.8-4-4s1.8-4 4-4c.17 0 .32.03.48.05C25.38 18.8 23.78 18 22 18c-3.3 0-6 2.7-6 6s2.7 6 6 6c1.8 0 3.38-.8 4.48-2.05-.16.02-.32.05-.48.05zm5.36-5.36l-.13 1.08.77.76-.92.58-.12 1.07-1.02-.35-.92.57-.35-1.02-1.02-.36.57-.9-.36-1.03 1.08-.13.58-.9.76.77"/></symbol>
<!-- bahamas-na --><symbol id="BS" viewBox="0 0 48 48"><path fill="#3AD" d="M48 18H14L2 6h44c1 0 2 1 2 2v10zm0 22c0 1-1 2-2 2H2l12-12h34v10z"/><path fill="#FC5" d="M48 30H14l6-6-6-6h34"/><path fill="#455" d="M2 6C1 6 0 7 0 8v32c0 1 1 2 2 2l18-18L2 6z"/></symbol>
<!-- bahrain --><symbol id="BH" viewBox="0 0 48 48"><path fill="#E56" d="M48 40a2 2 0 0 1-2 2H16V6h30a2 2 0 0 1 2 2v32z"/><path fill="#EEE" d="M16 16l6-4-6-4V6H2a2 2 0 0 0-2 2v32a2 2 0 0 0 2 2h14v-2l6-4-6-4 6-4-6-4 6-4-6-4z"/></symbol>
<!-- bangladesh --><symbol id="BD" viewBox="0 0 48 48"><path fill="#064" d="M48 40c0 1-1 2-2 2H2c-1 0-2-1-2-2V8c0-1 1-2 2-2h44c1 0 2 1 2 2v32z"/><circle fill="#E56" cx="24" cy="24" r="10"/></symbol>
<!-- barbados-na --><symbol id="BB" viewBox="0 0 48 48"><path fill="#FC5" d="M14 6h20v36H14z"/><path fill="#45A" d="M48 40c0 1-1 2-2 2H34V6h12c1 0 2 1 2 2v32zm-34 2H2c-1 0-2-1-2-2V8c0-1 1-2 2-2h12v36z"/><path fill="#455" d="M30 14l-2 2h2v10h-4V16l-2-2-2 2v10h-4V16h2l-2-2h-2v14h6v6h4v-6h6V14"/></symbol>
<!-- belarus --><symbol id="BY" viewBox="0 0 48 48"><path fill="#5C6" d="M48 40c0 1-1 2-2 2H10V32h38v8z"/><path fill="#E56" d="M48 32H10V6h36c1 0 2 1 2 2v24zM8 42H2c-1 0-2-1-2-2V8c0-1 1-2 2-2h6v36z"/><path fill="#EEE" d="M8 6h2v36H8zM4 8h4v2H4zm-4 2h4v2H0zm4 2h4v2H4zm-4 2h4v2H0zm4 2h4v2H4zm-4 2h4v2H0zm4 2h4v2H4zm-4 2h4v2H0zm4 2h4v2H4zm-4 2h4v2H0zm4 2h4v2H4zm-4 2h4v2H0zm4 2h4v2H4zm-4 2h4v2H0zm4 2h4v2H4zm-4 2h4v2H0z"/></symbol>
<!-- belgium --><symbol id="BE" viewBox="0 0 48 48"><path fill="#FC5" d="M16 6h16v36H16z"/><path fill="#E56" d="M48 40a2 2 0 0 1-2 2H32V6h14a2 2 0 0 1 2 2v32z"/><path fill="#445" d="M16 42H2a2 2 0 0 1-2-2V8a2 2 0 0 1 2-2h14v36z"/></symbol>
<!-- belize --><symbol id="BZ" viewBox="0 0 48 48"><path fill="#E56" d="M48 40c0 1-1 2-2 2H2c-1 0-2-1-2-2v-2h48v2zm0-30H0V8c0-1 1-2 2-2h44c1 0 2 1 2 2v2z"/><path fill="#45A" d="M0 10h48v28H0z"/><circle fill="#EEE" cx="24" cy="24" r="8"/><circle fill="#5C6" cx="24" cy="19" r="1"/><circle fill="#5C6" cx="24" cy="29" r="1"/><ellipse fill="#5C6" cx="27.5" cy="20.4" rx="1" ry="1"/><ellipse fill="#5C6" cx="20.5" cy="27.6" rx="1" ry="1"/><ellipse fill="#5C6" cx="29" cy="23.8" rx="1" ry="1"/><ellipse fill="#5C6" cx="19" cy="24.2" rx="1" ry="1"/><ellipse fill="#5C6" cx="27.7" cy="27.3" rx="1" ry="1"/><ellipse fill="#5C6" cx="20.3" cy="20.7" rx="1" ry="1"/></symbol>
<!-- benin --><symbol id="BJ" viewBox="0 0 48 48"><path fill="#E56" d="M48 40c0 1-1 2-2 2H16V24h32v16z"/><path fill="#FC5" d="M48 24H16V6h30c1 0 2 1 2 2v16z"/><path fill="#064" d="M16 6H2C1 6 0 7 0 8v32c0 1 1 2 2 2h14V6z"/></symbol>
<!-- bhutan --><symbol id="BT" viewBox="0 0 900 600"><g fill="none" fill-rule="evenodd"><path fill="#FFD520" d="M0 0h900v600H0z"/><path fill="#FF4E12" d="M0 600h900V0"/></g></symbol>
<!-- bolivia --><symbol id="BO" viewBox="0 0 48 48"><path fill="#E56" d="M48 18H0V8c0-1 1-2 2-2h44c1 0 2 1 2 2v10z"/><path fill="#FC5" d="M0 18h48v12H0z"/><path fill="#064" d="M48 40c0 1-1 2-2 2H2c-1 0-2-1-2-2V30h48v10z"/><path fill="#E56" d="M24 20c-2.2 0-4 1.8-4 4s1.8 4 4 4 4-1.8 4-4-1.8-4-4-4zm0 6c-1 0-2-1-2-2s1-2 2-2 2 1 2 2-1 2-2 2z"/></symbol>
<!-- bosnia --><symbol id="BA" viewBox="0 0 48 48"><path fill="#45A" d="M48 40c0 1-1 2-2 2H2c-1 0-2-1-2-2V8c0-1 1-2 2-2h44c1 0 2 1 2 2v32z"/><path fill="#FC5" d="M12 6l26 36V6"/><path fill="#EEE" d="M11.7 11l1-1h-1.4l-.6-1.5L10 10H8.7l1 1-.4 1.6 1.5-.8 1.4.8m4.1 2.7h-1.5l-.6-1.4-.7 1.3H12l1 1-.3 1.8 1.5-.8 1.4 1-.4-1.8m3.6 5.4l1-1h-1.4l-.6-1.5-.6 1.4h-1.5l1 1-.3 1.7 1.4-.8 1.4.8m4.3 2.6H22l-.6-1.5-.7 1.4h-1.5l1 1-.3 1.6 1.4-.8 1.4.8-.4-1.6m5 4.4h-1.5l-.6-1.4-.6 1.3H23l1 1-.3 1.8 1.5-.8 1.4 1-.4-1.8m5.4 4.3H30l-.6-1.3-.6 1.3h-1.5l1 1.2-.3 1.5 1.4-.8 1.5.8-.5-1.6"/></symbol>
<!-- botswana --><symbol id="BW" viewBox="0 0 48 48"><path fill="#3AD" d="M48 18H0V8a2 2 0 0 1 2-2h44a2 2 0 0 1 2 2v10zM48 40a2 2 0 0 1-2 2H2a2 2 0 0 1-2-2V28h48v12z"/><path fill="#445" d="M0 18h48v12H0z"/><path fill="#EEE" d="M0 18h48v2H0zM0 28h48v2H0z"/></symbol>
<!-- bouvet island --><symbol id="BV" width="1100" height="800"><path fill="#ef2b2d" d="M0 0h1100v800H0z"/><path fill="#fff" d="M300 0h200v800H300z"/><path fill="#fff" d="M0 300h1100v200H0z"/><path fill="#002868" d="M350 0h100v800H350z"/><path fill="#002868" d="M0 350h1100v100H0z"/></symbol>
<!-- brazil --><symbol id="BR" viewBox="0 0 48 48"><path fill="#5C6" d="M48 40c0 1-1 2-2 2H2c-1 0-2-1-2-2V8c0-1 1-2 2-2h44c1 0 2 1 2 2v32z"/><path fill="#FC5" d="M24 12L6 24l18 12 18-12"/><circle fill="#45A" cx="24" cy="24" r="8"/><path fill="#EEE" d="M26 22c-1.2-.7-2.6-1-4-1-2.2 0-4.3.8-6 2.2v.8c0 .7 0 1.3.3 2 1.3-2 3.4-3 5.7-3 1 0 2 .3 3 .7 2.6 1.3 4 4 4 6.5.7-.5 1.3-1.2 1.8-2-.6-2.6-2.2-5-4.8-6.2z"/></symbol>
<!-- british indian ocean terr. --><symbol id="IO" viewBox="0 0 600 300"><defs><clipPath id="c"><path d="M0 0v75h350v75h-50zm300 0H150v200H0v-50z"/></clipPath><clipPath id="b"><path d="M0 0h300v150H0z"/></clipPath></defs><path fill="#FFF" d="M0 0h600v300H0z"/><path id="a" fill="#002b7f" d="M600 260.88c-6.72 4.05-12.5 13.5-30.36 13.5-35.7 0-44.64-19.9-71.43-19.9-17.8 0-26.7 19.9-44.6 19.9-35.7 0-44.6-19.9-71.4-19.9-17.84 0-26.8 19.9-44.63 19.9-35.7 0-44.63-19.9-71.42-19.9-17.85 0-26.77 19.9-44.63 19.9-35.72 0-44.64-19.9-71.43-19.9-17.86 0-26.8 19.9-44.64 19.9-35.7 0-44.64-19.9-71.42-19.9-17.84 0-23.2 14.18-33.9 14.18v25.62c10.7 0 16.07-14.18 33.93-14.18 26.77 0 35.7 19.9 71.42 19.9 17.85 0 26.8-19.9 44.64-19.9 26.8 0 35.72 19.9 71.43 19.9 17.86 0 26.78-19.9 44.64-19.9 26.8 0 35.7 19.9 71.43 19.9 17.87 0 26.8-19.9 44.65-19.9 26.8 0 35.73 19.9 71.44 19.9 17.85 0 26.8-19.9 44.63-19.9 26.8 0 35.73 19.9 71.44 19.9 17.85 0 23.63-5.64 30.35-9.68v-29.44z"/><path fill="#FFF" d="M0 0h300v152H0z"/><g clip-path="url(#b)"><path fill="#00247d" d="M0 0h300v150H0z"/><path d="M0 0l300 150m0-150L0 150" stroke="#fff" stroke-width="30"/><path d="M0 0l300 150m0-150L0 150" stroke="#cf142b" stroke-width="20" clip-path="url(#c)"/><path d="M150 0v200M0 75h350" stroke="#fff" stroke-width="50"/><path d="M150 0v200M0 75h350" stroke="#cf142b" stroke-width="30"/></g></symbol>
<!-- british virgin islands --><symbol id="VG" viewBox="0 0 1214 627"><defs><path d="M0 0v150h700v150H600L0 0zm600 0H300v350H0v-50L600 0z" id="a"/></defs><g fill="none" fill-rule="evenodd"><path fill="#00247D" d="M14 27h1200v600H14z"/><path d="M14 27l600 300m0-300L14 327" stroke="#FFF" stroke-width="60" fill="#000"/><g transform="translate(14 27)"><mask id="b" fill="#fff"></mask><path d="M0 0l600 300m0-300L0 300" stroke="#CF142B" stroke-width="40" fill="#000" mask="url(#b)"/></g><path d="M314 27v350M14 177h700" stroke="#FFF" stroke-width="100" fill="#000"/><path d="M314 27v350M14 177h700" stroke="#CF142B" stroke-width="60" fill="#000"/><path fill="#00247D" d="M14 327h600V27h600v600H14"/><path d="M790.3 171l250.4-1-.5 223s8.8 34-105 85.6c41-4.2 85.5-47.8 85.5-47.8s18-23.3 27-10.3c8.8 13 17 19.6 23.6 24.7 6.5 5 11.6 19 2 29.2-10 10.3-25.2 11.6-29.4-1-7 3.4-47 51.7-129 54C832 526 787 473 787 473s-11 17.7-27 3.8c-15.3-18.2-3.7-29.8-3.7-29.8s13-7.4 16.8-12.5c6-7 8-16.3 19-16.3 12 1 17 10.7 17 10.7s42 44 87 49c-102-49-105-79-105-87l1-221z" fill="#FFF"/><path d="M796.3 177l238.8-1.3v214.6c1 28-46 56.3-119 92.5-75-39-119-62.7-120-93l1-212.7z" stroke="#000" stroke-width="1.9" fill="#006129"/><g stroke="#000"><path d="M929.8 433.3s5.7 13.2 12.2 5c6.5-8 4.2-11.5 4.2-11.5l-14.6-8-4.3 9 2.5 5.5z" stroke-width=".9" fill="#F7C600"/><path d="M942.4 431.6s1 0 1.7-1.3c1-1.4-1-2-2-3.6l-1 2.5 3 2.4zm-33-3.6l-12.8 7s-6.4 1.3-6.8 0c-.5-1.2 0-2.3 3.5-2.5 3.3 0 12.3-8.4 12.3-8.4l3.8 4zm.2-228l.4 4.7c.2 1.6-2.5 5-2.6 4.8-.2-.2-1.5.2-1.3 1 1 1 2 1.4 2 1.4v3c1 0-2 4 0 5 3 1 6 2 8 2 2-1 0 6 0 6l-4 9 24-3-5-8s-2-2-2-6c1-5 0-26 0-26l-17-2-1 6zm-4.6 36.3s-7.8 3.6-7.5 13.4c-2 9.5-3 19-3 19s-9.5 10.6-12.3 14.5c-3 3.8-7.2 11.5-8.7 13.6-1.6 2-7.8 8.8-7.7 11.4.2 2.5-1.4 13.8 4.8 15 1.6.7 6.7-13 6.7-13s.3-5.8-1.5-7c-1.7-1 3.8-4.8 3.8-4.8l13-9.7c2.4-2 9-9.2 9-9.2l3.5-43.2z" stroke-width=".9" fill="#FFC6B5"/><path d="M914.2 228.8s2 5.6 6.6 4.6 10-5.2 10-5.2 4.3-.2 5 .5c.5.6 11.5 11.2 11 14.5-.2 3.4-5 2.4-6.7 4.6-1 2.2-4 7.8-3 12 1 4 3 9.4 3 11.5 0 2-2 2.7-2 3.8 0 2 2 3 2 5 0 3-2 6-1 8s1 8 1 8v28s1.7 1 1.8 3c0 2 11 48 11 48s-.5 2-1.6 2c-1 0 4.3 7 4.4 9 .4 2 5.8 18 5.6 21 0 2.4-1 7.4-1.8 7.5-1 .3 3 10.3 2.4 11.8-.3 2-7 2-7 2l-1.5-.5s0 2-1 2.4l-10.5-1s-3 4-4.3 4c-1.5-.2-3.6-3-4-2.6-.5.3 1.4 3 1 4-.3.6-8.3 2.3-10-1.5-1.5-4 1-3 .5-4-1-1-4-3-5.6-2.2-1 .8 3 1.7 2.4 3 0 1.6-3.4 4-4.6 4-1.4 0-4.4-6-9-5.3-4.3.8-7 2-7 2s-5.4 2.7-7.6 2c-2.2 0-3.2-2-3.2-3s1.4-5 1.3-6.3c0-1.2-1-2.5-1-4.4 0-2 3.6-8 3.6-8l-.3-29s-3 0-3.3-2c0-2 5-46 6-49l2.8-13s-2.3 1-2.5 0c0-1 7-26.4 7-26.4s1-12.3 1-15.6c0-3.5-.3-8-.3-8s-6.6-3-6.8-7c-1-6.8 6-10.5 7-12.7l3-9s3-6 9-7z" stroke-width=".9" fill="#FFF"/><path d="M911.8 430s-15.4 8-17.6 8.7c-2.2.6-3.6-2.7-1.4-3.3 2.2-.7 5.7-1 5.7-1s-5.2-4-5-4.3l7.2-2c.2 0 2.2 4 3.6 4 1.5 0 5.6-3 5.6-3l1 2z" stroke-width=".9" fill="#F7C600"/><path d="M933.4 434.4c1.5 2 2 5 5.4 3.2 3.3-2-1.7-5.4-1.7-5.4l-3 2.2z" stroke-width=".9" fill="#FFC6B5"/><path d="M939.5 434s1.6 1.4 3 0c1.4-1.5-2.8-4.5-2.8-4.5l-2 2.4 1.8 2zm6.8-190c.2 0 5.2 15.6 6 19.6.5 4 2.6 19.8 1.8 22 0 2.2-8 12.8-9 15.5-1 3-6 13-6 13s-1 11-2 11c0 1 2 3 2 4s-4 6-6 5c-2 0-5-2-5-5 0-2 0-9 1.8-10s9-19 9.4-20c.5-1 6.8-15 7-17 0-2-2-8-4.2-10-5-14-3-23 7.6-26z" stroke-width=".9" fill="#FFC6B5"/><path d="M909 199.2s3.6.5 5.5-.6c2-1 4-1.6 5.7.6 1.6 2.2 2.7 2 2.7 2s-3 6 0 6.6c2 .6 3 .6 3 1.4 0 .8-2 2.5-2 3.3 0 .8 1 1.7 2 2.4 0 0-2 3-1 3 0 0 2 3 3 3 0 0 0 4 3 3s2-4 2-4 3-1 4-3c0-3 2-4 2-4s4-2-1-6c0-22.6-15-20-15-20s-2-4-5-3.8c-3 .2-3 3.5-5 3.2-2-.6-3-2-3-2s-2 3.3-2 4c0 1-5.7-1-5 3s3 4 3 3.6z" stroke-width=".9" fill="#9C5100"/><path d="M909.3 234.2s-2 4.3-1.6 5.7c.4 1 4 6 4.4 10 1 3 0 5 0 5m-2 30s3 4 7 3 5-5 8-4c3 0 5 2 10 2m-43 90s5-2 10-7c5 6.5 13 0 13 0s12 8.2 18-1c8.4 5.4 12.5-.8 12.5-.8s3 5 5.4 4m-21-159s2 2 3.5 1.7c2-.4 4.5 2 4.5 2s2.2 1 2.5.3m-21 3s6 2 9-6.3m-19-2.2l3 .3m-38 100l.6 7m-7-7s4 7.6 4 11.5m38-108h3l-3 1M927 326s3.6-.6 3.5 5c2-7 6-7 6-7" stroke-width=".9"/><path d="M912 206.3c.6 0 2.3-.6 2.6 0 .4.3-2 .7-2.5 0z" stroke-width="1.7"/></g><g stroke="#000" stroke-width="1.9"><path d="M914.3 485.6c67-2 110-50.2 109.6-50.7-1-1 8-14 16-12 7 2 18 23 31 28 6 10-2 19-5 21s-16 7-17-1c-2-8-6-6-6-6s-59 59-128 57c-71 0-130-56-130-56l-5 5s-6 6-9 5c-3-.7-15-8.6-16-16.5-1-8 7.2-13 7.2-13s20.5-15.8 23-24c4.5-4.8 13.3 3 13.3 3s54 62 114 58.2z" fill="#F7C600"/><path d="M763 449.6s5.4-1.4 7.4 1c2 2.2 16 15.8 16 15.8"/><path d="M775.5 456l-5.6 4.2s14 2.8 10 12m285-23s-3-1.5-7 1.7c-5 3-16 15-16 15"/><path d="M1054 455.7l6 4.6s-12.6 1-10 12.7"/></g></g></symbol>
<!-- brunei --><symbol id="BN" viewBox="0 0 48 48"><path fill="#455" d="M0 18l36 24h7.2L0 13.2"/><path fill="#FC5" d="M46 6H4.8L48 34.8V8c0-1-1-2-2-2zM2 42h34L0 18v22c0 1 1 2 2 2z"/><path fill="#EEE" d="M43.2 42H46c1 0 2-1 2-2v-5.2L4.8 6H2C1 6 0 7 0 8v5.2L43.2 42z"/><path fill="#E56" d="M26 29.7V20h6l-2-2h-4v-2l-2-2-2 2v2h-4l-2 2h6v9.7c-3-.8-5.5-3.4-6-6.7v1c0 4.4 3.6 8 8 8s8-3.6 8-8v-1c-.5 3.3-3 6-6 6.7z"/></symbol>
<!-- bulgaria --><symbol id="BG" viewBox="0 0 48 48"><path fill="#EEE" d="M48 18H0V8c0-1 1-2 2-2h44c1 0 2 1 2 2v10z"/><path fill="#5C6" d="M0 18h48v12H0z"/><path fill="#E56" d="M48 40c0 1-1 2-2 2H2c-1 0-2-1-2-2V30h48v10z"/></symbol>
<!-- burkina-faso --><symbol id="BF" viewBox="0 0 48 48"><path fill="#E56" d="M48 24H0V8c0-1 1-2 2-2h44c1 0 2 1 2 2v16z"/><path fill="#5C6" d="M48 40c0 1-1 2-2 2H2c-1 0-2-1-2-2V22h48v18z"/><path fill="#FC5" d="M32.4 21h-6L24 15.7 21.5 21h-6l4.4 4.5-1.6 6.4 5.6-3.3 5.6 3.2-1.5-6.5 4.4-4.5z"/></symbol>
<!-- burma --><symbol id="MM" viewBox="0 0 48 48"><path fill="#E56" d="M48 40a2 2 0 0 1-2 2H2a2 2 0 0 1-2-2V30h48v10z"/><path fill="#5C6" d="M0 18h48v12H0z"/><path fill="#FC5" d="M48 18H0V8a2 2 0 0 1 2-2h44a2 2 0 0 1 2 2v10z"/><path fill="#EEE" d="M32.297 21.25H26.45L24 15.93l-2.453 5.32h-5.844l4.27 4.416-1.58 6.404L24 28.887l5.605 3.184-1.578-6.403 4.27-4.417z"/></symbol>
<!-- burundi --><symbol id="BI" viewBox="0 0 48 48"><path fill="#5C6" d="M0 38V10l20 14m28 14V10L28 24"/><path fill="#EEE" d="M48 8c0-1-1-2-2-2h-2L24 20 4 6H2C1 6 0 7 0 8v2l20 14L0 38v2c0 1 1 2 2 2h2l20-14 20 14h2c1 0 2-1 2-2v-2L28 24l20-14V8z"/><path fill="#E56" d="M24 28L4 42h40M24 20L4 6h40"/><circle fill="#EEE" cx="24" cy="24" r="10"/><path fill="#E56" d="M26 19.3h-1.3L24 18l-.5 1.3H22l1 1-.3 1.7 1.4-.8 1.5.8-.4-1.6 1-1zm-4 6h-1.3L20 24l-.5 1.3H18l1 1-.3 1.7 1.4-.8 1.5.8-.4-1.6 1-1zm8 0h-1.3L28 24l-.5 1.3H26l1 1-.3 1.7 1.4-.8 1.5.8-.4-1.6 1-1z"/></symbol>
<!-- cambodia --><symbol id="KH" viewBox="0 0 48 48"><path fill="#45A" d="M48 16H0V8c0-1 1-2 2-2h44c1 0 2 1 2 2v8zm0 24c0 1-1 2-2 2H2c-1 0-2-1-2-2v-8h48v8z"/><path fill="#E56" d="M0 16h48v16H0z"/><path fill="#EEE" d="M34 26v-4l-2-2-2 2v4h-4v-6l-2-2-2 2v6h-4v-4l-2-2-2 2v4l-2 4h24"/></symbol>
<!-- cameroon --><symbol id="CM" viewBox="0 0 48 48"><path fill="#064" d="M16 42H2a2 2 0 0 1-2-2V8a2 2 0 0 1 2-2h14v36z"/><path fill="#FC5" d="M48 40a2 2 0 0 1-2 2H32V6h14a2 2 0 0 1 2 2v32z"/><path fill="#E56" d="M16 6h16v36H16z"/><path fill="#FC5" d="M30.305 21.724h-4.44L24 17.684l-1.864 4.04h-4.44l3.244 3.357-1.2 4.867 4.26-2.42 4.26 2.42-1.2-4.866 3.245-3.356z"/></symbol>
<!-- canada --><symbol id="CA" viewBox="0 0 48 48"><path fill="#EEE" d="M16 6h16v36H16z"/><path fill="#E56" d="M48 40c0 1-1 2-2 2H32V6h14c1 0 2 1 2 2v32zm-32 2H2c-1 0-2-1-2-2V8c0-1 1-2 2-2h14v36zm9-11.3s-.6-3.3-.3-3.3l2.7.4C26.4 26 28.8 25 30 24c-1-.2-.8 0-.2-2.4-2 .6-1.8.4-2.2-.6l-1.4 1.6c-.2.2-.5 0-.4-.2l.6-3.4c-1.2.8-1.2 1-1.4.5l-1-2-1 2c-.2.4-.2.3-1.4-.5l.6 3.4c0 .3-.2.4-.4.2L20.4 21c-.4 1-.2 1.2-2.2.6.6 2.3.7 2.2-.2 2.5 1.2 1 3.6 2 2.6 3.8 0 0 1 0 2.7-.4.3 0 0 3.4 0 3.4h1.6z"/></symbol>
<!-- cape-verde --><symbol id="CV" viewBox="0 0 48 48"><path fill="#45A" d="M48 40c0 1-1 2-2 2H2c-1 0-2-1-2-2v-6h48v6zm0-12H0V8c0-1 1-2 2-2h44c1 0 2 1 2 2v20z"/><path fill="#EEE" d="M0 32h48v2H0zm0-4h48v2H0z"/><path fill="#E56" d="M0 30h48v2H0z"/><path fill="#FC5" d="M16 21.3h-1.3L14 20l-.5 1.3H12l1 1-.3 1.7 1.4-.8 1.5.8-.4-1.6 1-1zm0 14h-1.3L14 34l-.5 1.3H12l1 1-.3 1.7 1.4-.8 1.5.8-.4-1.6 1-1zM21 25l-1-1 .3-1.5-1.3.5-1-1v1.6l-1.5.8 1.6.4.6 1.6.8-1.5H21zm-9.8 10l-1-1 .4-1.4-1.4.5-1-1v1.6l-1.4 1 1.6.3.4 1.5.8-1.5h1.6zm10.6-4.2v-1.5l1.3-.6-1.3-.6v-1.3l-1 1-1.7-.3 1 1.4-1 1.4 1.7-.4 1 1zm-14 .5v-1.5l1.3-.6-1.3-.6V27l-1 1.3L5 28l.8 1.3-.7 1.4 1.7-.4 1 1zm10.6 4.4l1-1 1.4.3-.6-1.3 1-1h-1.5l-1-1.4-.3 1.6-1.5.4 1.3.8v1.5zM8 26.3l1-1 1.4.4-.6-1.4 1-1H9.2l-1-1.4-.2 1.5-1.6.5 1.5.8v1.5z"/></symbol>
<!-- cayman islands --><symbol id="KY" viewBox="0 0 1214 627"><defs><path d="M0 0v150h700v150H600L0 0zm600 0H300v350H0v-50L600 0z" id="a"/></defs><g fill="none" fill-rule="evenodd"><path fill="#00247D" d="M14 27h1200v600H14z"/><path d="M14 27l600 300m0-300L14 327" stroke="#FFF" stroke-width="60" fill="#000"/><g transform="translate(14 27)"><mask id="b" fill="#fff"></mask><path d="M0 0l600 300m0-300L0 300" stroke="#CF142B" stroke-width="40" fill="#000" mask="url(#b)"/></g><path d="M314 27v350M14 177h700" stroke="#FFF" stroke-width="100" fill="#000"/><path d="M314 27v350M14 177h700" stroke="#CF142B" stroke-width="60" fill="#000"/><path fill="#00247D" d="M14 327h600V27h600v600H14"/><g stroke="#000" stroke-width=".6"><path d="M895 200.5c-10-7.7-22-15-33-16.3 7 4.3 27.2 20 32.5 25.4" fill="#F9D050"/><path d="M900.7 193.3c-12-8.2-26-17.3-39.3-18.2 10 6 25 18 33 28m21.6-23c6.7-15 14-23 23.5-32-4.8 10-10 31-12.5 39" fill="#F9D050"/><path d="M926.6 177.5c4.8-10.6 12-19.7 24.4-25.4-6.2 7-15.8 25-18.2 35" fill="#F9D050"/><path d="M931 187c5.6-8 17-23.4 37.7-31.6-12 12-29.7 34-34 42.7m3 0c8.5-5 26-12 38.2-10-8 3-31 14-41 23" fill="#F9D050"/><path d="M935.7 194.2c8-8.6 23-21.5 38.8-26.8-11.5 11-36 36-39.3 39.8M912.7 189c-5.8-17.8-14.4-34.5-27.3-39.8 7 10.5 16.2 26 21 49m-4.8-9.7c-9.5-11.5-22.5-23-37.3-25.4 10 6 26.8 23 33 39" fill="#F9D050"/><path d="M907 188c-12-21.6-21.2-25.4-26.4-29.7 4.3 8 14.8 29.7 21 38.8" fill="#F9D050"/><path d="M883 186.6c5.7 3.3 14.3 11.5 17.2 16.7"/><path d="M883 196.6c2.8 2.4 8 5.3 13 9.6m44-2.4c4.8-3.8 15.3-10 20.6-12m-24 8.7c4.8-6.3 14.4-15 17.8-17.8m-4.4-12c-4.3 4.8-14.3 16.8-18.2 22.6m5.8-27c-3.4 4.4-10 17-12 21m-26-20c3 7.8 8.3 20.7 10 26m-14.2-17.8c2 3 5.8 9.6 7.2 14.4" fill="#F9D050"/><g fill="#F9D050"><path d="M911.7 173c0-4.2 3-9 5.8-9 3.3 0 5.7 5.8 5.7 9 0 4-3 7.3-5.7 7.3-3 0-5.8-2.8-5.8-7.2z"/><path d="M905.5 177c.5-4.8 3.8-8.6 6.7-8.2 3 .5 4.3 6.3 3.8 9.6-.5 3.8-3.8 6.7-6.2 6.2-2.4 0-4.8-3.3-4.3-7.6zm13 1.4c-1-4.3 1-9 4-9.6 2.6-.4 5.5 4.3 6 8.2 1 3.8-1.5 7.6-4 7.6-2.2.5-5.6-2-6-6.2z"/><path d="M911.2 182.2c0-4.7 3-9 5.8-9 3.3 0 5.7 5.2 5.7 9 0 4-2.8 7.2-5.7 7.2-3 0-5.8-2.8-5.8-7.2z"/><path d="M902.6 184.6c0-4.3 3.4-9 6.2-9 3 0 5.8 5.7 5.8 9 0 4-3.4 7.2-5.8 7.2-2.8 0-6.2-2.8-6.2-7.2zm17.7-2c0-4.2 3-9 5.8-9 4 0 6 5.8 6 9 0 4-3 7.3-5 7.3s-5-3-5-8z"/><path d="M918.4 186.6c0-4.8 3.4-9 6.2-9 3 0 5.8 5 5.8 9 0 3.8-3 7.2-5.8 7.2s-6.2-3-6.2-7.2z"/><path d="M910.8 191c0-5 2.8-9.2 5.7-9.2 3.4 0 5.8 5.7 5.8 9 0 4-3 7.3-5.8 7.3-3 0-5.8-2-5.8-7zm-12 0c0-5 2.4-9.2 4.8-9.2s4.3 5.7 4.3 9c0 4-3 7.3-5 7.3-3 0-5-2-5-7zm26.8-1c0-4.4 2.4-8.7 4.8-8.7s4.8 5.3 4.8 8.6c0 4-3 7-4.8 7-2.4 0-4.8-3-4.8-7zm-13.4-43.7c-1 3.8-4.3 7.2-2 12.5-4.2-1.5-8-2-11.4 2 4.3-.6 8 .8 10 3.7-3.8-.5-5.7 1.5-6.7 4 4-1 7-2 9-1.6-1 1-4 3-4 5 3-3 7-2 8-4-1 3 2 6 4 10 0-5 3-8 1-11 5 1 5 5 11 5-2-2-4-6-6-6 2-1 7-1 8 0-1-2-4-4-6-4 2-2 6-6 8-7-3 0-8 1-10 4 5-4 4-11 9-12-3-1-7 1-10 4 2-3 2-7 4-8-4 1-8 6-9 8 0-3-1-7-2-8z"/></g></g><path d="M873 206.7c-3.5 0-6.3-1.4-8.3-3.8-3.3-5-12.4-7-16.3-3-1.4 1-3.3 1-4.7 1-2.4 0-5.3 2-4.4 7 2-2 2.4 0 4 0 .8-1 .4 0 .4 1 0 2 5.2 7 10 6 5.3 0 7.7 2 8.6 3 1.5 1 .5 1 1.5 3 1.4 1 2 2-.5 3-3.3 3-5.7 9 0 15 6.2 4 22 12 39.8-2 18-14 45-6 46-1 3 5 4 7 4 10 1 2 3 4 7 3 4 0 7 1 9 3 3 1 6 0 5-4-2-14-10-16-11-22 5 0 9 0 10-2 2-2 4-6 6-6 2-1 2-2 0-2s-4 1-8 1c-22-3-84-19-96-16z" stroke="#000" stroke-width="1.4" fill="#059334"/><path d="M970.7 223c-2.4 1.4-4.8 3.8-9.2 9.6-4.7 6.2-19 12.4-37 12.4-17 0-27.6-2.8-35.3-9-4.3-3.4-7.7-5.3-10.6-6.8-5.2-2.4-6.2-7.7-4.8-12-1.4 2.4-2.3 4.8-5.2 4.3-2 0-5.8 0-4.8 2-.5-1-.5-2.4-1-3l-1-1c1.5 1 5-1.8 7.3-1.8 2 .5 5-2 4-4.8l-1-7c4-2 54 7 64 8 10 0 39 5 35 8z" stroke="#000" stroke-width="1.4" fill="#000"/><path d="M879.6 204.8c4.8-4.8 10.5-7.2 16.3-5.8h1c3-2.4 9-3 13-1h2c5-2 16 0 20 4l1 1c13-1 20 4.6 29 13.8 1 1 2 2.8 5 3.3 3 1 3 2 1 4-3 2-6 4-10 9-5 6-19 12-36 12s-27-3-35-8c-4-3-8-5-10-6-3-1-7-5-5-8 1-3-2-8-4-13 1-1 5-2 7-1h1z" stroke="#000" stroke-width="1.4" fill="#059334"/><g stroke="#000" stroke-width="1.4" fill="#00493D"><path d="M964.4 216.8c-9-9.2-16.7-15-29.7-14 0 .5 0 2-.5 3 7.7 2.8 18.7 11.4 23.5 17.7 2-2 5.3-4.3 6.7-6.7zm-31-14.8c-4-4-15-6-20.7-4 0 2 0 5-1 6.8 3.4 1.4 6.2 4.8 9 8l9.2-2.3c1-2 2-6.2 3-8.6zm-22.6-4c-4-2-10.6-1.4-13.5 1-1 2-1.4 5.8-1.4 7.7 1 0 4 1.4 5 2.4 3-1 7-2 8-4 0-2 1-5 1-6zm-31.2 6.8c4.8-4.8 10.5-7.2 16.3-5.8-1 1.5-2 4.3-2 7.2-6-.5-12 1-15 3v-4.4z"/><path d="M955.8 224.4c-4.3-6.2-15-13.4-22-16.8 0 .5-1 2.4-1.5 4 3 4.2 8.6 13.8 11 19 2.4-1 9-3.8 12.5-6.2zM919.4 235c1-6.7 1.4-16.3 1.4-19.7 2.4-.5 7.2-2 9-2.4 2.5 3 8.3 13 10.7 18-5.8 1-15.4 4-21 3zm-16.8-23c2.4-1 5.8-3 8-4.8 2 1.4 6 4.8 7.3 6.7 0 4-2 16-2 21-4 0-10-1-14-3 0-7 1-16 0-20zm-24 5.7c.5-1 1-4.3 1-5.7 3.8-2.4 13.4-4.8 20.6-1 .5 4.8 0 16.8-.5 19.7-6.2-4.8-16.3-11.6-21-13z"/></g><path d="M854.7 209c-1 0-1.5-2.8-3.4-2.8-.5 0-2 .5-2.4 0 0 1 0 2 1 2.4 0 1.4 2 .5 4 .5z" fill="#000"/><path d="M854.7 217.2c5.7 0 6.7-7.2 9.6-7.6m-6.3 8c4.3 2 7.7-8 11-7.6m-19.6-4.7c1.4 0 2.4-2 4.8.4 1 1 2.4 1.5 3.4 1.5m-1 5.2c-2 3-5.3 4.8-7.2 4m-1-16c-1.4 1-2.3 3-3.3 4.4m-1 2.8v2.4" stroke="#000" stroke-width="1.4"/><path d="M1003.7 260v93.4c0 81-38.3 108.8-89.6 130.8-51-22-90-49.8-90-130.8V260h180z" fill="#FFF"/><path d="M914 339c4.4 0 11-3.8 17-9.6 6-6.7 16.7-9 27.7 0s17.7 5.3 23.5 0c5.7-5.2 10.5-7.2 21.5-7.2V260H824v62c11 0 15.8 2 21.6 7.2 5.7 5.3 12.4 9 23.5 0 12-9 22-6.7 29 0 6 5.8 12 9.6 17 9.6z" fill="#CF142B"/><path d="M914 387c6 0 17.4-6.3 20.2-7.7 10.6-6.3 18.2-.5 24.5 2.4 6.7 2.8 19 6.2 26.8 0 7.7-6.3 12-5.8 17.3-5.8 1-8 1-15 1-23v-6c-6.8-2-10 0-17.3 6-7.2 6-15.4 5-26 1-10-5-20-12-30 0-3 3-9.7 8-16.4 8-7 0-13-5-16-8-10-12-20-5-30 0-10 4-19 5-26-1-6-6-10-8-17-7v6c0 8 1 15 2 22 6 0 9-1 17 5s21 2 27 0c7-3 15-9 25-3 3 1 14 7 20 7zm0 20.6c7.3 0 16-3 23.6-7.2 9.6-5.3 16.3-3 26 2 10 4.7 18 3.2 23.8 0 3-2 5.3-6 11.5-4.4-3 12-8 22.5-13 31-10 2.5-15 2.5-25-1.8-10-4.8-23-7.7-29-3.4-6 4-13 5.8-18 5.8-6 0-12-2-18-5.8-7-4.3-20-1.4-30 3.4-10 4.3-16 4.3-25 2-5-8.7-10-19.3-13-31.2 6-1.5 8 2.4 11 4.3 5 3.3 14 4.8 23 0 10-4.8 17-7.2 26-2 8 4.4 16 7.3 23 7.3zm0 76.6c19.3-8 37-17.2 51.4-29.7-4-1.4-6.2-.5-9.6-3-3.4-2.3-13.4-3.2-22 1.6-9.2 5-13 6-19.7 6-6 0-10-1-19-5-8-4-18-4-22-1-3 3-6 2-9 3 14 12 32 21 51 29z" fill="#0B50A0"/><g stroke="#000" stroke-width="1.4"><path d="M901.6 283.4c.5 1-.4 3.4 0 4.3 1 2 1 3 2.4 4h3.4c10.5 0 23-4.4 33.5-4.4 10 0 16 3.3 22 3.3 3 0 6-2.4 6-4.8s-4-3.8-12-3.8c-12 0-18 3-28 3-15 0-17-5.4-17-7.8 0-2.4 2-5.7 10-5.7 2 0 4-.5 5-1.5 0-1 2-3 4-4.3 3-2 10 0 13-2.4 0 2-3 4.8-6 5.8 4-1 10-1 11 3-3-1-7 0-8 0l-5 2c2 0 3 4 6 4-3 3-8 3-13 1-2 0-5-2-8-2-5 0-8 1-8 3 0 3 3 4 11 4 9 0 13-2 26-2-1-1 0-3-1-4 5 0 10 1 12 5-1-3 2-6 1-9 3 0 5 3 6 6 0-1 2-1 2-2 3 1 4 5 4 8 1-2 3-1 4-4 1 2 0 8-3 10 3-2 7-2 10 1-3 0-4 1-6 2-6 3-16 5-23 5s-8-2-13-2c3 1 9 6.8 14 6.8h7c2-.5 4 0 6 1 1 1 4 3 6 2-1 2-2 3-3 3 2 1.7 1 2.6 3 4-1 0-2 1-3.4 1 1.2 1.3 1.2 3.3 3 4-.8 0-2 .6-3 0 1.2 2 0 4.4 1.2 5.4 1 2-2 4-4 2.4 0 2-1 3-3 3-1-1-2-2-2-2.5s0 0 1-1c-1 2-3 2-4 1-.7 0-1-1-1-1-3.7 1-5-2-4.6-3s3.4-2 4.4-1 2 1 3 0c0 0 1-1 1-2s-1.8-6-8-5c-7 0-18.7-2-24.4-4 0 0-1 0-1-1 0 2-2 3-2 5 0 3 1 5 4 5-1.6 3-4 2-5 1 0 1.7-2 2.6-2 4l-1.5-2c-1 3-5 5-7 4-2 2-5 1-6-.6-1 1-3 1-4 0 0 1-1 1-1.8 3 0 1-2 1-3 1s-1.4-2-.4-3c-1.3 1-3 1-4 0 0-1 0-2 1-3h1-3c-1-1-1-2 0-3 .5-1 2-2 3-1l.4 1c0-1 .4-2 1-2 1 0 2.2 0 4 1 1 2 2 2 5 1 2 0 6-2 9-4.7-8-1.6-3-7-1-9-2-.4-5-.4-7 .6-10 5-20.3 11.4-27 9.5 0 1 .6 2 1 3-1.4 0-4.3 0-5-1.4 0 1-1 4 0 6-1-1-4-2-6-2.7 1 1 0 3 .6 4-1.4-1-4-2-5-1s-3 1.7-4.2 1c-1 1.7-2 2.6-3.6 3v-3c0 2-1.5 4-3.4 5 0-1 0-2.5-.6-3 0 2-4 3-4.5 4 .5-1.4.5-3 .5-4-1 1.5-2 3-5 3 1-1 1-2 1-3-.4 2-3.3 3-6 2.7 0 1-2 2-4 1s-2.8-2-2-3c-2 0-4-2-3-4l.5-1.3c-1.3-1-2-3-.3-4 .5-.6 2-.6 3-.6 0-4 3.4-4 5-1 1 1.5 3.7 4 6 3.4 1 0 1.5-.3 2.5-.3 3 0 8.3-3 12-6v-3c-2 1-4 2-5 3.8v-2l-4.7-1c0-1 1-3 2-4-2.7.7-5 0-7-.2 1-1 1-2.6 1.4-4-1 .4-3.5-.5-5 0 1-1.5 1-3.4 3-4-2 .6-4.7 0-7-1 2 0 3-2.3 4.2-2.3-4 0-5-2-7-3 2 .3 3-1 4-1-1-.6-4-3-3-4.4 0 .6-1 1.5-2 2-.5.5-2.4 0-4-1.4-1-2 0-4 2-5-2.8-1-2.8-3-2-4 1-1 3-2.3 4-1l1 2c-1-1-1-3-1-4.5 1-1.5 2-1.5 3-2 1.6 0 2.6 1.4 2.6 3 0 1 .4 2 1 4l.3-2c0-2 3-1.2 4-1 2 .8 2 3.6 0 5-1 1 0 2.5 1 3.4 3 5 9 9.2 14 10 0-2 1-4 2-5.6 0-1 .5-2 1-3 .5-3 2-4 4-3-.5-.7-1-1-1-1.6-1.5-1.4-3-4-2-6s4-1.2 5-.2c-.6-3 3-5 3-6.6.2 1.7 1.2 3.6 1 5 .2-2 4-4 6-5-1 1 2 3.7 1 5 1-2.3 5-4 7.3-4-1 1-1 3-1 4 2 0 4-1 5-2 0 2-1 4-2 5 .8-1 2.7-1 4-1-1 1-1 3-2 4 2-1 4-1 4.8 1 1 1-1 4-2 5l-2 1z" fill="#F9D050"/><path d="M893.5 274.8c-1 0-2 .5-2 2 0 1-1.4 2.3-1.4 3.8 0 2-1 2.4-2 2-1-1-1-1-1-2.5s3-2 3-4c1-1 1-2 2-2-2 2-6 1-6-2"/><path d="M897.8 276.2c-1 .5-2-1-3.3-.4-.5 0-2 .4-2.4 0"/><path d="M891 278.6c.6.5 3 1.5 5.4.5-2 1-3.4-1-1.5-3m-9-1c-2 0-4 2-3 3 0 2 2 2 4 1m-4 19s1-1 1-2c1 0 2 0 2-1 2 0 3-1 4-2 1 0 1-2 2-3 0 1 1 0 2-2 1 1 2 0 2-1"/><path d="M880.6 280c-.5 2.5-.5 5.8-1 7.3-.5 1-1.4 4.3 2.4 5.2 4.3 1 6.7.5 9-6.7"/></g><path d="M1003.7 260v93.4c0 81-38.3 108.8-89.6 130.8-51-22-90-49.8-90-130.8V260h180z" stroke="#000" stroke-width="1.4"/></g></symbol>
<!-- central-african-republic --><symbol id="CF" viewBox="0 0 48 48"><path fill="#FC5" d="M20 42H2c-1 0-2-1-2-2v-6h20v8zm8 0h18c1 0 2-1 2-2v-6H28v8z"/><path fill="#5C6" d="M0 24h20v10H0zm28 0h20v10H28z"/><path fill="#EEE" d="M0 14h20v10H0zm28 0h20v10H28z"/><path fill="#45A" d="M20 14H0V8c0-1 1-2 2-2h18v8zm8 0h20V8c0-1-1-2-2-2H28v8z"/><path fill="#E56" d="M20 6h8v36h-8z"/><path fill="#FC5" d="M8 9.3H6.5L6 8l-.7 1.3H4l1 1-.5 1.7 1.4-.8 1.3.8-.4-1.6 1-1z"/></symbol>
<!-- chad --><symbol id="TD" viewBox="0 0 48 48"><path fill="#45A" d="M16 42H2c-1 0-2-1-2-2V8c0-1 1-2 2-2h14v36z"/><path fill="#E56" d="M48 40c0 1-1 2-2 2H32V6h14c1 0 2 1 2 2v32z"/><path fill="#FC5" d="M16 6h16v36H16z"/></symbol>
<!-- chile --><symbol id="CL" viewBox="0 0 48 48"><path fill="#E56" d="M48 40c0 1-1 2-2 2H2c-1 0-2-1-2-2V24h48v16z"/><path fill="#45A" d="M18 24H0V8c0-1 1-2 2-2h16v18z"/><path fill="#EEE" d="M13.2 13.6h-3L9 11l-1.2 2.6h-3L7 15.8 6.2 19 9 17.6l2.8 1.6L11 16l2.2-2.2zM48 24H18V6h28c1 0 2 1 2 2v16z"/></symbol>
<!-- china --><symbol id="CN" viewBox="0 0 48 48"><path fill="#E56" d="M48 40c0 1-1 2-2 2H2c-1 0-2-1-2-2V8c0-1 1-2 2-2h44c1 0 2 1 2 2v32z"/><g fill="#FC5"><path d="M15.4 13.3h-3.6L10.2 10l-1.5 3.3H5L7.8 16l-1 4 3.5-2 3.5 2-1-4 2.7-2.7z"/><circle cx="17" cy="11" r="1"/><circle cx="17" cy="19" r="1"/><ellipse cx="21" cy="13" rx="1" ry="1"/><ellipse cx="21" cy="17" rx="1" ry="1"/></g></symbol>
<!-- christmas island --><symbol id="CX" width="1000" height="500"><path fill="#0021ad" d="M0 0h1000v500H0z"/><path d="M0 0h1000v500z" fill="#1c8a42"/><circle cx="500" cy="250" r="90.3" fill="#ffc639"/><path fill="#1c8a42" d="M444.8 209.4c6.2 8.5 15.6 22.7 23 19 6 0 9 .4 9.8 4.4 14 2.3 37.2-3.5 51.7-22.4 0 0 1.2 0 .8-7 0-3.2 5-2.5 5-1.5 1 1 1 2 2 2 2-1 4-5 7-7 1-1 1-3 1-4 1-3 4-2 4.7-1l1 2c3 2 7.8 0 8 0 .6-2 2-2 2-2 2-1 1 0 2.4 0-1 12 2.6 12 2 19 .5 6-2 8-2 11 1 3 11 3 7.6 6-3 1.2 0 5-5 6-14 7-16.3 13-16.3 13s-3.4 6-4 6c-2 4.3-5 2-7 4-.4 2.7-1.3 8.6 0 11.6 1 4.5 0 7-1 11-1 9-4.2 10-5 13.4-1.2 3.5.8 19-1 19-10 .5-18-2-22-2.5 4-17 2.5-32 2.5-33.5-1-12-18.6-9-21-10.3-2.5-.4-4-2-4.6-3-2.3 0-3.2-1-6-1-1 .6-.3 1-3 2-7 1-10-6-10-6 0-2-15.3.5-24-1.5-3.4 2-5 8-8 8.5 0 2-4.5-1.3-5.5-3 0-5 4.7-7 4.7-7 3.4-2.5 6-3 7.4-5 1-4.4.5-8 2.4-11 1.4-3 4-1.4 5.3-2.5 2-1.3 2.5-8.8 1-11l-8-6c-2-6.6 3-10.7 4-10.3z"/><path fill="#ffc639" d="M878 97.6c-4.2-16.2-40.8-51-68.3-73.3-6.6-4.5-11-1.8-10 4.6 3.4 5 6 12 9.4 17 1 4 3 6 4 10l1 7c9 10 10 18 10 18 5 9 10 16 18 24 10 6 3 25 3 35 0 6-4 5-8 4-31-29-63-29-90-38-10-1-11 4-7 7 20 20 38 34 61 46l12 7.2 14 11.5c11 7 12 13 12 13.6.4 13-6.4 23-8.4 27-3.5 14-11 16-11 16-58.6 40-89.5 50-185 38-1.4-1-10.5 1 0 4.7 24.3 8 84 21 141.7-6.4 14-10 23.7-6.5 33.7-12 16.5-10 40-23 44.3-24.7 13-6.8 49-14.5 57-21.4 9.8-1 19.7-2 20-10 3.5-2 8-.3 11-7 8-1.2 6.7-4 6.7-4-2-5.3-9-7.5-14-11.4-7.5-2.4-12.7-3-18-.5l-5 2s-8-1-8-2c-18-1-16.3-60-22.6-84.3z"/><path fill="#1c8a42" d="M919.6 194a4.4 2.8 16 0 1-8.4-2.6 4.4 2.8 16 0 1 8.4 2.6z"/><g fill="#fff"><path id="a" d="M188.2 191l-12.8-12-13 11.8 1.5-17.4-18-2.8 14-9.8-9-15.2 17 5.4 6-16.5 7 16.5 16-5-9 15 14 10-18 2.5 1 17.4z"/><path d="M233.4 335.5l-13.8-9-13.4 9.5 4.8-15.5-13.6-9.5 16.6-.4 5-15.5 5.6 16h16.7L228 321l6 15.2z"/></g></symbol>
<!-- colombia --><symbol id="CO" viewBox="0 0 48 48"><path fill="#FC5" d="M48 26H0V8c0-1 1-2 2-2h44c1 0 2 1 2 2v18z"/><path fill="#45A" d="M0 26h48v8H0z"/><path fill="#E56" d="M48 40c0 1-1 2-2 2H2c-1 0-2-1-2-2v-6h48v6z"/></symbol>
<!-- comoros --><symbol id="KM" viewBox="0 0 48 48"><path fill="#FC5" d="M48 14H10L2 6h44c1 0 2 1 2 2v6z"/><path fill="#45A" d="M48 34H10l-8 8h44c1 0 2-1 2-2v-6z"/><path fill="#EEE" d="M10 14h38v10H20"/><path fill="#E56" d="M10 34h38V24H20"/><path fill="#5C6" d="M2 6C1 6 0 7 0 8v32c0 1 1 2 2 2l18-18L2 6z"/><path fill="#EEE" d="M6 24c0-2.6 1.7-4.8 4-5.6-.6-.3-1.3-.4-2-.4-3.3 0-6 2.7-6 6s2.7 6 6 6c.7 0 1.4 0 2-.4-2.3-.8-4-3-4-5.6zm7-.4h-.8L12 23l-.4.6h-.8l.6.7-.3.8 1-.3.8.4-.3-.7.5-.7zm0-4.3h-.8l-.3-.7-.4.7h-.8l.6.7-.3.8 1-.4.8.4-.3-.8.5-.7zm0 8.7h-.8l-.2-1-.4.7h-.8l.6.6-.3.8 1-.4.8.4-.3-.8.5-.7z"/></symbol>
<!-- costa rica --><symbol id="CR" viewBox="0 0 48 48"><path fill="#45A" d="M48 40c0 1-1 2-2 2H2c-1 0-2-1-2-2v-4h48v4zm0-28H0V8c0-1 1-2 2-2h44c1 0 2 1 2 2v4z"/><path fill="#E56" d="M0 18h48v12H0z"/><path fill="#EEE" d="M0 30h48v6H0zm0-18h48v6H0zm14 8c-2.2 0-4 1.8-4 4s1.8 4 4 4 4-1.8 4-4-1.8-4-4-4zm0 6c-1 0-2-1-2-2s1-2 2-2 2 1 2 2-1 2-2 2z"/></symbol>
<!-- cote-d&#x2019;ivoire --><symbol id="CI" viewBox="0 0 48 48"><path fill="#E72" d="M16 42H2c-1 0-2-1-2-2V8c0-1 1-2 2-2h14v36z"/><path fill="#5C6" d="M48 40c0 1-1 2-2 2H32V6h14c1 0 2 1 2 2v32z"/><path fill="#EEE" d="M16 6h16v36H16z"/></symbol>
<!-- croatia --><symbol id="HR" viewBox="0 0 48 48"><path fill="#E56" d="M48 18H0V8c0-1 1-2 2-2h44c1 0 2 1 2 2v10z"/><path fill="#EEE" d="M0 18h48v12H0z"/><path fill="#45A" d="M48 40c0 1-1 2-2 2H2c-1 0-2-1-2-2V30h48v10z"/><path fill="#E56" d="M30 20H18v8l6 4 6-4"/><path fill="#EEE" d="M20 22h2v2h-2zm2 2h2v2h-2zm-2 2h2v2h-2zm-2-2h2v2h-2zm4-4h2v2h-2zm-4 0h2v2h-2zm6 2h2v2h-2zm2-2h2v2h-2zm2 2h2v2h-2zm-2 2h2v2h-2zm2 2h2v2h-2zm-4 0h2v2h-2zm-2 2h2v2h-2zm4 2h1l1-.7V28h-2m-2 4l2-1.3V30h-2m-4-.7V28h-2m4 2.7V30h-1"/></symbol>
<!-- cuba --><symbol id="CU" viewBox="0 0 48 48"><path fill="#EEE" d="M16 28l-8 8h40v-8M8 12l8 8h32v-8"/><path fill="#45A" d="M46 6H2l6 6h40V8c0-1-1-2-2-2zM16 20l4 4-4 4h32v-8M8 36l-6 6h44c1 0 2-1 2-2v-4H8z"/><path fill="#E56" d="M2 6C1 6 0 7 0 8v32c0 1 1 2 2 2l18-18L2 6z"/><path fill="#EEE" d="M12.4 22.5h-3L8.2 20 7 22.4H4l2.2 2.3-.8 3.2 2.8-1.6L11 28l-.8-3.2 2.2-2.3z"/></symbol>
<!-- curaçao --><symbol id="CW" viewBox="0 0 54 36"><path fill="#002b7f" d="M0 0h54v36H0z"/><path d="M0 22.5h54V27H0z" fill="#f9e814"/><g fill="#fff" id="d"><path d="M12 8l-1.2 3.8 2 .6z" id="a"/></g></symbol>
<!-- cyprus --><symbol id="CY" viewBox="0 0 48 48"><path fill="#EEE" d="M48 40c0 1-1 2-2 2H2c-1 0-2-1-2-2V8c0-1 1-2 2-2h44c1 0 2 1 2 2v32z"/><path fill="#E72" d="M34 16v2h-2v-2h-2v2h-2v-2h-2v2h-4v-2h-2v2h-2v-2h-2v2h-2v-2c-1 0-2 1-2 2v4c0 1 1 2 2 2v-2h2v2h2v-2h2v2h2v-2h4v2h2v-2h2v2h2v-2h2v2c1 0 2-1 2-2v-4c0-1-1-2-2-2z"/><path fill="#064" d="M10 30h12v-2H12c-1 0-2 1-2 2zm16 0h12c0-1-1-2-2-2H26v2z"/></symbol>
<!-- czech --><symbol id="CZ" viewBox="0 0 48 48"><path fill="#EEE" d="M48 24H20L2 6h44c1 0 2 1 2 2v16z"/><path fill="#E56" d="M48 40c0 1-1 2-2 2H2l18-18h28v16z"/><path fill="#45A" d="M2 6C1 6 0 7 0 8v32c0 1 1 2 2 2l18-18L2 6z"/></symbol>
<!-- democratic-republic-of-congo --><symbol id="CD" viewBox="0 0 48 48"><path fill="#FC5" d="M48 18L12 42H4.8L48 13.2M36 6h7.2L0 34.8V30"/><path fill="#45A" d="M2 6h34L0 30V8c0-1 1-2 2-2zm44 36H12l36-24v22c0 1-1 2-2 2z"/><path fill="#E56" d="M4.8 42H2c-1 0-2-1-2-2v-5.2L43.2 6H46c1 0 2 1 2 2v5.2L4.8 42z"/><path fill="#FC5" d="M12.3 10.6h-3L8 8l-1 2.6H4l2 2.2-.7 3.2L8 14.4l3 1.6-1-3.2 2.3-2.2z"/></symbol>
<!-- denmark --><symbol id="DK" viewBox="0 0 48 48"><path fill="#E56" d="M48 40c0 1-1 2-2 2H2c-1 0-2-1-2-2V8c0-1 1-2 2-2h44c1 0 2 1 2 2v32z"/><path fill="#EEE" d="M12 6h8v36h-8z"/><path fill="#EEE" d="M0 20h48v8H0z"/></symbol>
<!-- djibouti --><symbol id="DJ" viewBox="0 0 48 48"><path fill="#5C6" d="M48 40c0 1-1 2-2 2H2l20-18h26v16z"/><path fill="#3AD" d="M48 24H22L2 6h44c1 0 2 1 2 2v16z"/><path fill="#EEE" d="M2 6C1 6 0 7 0 8v32c0 1 1 2 2 2l20-18L2 6z"/><path fill="#E56" d="M14.4 22.5h-3L10.2 20 9 22.4H6l2.2 2.3-.8 3.2 2.8-1.6L13 28l-.8-3.2 2.2-2.3z"/></symbol>
<!-- dominica --><symbol id="DM" viewBox="0 0 1200 600"><g fill="none" fill-rule="evenodd"><path fill="#006B3F" d="M0 0h1200v600H0z"/><path fill="#FCD116" d="M525 0h75v600h-75z"/><path fill="#FCD116" d="M0 225h1200v75H0z"/><path fill="#FFF" d="M600 0h75v600h-75z"/><path fill="#FFF" d="M0 300h1200v75H0z"/><path fill="#000" d="M575 0h50v600h-50z"/><path fill="#000" d="M0 275h1200v50H0z"/><ellipse fill="#D41C30" cx="599.5" cy="300" rx="159.5" ry="150"/></g></symbol>
<!-- dominican-republic-na --><symbol id="DO" viewBox="0 0 48 48"><path fill="#45A" d="M20 20H0V8c0-1 1-2 2-2h18v14zm28 20c0 1-1 2-2 2H28V28h20v12z"/><path fill="#E56" d="M0 40c0 1 1 2 2 2h18V28H0v12zm28-20h20V8c0-1-1-2-2-2H28v14z"/><path fill="#EEE" d="M48 20H28V6h-8v14H0v8h20v14h8V28h20"/><path fill="#687" d="M24 20c-2.2 0-4 1.8-4 4s1.8 4 4 4 4-1.8 4-4-1.8-4-4-4zm0 6c-1 0-2-1-2-2s1-2 2-2 2 1 2 2-1 2-2 2z"/></symbol>
<!-- east-timor --><symbol id="TL" viewBox="0 0 48 48"><path fill="#E56" d="M14.4 22.5h-3L10.2 20 9 22.4H6l2.2 2.3-.8 3.2 2.8-1.6L13 28l-.8-3.2 2.2-2.3zM46 6H2l20 18L2 42h44c1 0 2-1 2-2V8c0-1-1-2-2-2z"/><path fill="#FC5" d="M28 24L2 6l20 18L2 42"/><path fill="#445" d="M2 6C1 6 0 7 0 8v32c0 1 1 2 2 2l20-18L2 6z"/><path fill="#EEE" d="M12.4 22.5h-3L8.2 20 7 22.4H4l2.2 2.3-.8 3.2 2.8-1.6L11 28l-.8-3.2 2.2-2.3z"/></symbol>
<!-- ecuador --><symbol id="EC" viewBox="0 0 48 48"><path fill="#FC5" d="M48 22H0V8c0-1 1-2 2-2h44c1 0 2 1 2 2v14z"/><path fill="#45A" d="M0 22h48v10H0z"/><path fill="#E56" d="M48 40c0 1-1 2-2 2H2c-1 0-2-1-2-2v-8h48v8z"/><path fill="#A75" d="M30 18H18v8l6 4 6-4"/></symbol>
<!-- egypt --><symbol id="EG" viewBox="0 0 48 48"><path fill="#445" d="M48 40c0 1-1 2-2 2H2c-1 0-2-1-2-2V30h48v10z"/><path fill="#EEE" d="M0 18h48v12H0z"/><path fill="#E56" d="M48 18H0V8c0-1 1-2 2-2h44c1 0 2 1 2 2v10z"/><path fill="#FC5" d="M28 20h-8v5.3l4 2.7 4-2.7"/></symbol>
<!-- el-salvador-ca --><symbol id="SV" viewBox="0 0 48 48"><path fill="#45A" d="M48 18H0V8c0-1 1-2 2-2h44c1 0 2 1 2 2v10zm0 22c0 1-1 2-2 2H2c-1 0-2-1-2-2V30h48v10z"/><path fill="#EEE" d="M0 18h48v12H0z"/><path fill="#343" d="M24 20c-2.2 0-4 1.8-4 4s1.8 4 4 4 4-1.8 4-4-1.8-4-4-4zm0 6c-1 0-2-1-2-2s1-2 2-2 2 1 2 2-1 2-2 2z"/></symbol>
<!-- equatorial-guinea --><symbol id="GQ" viewBox="0 0 48 48"><path fill="#5C6" d="M48 18H14L2 6h44c1 0 2 1 2 2v10z"/><path fill="#EEE" d="M48 30H14l6-6-6-6h34"/><path fill="#E56" d="M48 40c0 1-1 2-2 2H2l12-12h34v10z"/><path fill="#3AD" d="M2 6C1 6 0 7 0 8v32c0 1 1 2 2 2l18-18L2 6z"/><path fill="#445" d="M34 20h-8v5.3l4 2.7 4-2.7"/></symbol>
<!-- eritrea --><symbol id="ER" viewBox="0 0 48 48"><path fill="#3AD" d="M48 40c0 1-1 2-2 2H2c-1 0-2-1-2-2v-2l48-8v10z"/><path fill="#E56" d="M48 30L0 38V10l48 8"/><path fill="#5C6" d="M48 18L0 10V8c0-1 1-2 2-2h44c1 0 2 1 2 2v10z"/><path fill="#FC5" d="M10 16c-4 0-7 3-7 7s3 7 7 7 7-3 7-7-3-7-7-7zm0 12c-2.8 0-5-2.2-5-5s2.2-5 5-5 5 2.2 5 5-2.2 5-5 5z"/></symbol>
<!-- estonia --><symbol id="EE" viewBox="0 0 48 48"><path fill="#EEE" d="M48 40c0 1-1 2-2 2H2c-1 0-2-1-2-2V30h48v10z"/><path fill="#445" d="M0 18h48v12H0z"/><path fill="#37C" d="M48 18H0V8c0-1 1-2 2-2h44c1 0 2 1 2 2v10z"/></symbol>
<!-- ethiopia --><symbol id="ET" viewBox="0 0 48 48"><path fill="#064" d="M48 18H0V8c0-1 1-2 2-2h44c1 0 2 1 2 2v10z"/><path fill="#FC5" d="M0 18h48v12H0z"/><path fill="#E56" d="M48 40c0 1-1 2-2 2H2c-1 0-2-1-2-2V30h48v10z"/><circle fill="#45A" cx="24" cy="24" r="10"/><path fill="#FC5" d="M28.3 24l2.3-4H26l-2-3.5-2 3.5h-4.6l2.3 4-2.3 4H22l2 3.5 2-3.5h4.6l-2.3-4zM23 26l-1-2 1-2h2l1 2-1 2h-2z"/></symbol>
<!-- falkland-islands --><symbol id="FK" viewBox="0 0 48 48"><path fill="#02247E" d="M46 6H2C1 6 0 7 0 8v32c0 1 1 2 2 2h44c1 0 2-1 2-2V8c0-1-1-2-2-2z"/><path fill="#C30F2C" d="M20 14h-5.2l3.7-3.7-2.8-2.8-3.7 3.7V6H8v5.2L4.3 7.5l-2.8 2.8L5.2 14H0v4h5.2l-3.7 3.7 2.8 2.8L8 20.8V26h4v-5.2l3.7 3.7 2.8-2.8-3.7-3.7H20"/><path fill="#1B69A9" d="M44 24H32v10l6 4 6-4"/></symbol>
<!-- faroe-islands --><symbol id="FO" viewBox="0 0 48 48"><path fill="#EEE" d="M48 40c0 1-1 2-2 2H2c-1 0-2-1-2-2V8c0-1 1-2 2-2h44c1 0 2 1 2 2v32z"/><path fill="#45A" d="M10 18H0v2h12V6h-2M0 30h10v12h2V28H0m22-10V6h-2v14h28v-2M20 30v12h2V30h26v-2H20"/><path fill="#E56" d="M48 20H20V6h-8v14H0v8h12v14h8V28h28"/></symbol>
<!-- fiji --><symbol id="FJ" viewBox="0 0 48 48"><path fill="#040385" d="M20 22H0V8c0-1 1-2 2-2h18v16z"/><path fill="#0402FB" d="M46 6H20v16H0v18c0 1 1 2 2 2h44c1 0 2-1 2-2V8c0-1-1-2-2-2z"/><path fill="#F00" d="M20 12h-4.6L19 9.3l-1-1.6-6 4.3V6H8v5.4L3 7.7 1.8 9.3 5.5 12H0v4h6.6l-4.8 3.6L3 21.2l5-3.7V22h4v-5.2l6 4.4 1-1.6-4.7-3.6H20"/><path fill="#FFF" d="M44 22H32v11c0 .6.3 1.2 1 1.6l5 3.4 5-3.4c.7-.4 1-1 1-1.7V22z"/><path fill="#F00" d="M32 26h12v4H32z"/><path fill="#F00" d="M40 36.7L38 38l-2-1.3V22h4"/></symbol>
<!-- finland --><symbol id="FI" viewBox="0 0 48 48"><path fill="#EEE" d="M48 40c0 1-1 2-2 2H2c-1 0-2-1-2-2V8c0-1 1-2 2-2h44c1 0 2 1 2 2v32z"/><path fill="#45A" d="M0 20h48v8H0zM12 6h8v36h-8z"/></symbol>
<!-- france --><symbol id="FR" viewBox="0 0 48 48"><path fill="#45A" d="M16 42H2c-1 0-2-1-2-2V8c0-1 1-2 2-2h14v36z"/><path fill="#E56" d="M48 40c0 1-1 2-2 2H32V6h14c1 0 2 1 2 2v32z"/><path fill="#EEE" d="M16 6h16v36H16z"/></symbol>
<!-- french southern terr. --><symbol id="TF" width="600" height="400"><defs><path id="a" fill="#fff" d="M0-21l12.34 38-32.3-23.5h39.93L-12.33 17z"/></defs><path fill="#002395" d="M0 0h600v400H0z"/><path fill="#fff" d="M0 0h244v164H0z"/><path fill="#002395" d="M0 0h80v160H0z"/><path fill="#ED2939" d="M160 0h80v160h-80z"/><path fill="#fff" d="M355 183l12.88 20.5h36.62V275L377 232l-37 59h18l19-34 39 70 39-70 19 34h18l-37-59-27.5 43v-39.5H444l12.25-19.5H427.5v-12.5h36.63L477 183H355zm43 87.5h-40v14h40zm76 0h-40v14h40z"/></symbol>
<!-- french-guiana --><symbol id="GF" viewBox="0 0 48 48"><path fill="#FC5" d="M0 8v32c0 1 1 2 2 2h44c.6 0 1-.3 1.5-.7L.5 6.7C.2 7 0 7.5 0 8z"/><path fill="#5C6" d="M48 8c0-1-1-2-2-2H2c-.6 0-1 .3-1.5.7l47 34.6c.3-.3.5-.8.5-1.3V8z"/><path fill="#E56" d="M30.2 22h-4.4L24 18l-1.8 4h-4.4l3.2 3.2-1.2 4.8 4.2-2.4 4.2 2.4-1.2-4.8 3.2-3.3z"/></symbol>
<!-- gabon --><symbol id="GA" viewBox="0 0 48 48"><path fill="#5C6" d="M48 18H0V8c0-1 1-2 2-2h44c1 0 2 1 2 2v10z"/><path fill="#FC5" d="M0 18h48v12H0z"/><path fill="#45A" d="M48 40c0 1-1 2-2 2H2c-1 0-2-1-2-2V30h48v10z"/></symbol>
<!-- gambia --><symbol id="GM" viewBox="0 0 48 48"><path fill="#E56" d="M48 18H0V8c0-1 1-2 2-2h44c1 0 2 1 2 2v10z"/><path fill="#064" d="M48 40c0 1-1 2-2 2H2c-1 0-2-1-2-2V28h48v12z"/><path fill="#45A" d="M0 18h48v12H0z"/><path fill="#EEE" d="M0 18h48v2H0zm0 10h48v2H0z"/></symbol>
<!-- georgia --><symbol id="GE" viewBox="0 0 48 48"><path fill="#EEE" d="M48 40c0 1-1 2-2 2H2c-1 0-2-1-2-2V8c0-1 1-2 2-2h44c1 0 2 1 2 2v32z"/><path fill="#E56" d="M48 22H26V6h-4v16H0v4h22v16h4V26h22M12 10h-2v4H6v2h4v4h2v-4h4v-2h-4m26 0v-4h-2v4h-4v2h4v4h2v-4h4v-2M12 28h-2v4H6v2h4v4h2v-4h4v-2h-4m26-4h-2v4h-4v2h4v4h2v-4h4v-2h-4"/></symbol>
<!-- germany --><symbol id="DE" viewBox="0 0 48 48"><path fill="#445" d="M48 18H0V8c0-1 1-2 2-2h44c1 0 2 1 2 2v10z"/><path fill="#E56" d="M0 18h48v12H0z"/><path fill="#FC5" d="M48 40c0 1-1 2-2 2H2c-1 0-2-1-2-2V30h48v10z"/></symbol>
<!-- ghana --><symbol id="GH" viewBox="0 0 48 48"><path fill="#E56" d="M48 18H0V8c0-1 1-2 2-2h44c1 0 2 1 2 2v10z"/><path fill="#FC5" d="M0 18h48v12H0V18z"/><path fill="#064" d="M48 40c0 1-1 2-2 2H2c-1 0-2-1-2-2V30h48v10z"/><path fill="#445" d="M24 18.3l1.5 4.3H30l-3.6 2.8 1.3 4.3L24 27l-3.7 2.7 1.3-4.3-3.6-2.8h4.5z"/></symbol>
<!-- gibraltar --><symbol id="GI" viewBox="0 0 48 48"><path fill="#EEE" d="M48 32H0V8c0-1 1-2 2-2h44c1 0 2 1 2 2v24z"/><path fill="#E56" d="M48 40c0 1-1 2-2 2H2c-1 0-2-1-2-2v-8h48v8zM34 18h2v-2h-8v2h2v6h-4V14h2v-2h-8v2h2v10h-4v-6h2v-2h-8v2h2v10h-2v2h24v-2h-2v-4"/><path fill="#455" d="M22 26h4v4h-4z"/><path fill="#FC5" d="M22 32h4v6h-4z"/></symbol>
<!-- great britian --><symbol id="GB" viewBox="0 0 48 48"><path fill="#EEE" d="M48 40c0 1-1 2-2 2H2c-1 0-2-1-2-2V8c0-1 1-2 2-2h44c1 0 2 1 2 2v32z"/><path fill="#E56" d="M48 20H28V6h-8v14H0v8h20v14h8V28h20"/></symbol>
<!-- greece --><symbol id="GR" viewBox="0 0 48 48"><path fill="#45A" d="M48 40c0 1-1 2-2 2H2c-1 0-2-1-2-2V8c0-1 1-2 2-2h44c1 0 2 1 2 2v32z"/><path fill="#EEE" d="M20 10h28v4H20zm0 8h28v4H20zm-8-4V6H8v8H0v4h8v8H0v4h48v-4H12v-8h8v-4M0 34h48v4H0z"/></symbol>
<!-- grenada-na --><symbol id="GD" viewBox="0 0 48 48"><path fill="#E56" d="M46 6H2C1 6 0 7 0 8v32c0 1 1 2 2 2h44c1 0 2-1 2-2V8c0-1-1-2-2-2zm-4 30H6V12h36v24z"/><path fill="#FC5" d="M6 12h36v24H6z"/><path fill="#064" d="M18 24c0-1.2.4-2.4 1-3.3L6 12v24l13-8.7c-.6-1-1-2-1-3.3zm12 0c0-1.2-.4-2.4-1-3.3L42 12v24l-13-8.7c.6-1 1-2 1-3.3z"/><circle fill="#E56" cx="24" cy="24" r="6"/><path fill="#FC5" d="M22 38h4v2h-4zm-8 0h4v2h-4zm16 0h4v2h-4zM22 8h4v2h-4zm-8 0h4v2h-4zm16 0h4v2h-4zm-1.8 14.5h-3L24 19.7l-1.3 2.8h-3l2.2 2.2-1 3.3 3-1.6 3 1.6-1-3.3 2.2-2.2z"/></symbol>
<!-- guam --><symbol id="GU" viewBox="0 0 820 440"><g fill="none" fill-rule="evenodd"><path fill="#C62139" d="M0 0h820v440H0z"/><path fill="#00297B" d="M20 20h780v400H20z"/><path d="M410.3 100S330 154.7 330 219.2 410.3 340 410.3 340 490 288.4 490 219.2c0-69-79.7-119.2-79.7-119.2" fill="#C62139"/><path d="M478 240.6c1.7-7 2.7-14 2.7-21.4 0-62-70.4-107.8-70.4-107.8s-71.5 47.4-71.5 107.8c0 7.3 1 14.3 2.8 21.2l136.3.2" fill="#66AFEB"/><path d="M409.7 328s55.2-36.5 68.2-87.6H341c13.2 50.2 68 87.7 68 87.7" fill="#007BDE"/><path d="M480.3 226.5c-12 8.6-80 4.4-80 4.4l-4 9H478l.8-4 1.5-10" fill="#9C8431"/><g fill="#FFF100"><path d="M406 287.4c-1-7.3-32.8-15-49.6-14.3 5.2 9 11.2 16 17.2 23 8.6-9 32.8-6 32.5-8"/><path d="M470.5 260.5c-4 .2-11.4.8-16.4 3.5-7 3.7-23 8-30 5.8-7-2-18 4.5-17 6 3 2 19-.5 19 14.3 0 13-19 7-27 13-4 3-7 7-9 9 12 11 21 18 21 18s22-14 42-38l9-12c4-5 7-11 10-17"/></g><g fill="#009270"><path d="M406 165.2s-11-6.5-26.2-3.4c-15 3-18.2 12.5-18.2 12.5l5-2.3.2 2 4.5-2.8v2l4-3.5.6 2.3 3-3v1.6l5-3.6v2.3l4-2-1 2 9-1.4s-20 6-23 22l4-5v2l2-5 1 2 2-5 .4 2 3-5v3l4-6v3l4.5-4.7v3.6s4-3 5.5-3l-4.6 7 2 .5s-3 2.4-3.4 3c-.5.4 2 0 2 0s-3 3-3 4 2 0 2 0-3 3.4-3 5c-.7 1 1 0 1 0l-2 5c0 1 2-.5 2-.5l1 7 2.3-8.2 1 2v-6l1 1v-4l1 2-.8-5 2 2-.4-4 1 2v-5l2 1.7V178l2 1s0-4.4 2-4.3c2 0 4.6 2.3 3.6 3.3l1.4-.6-.3 4.4 1.7-1v3.2l1.5-.7-.7 4.2 1.8-1v5l2-1.4v6l2-1v5l1.7-1 2 5v-7l1.5 1-2.5-5h2l-2-3h2l-2.5-3h2l-4.8-3 2.2-1-4.5-3h2l-3-3 3 1.5 1-2 4 3v-3l3.6 4.4.7-3 2 3.7 1-1 2 3.2 1-2.6 2 4v-3l2 4.4 1.8-1.4.4 4 2-2 1 4 2-1.3 2 4.3s4-23.6-32.5-24l-11-2"/><path d="M389 144.3l2 2.5-1 .8 3.6 2-.8 1.4 3.5 1.3-1.3 1 3 1.8-2 1 3.8 2-.5 2 3.2 1-1.4 2 4 3 5 3 3-1-1-6s-12-17-22-16"/><path d="M400.3 128l1.4 3.3-2 .4 4.5 4.4-3.5 1 4.3 4-2 1 3.8 4-2 2 4 4-2.8 1 4.5 4H408l2 3.8-2.5.8s3 6 3 8h5s1-14.3 0-16.3l-1.3.8.3-5-2 1v-7l-2 2.8-.6-6-2 2-2-6-2 1.6-2-4-1 2-3-3.2"/><path d="M413.4 165.7c1.4-9 10.8-22.2 28.6-22.7l-4 2 2.3 1-4.7 1.7 2.4 1.5-5.6.3 2.8 2-4 .5-3.3.6 2 2.2-5 .5 3 1.6s-8 2-8 3c0 0 25-7 31 5l-5-2v2l-4-3v2l-4-2 .4 2-3.6-2 1 2-4.8-2 .6 2-4-1 .5 2h-4v2h-12l-1.4-2"/></g><g transform="translate(406 164)" fill="#7B4800"><path d="M3.6 9.5l2.6-.2c-1.3 24.6 0 60 3.2 73 5.7 22 22.3 30.7 26.3 32.8 2.2 2 1.3 7-3 6C28 121 12.4 109 7 89-.2 61.3 3.3 13 3.6 10"/><circle cx="7.8" cy="4.1" r="2.9"/><circle cx="3.1" cy="3.1" r="2.7"/><circle cx="3.1" cy="7.9" r="2.6"/><circle cx="6.6" cy="6.6" r="2.7"/></g><path fill="#000" d="M384.6 257.2h3v-31.5h-3"/><path d="M394 263l-3 .6V261h-2v2.8c-2 .2-4.3.3-6.8.3h-7.7v-2h-2v3h-3s-.7 4 12.5 4 12-3 12-3" fill="#7B4800"/><path d="M381.6 257c10.7 0 19.7-1.6 19.7-1.6s1.4 6.8-19.7 6.8c-21 0-19.3-5.8-19.3-5.8s8.6.7 19.3.7" fill="#7B4800"/><path d="M372.6 227.5s16.6 6.2 23.2 28c0 0-15.2-3.2-24 .2H367s8.5-12 5.7-28.2" fill="#FFF"/></g></symbol>
<!-- guatemala --><symbol id="GT" viewBox="0 0 48 48"><path fill="#EEE" d="M16 6h16v36H16z"/><path fill="#3AD" d="M48 40c0 1-1 2-2 2H32V6h14c1 0 2 1 2 2v32zm-32 2H2c-1 0-2-1-2-2V8c0-1 1-2 2-2h14v36z"/><path fill="#785" d="M24 18c-3.3 0-6 2.7-6 6s2.7 6 6 6 6-2.7 6-6-2.7-6-6-6zm0 10c-2.2 0-4-1.8-4-4s1.8-4 4-4 4 1.8 4 4-1.8 4-4 4z"/></symbol>
<!-- guernsey --><symbol id="GG" viewBox="0 0 48 48"><path fill="#EEE" d="M48 40c0 1-1 2-2 2H2c-1 0-2-1-2-2V8c0-1 1-2 2-2h44c1 0 2 1 2 2v32z"/><path fill="#E56" d="M22 6h4v36h-4zM0 22h48v4H0z"/><path fill="#FC5" d="M32 22h-6v-6l2-2h-8l2 2v6h-6l-2-2v8l2-2h6v6l-2 2h8l-2-2v-6h6l2 2v-8"/></symbol>
<!-- guinea --><symbol id="GN" viewBox="0 0 48 48"><path fill="#FC5" d="M16 6h16v36H16z"/><path fill="#5C6" d="M48 40c0 1-1 2-2 2H32V6h14c1 0 2 1 2 2v32z"/><path fill="#E56" d="M16 42H2c-1 0-2-1-2-2V8c0-1 1-2 2-2h14v36z"/></symbol>
<!-- guinea-bissau --><symbol id="GW" viewBox="0 0 48 48"><path fill="#E56" d="M16 6H2C1 6 0 7 0 8v32c0 1 1 2 2 2h14V6z"/><path fill="#FC5" d="M48 24H16V6h30c1 0 2 1 2 2v16z"/><path fill="#064" d="M48 40c0 1-1 2-2 2H16V24h32v16z"/><path fill="#445" d="M12.2 22.5h-3L8 20l-1.2 2.5h-3L6 24.8 5.2 28 8 26.4l2.8 1.6-.8-3.2 2.2-2.3z"/></symbol>
<!-- guyana --><symbol id="GY" viewBox="0 0 48 48"><path fill="#EEE" d="M2 6l36 18L2 42l44-18"/><path fill="#FC5" d="M2 6l22 18L2 42l36-18"/><path fill="#455" d="M24 24L2 6l18 18L2 42"/><path fill="#E56" d="M2 6C1 6 0 7 0 8v32c0 1 1 2 2 2l18-18L2 6z"/><path fill="#5C6" d="M46 6H2l44 18L2 42h44c1 0 2-1 2-2V8c0-1-1-2-2-2z"/></symbol>
<!-- haiti-na --><symbol id="HT" viewBox="0 0 48 48"><path fill="#E56" d="M48 40c0 1-1 2-2 2H2c-1 0-2-1-2-2V24h48v16z"/><path fill="#45A" d="M48 24H0V8c0-1 1-2 2-2h44c1 0 2 1 2 2v16z"/><path fill="#EEE" d="M18 18h12v12H18z"/><path fill="#064" d="M24 24l-6 6h12"/></symbol>
<!-- honduras-ca --><symbol id="HN" viewBox="0 0 48 48"><path fill="#EEE" d="M0 18h48v12H0z"/><path fill="#3AD" d="M48 18H0V8c0-1 1-2 2-2h44c1 0 2 1 2 2v10zm0 22c0 1-1 2-2 2H2c-1 0-2-1-2-2V30h48v10zM18.3 19.4h-1.5L16 18l-.5 1.4H14l1 1-.3 1.8 1.4-1 1.6 1-.4-1.7 1-1zm0 7.8h-1.5l-.7-1.4-.5 1.4H14l1 1.2-.3 1.6 1.4-.8 1.6.8-.4-1.6 1-1.2zM34 19.4h-1.5L32 18l-.8 1.4h-1.5l1 1-.3 1.8 1.5-1 1.3 1-.4-1.7 1-1zm0 7.8h-1.5l-.6-1.4-.8 1.4h-1.5l1 1.2-.3 1.6 1.5-.8 1.3.8-.4-1.6 1-1.2zm-8-3.9h-1.4L24 22l-.6 1.3H22l1 1-.4 1.8 1.4-.7 1.4.8-.4-1.6 1-1z"/></symbol>
<!-- hungary --><symbol id="HU" viewBox="0 0 48 48"><path fill="#E56" d="M48 18H0V8c0-1 1-2 2-2h44c1 0 2 1 2 2v10z"/><path fill="#EEE" d="M0 18h48v12H0z"/><path fill="#064" d="M48 40c0 1-1 2-2 2H2c-1 0-2-1-2-2V30h48v10z"/></symbol>
<!-- iceland --><symbol id="IS" viewBox="0 0 48 48"><path fill="#45A" d="M48 40c0 1-1 2-2 2H2c-1 0-2-1-2-2V8c0-1 1-2 2-2h44c1 0 2 1 2 2v32z"/><path fill="#EEE" d="M22 18V6H10v12H0v12h10v12h12V30h26V18H22z"/><path fill="#E56" d="M12 6h8v36h-8zM0 20h48v8H0z"/></symbol>
<!-- india --><symbol id="IN" viewBox="0 0 48 48"><path fill="#E72" d="M48 18H0V8c0-1 1-2 2-2h44c1 0 2 1 2 2v10z"/><path fill="#EEE" d="M0 18h48v12H0z"/><path fill="#064" d="M48 40c0 1-1 2-2 2H2c-1 0-2-1-2-2V30h48v10z"/><path fill="#45A" d="M24 20c-2.2 0-4 1.8-4 4s1.8 4 4 4 4-1.8 4-4-1.8-4-4-4zm0 6c-1 0-2-1-2-2s1-2 2-2 2 1 2 2-1 2-2 2z"/></symbol>
<!-- indonesia --><symbol id="ID" viewBox="0 0 48 48"><path fill="#EEE" d="M48 40c0 1-1 2-2 2H2c-1 0-2-1-2-2V24h48v16z"/><path fill="#E56" d="M48 24H0V8c0-1 1-2 2-2h44c1 0 2 1 2 2v16z"/></symbol>
<!-- iran --><symbol id="IR" viewBox="0 0 48 48"><path fill="#EEE" d="M0 18h48v12H0z"/><path fill="#5C6" d="M48 18H0V8c0-1 1-2 2-2h44c1 0 2 1 2 2v10z"/><path fill="#E56" d="M48 40c0 1-1 2-2 2H2c-1 0-2-1-2-2V30h48v10zM24 20c-2.2 0-4 1.8-4 4s1.8 4 4 4 4-1.8 4-4-1.8-4-4-4zm0 6c-1 0-2-1-2-2s1-2 2-2 2 1 2 2-1 2-2 2z"/></symbol>
<!-- iraq --><symbol id="IQ" viewBox="0 0 48 48"><path fill="#455" d="M48 40c0 1-1 2-2 2H2c-1 0-2-1-2-2V30h48v10z"/><path fill="#EEE" d="M0 18h48v12H0z"/><path fill="#E56" d="M48 18H0V8c0-1 1-2 2-2h44c1 0 2 1 2 2v10z"/><path fill="#064" d="M12 22h2v6h-2zm-4 0h6v2H8zm0 4h8v2H8zm2-6h2v4h-2zm10 6v-6h-2v8h4v-2M6 22h2v2H6zm32-2h-2v6h-2v-6h-2v6h-2v-4h-2v4h-2v2h14v-2h-2m2-4h2v2h-2z"/></symbol>
<!-- ireland --><symbol id="IE" viewBox="0 0 48 48"><path fill="#EEE" d="M16 6h16v36H16z"/><path fill="#E72" d="M48 40c0 1-1 2-2 2H32V6h14c1 0 2 1 2 2v32z"/><path fill="#5C6" d="M16 42H2c-1 0-2-1-2-2V8c0-1 1-2 2-2h14v36z"/></symbol>
<!-- isle-of-man --><symbol id="IM" viewBox="0 0 48 48"><path fill="#E56" d="M48 40c0 1-1 2-2 2H2c-1 0-2-1-2-2V8c0-1 1-2 2-2h44c1 0 2 1 2 2v32z"/><path fill="#EEE" d="M31.8 25.2L30 21.7c-.5-1-1.7-1.4-2.7-1l-1.8 1-1.8-3.6c-.4-1-1.7-1.3-2.6-.8L17.6 19l-1.8-3.6c-1 .5-1.4 1.7-1 2.7l1 2c.5 1 1.7 1.3 2.7.8L22 19l1.7 3.6-1.7.8c-1 .5-1.4 1.7-1 2.7l2 3.7-3.7 1.8c.5 1 1.7 1.4 2.7 1l1.7-1c1-.5 1.4-1.7 1-2.7l-1.8-3.6 1.6-1 1.8-.8 1.8-.8L30 26c.5 1 1.7 1.5 2.7 1l1.8-1c1-.4 1.4-1.6 1-2.6l-3.7 1.8z"/></symbol>
<!-- israel --><symbol id="IL" viewBox="0 0 48 48"><path fill="#EEE" d="M0 40c0 1 1 2 2 2h44c1 0 2-1 2-2v-2H0v2zM46 6H2C1 6 0 7 0 8v2h48V8c0-1-1-2-2-2zM0 18h48v12H0z"/><path fill="#3AD" d="M0 10h48v8H0zm0 20h48v8H0zm26.7-6l1.3-2h-2.7L24 20l-1.3 2H20l1.3 2-1.3 2h2.7l1.3 2 1.3-2H28"/></symbol>
<!-- italy --><symbol id="IT" viewBox="0 0 48 48"><path fill="#5C6" d="M16 42H2c-1 0-2-1-2-2V8c0-1 1-2 2-2h14v36z"/><path fill="#E56" d="M48 40c0 1-1 2-2 2H32V6h14c1 0 2 1 2 2v32z"/><path fill="#EEE" d="M16 6h16v36H16z"/></symbol>
<!-- jamaica --><symbol id="JM" viewBox="0 0 48 48"><path fill="#455" d="M0 38V10l20 14m28 14V10L28 24"/><path fill="#FC5" d="M48 8c0-1-1-2-2-2h-2L24 20 4 6H2C1 6 0 7 0 8v2l20 14L0 38v2c0 1 1 2 2 2h2l20-14 20 14h2c1 0 2-1 2-2v-2L28 24l20-14V8z"/><path fill="#5C6" d="M24 28L4 42h40M24 20L4 6h40"/></symbol>
<!-- japan --><symbol id="JP" viewBox="0 0 48 48"><path fill="#EEE" d="M48 40c0 1-1 2-2 2H2c-1 0-2-1-2-2V8c0-1 1-2 2-2h44c1 0 2 1 2 2v32z"/><circle fill="#E56" cx="24" cy="24" r="10"/></symbol>
<!-- jersey --><symbol id="JE" viewBox="0 0 48 48"><path fill="#EEE" d="M0 8v32l22-16m4 0l22 16V8M2 42h44L24 26M46 6H2l22 16"/><path fill="#E56" d="M48 8c0-1-1-2-2-2L24 22 2 6C1 6 0 7 0 8l22 16L0 40c0 1 1 2 2 2l22-16 22 16c1 0 2-1 2-2L26 24 48 8zm-20 2h-8v5.3l4 2.7 4-2.7"/></symbol>
<!-- jordan --><symbol id="JO" viewBox="0 0 48 48"><path fill="#445" d="M48 18H14L2 6h44c1 0 2 1 2 2v10z"/><path fill="#5C6" d="M48 40c0 1-1 2-2 2H2l12-12h34v10z"/><path fill="#E56" d="M2 6C1 6 0 7 0 8v32c0 1 1 2 2 2l18-18L2 6z"/><path fill="#EEE" d="M48 30H14l6-6-6-6h34M8.4 19.5l1 2.5 2.5-.8-1.5 2.3 2.2 1.5-2.6.4.3 2.6-2-1.8-2 1.8.3-2.6L4 25l2.2-1.5L5 21.2l2.4.8"/></symbol>
<!-- kazakhstan --><symbol id="KZ" viewBox="0 0 48 48"><path fill="#3AD" d="M48 40c0 1-1 2-2 2H2c-1 0-2-1-2-2V8c0-1 1-2 2-2h44c1 0 2 1 2 2v32z"/><circle fill="#FC5" cx="24" cy="22" r="6"/><path fill="#FC5" d="M24 32c-6 0-11-5-11-11 0-.6.4-1 1-1s1 .4 1 1c0 5 4 9 9 9s9-4 9-9c0-.6.4-1 1-1s1 .4 1 1c0 6-5 11-11 11z"/></symbol>
<!-- kenya --><symbol id="KE" viewBox="0 0 48 48"><path fill="#455" d="M48 18H0V8c0-1 1-2 2-2h44c1 0 2 1 2 2v10z"/><path fill="#064" d="M48 40c0 1-1 2-2 2H2c-1 0-2-1-2-2V28h48v12z"/><path fill="#E56" d="M0 18h48v12H0z"/><path fill="#EEE" d="M0 18h48v2H0zm0 10h48v2H0zm16 5l5.2-3 1 1.8-5.2 3zm9.8-1.2l1-1.8 5.2 3-1 1.7zM16 15l1-1.7 5.2 3-1 1.7zm9.8 1.2l5.2-3 1 1.8-5.2 3z"/><path fill="#455" d="M28 16l-4-2-4 2v16l4 2 4-2"/></symbol>
<!-- kiribati --><symbol id="KI" viewBox="0 0 48 48"><path fill="#EEE" d="M0 34h48v2H0zm0-4h48v2H0zm0 8h48v2H0z"/><path fill="#45A" d="M48 40c0 1-1 2-2 2H2c-1 0-2-1-2-2h48zM0 36h48v2H0zm0-4h48v2H0z"/><path fill="#E56" d="M0 30h48V8c0-1-1-2-2-2H2C1 6 0 7 0 8v22z"/><path fill="#FC5" d="M34 30c0-5.5-4.5-10-10-10s-10 4.5-10 10h20zM18 16c-1 0-2 1-2 2h14c0-1-1-2-2-2h-4v-4h2c1 0 2-1 2-2h-6v2h-6c0 1 1 2 2 2h2v2h-2z"/></symbol>
<!-- korea --><symbol id="KR" viewBox="0 0 48 48"><path fill="#EEE" d="M48 40c0 1-1 2-2 2H2c-1 0-2-1-2-2V8c0-1 1-2 2-2h44c1 0 2 1 2 2v32z"/><path fill="#455" d="M7.2 19.4l6-8 1.6 1.2-6 8zm26-6.8l1.6-1.2 6 8-1.6 1.2zm-26 16l1.6-1.2 6 8-1.6 1.2zm26 6.8l6-8 1.6 1.2-6 8z"/><path fill="#45A" d="M34 24c0-2.8-2.2-5-5-5s-5 2.2-5 5-2.2 5-5 5c-2.4 0-4.4-1.7-5-4 .6 5 4.8 9 10 9s9.4-4 10-9v-1z"/><path fill="#E56" d="M24 14c-5.2 0-9.4 4-10 9v1c0 2.8 2.2 5 5 5s5-2.2 5-5 2.2-5 5-5c2.4 0 4.4 1.7 5 4-.6-5-4.8-9-10-9z"/></symbol>
<!-- kosovo --><symbol id="XK" viewBox="0 0 48 48"><path fill="#45A" d="M48 40c0 1-1 2-2 2H2c-1 0-2-1-2-2V8c0-1 1-2 2-2h44c1 0 2 1 2 2v32z"/><path fill="#EEE" d="M26 15.2h-1.4L24 14l-.6 1.2H22l1 1.2-.4 1.6 1.4-.8 1.4.8-.4-1.6 1-1.2zm7.2 0h-1.5L31 14l-.6 1.2H29l1 1.2-.4 1.6 1.4-.8 1.5.8-.4-1.6 1.2-1.2zm7.1 0h-1.5L38 14l-.5 1.2H36l1 1.2-.3 1.6 1.4-.8 1.6.8-.4-1.6 1-1.2zm-21.3 0h-1.4L17 14l-.7 1.2h-1.5l1 1.2-.3 1.6 1.5-.8 1.4.8-.4-1.6 1-1.2zm-6.7 0h-1.5L10 14l-.4 1H8l1 1.2-.3 1.6 1.4-.8 1.6.8-.4-1.6 1-1.2z"/><circle fill="#FC5" cx="24" cy="28" r="6"/></symbol>
<!-- kuwait --><symbol id="KW" viewBox="0 0 48 48"><path fill="#445" d="M16 18v12L2 42c-1 0-2-1-2-2V8c0-1 1-2 2-2"/><path fill="#E56" d="M48 40c0 1-1 2-2 2H2l14-12h32v10z"/><path fill="#EEE" d="M16 18h32v12H16z"/><path fill="#5C6" d="M48 18H16L2 6h44c1 0 2 1 2 2v10z"/></symbol>
<!-- kyrgyzstan --><symbol id="KG" viewBox="0 0 48 48"><path fill="#E56" d="M48 40c0 1-1 2-2 2H2c-1 0-2-1-2-2V8c0-1 1-2 2-2h44c1 0 2 1 2 2v32z"/><circle fill="#FC5" cx="24" cy="24" r="6"/><path fill="#FC5" d="M24 12c-6.6 0-12 5.4-12 12s5.4 12 12 12 12-5.4 12-12-5.4-12-12-12zm0 22c-5.5 0-10-4.5-10-10s4.5-10 10-10 10 4.5 10 10-4.5 10-10 10z"/></symbol>
<!-- laos --><symbol id="LA" viewBox="0 0 48 48"><path fill="#45A" d="M0 16h48v16H0z"/><path fill="#E56" d="M48 16H0V8c0-1 1-2 2-2h44c1 0 2 1 2 2v8zm0 24c0 1-1 2-2 2H2c-1 0-2-1-2-2v-8h48v8z"/><circle fill="#EEE" cx="24" cy="24" r="6"/></symbol>
<!-- latvia --><symbol id="LV" viewBox="0 0 48 48"><path fill="#EEE" d="M0 18h48v12H0z"/><path fill="#812" d="M48 40c0 1-1 2-2 2H2c-1 0-2-1-2-2V30h48v10zm0-22H0V8c0-1 1-2 2-2h44c1 0 2 1 2 2v10z"/></symbol>
<!-- lebanon --><symbol id="LB" viewBox="0 0 48 48"><path fill="#E56" d="M48 40c0 1-1 2-2 2H2c-1 0-2-1-2-2v-8h48v8zm0-24H0V8c0-1 1-2 2-2h44c1 0 2 1 2 2v8z"/><path fill="#EEE" d="M0 16h48v16H0z"/><path fill="#064" d="M24 18l-6 8h4v4h4v-4h4"/></symbol>
<!-- lesotho --><symbol id="LS" viewBox="0 0 48 48"><path fill="#45A" d="M48 16H0V8c0-1 1-2 2-2h44c1 0 2 1 2 2v8z"/><path fill="#EEE" d="M0 16h48v16H0z"/><path fill="#064" d="M48 40c0 1-1 2-2 2H2c-1 0-2-1-2-2v-8h48v8z"/><path fill="#445" d="M29.5 30l-3-5c1-.7 1.5-1.8 1.5-3 0-2.2-1.8-4-4-4s-4 1.8-4 4c0 1.2.6 2.3 1.4 3l-3 5h11z"/></symbol>
<!-- liberia --><symbol id="LR" viewBox="0 0 48 48"><path fill="#E56" d="M48 8c0-1-1-2-2-2H20v20H0v14c0 1 1 2 2 2h44c1 0 2-1 2-2V8z"/><path fill="#45A" d="M20 26H0V8c0-1 1-2 2-2h18v20z"/><path fill="#EEE" d="M20 10h28v4H20zm0 8h28v4H20zM0 26v4h48v-4H20M0 34h48v4H0zm14.2-19.4h-3L10 12l-1.2 2.6h-3L8 16.8 7.2 20l2.8-1.5 2.8 1.6-.8-3 2.2-2z"/></symbol>
<!-- libya --><symbol id="LY" viewBox="0 0 48 48"><path fill="#E56" d="M48 14H0V8c0-1 1-2 2-2h44c1 0 2 1 2 2v6z"/><path fill="#445" d="M0 14h48v20H0z"/><path fill="#5C6" d="M48 40c0 1-1 2-2 2H2c-1 0-2-1-2-2v-6h48v6z"/><path fill="#EEE" d="M26 30c-3.3 0-6-2.7-6-6s2.7-6 6-6c.5 0 1 0 1.5.2C26 17 24 16 22 16c-4.4 0-8 3.6-8 8s3.6 8 8 8c2 0 4-.8 5.5-2.2L26 30zm8-7.5h-3L30 20l-1.2 2.5h-3l2.2 2.3-1 3.2 2.8-1.6 2.8 1.6-.8-3.2 2.2-2.3z"/></symbol>
<!-- liechtenstein --><symbol id="LI" viewBox="0 0 48 48"><path fill="#45A" d="M48 24H0V8c0-1 1-2 2-2h44c1 0 2 1 2 2v16z"/><path fill="#E56" d="M48 40c0 1-1 2-2 2H2c-1 0-2-1-2-2V24h48v16z"/><path fill="#FC5" d="M14 12H6v5.3l4 2.7 4-2.7"/></symbol>
<!-- lithuania --><symbol id="LT" viewBox="0 0 48 48"><path fill="#FC5" d="M48 18H0V8c0-1 1-2 2-2h44c1 0 2 1 2 2v10z"/><path fill="#064" d="M0 18h48v12H0z"/><path fill="#E56" d="M48 40c0 1-1 2-2 2H2c-1 0-2-1-2-2V30h48v10z"/></symbol>
<!-- luxembourg --><symbol id="LU" viewBox="0 0 48 48"><path fill="#3AD" d="M48 40c0 1-1 2-2 2H2c-1 0-2-1-2-2V30h48v10z"/><path fill="#EEE" d="M0 18h48v12H0z"/><path fill="#E56" d="M48 18H0V8c0-1 1-2 2-2h44c1 0 2 1 2 2v10z"/></symbol>
<!-- macedonia --><symbol id="MK" viewBox="0 0 48 48"><path fill="#E56" d="M48 40c0 1-1 2-2 2H2c-1 0-2-1-2-2V8c0-1 1-2 2-2h44c1 0 2 1 2 2v32z"/><path fill="#FC5" d="M26 42l-2-16-2 16m26-20l-22 2 22 2M0 26l22-2-22-2M48 8c0-1-1-2-2-2h-2L24 22 4 6H2C1 6 0 7 0 8v2l22 14L0 38v2c0 1 1 2 2 2h2l20-16 20 16h2c1 0 2-1 2-2v-2L26 24l22-14V8zM22 6l2 16 2-16"/><circle fill="#E56" cx="24" cy="24" r="5"/><circle fill="#FC5" cx="24" cy="24" r="3"/></symbol>
<!-- madagascar --><symbol id="MG" viewBox="0 0 48 48"><path fill="#EEE" d="M16 6H2C1 6 0 7 0 8v32c0 1 1 2 2 2h14V6z"/><path fill="#E56" d="M48 24H16V6h30c1 0 2 1 2 2v16z"/><path fill="#064" d="M48 40c0 1-1 2-2 2H16V24h32v16z"/></symbol>
<!-- malawi --><symbol id="MW" viewBox="0 0 48 48"><path fill="#064" d="M48 40c0 1-1 2-2 2H2c-1 0-2-1-2-2V30h48v10z"/><path fill="#445" d="M48 18H0V8c0-1 1-2 2-2h44c1 0 2 1 2 2v10z"/><path fill="#E56" d="M0 18h48v12H0z"/><circle fill="#E56" cx="24" cy="20" r="8"/></symbol>
<!-- malaysia --><symbol id="MY" viewBox="0 0 48 48"><path fill="#EEE" d="M48 8c0-1-1-2-2-2H20v20H0v14c0 1 1 2 2 2h44c1 0 2-1 2-2V8z"/><path fill="#E56" d="M20 10h28v4H20zm0 8h28v4H20zM0 26v4h48v-4H20M0 34h48v4H0z"/><path fill="#45A" d="M20 26H0V8c0-1 1-2 2-2h18v20z"/><path fill="#FC5" d="M12 14h4v4h-4zm-5.6 2c0-2.2 1.5-4 3.6-4.6l-1.2-.2C6 11.2 4 13.4 4 16s2 4.8 4.8 4.8c.4 0 .8 0 1.2-.2-2-.5-3.6-2.4-3.6-4.6z"/></symbol>
<!-- maldives --><symbol id="MV" viewBox="0 0 48 48"><path fill="#E56" d="M48 40c0 1-1 2-2 2H2c-1 0-2-1-2-2V8c0-1 1-2 2-2h44c1 0 2 1 2 2v32z"/><path fill="#064" d="M8 14h32v20H8z"/><path fill="#EEE" d="M22 24c0-3.7 2.6-6.8 6-7.7-.6-.2-1.3-.3-2-.3-4.4 0-8 3.6-8 8s3.6 8 8 8c.7 0 1.4 0 2-.3-3.4-1-6-4-6-7.7z"/></symbol>
<!-- mali --><symbol id="ML" viewBox="0 0 48 48"><path fill="#FC5" d="M16 6h16v36H16z"/><path fill="#E56" d="M48 40c0 1-1 2-2 2H32V6h14c1 0 2 1 2 2v32z"/><path fill="#5C6" d="M16 42H2c-1 0-2-1-2-2V8c0-1 1-2 2-2h14v36z"/></symbol>
<!-- malta --><symbol id="MT" viewBox="0 0 48 48"><path fill="#E56" d="M48 40c0 1-1 2-2 2H24V6h22c1 0 2 1 2 2v32z"/><path fill="#EEE" d="M24 42H2c-1 0-2-1-2-2V8c0-1 1-2 2-2h22v36z"/><path fill="#BBB" d="M6 10h4v8H6zm-2 2h8v4H4z"/></symbol>
<!-- marocco --><symbol id="MA" viewBox="0 0 48 48"><path fill="#E56" d="M48 40c0 1-1 2-2 2H2c-1 0-2-1-2-2V8c0-1 1-2 2-2h44c1 0 2 1 2 2v32z"/><path fill="#445" d="M32.4 21h-6L24 15.7 21.5 21h-6l4.4 4.5-1.6 6.4 5.6-3.3 5.6 3.2-1.5-6.5 4.4-4.5zm-5.8 7L24 26.3 21.4 28l.7-3-1.6-2h2.4l1.2-2.5 1.2 2.5h2.4l-1.8 2 .8 3z"/></symbol>
<!-- marshall-islands --><symbol id="MH" viewBox="0 0 48 48"><path fill="#45A" d="M48 40c0 1-1 2-2 2H2c-1 0-2-1-2-2l48-10v10zM0 40L42 6H2C1 6 0 7 0 8v32z"/><path fill="#E72" d="M48 8c0-1-1-2-2-2h-4L0 40l48-22V8z"/><path fill="#EEE" d="M0 40l48-10V18m-34.8-4.7l-1 2.2 3.8.8-3.8.8 1 2.3-2-1-1 3.7-.8-3.7-2.2 1 1-2.2-4.2-.7 4.3-.8-1-2.2 2 1 1-4.3.8 4.3"/></symbol>
<!-- mauritania --><symbol id="MR" viewBox="0 0 48 48"><path fill="#064" d="M48 40c0 1-1 2-2 2H2c-1 0-2-1-2-2V8c0-1 1-2 2-2h44c1 0 2 1 2 2v32z"/><path fill="#FC5" d="M31.6 17.5c.2.8.4 1.6.4 2.5 0 4.4-3.6 8-8 8s-8-3.6-8-8c0-1 .2-1.7.4-2.5-1.5 1.8-2.4 4-2.4 6.5 0 5.5 4.5 10 10 10s10-4.5 10-10c0-2.5-1-4.7-2.4-6.5zm-3.4-1h-3L24 14l-1.2 2.5h-3l2.2 2.3-.8 3.2 2.8-1.6 2.8 1.6-.8-3.2 2.2-2.3z"/></symbol>
<!-- mauritius --><symbol id="MU" viewBox="0 0 48 48"><path fill="#5C6" d="M48 40c0 1-1 2-2 2H2c-1 0-2-1-2-2v-6h48v6z"/><path fill="#FC5" d="M0 24h48v10H0z"/><path fill="#45A" d="M0 14h48v10H0z"/><path fill="#E56" d="M48 14H0V8c0-1 1-2 2-2h44c1 0 2 1 2 2v6z"/></symbol>
<!-- mayotte --> <symbol id="YT" viewBox="0 0 48 48"><path fill="#45A" d="M16 42H2c-1 0-2-1-2-2V8c0-1 1-2 2-2h14v36z"/><path fill="#E56" d="M48 40c0 1-1 2-2 2H32V6h14c1 0 2 1 2 2v32z"/><path fill="#EEE" d="M16 6h16v36H16z"/></symbol>
<!-- mexico --><symbol id="MX" viewBox="0 0 48 48"><path fill="#EEE" d="M16 6.5h16v36H16v-36z"/><path fill="#E56" d="M48 40.5a2.2 2.2 0 0 1-2 2H32v-36h14a2.2 2.2 0 0 1 2 2v32z"/><path fill="#064" d="M16 42.5H2a2.2 2.2 0 0 1-2-2v-32a2.2 2.2 0 0 1 2-2h14v36z"/><circle fill="#FC5" cx="24" cy="23.5" r="8"/><path fill="#EEE" d="M19 22.9l2.1-3.2a1.7 1.7 0 0 1 1.3-.7h5L29 29h-7.7l1-6.1H19z"/></symbol>
<!-- micronesia --><symbol id="FM" viewBox="0 0 48 48"><path fill="#3AD" d="M48 40c0 1-1 2-2 2H2c-1 0-2-1-2-2V8c0-1 1-2 2-2h44c1 0 2 1 2 2v32z"/><path fill="#FC5" d="M28.2 14.5h-3L24 12l-1.2 2.5h-3l2.2 2.3-.8 3.2 2.8-1.6 2.8 1.6-.8-3.2 2.2-2.3zm0 16h-3L24 28l-1.2 2.5h-3l2.2 2.3-.8 3.2 2.8-1.6 2.8 1.6-.8-3.2 2.2-2.3zm-9.8-7.8h-3L14.2 20 13 22.7h-3l2.2 2.2-.8 3 2.8-1.5L17 28l-.8-3 2.2-2.3zm20 0h-3L34.2 20 33 22.7h-3l2.2 2.2-.8 3 2.8-1.5L37 28l-.8-3 2.2-2.3z"/></symbol>
<!-- moldova --><symbol id="MD" viewBox="0 0 48 48"><path fill="#FC5" d="M16 6h16v36H16z"/><path fill="#E56" d="M48 40c0 1-1 2-2 2H32V6h14c1 0 2 1 2 2v32z"/><path fill="#45A" d="M16 42H2c-1 0-2-1-2-2V8c0-1 1-2 2-2h14v36z"/><path fill="#651" d="M30 20h-4v-2c0-1-1-2-2-2h-2c-1 0-2 1-2 2h2v2h-4v7c0 .6.3 1.2 1 1.6l5 3.4 5-3.4c.7-.4 1-1 1-1.7v-7z"/></symbol>
<!-- monaco --><symbol id="MC" viewBox="0 0 48 48"><path fill="#E56" d="M48 24H0V8c0-1 1-2 2-2h44c1 0 2 1 2 2v16z"/><path fill="#EEE" d="M48 40c0 1-1 2-2 2H2c-1 0-2-1-2-2V24h48v16z"/></symbol>
<!-- mongolia --><symbol id="MN" viewBox="0 0 48 48"><path fill="#E56" d="M48 40c0 1-1 2-2 2H32V6h14c1 0 2 1 2 2v32zm-32 2H2c-1 0-2-1-2-2V8c0-1 1-2 2-2h14v36z"/><path fill="#45A" d="M16 6h16v36H16z"/><path fill="#FC5" d="M10 18v2H6v-2H4v12h2v-2h4v2h2V18h-2zm0 8H6v-4h4v4zm-2-8c1 0 2-1 2-2s-2-4-2-4-2 3-2 4 1 2 2 2z"/></symbol>
<!-- montenegro --><symbol id="ME" viewBox="0 0 48 48"><path fill="#E56" d="M4 10h40v28H4z"/><path fill="#FC5" d="M46 6H2C1 6 0 7 0 8v32c0 1 1 2 2 2h44c1 0 2-1 2-2V8c0-1-1-2-2-2zm-2 32H4V10h40v28zM24 16c0-1-1-2-2-2h-4c-1 0-2 1-2 2h8zm8 4v4h-4v-8h4c0-1-1-2-2-2h-4c-1 0-2 1-2 2 0-1-1-2-2-2h-2v10h-4v-4c-1 0-2 1-2 2v4c0 1 1 2 2 2h4l-1 4 3.5-2.6L24 34l1.5-4.6L29 32l-1-4h4c1 0 2-1 2-2v-4c0-1-1-2-2-2zm-8 14l-2-6"/></symbol>
<!-- mozanbique --><symbol id="MZ" viewBox="0 0 48 48"><path fill="#FC5" d="M48 40c0 1-1 2-2 2H2c-1 0-2-1-2-2V30h48v10z"/><path fill="#445" d="M0 18h48v12H0z"/><path fill="#064" d="M48 18H0V8c0-1 1-2 2-2h44c1 0 2 1 2 2v10z"/><path fill="#EEE" d="M0 28h48v2H0zm0-10h48v2H0z"/><path fill="#E56" d="M2 6C1 6 0 7 0 8v32c0 1 1 2 2 2l20-18L2 6z"/><path fill="#FC5" d="M14.4 22.5h-3L10.2 20 9 22.4H6l2.2 2.3-.8 3.2 2.8-1.7L13 28l-.8-3.2 2.2-2.3z"/></symbol>
<!-- namibia --><symbol id="NA" viewBox="0 0 48 48"><path fill="#EEE" d="M48 18L12 42H4.8L48 13.2M36 6h7.2L0 34.8V30"/><path fill="#45A" d="M2 6h34L0 30V8c0-1 1-2 2-2z"/><path fill="#5C6" d="M46 42H12l36-24v22c0 1-1 2-2 2z"/><path fill="#E56" d="M4.8 42H2c-1 0-2-1-2-2v-5.2L43.2 6H46c1 0 2 1 2 2v5.2L4.8 42z"/><circle fill="#FC5" cx="8" cy="14" r="4"/></symbol>
<!-- nauru --><symbol id="NR" viewBox="0 0 48 48"><path fill="#45A" d="M48 22H0V8c0-1 1-2 2-2h44c1 0 2 1 2 2v14zm0 18c0 1-1 2-2 2H2c-1 0-2-1-2-2V26h48v14z"/><path fill="#FC5" d="M0 22h48v4H0zm8 7l1 2.5 2.2-1-1 2.2 2.3.8-2.4 1 1.2 2.2-2.3-1L8 38l-1-2.4-2.2 1 1-2.2-2.3-1 2.4-.7-1.2-2.3 2.3 1"/></symbol>
<!-- nepal --><symbol id="NP" viewBox="0 0 48 48"><path fill="#EEE" d="M48 40c0 1-1 2-2 2H2c-1 0-2-1-2-2V8c0-1 1-2 2-2h44c1 0 2 1 2 2v32z"/><path fill="#E56" d="M12 22h16L8 6H2C1 6 0 7 0 8v32c0 1 1 2 2 2h28L12 22z"/><path fill="#EEE" d="M12.6 30l-1.2 2.4 2.6.6-2.5 1 1.7 2-2.6-.7V38L9 35.8l-1.8 2 .3-2.7-2.6.4 1.8-1.8L4.6 32h2.7l-.8-2.5 2 1.6 1-2.4.7 2.6"/><circle fill="#EEE" cx="9" cy="15" r="2"/><path fill="#EEE" d="M9 20c-2.8 0-5-2.2-5-5h2c0 1.7 1.3 3 3 3s3-1.3 3-3h2c0 2.8-2.2 5-5 5z"/></symbol>
<!-- netherlands --><symbol id="NL" viewBox="0 0 48 48"><path fill="#45A" d="M48 40c0 1-1 2-2 2H2c-1 0-2-1-2-2V30h48v10z"/><path fill="#EEE" d="M0 18h48v12H0z"/><path fill="#E56" d="M48 18H0V8c0-1 1-2 2-2h44c1 0 2 1 2 2v10z"/></symbol>
<!-- new-zealand --><symbol id="NZ" viewBox="0 0 48 48"><path fill="#EEE" d="M20 22H0V8c0-1 1-2 2-2h18v16z"/><path fill="#45A" d="M46 6H20v16H0v18c0 1 1 2 2 2h44c1 0 2-1 2-2V8c0-1-1-2-2-2z"/><path fill="#F00" d="M20 12h-4.6L19 9.3l-1-1.6-6 4.3V6H8v5.4L3 7.7 1.8 9.3 5.5 12H0v4h6.6l-4.8 3.6L3 21.2l5-3.7V22h4v-5.2l6 4.4 1-1.6-4.7-3.6H20m16.5 1h-2l-1-2-1 2h-2l1.6 1.5-.5 2.3 2-1 2 1-.5-2.3 1.5-1.6zm0 17h-2l-1-2-1 2h-2l1.6 1.5-.5 2.3 2-1 2 1-.5-2.3 1.5-1.6zm5.5-9h-2l-1-2-1 2h-2l1.5 1.4-.5 2.4 2-1.2 2 1-.6-2.2L42 25zm-11 0h-2l-1-2-1 2h-2l1.6 1.4-.6 2.4 2-1.2 2 1-.5-2.2L31 25z"/></symbol>
<!-- nicaragua --><symbol id="NI" viewBox="0 0 48 48"><path fill="#3AD" d="M48 18H0V8c0-1 1-2 2-2h44c1 0 2 1 2 2v10zm0 22c0 1-1 2-2 2H2c-1 0-2-1-2-2V30h48v10z"/><path fill="#EEE" d="M0 18h48v12H0z"/><path fill="#445" d="M24 20l2.3 4 2.4 4h-9.4l2.4-4"/></symbol>
<!-- niger --><symbol id="NE" viewBox="0 0 48 48"><path fill="#5C6" d="M48 40c0 1-1 2-2 2H2c-1 0-2-1-2-2V30h48v10z"/><path fill="#EEE" d="M0 18h48v12H0z"/><path fill="#E72" d="M48 18H0V8c0-1 1-2 2-2h44c1 0 2 1 2 2v10z"/><circle fill="#E72" cx="24" cy="24" r="4"/></symbol>
<!-- nigeria --><symbol id="NG" viewBox="0 0 48 48"><path fill="#EEE" d="M16 6h16v36H16z"/><path fill="#064" d="M48 40c0 1-1 2-2 2H32V6h14c1 0 2 1 2 2v32zm-32 2H2c-1 0-2-1-2-2V8c0-1 1-2 2-2h14v36z"/></symbol>
<!-- niue --><symbol id="NU" viewBox="0 0 120 60"><clipPath id="a"><path d="M0 0v15h70v15H60zm0 30v10h30V0h30z"/></clipPath><path fill="#002868" d="M0 0h120v60H0z"/><g stroke="#cf142b" stroke-width="6"><path d="M0 0l60 30m0-30L0 30" stroke="#fff"/><path d="M0 0l60 30m0-30L0 30" clip-path="url(#a)" stroke-width="4"/><path d="M30 0v40M0 15h70" stroke="#fff" stroke-width="10"/><path d="M30 0v40M0 15h70"/></g><path d="M60 0h60v60H0V30h60z" fill="#fcd116"/><g transform="translate(30 15)"><g transform="scale(5.104)"><circle r="1" fill="#002868"/><path id="b" d="M0-1L.6.8-1-.2h2L-.6.8" fill="#fcd116"/></g></g></symbol>
<!-- north-korea --><symbol id="KP" viewBox="0 0 48 48"><path fill="#45A" d="M48 14H0V8c0-1 1-2 2-2h44c1 0 2 1 2 2v6zm0 26c0 1-1 2-2 2H2c-1 0-2-1-2-2v-6h48v6z"/><path fill="#E56" d="M0 16h48v16H0z"/><path fill="#EEE" d="M0 14h48v2H0zm0 18h48v2H0z"/><circle fill="#EEE" cx="14" cy="24" r="6"/><path fill="#E56" d="M18.2 22.6h-3L14 20l-1.2 2.6h-3l2.2 2.2-.8 3.3 2.8-1.3 2.8 1.6L16 25l2.2-2.2z"/></symbol>
<!-- norway --><symbol id="NO" viewBox="0 0 48 48"><path fill="#E56" d="M48 40c0 1-1 2-2 2H2c-1 0-2-1-2-2V8c0-1 1-2 2-2h44c1 0 2 1 2 2v32z"/><path fill="#EEE" d="M10 18H0v2h12V6h-2M0 30h10v12h2V28H0m22-10V6h-2v14h28v-2M20 30v12h2V30h26v-2H20"/><path fill="#45A" d="M48 20H20V6h-8v14H0v8h12v14h8V28h28"/></symbol>
<!-- oman --><symbol id="OM" viewBox="0 0 48 48"><path fill="#064" d="M48 40c0 1-1 2-2 2H14V30h34v10z"/><path fill="#EEE" d="M48 18H14V6h32c1 0 2 1 2 2v10z"/><path fill="#E56" d="M14 18V6H2C1 6 0 7 0 8v32c0 1 1 2 2 2h12V30h34V18H14z"/><path fill="#EEE" d="M10 12l-1.4-1.4L7 12l-1.7-1.4L4 12l1.4 1.3L4 14.5 5.3 16 7 14.6 8.5 16l1.3-1.5-1.5-1.2"/></symbol>
<!-- pakistan --><symbol id="PK" viewBox="0 0 48 48"><path fill="#064" d="M48 40c0 1-1 2-2 2H16V6h30c1 0 2 1 2 2v32z"/><path fill="#EEE" d="M42 22.7h-3L38 20l-1.2 2.7h-3L36 25l-.8 3 2.8-1.6 2.8 1.6-.8-3 2.2-2.3zM34 30c-3.3 0-6-2.7-6-6s2.7-6 6-6c.5 0 1 0 1.5.2C34 17 32 16 30 16c-4.4 0-8 3.6-8 8s3.6 8 8 8c2 0 4-.8 5.5-2.2L34 30zM16 6H2C1 6 0 7 0 8v32c0 1 1 2 2 2h14V6z"/></symbol>
<!-- palau --><symbol id="PW" viewBox="0 0 48 48"><path fill="#3AD" d="M48 40c0 1-1 2-2 2H2c-1 0-2-1-2-2V8c0-1 1-2 2-2h44c1 0 2 1 2 2v32z"/><circle fill="#FC5" cx="18" cy="24" r="8"/></symbol>
<!-- palestine --><symbol id="PS" viewBox="0 0 48 48"><path fill="#445" d="M48 18H14L2 6h44c1 0 2 1 2 2v10z"/><path fill="#EEE" d="M48 30H14l6-6-6-6h34"/><path fill="#064" d="M48 40c0 1-1 2-2 2H2l12-12h34v10z"/><path fill="#E56" d="M2 6C1 6 0 7 0 8v32c0 1 1 2 2 2l18-18L2 6z"/></symbol>
<!-- panama-ca --><symbol id="PA" viewBox="0 0 48 48"><path fill="#EEE" d="M24 24H0V8c0-1 1-2 2-2h22v18z"/><path fill="#45A" d="M16.2 13.6h-3L12 11l-1.2 2.6h-3l2.2 2.2-.8 3.3 2.8-1.5 2.8 1.6L14 16l2.2-2.2zM0 40c0 1 1 2 2 2h22V24H0v16z"/><path fill="#EEE" d="M48 40c0 1-1 2-2 2H24V24h24v16z"/><path fill="#E56" d="M40.2 31.6h-3L36 29l-1.2 2.6h-3l2.2 2.2-.8 3.3 2.8-1.5 2.8 1.6L38 34l2.2-2.2zM24 24h24V8c0-1-1-2-2-2H24v18z"/></symbol>
<!-- papua-new-guinea --><symbol id="PG" viewBox="0 0 48 48"><path fill="#E56" d="M48 8c0-1-1-2-2-2H2l46 32V8z"/><path fill="#455" d="M2 6C1 6 0 7 0 8v32c0 1 1 2 2 2h44c1 0 2-1 2-2v-2L2 6z"/><path fill="#EEE" d="M18.4 28.8l.6-2.3-2 1-2-1 .5 2.3-1.6 1.6h2l1 2 .8-2h2l-1.4-1.6zM11 24l.3-1.5-1.3.8-1.4-.8L9 24l-1 1h1.4l.6 1.3.5-1.2H12l-1-1zm6-2l.3-1.5-1.3.8-1.4-.8.4 1.5-1 1h1.4l.6 1.3.5-1.2H18l-1-1zM7 28.2l.3-1.5-1.3.7-1.4-.7.4 1.5-1 1h1.4l.6 1.3.5-1.3H8l-1-1zm7.4 7.8h-2l-1 2-.8-2h-2l1.4-1.5-.6-2.3 2 1 2-1-.5 2.3"/><path fill="#FC5" d="M40 14h-4v-4h-4c-1 0-2 1-2 2v2h-4c-1 0-2 1-2 2h6v2c0 1 1 2 2 2h4v-4h4v2c1 0 2-1 2-2s-1-2-2-2z"/></symbol>
<!-- paraguay --><symbol id="PY" viewBox="0 0 48 48"><path fill="#E56" d="M48 18H0V8c0-1 1-2 2-2h44c1 0 2 1 2 2v10z"/><path fill="#EEE" d="M0 18h48v12H0z"/><path fill="#45A" d="M48 40c0 1-1 2-2 2H2c-1 0-2-1-2-2V30h48v10z"/><path fill="#455" d="M24 20c-2.2 0-4 1.8-4 4s1.8 4 4 4 4-1.8 4-4-1.8-4-4-4zm0 6c-1 0-2-1-2-2s1-2 2-2 2 1 2 2-1 2-2 2z"/></symbol>
<!-- peru --><symbol id="PE" viewBox="0 0 48 48"><path fill="#EEE" d="M16 6h16v36H16z"/><path fill="#E56" d="M48 40c0 1-1 2-2 2H32V6h14c1 0 2 1 2 2v32zm-32 2H2c-1 0-2-1-2-2V8c0-1 1-2 2-2h14v36z"/></symbol>
<!-- philippines --><symbol id="PH" viewBox="0 0 48 48"><path fill="#45A" d="M48 24H20L2 6h44c1 0 2 1 2 2v16z"/><path fill="#E56" d="M48 40c0 1-1 2-2 2H2l18-18h28v16z"/><path fill="#EEE" d="M2 6C1 6 0 7 0 8v32c0 1 1 2 2 2l18-18L2 6z"/><path fill="#FC5" d="M9 20c-2.2 0-4 1.8-4 4s1.8 4 4 4 4-1.8 4-4-1.8-4-4-4z"/></symbol>
<!-- poland --><symbol id="PL" viewBox="0 0 48 48"><path fill="#E56" d="M48 40c0 1-1 2-2 2H2c-1 0-2-1-2-2V24h48v16z"/><path fill="#EEE" d="M48 24H0V8c0-1 1-2 2-2h44c1 0 2 1 2 2v16z"/></symbol>
<!-- portugal --><symbol id="PT" viewBox="0 0 48 48"><path fill="#064" d="M18 42H2c-1 0-2-1-2-2V8c0-1 1-2 2-2h16v36z"/><path fill="#E56" d="M48 40c0 1-1 2-2 2H18V6h28c1 0 2 1 2 2v32z"/><circle fill="#FC5" cx="18" cy="22" r="6"/></symbol>
<!-- qatar --><symbol id="QA" viewBox="0 0 48 48"><path fill="#812" d="M48 40c0 1-1 2-2 2H16V6h30c1 0 2 1 2 2v32z"/><path fill="#EEE" d="M16 16l6-4-6-4V6H2C1 6 0 7 0 8v32c0 1 1 2 2 2h14v-2l6-4-6-4 6-4-6-4 6-4-6-4z"/></symbol>
<!-- republic-of-the-congo --><symbol id="CG" viewBox="0 0 48 48"><path fill="#5C6" d="M2 6h38L0 32V8c0-1 1-2 2-2z"/><path fill="#E56" d="M46 42H12l36-24v22c0 1-1 2-2 2z"/><path fill="#FC5" d="M12 42H2c-1 0-2-1-2-2v-8L40 6h6c1 0 2 1 2 2v10L12 42z"/></symbol>
<!-- romania --><symbol id="RO" viewBox="0 0 48 48"><path fill="#FC5" d="M16 6h16v36H16z"/><path fill="#E56" d="M48 40c0 1-1 2-2 2H32V6h14c1 0 2 1 2 2v32z"/><path fill="#45A" d="M16 42H2c-1 0-2-1-2-2V8c0-1 1-2 2-2h14v36z"/></symbol>
<!-- russia --><symbol id="RU" viewBox="0 0 48 48"><path fill="#E56" d="M48 40c0 1-1 2-2 2H2c-1 0-2-1-2-2V30h48v10z"/><path fill="#45A" d="M0 18h48v12H0z"/><path fill="#EEE" d="M48 18H0V8c0-1 1-2 2-2h44c1 0 2 1 2 2v10z"/></symbol>
<!-- rwanda --><symbol id="RW" viewBox="0 0 48 48"><path fill="#064" d="M48 40c0 1-1 2-2 2H2c-1 0-2-1-2-2v-8h48v8z"/><path fill="#FC5" d="M0 22h48v10H0z"/><path fill="#3AD" d="M48 22H0V8c0-1 1-2 2-2h44c1 0 2 1 2 2v14z"/><circle fill="#FC5" cx="36" cy="16" r="4"/></symbol>
<!-- saint-kitts-nevis --><symbol id="KN" viewBox="0 0 48 48"><path fill="#5C6" d="M2 6h28L0 26V8c0-1 1-2 2-2z"/><path fill="#E56" d="M46 42H18l30-20v18c0 1-1 2-2 2z"/><path fill="#455" d="M37.2 6H46c1 0 2 1 2 2v9.2L10.8 42H2c-1 0-2-1-2-2v-9.2L37.2 6z"/><path fill="#FC5" d="M48 22L18 42h-7.2L48 17.2M30 6h7.2L0 30.8V26"/><path fill="#EEE" d="M12.4 32.7h-3L8.2 30 7 32.7H4L6.2 35l-.8 3 2.8-1.5L11 38l-.8-3 2.2-2.3zM44 12.5h-3L40 10l-1.2 2.5h-3l2.2 2.3-1 3.2 2.8-1.6 2.8 1.6-.8-3.2 2.2-2.3z"/></symbol>
<!-- saint-lucia-na --><symbol id="LC" viewBox="0 0 48 48"><path fill="#3AD" d="M48 40c0 1-1 2-2 2H2c-1 0-2-1-2-2V8c0-1 1-2 2-2h44c1 0 2 1 2 2v32z"/><path fill="#EEE" d="M32 34l-8-20-8 20 8-16"/><path fill="#455" d="M32 34l-8-16-8 16 8-12"/><path fill="#FF0" d="M24 22l-8 12h16"/></symbol>
<!-- saint-vincent-grenadines --><symbol id="VC" viewBox="0 0 48 48"><path fill="#FC5" d="M14 6h20v36H14z"/><path fill="#5C6" d="M48 40c0 1-1 2-2 2H34V6h12c1 0 2 1 2 2v32zM20.6 26.7l3.4-3.3 3.3 3.3L24 30zm4-4l3.4-3.3 3.3 3.3L28 26zm-8 0l3.4-3.3 3.3 3.3L20 26z"/><path fill="#3AD" d="M14 42H2c-1 0-2-1-2-2V8c0-1 1-2 2-2h12v36z"/></symbol>
<!-- samoa --><symbol id="WS" viewBox="0 0 48 48"><path fill="#45A" d="M20 22H0V8c0-1 1-2 2-2h18v16z"/><path fill="#E56" d="M46 6H20v16H0v18c0 1 1 2 2 2h44c1 0 2-1 2-2V8c0-1-1-2-2-2z"/><path fill="#EEE" d="M17.7 10.2h-2.3l-1-2-1 2h-2.2L13 12l-.7 2.4 2-1.2 2.3 1.2L16 12l1.7-1.8zM8 11.5H6.3L5.6 10 5 11.5H3l1.2 1.3-.4 2 1.6-1 1.6 1-.4-2L8 11.5zm8 5.5h-1.7l-.7-1.5L13 17h-1.7l1.2 1.3L12 20l1.6-.8 1.6 1-.4-2L16 17zm-6 .7H8.8l-.5-1-.6 1H6.5l1 1L7 20l1.3-.7 1 .7-.2-1.4 1-1z"/></symbol>
<!-- san-marino --><symbol id="SM" viewBox="0 0 48 48"><path fill="#EEE" d="M48 24H0V8c0-1 1-2 2-2h44c1 0 2 1 2 2v16z"/><path fill="#3AD" d="M48 40c0 1-1 2-2 2H2c-1 0-2-1-2-2V24h48v16z"/><path fill="#FC5" d="M28 20h-2v-2h2v-2h-8v2h2v2h-2c-1 0-2 1-2 2v6l6 4 6-4v-6c0-1-1-2-2-2z"/><path fill="#064" d="M14 20h2v8h-2zm18 0h2v8h-2z"/></symbol>
<!-- sao-tome-and-principe --><symbol id="ST" viewBox="0 0 48 48"><path fill="#5C6" d="M48 16H12L2 6h44c1 0 2 1 2 2v8zm0 24c0 1-1 2-2 2H2l10-10h36v8z"/><path fill="#FC5" d="M48 32H12l8-8-8-8h36"/><path fill="#E56" d="M2 6C1 6 0 7 0 8v32c0 1 1 2 2 2l18-18L2 6z"/><path fill="#445" d="M30.4 22.5h-3L26.2 20 25 22.4h-3l2.2 2.3-.8 3.2 2.8-1.8L29 28l-.8-3.2 2.2-2.3zm12 0h-3L38.2 20 37 22.4h-3l2.2 2.3-.8 3.2 2.8-1.8L41 28l-.8-3.2 2.2-2.3z"/></symbol>
<!-- saudi-arabia --><symbol id="SA" viewBox="0 0 48 48"><path fill="#064" d="M48 40c0 1-1 2-2 2H2c-1 0-2-1-2-2V8c0-1 1-2 2-2h44c1 0 2 1 2 2v32z"/><path fill="#EEE" d="M38 14v2h-6v2h6v2h-6v2h6v2h-6v2h6v2h-8v-8h-2v2h-2v2h2v4h-4V18h-2v10h-2V18h-2v10h-2v-6h-6v-2h6v-2h-6v-4H8v16h32V14h-2zM10 28v-4h4v4h-4zm2-14h2v2h-2zm6 0h6v2h-6zm8 2h4v2h-4zM8 34h32v2H8z"/></symbol>
<!-- senegal --><symbol id="SN" viewBox="0 0 48 48"><path fill="#FC5" d="M16 6h16v36H16z"/><path fill="#E56" d="M48 40c0 1-1 2-2 2H32V6h14c1 0 2 1 2 2v32z"/><path fill="#5C6" d="M16 42H2c-1 0-2-1-2-2V8c0-1 1-2 2-2h14v36zm14.3-20.3H26l-2-4-2 4h-4.3L21 25l-1.3 5 4.3-2.5 4.3 2.4-1.2-5 3.4-3.4z"/></symbol>
<!-- serbia --><symbol id="RS" viewBox="0 0 48 48"><path fill="#E56" d="M48 18H0V8c0-1 1-2 2-2h44c1 0 2 1 2 2v10z"/><path fill="#45A" d="M0 18h48v12H0z"/><path fill="#EEE" d="M48 40c0 1-1 2-2 2H2c-1 0-2-1-2-2V30h48v10z"/><path fill="#E56" d="M18 18H6v12l6 4 6-4"/><path fill="#EEE" d="M8 20h8v6H8zm4 12l4-4H8"/><path fill="#FC5" d="M8 14v2h2v2h4v-2h2v-2"/></symbol>
<!-- seychelles --><symbol id="SC" viewBox="0 0 48 48"><path fill="#064" d="M48 40c0 1-1 2-2 2H2c-1 0-2-1-2-2l48-10v10z"/><path fill="#EEE" d="M0 40l48-10V20"/><path fill="#FC5" d="M0 40L42 6H22"/><path fill="#45A" d="M0 40L22 6H2C1 6 0 7 0 8v32z"/><path fill="#E56" d="M48 8c0-1-1-2-2-2h-4L0 40l48-20V8z"/></symbol>
<!-- sierra-leone --><symbol id="SL" viewBox="0 0 48 48"><path fill="#3AD" d="M48 40c0 1-1 2-2 2H2c-1 0-2-1-2-2V30h48v10z"/><path fill="#EEE" d="M0 18h48v12H0z"/><path fill="#5C6" d="M48 18H0V8c0-1 1-2 2-2h44c1 0 2 1 2 2v10z"/></symbol>
<!-- singapore --><symbol id="SG" viewBox="0 0 48 48"><path fill="#E56" d="M48 24H0V8c0-1 1-2 2-2h44c1 0 2 1 2 2v16z"/><path fill="#EEE" d="M48 40c0 1-1 2-2 2H2c-1 0-2-1-2-2V24h48v16zM8 16c0-2.6 1.7-4.8 4-5.6-.6-.3-1.3-.4-2-.4-3.3 0-6 2.7-6 6s2.7 6 6 6c.7 0 1.4 0 2-.4-2.3-.8-4-3-4-5.6z"/><circle fill="#EEE" cx="19" cy="11" r="1"/><circle fill="#EEE" cx="19" cy="19" r="1"/><ellipse fill="#EEE" cx="15" cy="17" rx="1" ry="1"/><ellipse fill="#EEE" cx="23" cy="13" rx="1" ry="1"/><ellipse fill="#EEE" cx="23" cy="17" rx="1" ry="1"/><ellipse fill="#EEE" cx="15" cy="13" rx="1" ry="1"/></symbol>
<!-- sint martin --><symbol id="SX" viewBox="0 0 676 452"><g fill="none" fill-rule="evenodd"><path fill="#DC171D" d="M1 1l298.6 225.2H676V1"/><path stroke="#FFF" fill="#FFF" d="M1 1l299 225.7L1 451z"/><path fill="#012A87" d="M1 451l298.6-224.8H676V451"/></g></symbol>
<!-- slovakia --><symbol id="SK" viewBox="0 0 48 48"><path fill="#E56" d="M48 40c0 1-1 2-2 2H2c-1 0-2-1-2-2V30h48v10z"/><path fill="#45A" d="M0 18h48v12H0z"/><path fill="#EEE" d="M48 18H0V8c0-1 1-2 2-2h44c1 0 2 1 2 2v10z"/><path fill="#E56" d="M18 14H6v11c0 .6.3 1.2 1 1.6l5 3.4 5-3.4c.7-.4 1-1 1-1.7V14z"/><path fill="#EEE" d="M8 16h8v2H8zm2 4h4v2h-4zm0 4h4v2h-4z"/></symbol>
<!-- slovenia --><symbol id="SI" viewBox="0 0 48 48"><path fill="#E56" d="M48 40c0 1-1 2-2 2H2c-1 0-2-1-2-2V30h48v10z"/><path fill="#45A" d="M0 18h48v12H0z"/><path fill="#EEE" d="M48 18H0V8c0-1 1-2 2-2h44c1 0 2 1 2 2v10z"/><path fill="#45A" d="M18 14H6v10l6 4 6-4"/><path fill="#EEE" d="M16 18H8v4h8v-4z"/></symbol>
<!-- solomon-islands --><symbol id="SB" viewBox="0 0 48 48"><path fill="#FC5" d="M4 42H2c-1 0-2-1-2-2v-4L44 6h2c1 0 2 1 2 2v4L4 42z"/><path fill="#064" d="M46 42H4l44-30v28c0 1-1 2-2 2z"/><path fill="#45A" d="M2 6h42L0 36V8c0-1 1-2 2-2z"/><path fill="#EEE" d="M14.5 10.4h-2l-1-2-1 2h-2L10 12l-.5 2.3 2-1 2 1L13 12m-5 5.3H6.6L6 16l-.5 1.3H4l1 1-.3 1.5L6 19l1.4.8-.4-1.5 1-1zm4 4.1h-1.4l-.6-1.2-.5 1.2H8l1 1-.3 1.6 1.3-.8 1.4.8-.4-1.5 1-1zm8-5.4h-2l-1-1.8-1 2h-2l1.6 1.5L15 20l2-1 2 1-.5-2.3L20 16z"/></symbol>
<!-- somalia --><symbol id="SO" viewBox="0 0 48 48"><path fill="#3AD" d="M48 40c0 1-1 2-2 2H2c-1 0-2-1-2-2V8c0-1 1-2 2-2h44c1 0 2 1 2 2v32z"/><path fill="#EEE" d="M32.4 21h-6L24 15.7 21.5 21h-6l4.4 4.5-1.7 6.4 5.6-3.4 5.5 3.2-1.5-6.5 4.4-4.5z"/></symbol>
<!-- south-africa --><symbol id="ZA" viewBox="0 0 48 48"><path fill="#EEE" d="M48 40c0 1-1 2-2 2H2c-1 0-2-1-2-2V8c0-1 1-2 2-2h44c1 0 2 1 2 2v32z"/><path fill="#FC5" d="M0 14v4l10 6-10 6v4l16-10"/><path fill="#455" d="M0 18v12l10-6"/><path fill="#45A" d="M48 40c0 1-1 2-2 2H10l14-10h24v8z"/><path fill="#E56" d="M48 16H24L10 6h36c1 0 2 1 2 2v8z"/><path fill="#064" d="M23.4 20L2.4 6H2C1 6 0 7 0 8v6l16 10L0 34v6c0 1 1 2 2 2h.4l21-14H48v-8H23.4z"/></symbol>
<!-- south-sandwich-islands --><symbol id="GS" viewBox="0 0 48 48"><path fill="#02247E" d="M46 6H2C1 6 0 7 0 8v32c0 1 1 2 2 2h44c1 0 2-1 2-2V8c0-1-1-2-2-2z"/><path fill="#C30F2C" d="M20 14h-5.2l3.7-3.7-2.8-2.8-3.7 3.7V6H8v5.2L4.3 7.5l-2.8 2.8L5.2 14H0v4h5.2l-3.7 3.7 2.8 2.8L8 20.8V26h4v-5.2l3.7 3.7 2.8-2.8-3.7-3.7H20"/><path fill="#703D35" d="M44 24H32v10l6 4 6-4"/></symbol>
<!-- south-sudan --><symbol id="SS" viewBox="0 0 48 48"><path fill="#445" d="M48 18H0V8c0-1 1-2 2-2h44c1 0 2 1 2 2v10z"/><path fill="#E56" d="M0 18h48v12H0z"/><path fill="#5C6" d="M48 40c0 1-1 2-2 2H2c-1 0-2-1-2-2V30h48v10z"/><path fill="#EEE" d="M0 18h48v2H0zm0 10h48v2H0z"/><path fill="#45A" d="M2 6C1 6 0 7 0 8v32c0 1 1 2 2 2l20-18L2 6z"/><path fill="#FC5" d="M14.4 22.5h-3L10.2 20 9 22.4H6l2.2 2.3-.8 3.2 2.8-1.7L13 28l-.8-3.2 2.2-2.3z"/></symbol>
<!-- spain --><symbol id="ES" viewBox="0 0 48 48"><path fill="#E56" d="M48 16H0V8c0-1 1-2 2-2h44c1 0 2 1 2 2v8zm0 24c0 1-1 2-2 2H2c-1 0-2-1-2-2v-8h48v8z"/><path fill="#FC5" d="M0 16h48v16H0z"/><path fill="#943" d="M14 20v-2H6v2h2v2H6v5.3l4 2.7 4-2.7V22h-2v-2"/></symbol>
<!-- sri-lanka --><symbol id="LK" viewBox="0 0 48 48"><path fill="#064" d="M4 10h8v28H4z"/><path fill="#E72" d="M12 10h8v28h-8z"/><path fill="#822" d="M24 10h20v28H24z"/><path fill="#FC5" d="M48 8c0-1-1-2-2-2H2C1 6 0 7 0 8v32c0 1 1 2 2 2h44c1 0 2-1 2-2V8zM4 10h16v28H4V10zm40 28H24V10h20v28zM26 12h2v2h-2zm14 0h2v2h-2zM26 34h2v2h-2zm14 0h2v2h-2zm0-14v2h-8v-2c0-1-1-2-2-2h-4c0 1 1 2 2 2v4h-2c0 1 1 2 2 2v2c0 1 1 2 2 2v-2c0-1 1-2 2-2h6c1 0 2 1 2 2v2c1 0 2-1 2-2v-6c0-1-1-2-2-2z"/></symbol>
<!-- sudan --><symbol id="SD" viewBox="0 0 48 48"><path fill="#5C6" d="M2 6C1 6 0 7 0 8v32c0 1 1 2 2 2l18-18L2 6z"/><path fill="#445" d="M48 40c0 1-1 2-2 2H2l12-12h34v10z"/><path fill="#EEE" d="M48 30H14l6-6-6-6h34"/><path fill="#E56" d="M48 18H14L2 6h44c1 0 2 1 2 2v10z"/></symbol>
<!-- suriname --><symbol id="SR" viewBox="0 0 48 48"><path fill="#064" d="M48 18H0V8c0-1 1-2 2-2h44c1 0 2 1 2 2v10zm0 22c0 1-1 2-2 2H2c-1 0-2-1-2-2V30h48v10z"/><path fill="#E56" d="M0 18h48v12H0z"/><path fill="#FC5" d="M28.2 22.4h-3L24 19.7l-1.3 2.7h-3l2.2 2.3-1 3.2 3-1.7 3 1.6-1-3.3 2.2-2.3z"/><path fill="#EEE" d="M0 16h48v2H0zm0 14h48v2H0z"/></symbol>
<!-- swaziland --><symbol id="SZ" viewBox="0 0 48 48"><path fill="#45A" d="M48 14H0V8c0-1 1-2 2-2h44c1 0 2 1 2 2v6zm0 26c0 1-1 2-2 2H2c-1 0-2-1-2-2v-6h48v6z"/><path fill="#E56" d="M0 16h48v16H0z"/><path fill="#FC5" d="M0 14h48v2H0zm0 18h48v2H0zm10-6h12v2H10zm0-6h12v2H10zm16 6h12v2H26zm0-6h12v2H26z"/><path fill="#455" d="M18 24c0 3.3 2.7 6 6 6V18c-3.3 0-6 2.7-6 6z"/><path fill="#EEE" d="M30 24c0 3.3-2.7 6-6 6V18c3.3 0 6 2.7 6 6z"/></symbol>
<!-- sweden --><symbol id="SE" viewBox="0 0 48 48"><path fill="#45A" d="M48 40c0 1-1 2-2 2H2c-1 0-2-1-2-2V8c0-1 1-2 2-2h44c1 0 2 1 2 2v32z"/><path fill="#FC5" d="M48 20H20V6h-8v14H0v8h12v14h8V28h28"/></symbol>
<!-- switzerland --><symbol id="CH" viewBox="0 0 48 48"><path fill="#E56" d="M48 40c0 1-1 2-2 2H2c-1 0-2-1-2-2V8c0-1 1-2 2-2h44c1 0 2 1 2 2v32z"/><path fill="#EEE" d="M35 28H13c-.6 0-1-.4-1-1v-6c0-.6.4-1 1-1h22c.6 0 1 .4 1 1v6c0 .6-.4 1-1 1zm-8 8h-6c-.6 0-1-.4-1-1V13c0-.6.4-1 1-1h6c.6 0 1 .4 1 1v22c0 .6-.4 1-1 1z"/></symbol>
<!-- syria --><symbol id="SY" viewBox="0 0 48 48"><path fill="#455" d="M48 40c0 1-1 2-2 2H2c-1 0-2-1-2-2V30h48v10z"/><path fill="#EEE" d="M0 18h48v12H0z"/><path fill="#E56" d="M48 18H0V8c0-1 1-2 2-2h44c1 0 2 1 2 2v10z"/><path fill="#064" d="M20.3 22.6h-3l-1-2.6-1 2.6h-3l2 2.2-.8 3.3 2.8-1.2 3 1.6-.8-3.2 2-2zm15.7 0h-3L32 20l-1.2 2.6h-3l2.2 2.2-1 3.2 2.8-1.5 2.8 1.6-.8-3 2.2-2z"/></symbol>
<!-- taiwan --><symbol id="TW" viewBox="0 0 48 48"><path fill="#E56" d="M48 8c0-1-1-2-2-2H20v16H0v18c0 1 1 2 2 2h44c1 0 2-1 2-2V8z"/><path fill="#45A" d="M20 22H0V8c0-1 1-2 2-2h18v16z"/><circle fill="#EEE" cx="10" cy="14" r="4"/></symbol>
<!-- tajikistan --><symbol id="TJ" viewBox="0 0 48 48"><path fill="#E45" d="M48 18H0V8c0-1 1-2 2-2h44c1 0 2 1 2 2v10z"/><path fill="#EEE" d="M0 18h48v12H0z"/><path fill="#064" d="M48 40c0 1-1 2-2 2H2c-1 0-2-1-2-2V30h48v10z"/><path fill="#FC5" d="M24 20c-2.2 0-4 1.8-4 4s1.8 4 4 4 4-1.8 4-4-1.8-4-4-4z"/></symbol>
<!-- tanzania --><symbol id="TZ" viewBox="0 0 48 48"><path fill="#FC5" d="M48 18L12 42H4.8L48 13.2M36 6h7.2L0 34.8V30"/><path fill="#5C6" d="M2 6h34L0 30V8c0-1 1-2 2-2z"/><path fill="#3AD" d="M46 42H12l36-24v22c0 1-1 2-2 2z"/><path fill="#445" d="M4.8 42H2c-1 0-2-1-2-2v-5.2L43.2 6H46c1 0 2 1 2 2v5.2L4.8 42z"/></symbol>
<!-- thailand --><symbol id="TH" viewBox="0 0 48 48"><path fill="#E56" d="M48 40c0 1-1 2-2 2H2c-1 0-2-1-2-2v-4h48v4zm0-28H0V8c0-1 1-2 2-2h44c1 0 2 1 2 2v4z"/><path fill="#45A" d="M0 18h48v12H0z"/><path fill="#EEE" d="M0 30h48v6H0zm0-18h48v6H0z"/></symbol>
<!-- togo --><symbol id="TG" viewBox="0 0 48 48"><path fill="#5C6" d="M48 40c0 1-1 2-2 2H2c-1 0-2-1-2-2v-6h48v6zm0-26H14V6h32c1 0 2 1 2 2v6zM0 20h48v8H0z"/><path fill="#FC5" d="M0 28h48v6H0zm14-14h34v6H14z"/><path fill="#E56" d="M14 20H0V8c0-1 1-2 2-2h12v14z"/><path fill="#EEE" d="M10.8 12.3H8.3l-1-2.2-1 2.3H3.7l1.8 2-.7 2.6 2.3-1.5L9.6 17 9 14l1.8-2z"/></symbol>
<!-- tonga --><symbol id="TO" viewBox="0 0 48 48"><path fill="#EEE" d="M20 26H0V8c0-1 1-2 2-2h18v20z"/><path fill="#E56" d="M46 6H20v20H0v14c0 1 1 2 2 2h44c1 0 2-1 2-2V8c0-1-1-2-2-2zm-30 8h-4v-4H8v4H4v4h4v4h4v-4h4"/></symbol>
<!-- trinidad-tobago --><symbol id="TT" viewBox="0 0 48 48"><path fill="#EEE" d="M48 39.8c0 1-1 2-2 2H2c-1 0-2-1-2-2v-32c0-1 1-2 2-2h44c1 0 2 1 2 2v32z"/><path fill="#E56" d="M46 6H12l36 24V8c0-1-1-2-2-2zM2 42h34L0 18v22c0 1 1 2 2 2z"/><path fill="#455" d="M43.2 42H46c1 0 2-1 2-2v-5.2L4.8 6H2C1 6 0 7 0 8v5.2L43.2 42z"/></symbol>
<!-- tunisia --><symbol id="TN" viewBox="0 0 48 48"><path fill="#E56" d="M48 40c0 1-1 2-2 2H2c-1 0-2-1-2-2V8c0-1 1-2 2-2h44c1 0 2 1 2 2v32z"/><circle fill="#EEE" cx="24" cy="24" r="12"/><path fill="#E56" d="M27.2 30.4c-3.5 0-6.4-3-6.4-6.4s3-6.4 6.4-6.4c.7 0 1.3 0 2 .3-1.4-1.4-3.2-2-5.2-2-4.4 0-8 3.5-8 8s3.6 8 8 8c2 0 3.8-.8 5.2-2-.7.2-1.3.3-2 .3zm2.1-7.7L28 20l-1.2 2.7H24l2 2-.7 3.3 2.7-1.6 2.8 1.6-.8-3.2 2-2h-2.7z"/></symbol>
<!-- turkey --><symbol id="TR" viewBox="0 0 48 48"><path fill="#E56" d="M48 40c0 1-1 2-2 2H2c-1 0-2-1-2-2V8c0-1 1-2 2-2h44c1 0 2 1 2 2v32z"/><path fill="#EEE" d="M22 34c-5.5 0-10-4.5-10-10s4.5-10 10-10c1.3 0 2.4.3 3.6.7C23.6 13 21 12 18 12c-6.6 0-12 5.4-12 12s5.4 12 12 12c3 0 5.5-1 7.6-2.7-1.2.4-2.3.7-3.6.7zm10.3-12l-1.8-4-2 4h-4l3 3.2-1.2 4.8 4.2-2.4 4 2.4-1-4.8 3-3.2h-4.2z"/></symbol>
<!-- turkmenistan --><symbol id="TM" viewBox="0 0 48 48"><path fill="#5C6" d="M48 40c0 1-1 2-2 2H18V6h28c1 0 2 1 2 2v32zM18 6H2C1 6 0 7 0 8v32c0 1 1 2 2 2h16V6z"/><path fill="#EEE" d="M34 16c0-2.6-1.7-4.8-4-5.6.6-.3 1.3-.4 2-.4 3.3 0 6 2.7 6 6s-2.7 6-6 6c-.7 0-1.4 0-2-.4 2.3-.8 4-3 4-5.6zm-10-4h2v2h-2zm4 0h2v2h-2zm0 4h2v2h-2zm-4 0h2v2h-2zm2-2h2v2h-2z"/><path fill="#E56" d="M10 6v36h8V6h-8zm6 32h-4v-4h4v4zm0-6h-4v-4h4v4zm0-6h-4v-4h4v4zm0-6h-4v-4h4v4zm0-6h-4v-4h4v4z"/></symbol>
<!-- tuvalu --><symbol id="TV" viewBox="0 0 48 48"><path fill="#070084" d="M20 22H0V8c0-1 1-2 2-2h18v16z"/><path fill="#0482FB" d="M46 6H20v16H0v18c0 1 1 2 2 2h44c1 0 2-1 2-2V8c0-1-1-2-2-2z"/><path fill="#F00" d="M20 12h-4.6L19 9.3l-1-1.6-6 4.3V6H8v5.4L3 7.7 1.8 9.3 5.5 12H0v4h6.6l-4.8 3.6L3 21.2l5-3.7V22h4v-5.2l6 4.4 1-1.6-4.7-3.6H20"/><path fill="#F6D031" d="M35 25h-2.4l-1-2-1 2h-2l1.5 1.6-.5 2.5 2.2-1 2.2 1-.7-2.4L35 25zm-7 2.6h-1.6l-.8-1.5-.7 1.6H23l1.3 1.3-.5 1.7 1.6-1 1.7 1-.5-1.8 1.2-1.4zm-6 1.7h-1l-.6-1-.5 1h-1.2l.8.8-.3 1.4 1-.6 1.2.6-.3-1.3.8-.7zm-4.5.9h-1l-.6-1-.6 1h-1l.7 1-.2 1 1-.5 1.2.6-.3-1.2.8-.8zm25.5-.6h-2.3l-1-2-1 2h-2.2l1.7 1.7-.6 2.5 2.2-1.3 2 1.3-.5-2.5 1.7-1.7zm-7 2.6h-1.6l-.7-1.5-.7 1.5h-1.7l1.3 1.3-.5 2 1.7-1 1.6 1-.4-2 1-1.3zM30 34h-1l-.5-1-.5 1h-1l.7.8-.3 1.2 1-.6 1 .6-.2-1.2.8-1zm-4.5.8h-1l-.5-1-.5 1h-1l.7 1-.3 1 1-.5 1 .6-.3-1.3.8-1z"/></symbol>
<!-- uganda --><symbol id="UG" viewBox="0 0 48 48"><path fill="#E56" d="M48 40c0 1-1 2-2 2H2c-1 0-2-1-2-2v-4h48v4z"/><path fill="#FC5" d="M0 30h48v6H0z"/><path fill="#445" d="M0 24h48v6H0z"/><path fill="#E56" d="M0 18h48v6H0z"/><path fill="#445" d="M0 12h48V8c0-1-1-2-2-2H2C1 6 0 7 0 8v4z"/><path fill="#FC5" d="M0 12h48v6H0z"/><circle fill="#EEE" cx="24" cy="24" r="8"/><path fill="#999" d="M26 22h-4v-2h2v-2l-4 2v4c0 1 1 2 2 2v4l2-4 2 4v-4h2v-2c0-1-1-2-2-2z"/></symbol>
<!-- uk --><symbol id="GB" viewBox="0 0 48 48"><path fill="#45A" d="M46 6H2C1 6 0 7 0 8v32c0 1 1 2 2 2h44c1 0 2-1 2-2V8c0-1-1-2-2-2z"/><path fill="#EEE" d="M48 8c0-1-1-2-2-2h-5.2L28 16V6h-8v10L7.2 6H2C1 6 0 7 0 8v2.6L12.2 20H0v8h12.2L0 37.4V40c0 1 1 2 2 2h5.2L20 32v10h8V32l12.8 10H46c1 0 2-1 2-2v-2.6L35.8 28H48v-8H35.8L48 10.6V8z"/><path fill="#E56" d="M48 22H26V6h-4v16H0v4h22v16h4V26h22"/><path fill="#E56" d="M47 6.3L29.2 20h3.3L48 8c0-.7-.4-1.3-1-1.7zM32.5 28h-3.3L47 41.7c.6-.4 1-1 1-1.7L32.5 28zm-17 0L0 40c0 .7.4 1.3 1 1.7L18.8 28h-3.3zm0-8h3.3L1 6.3c-.6.4-1 1-1 1.7l15.5 12z"/></symbol>
<!-- ukraine --><symbol id="UA" viewBox="0 0 48 48"><path fill="#3AD" d="M48 24H0V8c0-1 1-2 2-2h44c1 0 2 1 2 2v16z"/><path fill="#FC5" d="M48 40c0 1-1 2-2 2H2c-1 0-2-1-2-2V24h48v16z"/></symbol>
<!-- united arab emirates --><symbol id="AE" viewBox="0 0 48 48"><path fill="#064" d="M48 18H16V6h30c1 0 2 1 2 2v10z"/><path fill="#EEE" d="M16 18h32v12H16z"/><path fill="#455" d="M48 40c0 1-1 2-2 2H16V30h32v10z"/><path fill="#E56" d="M16 42H2c-1 0-2-1-2-2V8c0-1 1-2 2-2h14v36z"/></symbol>
<!-- uruguay --><symbol id="UY" viewBox="0 0 48 48"><path fill="#EEE" d="M48 8c0-1-1-2-2-2H18v20H0v14c0 1 1 2 2 2h44c1 0 2-1 2-2V8zM18 26H0V8c0-1 1-2 2-2h16v20z"/><path fill="#45A" d="M18 10h30v4H18zm0 8h30v4H18zM0 26v4h48v-4H20M0 34h48v4H0z"/><circle fill="#FC5" cx="10" cy="16" r="4"/></symbol>
<!-- us outying islands --><symbol id="UM" viewBox="0 0 48 48"><path fill="#E56" d="M48 8c0-1-1-2-2-2H20v20H0v14c0 1 1 2 2 2h44c1 0 2-1 2-2V8z"/><path fill="#45A" d="M20 26H0V8c0-1 1-2 2-2h18v20z"/><path fill="#EEE" d="M20 10h28v4H20zm0 8h28v4H20zM0 26v4h48v-4H20M0 34h48v4H0zm10-20l-.6 1.3H8l1 1-.4 1.8 1.4-.7 1.4.8-.4-1.6 1-1h-1.4M5 9l-.5 1.4H3l1 1-.3 1.8 1.4-.8 1.6.8-.5-1.7 1.2-1H5.7M15 9l.5 1.4H17l-1 1 .3 1.8-1.4-.8-1.6.8.5-1.7-1.2-1h1.5M5 23l-.5-1.4H3l1-1-.3-1.8 1.4.8 1.6-.8-.5 1.7 1.2 1H5.7M15 23l.5-1.4H17l-1-1 .3-1.8-1.4.8-1.6-.8.5 1.7-1.2 1h1.5"/></symbol>
<!-- us virgin islands --><symbol id="VI" viewBox="0 0 48 48"><path fill="#E56" d="M48 8c0-1-1-2-2-2H20v20H0v14c0 1 1 2 2 2h44c1 0 2-1 2-2V8z"/><path fill="#45A" d="M20 26H0V8c0-1 1-2 2-2h18v20z"/><path fill="#EEE" d="M20 10h28v4H20zm0 8h28v4H20zM0 26v4h48v-4H20M0 34h48v4H0zm10-20l-.6 1.3H8l1 1-.4 1.8 1.4-.7 1.4.8-.4-1.6 1-1h-1.4M5 9l-.5 1.4H3l1 1-.3 1.8 1.4-.8 1.6.8-.5-1.7 1.2-1H5.7M15 9l.5 1.4H17l-1 1 .3 1.8-1.4-.8-1.6.8.5-1.7-1.2-1h1.5M5 23l-.5-1.4H3l1-1-.3-1.8 1.4.8 1.6-.8-.5 1.7 1.2 1H5.7M15 23l.5-1.4H17l-1-1 .3-1.8-1.4.8-1.6-.8.5 1.7-1.2 1h1.5"/></symbol>
<!-- usa --><symbol id="US" viewBox="0 0 48 48"><path fill="#E56" d="M48 8c0-1-1-2-2-2H20v20H0v14c0 1 1 2 2 2h44c1 0 2-1 2-2V8z"/><path fill="#45A" d="M20 26H0V8c0-1 1-2 2-2h18v20z"/><path fill="#EEE" d="M20 10h28v4H20zm0 8h28v4H20zM0 26v4h48v-4H20M0 34h48v4H0zm10-20l-.6 1.3H8l1 1-.4 1.8 1.4-.7 1.4.8-.4-1.6 1-1h-1.4M5 9l-.5 1.4H3l1 1-.3 1.8 1.4-.8 1.6.8-.5-1.7 1.2-1H5.7M15 9l.5 1.4H17l-1 1 .3 1.8-1.4-.8-1.6.8.5-1.7-1.2-1h1.5M5 23l-.5-1.4H3l1-1-.3-1.8 1.4.8 1.6-.8-.5 1.7 1.2 1H5.7M15 23l.5-1.4H17l-1-1 .3-1.8-1.4.8-1.6-.8.5 1.7-1.2 1h1.5"/></symbol>
<!-- uzbekistan --><symbol id="UZ" viewBox="0 0 48 48"><path fill="#5C6" d="M48 40c0 1-1 2-2 2H2c-1 0-2-1-2-2V30h48v10z"/><path fill="#3AD" d="M48 18H0V8c0-1 1-2 2-2h44c1 0 2 1 2 2v10z"/><path fill="#EEE" d="M0 18h48v12H0zM10 8H9c-2.2 0-4 1.8-4 4s1.8 4 4 4h1c-1.7-.6-3-2-3-4s1.3-3.4 3-4zm2 2h2v2h-2zm4 0h2v2h-2zm4 0h2v2h-2zm-8 4h2v2h-2zm4 0h2v2h-2zm4 0h2v2h-2zm4 0h2v2h-2z"/></symbol>
<!-- vanuatu --><symbol id="VU" viewBox="0 0 48 48"><path fill="#445" d="M0 14v20l16-10"/><path fill="#FC5" d="M20 22L0 10v4l16 10L0 34v4l20-12h28v-4M6 22c-1 0-2 1-2 2s1 2 2 2 2-1 2-2-1-2-2-2zm0 3c-.6 0-1-.4-1-1s.4-1 1-1 1 .4 1 1-.4 1-1 1z"/><path fill="#E56" d="M2 6C1 6 0 7 0 8v2l20 12h28V8c0-1-1-2-2-2H2z"/><path fill="#5C6" d="M2 42c-1 0-2-1-2-2v-2l20-12h28v14c0 1-1 2-2 2H2z"/></symbol>
<!-- venezuela --><symbol id="VE" viewBox="0 0 48 48"><path fill="#FC5" d="M48 18H0V8c0-1 1-2 2-2h44c1 0 2 1 2 2v10z"/><path fill="#45A" d="M0 18h48v12H0z"/><path fill="#E56" d="M48 40c0 1-1 2-2 2H2c-1 0-2-1-2-2V30h48v10z"/><path fill="#EEE" d="M26 23.3h-1.4L24 22l-.6 1.3H22l1 1-.4 1.8 1.4-.7 1.4.8-.4-1.6 1-1zm-7.7 2.1h-1.5L16 24l-.5 1.4H14l1 1-.3 1.7 1.4-.7 1.6.8-.4-1.5 1-1zm16 0h-1.5L32 24l-.5 1.4H30l1 1-.3 1.7 1.4-.7 1.6.8-.4-1.5 1-1z"/></symbol>
<!-- vietnam --><symbol id="VN" viewBox="0 0 48 48"><path fill="#E56" d="M48 40c0 1-1 2-2 2H2c-1 0-2-1-2-2V8c0-1 1-2 2-2h44c1 0 2 1 2 2v32z"/><path fill="#FC5" d="M32.4 21h-6L24 15.7 21.5 21h-6l4.4 4.5-1.7 6.4 5.6-3.4 5.5 3.2-1.5-6.5 4.4-4.5z"/></symbol>
<!-- wallis and futura --><symbol id="WF" viewBox="0 0 150 100"><path fill="#ED2939" d="M0 0h150v100H0z"/><path fill="#FFF" d="M0 0h40v40H0z"/><path fill="#002395" d="M0 0h20v40H0z"/><path fill="none" stroke="#FFF" d="M0 40h60V0"/><path fill="#FFF" d="M105 46L93 34h24zm-4 4L89 38v24zm4 4L93 66h24zm4-4l12-12v24z"/></symbol>
<!-- western sahara --><symbol id="EH" width="600" height="300"><path d="M0 0h600v150H0z"/><path fill="#007a3d" d="M0 150h600v150H0z"/><path fill="#fff" d="M0 100h600v100H0z"/><path d="M0 0l200 150L0 300z" fill="#c4111b"/><circle cx="300" cy="150" r="40" fill="#c4111b"/><circle cx="315" cy="150" r="40" fill="#fff"/><path d="M289.3 174.2l17-12.2 17 12.4-6.4-20 17-12.3h-21l-6.7-20-6.6 20h-21l16.8 12.5-6.5 20z" fill="#c4111b"/></symbol>
<!-- yemen --><symbol id="YE" viewBox="0 0 48 48"><path fill="#455" d="M48 40c0 1-1 2-2 2H2c-1 0-2-1-2-2V30h48v10z"/><path fill="#EEE" d="M0 18h48v12H0z"/><path fill="#E56" d="M48 18H0V8c0-1 1-2 2-2h44c1 0 2 1 2 2v10z"/></symbol>
<!-- zambia --><symbol id="ZM" viewBox="0 0 48 48"><path fill="#064" d="M48 8c0-1-1-2-2-2H2C1 6 0 7 0 8v32c0 1 1 2 2 2h22V28h24V8z"/><path fill="#E72" d="M48 28h-8v14h6c1 0 2-1 2-2V28z"/><path fill="#455" d="M32 28h8v14h-8z"/><path fill="#E56" d="M24 28h8v14h-8z"/><path fill="#764" d="M44.6 17c.3-.7.2-1.5 0-2s-1-1-1.8-1H29.2c-.7 0-1.3.4-1.7 1-.3.5-.4 1.3 0 2l.5 1h16l.6-1z"/><path fill="#764" d="M38 22l-2 2-2-2V12c0-1 1-2 2-2s2 1 2 2v10z"/></symbol>
<!-- zimbabwe --><symbol id="ZW" viewBox="0 0 48 48"><path fill="#5C6" d="M48 40c0 1-1 2-2 2H2l4-4h42v2z"/><path fill="#FC5" d="M6 38h42v-6H12"/><path fill="#E56" d="M48 32H12l6-6h30m-30-4h30v-6H12"/><path fill="#5C6" d="M6 10h42V8c0-1-1-2-2-2H2l4 4z"/><path fill="#FC5" d="M48 16H12l-6-6h42"/><path fill="#445" d="M48 26H18l2-2-2-2h30"/><path fill="#EEE" d="M2 6C1 6 0 7 0 8v32c0 1 1 2 2 2l18-18L2 6z"/><path fill="#E56" d="M14 21.5h-4L8.6 18 7 21.5H3l2.8 3-1 4.2 3.7-2 3.7 2-1-4.3 2.8-3z"/><circle fill="#FC5" cx="8.5" cy="23.7" r="3.4"/></symbol>

<!-- whitestone --><symbol id="whitestone" viewBox="0 0 48 36"><path fill="#f1f1f1" d="M46 0H2a2 2 0 0 0-2 2v30.2c0 2 1 3.8 2 3.8h44c1 0 2-1.7 2-3.8V2a2 2 0 0 0-2-2z"/><path fill="#303644" d="M38.3 20.8c-.7-1-2.2-1-3.6-1.5s-2.4-2.2-3.3-3a1.5 1.5 0 0 0-1.8.2l-2.2-2.2A1 1 0 0 0 26 14l-2.6-2.3c-.6-.6-1-.3-2.3.7s-10.4 12-10.4 12h30zm-.4 1.8c-1-.2-3-.6-3.5-.4a5.4 5.4 0 0 1-2.7.7c-1.2-.2-1.6-.8-2.3-1s-1.4 1-2.8 1-1.7-1.4-2.3-2-1 0-1.7-.7-1.4-2.3-.6-1.8 3.8 2 4 1.2-.7-1.4-1.6-1.7-1-.8-.4-1.3.5-1 0-1.3 0-1-.5-1.3-2.2 0-2-.6 1-2 2-1.2a4.3 4.3 0 0 1 1.7 2.2c0 .7 0 1 .5 1.4s0 1 .4 1.8.7.7 1.3.5a1 1 0 0 1 1.3.4c.5.4.2 1 .7 1.3s1.2.4 1.4 1 .7.6.5 0a1.6 1.6 0 0 0-1-1.4c-.6 0-1-1-1-1.2s0-.5-.7-.7a1.6 1.6 0 0 1-1.2-.8c-.2-.4-.7-1.7-.4-1.8s.6.2 1 .7l3.8 3.4c.5.4.7 0 .5-.3s-1-1.3-1-1.5.6.2 1 .7a24.3 24.3 0 0 0 2.2 3c.4.2 2.2.3 3 .6s1.6 1.2.6 1z"/></symbol>
</svg>