<svg xmlns="http://www.w3.org/2000/svg">
    <!-- FCBH Default Icon Set -->
<svg id="app" viewBox="0 0 60 60">
<g fill="none" fill-rule="evenodd">
<rect width="60" height="60" fill="#9E1E35" rx="16"/>
<path fill="#F4F6F9" d="M7.377 34.192h1.345c.924 0 1.395-.453 1.395-1.293 0-.79-.47-1.279-1.395-1.279H7.377c-.067 0-.101.034-.101.101v2.37c0 .068.034.101.101.101zm1.194-4.605c.89 0 1.361-.387 1.361-1.177 0-.807-.453-1.176-1.361-1.176H7.377c-.067 0-.101.033-.101.1v2.151c0 .068.034.102.101.102h1.194zm-4.254-4.421c0-.101.068-.168.17-.168h4.655c2.555 0 3.732 1.227 3.732 3.042 0 1.177-.538 2-1.396 2.455v.033c.841.32 1.597 1.277 1.597 2.605 0 2.236-1.58 3.295-3.983 3.295H4.486c-.1 0-.169-.067-.169-.168V25.166zm10.168 11.262a.16.16 0 0 1-.168-.168v-7.85c0-.1.068-.168.168-.168h2.488c.1 0 .168.067.168.168v7.85a.16.16 0 0 1-.168.168h-2.488zm0-9.245c-.1 0-.168-.067-.168-.168v-1.85c0-.1.068-.167.168-.167h2.488c.1 0 .168.067.168.167v1.85a.16.16 0 0 1-.168.168h-2.488zm9.102 6.438c.083-.269.118-.571.118-1.277 0-.724-.035-1.027-.118-1.295-.169-.47-.505-.69-1.01-.69-.486 0-.84.22-.99.69-.102.268-.135.571-.135 1.295 0 .706.033 1.008.134 1.277.152.47.505.689.992.689.504 0 .84-.219 1.009-.689m-2.118 2.034h-.017v.605c0 .1-.068.168-.169.168h-2.487c-.1 0-.168-.067-.168-.168V25.166c0-.101.068-.168.168-.168h2.487c.101 0 .17.067.17.168v3.849h.016c.37-.572 1.06-.974 2.101-.974 1.378 0 2.286.689 2.706 1.966.202.656.286 1.31.286 2.337 0 1.008-.084 1.663-.286 2.319-.42 1.278-1.328 1.967-2.706 1.967-1.042 0-1.731-.404-2.101-.975m9.11.874c-2.034 0-2.84-.824-2.84-2.875v-8.488c0-.101.066-.168.167-.168h2.488c.1 0 .168.067.168.168v8.203c0 .555.235.807.69.807h.352c.1 0 .168.067.168.168v2.017c0 .1-.067.168-.168.168h-1.025zm6.89-5.11c.066 0 .1-.034.1-.101 0-.219-.017-.37-.067-.505-.152-.47-.555-.74-1.143-.74-.572 0-.992.27-1.144.74a1.922 1.922 0 0 0-.067.505c0 .067.034.101.101.101h2.22zm-4.792 2.807c-.168-.487-.269-1.025-.269-1.882 0-.875.101-1.43.253-1.9.504-1.53 1.832-2.404 3.665-2.404 1.95 0 3.226.875 3.697 2.37.168.504.27 1.127.27 2.556 0 .1-.068.168-.186.168h-4.858c-.067 0-.101.033-.101.1.017.119.034.236.067.337.185.57.79.89 1.58.89a2.84 2.84 0 0 0 1.833-.655c.1-.084.168-.084.252 0l1.194 1.227c.084.068.067.185-.017.251-.858.825-2.102 1.346-3.564 1.346-2 0-3.328-.891-3.816-2.404zm8.703-.286c0-.1.068-.167.169-.167h2.336c.101 0 .168.066.168.167v2.32c0 .1-.067.168-.168.168h-2.336c-.101 0-.169-.067-.169-.168v-2.32zm4.369 2.488c-.101 0-.168-.068-.168-.168v-7.85c0-.1.067-.168.168-.168h2.487c.101 0 .169.067.169.168v7.85c0 .1-.068.168-.17.168H45.75zm0-9.245c-.101 0-.168-.067-.168-.168v-1.85c0-.1.067-.167.168-.167h2.487c.101 0 .169.067.169.167v1.85c0 .1-.068.168-.17.168H45.75zm3.593 8.186c-.067-.067-.084-.167-.017-.235l1.194-1.43c.067-.066.151-.083.235-.033.89.588 1.782.874 2.656.874.723 0 1.042-.251 1.042-.588 0-.286-.168-.437-1.025-.538l-.908-.084c-1.799-.202-2.824-1.058-2.824-2.606 0-1.613 1.295-2.689 3.53-2.689 1.496 0 2.74.437 3.53 1.026.084.067.084.167.033.252l-1.059 1.345c-.067.083-.15.1-.252.05a4.45 4.45 0 0 0-2.286-.64c-.588 0-.857.203-.857.505 0 .27.151.437.941.505l.908.1c2.135.219 2.925 1.194 2.908 2.59-.017 1.713-1.412 2.857-3.85 2.857-1.714 0-3.042-.538-3.899-1.261m6.751-10.067a.17.17 0 0 0-.017-.078.128.128 0 0 0-.057-.056.22.22 0 0 0-.08-.027.806.806 0 0 0-.108-.006h-.183v.377h.156c.05 0 .094-.003.13-.011a.2.2 0 0 0 .09-.04.174.174 0 0 0 .054-.067.232.232 0 0 0 .015-.092zm.43.799h-.272l-.405-.434h-.198v.434h-.202v-1.12h.382c.077 0 .14.004.19.01a.455.455 0 0 1 .146.048.29.29 0 0 1 .114.1.29.29 0 0 1 .035.15c0 .08-.023.144-.069.197a.465.465 0 0 1-.19.125l.47.49zm.236-.538a.894.894 0 0 0-.268-.651.878.878 0 0 0-.648-.272.875.875 0 0 0-.648.272.893.893 0 0 0-.269.65c0 .253.09.47.27.651a.875.875 0 0 0 .647.272c.252 0 .47-.09.648-.272a.894.894 0 0 0 .268-.65zm.142 0c0 .292-.104.54-.31.748-.207.206-.456.31-.748.31s-.542-.104-.749-.31a1.022 1.022 0 0 1-.31-.748c0-.293.104-.542.31-.749.207-.206.457-.31.749-.31s.541.104.748.31c.206.207.31.456.31.749z"/>
</g>
</svg>

<svg id="apps" viewBox="0 0 46 59">
<path d="M25.595 45.033h-21.8v-42.5h30.2v18.5h3v-17.6c0-1.9-1.5-3.5-3.4-3.5h-30c-1.9 0-3.4 1.5-3.4 3.5v44.1c0 1.9 1.5 3.5 3.4 3.5h22v-6zm-7 4.6c-1.1 0-2-.9-2-2.1 0-.7.3-1.3.8-1.6.3-.4.9-.7 1.5-.7 1 0 1.9.9 1.9 1.9 0 .3 0 .5-.1.7-.2 1.1-1 1.8-2.1 1.8z"/>
<path d="M43.195 21.033h-15.6c-1.5 0-2.7 1.2-2.7 2.7v32c0 1.5 1.2 2.7 2.7 2.7h15.6c1.5 0 2.7-1.2 2.7-2.7v-32c0-1.5-1.2-2.7-2.7-2.7zm-11.6 1.7h7.7c.2 0 .4.3.4.7s-.2.6-.4.6h-7.7c-.2 0-.4-.3-.4-.7s.2-.6.4-.6zm3.8 33.1c-.9 0-1.7-.8-1.7-1.7s.8-1.7 1.7-1.7c.9 0 1.7.8 1.7 1.7s-.7 1.7-1.7 1.7zm8.5-6h-17v-24.2h17v24.2z"/>
</svg>

<svg id="backward" viewBox="0 0 63 60"><path d="M39.9 0L0 30l39.9 30V45.5L19.3 30l20.6-15.5V0zm22.3 0L22.3 30l39.9 30V0z"/></svg>

<svg id="bible" viewBox="0 0 51 60">
<path fill-rule="evenodd" d="M49.5 48.7l1.3-.2V0H7.3C3.3 0 0 3 0 6.8v47.7c.8 3 3.7 5.5 7.3 5.5h42.3v-2.3c-.4 0-1.3-1.6-1.3-4.5 0-3 .8-4.4 1.2-4.5zM7.2 2.3h1v25.3l5-7 5.2 7V2.3h30v44.4h-41c-2 0-3.7.7-5 1.8V7c0-2.7 2.2-4.7 5-4.7z"/>
</svg>

<svg id="bibleis_logo" viewBox="0 0 258 60">
<path fill-rule="evenodd" d="M15.647 47.714H22.2c4.499 0 6.792-2.21 6.792-6.3 0-3.851-2.293-6.227-6.792-6.227h-6.552c-.327 0-.494.163-.494.49v11.546c0 .328.167.491.494.491zm5.813-22.431c4.339 0 6.632-1.886 6.632-5.733 0-3.93-2.21-5.729-6.632-5.729h-5.813c-.327 0-.494.164-.494.488v10.479c0 .33.167.495.494.495h5.813zM.743 3.75c0-.491.331-.819.822-.819h22.68c12.44 0 18.173 5.977 18.173 14.818 0 5.732-2.618 9.743-6.796 11.956v.16c4.095 1.558 7.778 6.224 7.778 12.692 0 10.89-7.694 16.047-19.403 16.047H1.565c-.491 0-.822-.327-.822-.819V3.75zm49.523 54.855c-.489 0-.82-.331-.82-.82V19.55c0-.49.331-.818.82-.818h12.116c.492 0 .822.327.822.818v38.236c0 .488-.33.819-.822.819H50.266zm0-45.031c-.489 0-.82-.328-.82-.819V3.747c0-.488.331-.816.82-.816h12.116c.492 0 .822.328.822.816v9.008c0 .491-.33.819-.822.819H50.266zm44.33 31.359c.408-1.31.575-2.785.575-6.221 0-3.526-.167-5-.574-6.307-.82-2.293-2.457-3.36-4.914-3.36-2.373 0-4.091 1.067-4.83 3.36-.491 1.307-.652 2.78-.652 6.307 0 3.436.16 4.91.652 6.22.739 2.29 2.457 3.353 4.83 3.353 2.457 0 4.095-1.063 4.914-3.352m-10.315 9.904h-.08v2.948c0 .491-.332.819-.823.819H71.262c-.488 0-.818-.328-.818-.82V3.75c0-.491.33-.819.818-.819H83.38c.491 0 .822.328.822.82v18.748h.08c1.802-2.785 5.161-4.747 10.235-4.747 6.712 0 11.134 3.356 13.18 9.58.983 3.192 1.394 6.38 1.394 11.381 0 4.91-.411 8.1-1.394 11.295-2.046 6.223-6.468 9.58-13.18 9.58-5.074 0-8.433-1.966-10.234-4.75m44.37 4.259c-9.904 0-13.835-4.012-13.835-14.002V3.75c0-.491.325-.819.816-.819h12.12c.491 0 .819.328.819.819v39.956c0 2.701 1.146 3.928 3.356 3.928h1.718c.491 0 .819.328.819.819v9.824c0 .488-.328.819-.82.819h-4.993zM162.21 34.21c.328 0 .492-.167.492-.495 0-1.066-.084-1.801-.328-2.457-.739-2.29-2.704-3.603-5.569-3.603-2.784 0-4.83 1.314-5.568 3.603-.164.656-.328 1.39-.328 2.457 0 .328.164.495.495.495h10.806zm-23.334 13.67c-.819-2.373-1.31-4.993-1.31-9.168 0-4.261.491-6.962 1.23-9.252 2.456-7.45 8.924-11.709 17.849-11.709 9.496 0 15.716 4.258 18.01 11.542.818 2.457 1.31 5.488 1.31 12.447 0 .492-.328.82-.903.82h-23.658c-.331 0-.495.163-.495.487.084.579.164 1.15.328 1.642.902 2.78 3.85 4.335 7.698 4.335 3.439 0 6.384-1.143 8.924-3.192.491-.408.819-.408 1.23 0l5.813 5.976c.408.331.327.903-.084 1.227-4.178 4.014-10.235 6.551-17.358 6.551-9.74 0-16.208-4.338-18.584-11.705zm42.39-1.392c0-.492.327-.816.818-.816h11.378c.495 0 .822.324.822.816v11.3c0 .489-.327.816-.822.816h-11.378c-.491 0-.819-.327-.819-.815V46.487zm21.276 12.118c-.491 0-.819-.331-.819-.82V19.55c0-.49.328-.818.82-.818h12.113c.494 0 .822.327.822.818v38.236c0 .488-.328.819-.822.819H202.54zm0-45.031c-.491 0-.819-.328-.819-.819V3.747c0-.488.328-.816.82-.816h12.113c.494 0 .822.328.822.816v9.008c0 .491-.328.819-.822.819H202.54zm17.502 39.872c-.328-.328-.411-.816-.084-1.147l5.816-6.959c.324-.327.735-.408 1.143-.164 4.339 2.865 8.68 4.259 12.94 4.259 3.519 0 5.073-1.227 5.073-2.868 0-1.39-.819-2.126-4.994-2.617l-4.422-.412c-8.76-.982-13.751-5.154-13.751-12.691 0-7.858 6.304-13.096 17.19-13.096 7.287 0 13.344 2.126 17.191 4.994.411.327.411.815.164 1.226l-5.157 6.552c-.328.407-.736.488-1.227.244-2.948-1.802-6.876-3.112-11.134-3.112-2.865 0-4.175.983-4.175 2.457 0 1.31.735 2.129 4.583 2.456l4.422.492c10.398 1.063 14.246 5.812 14.162 12.61-.08 8.347-6.875 13.916-18.748 13.916-8.35 0-14.818-2.62-18.992-6.14m32.882-49.033a.825.825 0 0 0-.083-.382.622.622 0 0 0-.28-.273 1.068 1.068 0 0 0-.391-.131 3.925 3.925 0 0 0-.524-.03h-.89v1.84h.759c.244 0 .459-.018.635-.057.18-.035.328-.1.44-.193a.846.846 0 0 0 .26-.327 1.12 1.12 0 0 0 .074-.447zm2.097 3.89h-1.326l-1.975-2.114h-.963v2.113h-.983v-5.45h1.86c.372 0 .68.017.921.049.24.029.482.11.716.231.25.135.434.299.553.491.112.193.173.434.173.723 0 .389-.112.707-.337.963-.222.257-.533.46-.928.61l2.29 2.383zm1.144-2.621c0-1.23-.434-2.287-1.304-3.17-.87-.883-1.927-1.323-3.157-1.323-1.233 0-2.283.44-3.154 1.323-.873.883-1.31 1.94-1.31 3.17s.437 2.286 1.31 3.17c.87.883 1.92 1.323 3.154 1.323 1.23 0 2.287-.44 3.157-1.323.87-.884 1.304-1.94 1.304-3.17zm.693 0c0 1.423-.504 2.637-1.51 3.645-1.007 1.005-2.221 1.51-3.644 1.51s-2.637-.505-3.645-1.51c-1.005-1.008-1.51-2.222-1.51-3.645s.505-2.637 1.51-3.645c1.008-1.005 2.222-1.51 3.645-1.51s2.637.505 3.645 1.51c1.005 1.008 1.51 2.222 1.51 3.645z"/>
</svg>

<svg id="bookmark" viewBox="0 0 47 60"><path d="M23.8 35.2c.4 0 .7.1 1 .4l19.3 19.3V16.2H3.5V55l19.3-19.3c.3-.3.7-.5 1-.5m21.7 24.6c-.4 0-.7-.1-1-.4L23.8 38.6 3.1 59.4c-.4.4-1 .5-1.5.3s-.9-.7-.9-1.3V14.8c0-.8.6-1.4 1.4-1.4h43.4c.8 0 1.4.6 1.4 1.4v43.6c0 .6-.3 1.1-.9 1.3-.1 0-.3.1-.5.1M3.3 7.7h40.8V3H3.3v4.7zm42.2 2.8H1.9c-.8 0-1.4-.6-1.4-1.4V1.5C.5.7 1.1.1 1.9.1h43.6c.8 0 1.4.6 1.4 1.4v7.6c.1.8-.6 1.4-1.4 1.4z"/></svg>

<svg id="circle_back" viewBox="0 0 60 60"><path d="M36.4 50.7L15.8 30 36.4 9.3v41.4zM30 0C13.4 0 0 13.4 0 30s13.4 30 30 30 30-13.4 30-30S46.6 0 30 0z"/></svg>

<svg id="circle_down" viewBox="0 0 60 60"><path fill-rule="evenodd" d="M30 44.214L9.348 23.562h41.304L30 44.214zM30 0C13.43 0 0 13.431 0 30 0 46.57 13.431 60 30 60c16.569 0 30-13.431 30-30C60 13.431 46.568 0 30 0z"/></svg>

<svg id="circle_play" viewBox="0 0 60 60"><path d="M23.6 50.7V9.3L44.2 30 23.6 50.7zM30 0C13.4 0 0 13.4 0 30s13.4 30 30 30 30-13.4 30-30S46.6 0 30 0z"/></svg>

<svg id="circle_up" viewBox="0 0 60 60"><path d="M9.3 36.4L30 15.8l20.7 20.7H9.3zM30 0C13.4 0 0 13.4 0 30s13.4 30 30 30 30-13.4 30-30S46.6 0 30 0z"/></svg>

<svg id="close" viewBox="0 0 60 60"><path fill-rule="evenodd" d="M1.32 4.387l3.078-3.034c1.759-1.804 4.706-1.804 6.465 0L29.555 20l18.69-18.648c1.76-1.803 4.706-1.803 6.465 0l3.035 3.035c1.803 1.759 1.803 4.705 0 6.465L39.098 29.544l18.647 18.69c1.803 1.76 1.803 4.706 0 6.466l-3.035 3.078c-1.759 1.76-4.705 1.76-6.464 0L29.555 39.087 10.863 57.778c-1.76 1.76-4.706 1.76-6.465 0L1.32 54.7c-1.759-1.76-1.759-4.706 0-6.465L20.01 29.544 1.32 10.852c-1.76-1.76-1.76-4.706 0-6.465"/></svg>

<svg id="copy" viewBox="0 0 50 60"><path d="M29.5.3H.7v44.5h10V13.4h27.6V9.8h-8.7V.3zm2 0V8h6.4L31.5.3zm-5.3 3.4V10.1H10.7c-1.8 0-3.3 1.5-3.3 3.3v28.1H4V3.7h22.2z"/><path d="M40.9 14.9H12.1v44.5h37.5v-35h-8.7v-9.5zm2 0v7.6h6.4l-6.4-7.6zm-5.3 3.4v6.1c0 1.8 1.5 3.3 3.3 3.3h5.4V56H15.4V18.3h22.2z"/></svg>

<svg id="donate" viewBox="0 0 72 58"><path d="M55.067 12.856c-1.56-.627-2.01-1.006-2.01-1.691 0-.549.413-1.19 1.58-1.19 1.033 0 1.825.41 1.832.413a.574.574 0 0 0 .27.068.544.544 0 0 0 .508-.35l.283-.727a.45.45 0 0 0-.242-.578c-.635-.278-1.878-.493-1.89-.495-.02-.003-.09-.018-.09-.1l-.004-1.055a.584.584 0 0 0-.589-.576h-.509a.583.583 0 0 0-.588.576v1.11c0 .084-.09.121-.124.13-1.569.374-2.549 1.526-2.549 2.98 0 1.811 1.493 2.63 3.106 3.244 1.288.508 1.814 1.022 1.814 1.777 0 .822-.745 1.395-1.811 1.395-.911 0-2.144-.579-2.156-.585a.574.574 0 0 0-.248-.056.55.55 0 0 0-.52.363l-.272.735a.478.478 0 0 0 .242.597c.757.395 2.222.627 2.287.637.018.003.107.034.107.116v1.104c0 .318.264.576.59.576h.525c.325 0 .59-.258.59-.576v-1.162c0-.109.08-.118.096-.122 1.67-.377 2.699-1.603 2.699-3.142 0-1.581-.876-2.603-2.927-3.416z"/><path d="M54.41.075c-7.625 0-13.806 6.2-13.806 13.85 0 7.648 6.181 13.85 13.807 13.85 7.625 0 13.806-6.202 13.806-13.85 0-7.65-6.181-13.85-13.806-13.85zm0 24.49c-5.858 0-10.607-4.764-10.607-10.64s4.75-10.64 10.608-10.64c5.858 0 10.606 4.764 10.606 10.64s-4.748 10.64-10.606 10.64z"/><g><path d="M67.31 35.5c-4.557 3.142-10.825 6.048-17.076 7.273-5.56 1.09-16.024-1.539-16.024-4.643 0-1.176 9.177 2.898 14.727 1.048 4.257-1.419 3.652-6.393 1.337-7.05-2.301-.652-15.786-6.825-21.546-7.038-2.713-.1-9.412 1.18-12.654 1.839-1.11.226-1.806.2-1.876 1.529-.322 6.17-.958 18.79-1.305 25.38-.007.14.148 2.013 1.385.695 1.354-1.443 3.253-3.042 5.01-2.544 2.755.781 26.594 6.238 29.882 5.283 4.705-1.366 18.021-11.226 20.574-14.291 3.958-4.752.881-9.768-2.434-7.482zm-55.912-8.812l-8.373-.769c-.646-.059-1.306.849-1.467 2.017L.036 53.696c-.161 1.169.237 2.163.884 2.21l9.279-.002c.647.047 1.216-.9 1.266-2.102l1.019-24.82c.05-1.202-.44-2.234-1.086-2.294z"/></g></svg>

<svg id="download" viewBox="0 0 48 60"><path d="M47.31 21.152H33.791V0H13.517v21.152H0L23.655 45.83l23.654-24.677zM0 52.88v7.05h47.31v-7.05H0z"/></svg>

<svg id="email" viewBox="0 0 80 60"><path fill-rule="evenodd" d="M75.08 51.194V9.377L54.233 29.968 75.08 51.194zm-3.485 3.8L50.623 34.087 47.2 37.445c-1.964 1.964-4.434 2.977-7.349 2.977-2.851 0-5.322-1.013-7.285-2.977l-3.422-3.358L8.173 54.994h63.422zm.126-50.559H8.047L34.72 31.109c2.344 2.345 4.056 3.548 5.132 3.548 1.141 0 2.851-1.203 5.196-3.548L71.721 4.435zM25.533 29.968L4.69 9.378v41.816l20.844-21.226zm54.171 25.09c0 1.837-.316 3.168-1.077 3.865-.697.76-1.901 1.077-3.612 1.077H4.69c-1.267 0-2.344-.316-3.168-1.077C.507 58.036 0 56.768 0 55.06V4.562c0-1.204.507-2.28 1.458-3.168C2.47.444 3.549 0 4.688 0h70.327c1.584 0 2.789.444 3.548 1.268.761.887 1.141 1.964 1.141 3.294V55.06z"/></svg>

<svg id="facebook" viewBox="0 0 60 60"><path fill-rule="evenodd" d="M56.826 0H3.175C1.336 0 0 1.434 0 3.272v53.653C0 58.763 1.336 60 3.175 60h28.782V37.174H24.13v-9.13h7.826v-6.96c0-7.79 4.849-12.03 11.798-12.03 3.329 0 6.463.247 7.116.358v8.14l-4.72.002c-3.78 0-4.412 1.797-4.412 4.432v6.057h8.731l-1.173 9.13H41.74V60h15.087C58.665 60 60 58.763 60 56.925V3.272C60 1.434 58.665 0 56.826 0"/></svg>

<svg id="fast_forward" viewBox="0 0 51 60"><path d="M1 0l36.5 22.3V0H50v29.9l.2.1-.2.1V60H37.5V37.7L1 60z"/></svg>

<svg id="forward" viewBox="0 0 63 60"><path
        d="M0 0l39.9 30L0 60V0zm22.3 0l39.8 30-39.8 30V45.5L42.9 30 22.3 14.5V0z"/></svg>

<svg id="google_plus" viewBox="0 0 95 60"><g fill-rule="evenodd"><path d="M30.612 25.714V36h17.362c-.7 4.414-5.248 12.943-17.362 12.943-10.452 0-18.98-8.486-18.98-18.943s8.528-18.943 18.98-18.943c5.948 0 9.927 2.486 12.201 4.629l8.31-7.843C45.786 2.957 38.877 0 30.612 0 13.687 0 0 13.414 0 30s13.688 30 30.612 30C48.28 60 60 47.829 60 30.686c0-1.972-.219-3.472-.481-4.972H30.612zM94.286 25.714h-8.572v-8.571h-8.571v8.571h-8.572v8.572h8.572v8.571h8.571v-8.571h8.572"/></g></svg>

<svg id="gripper" viewBox="0 0 61 7"><rect width="60.03" height="6.67" fill-rule="evenodd" rx="2.5"/></svg>

<svg id="group" viewBox="0 0 72 60"><path d="M43.449 10.298c3.329 2.067 5.663 5.565 6.088 9.625a10.59 10.59 0 0 0 4.463.99c5.832 0 10.56-4.682 10.56-10.456C64.56 4.68 59.831 0 54 0c-5.777.002-10.463 4.6-10.551 10.298zm-6.918 21.41c5.832 0 10.56-4.682 10.56-10.457 0-5.774-4.728-10.455-10.56-10.455-5.831 0-10.561 4.682-10.561 10.456 0 5.775 4.73 10.456 10.561 10.456zm4.48.713H32.05c-7.455 0-13.52 6.006-13.52 13.389v10.85l.028.17.754.235C26.427 59.265 32.608 60 37.696 60c9.936 0 15.696-2.805 16.051-2.984l.705-.354h.076V45.81c.003-7.383-6.063-13.39-13.518-13.39zm17.47-10.795H49.59c-.097 3.523-1.615 6.695-4.017 8.976 6.627 1.951 11.475 8.036 11.475 15.224v3.344c8.779-.319 13.838-2.783 14.171-2.948l.706-.354H72V35.013c0-7.381-6.065-13.387-13.52-13.387zm-40.479-.712c2.066 0 3.988-.597 5.616-1.614.518-3.343 2.327-6.264 4.912-8.253.011-.196.03-.39.03-.588C28.56 4.684 23.832.003 18.002.003c-5.833 0-10.56 4.68-10.56 10.456 0 5.773 4.727 10.455 10.56 10.455zm9.483 9.688a12.838 12.838 0 0 1-4.013-8.926c-.33-.024-.656-.05-.992-.05h-8.96C6.065 21.626 0 27.632 0 35.013v10.853l.028.167.755.236c5.707 1.764 10.801 2.578 15.225 2.834v-3.277c.002-7.188 4.849-13.271 11.477-15.224z"/></svg>

<svg id="headphone" viewBox="0 0 65 60"><path d="M40.7 36.4v17.1c0 3.5 2.9 6.4 6.4 6.4.8 0 1.5-.2 2.1-.4V30.4c-.7-.2-1.4-.4-2.1-.4-3.5 0-6.4 2.9-6.4 6.4m19.3-1v-7.6C60 12.5 47.5 0 32.1 0S4.3 12.5 4.3 27.9v7.6C1.7 37.8 0 41.2 0 45c0 6.4 4.6 11.6 10.7 12.6V32.4c-.7.1-1.5.3-2.1.5v-5c0-13 10.6-23.6 23.6-23.6s23.6 10.6 23.6 23.6v5c-.7-.2-1.4-.4-2.1-.5v25.3c6.1-1 10.7-6.3 10.7-12.6-.1-3.9-1.8-7.3-4.4-9.7M17.1 30c-.8 0-1.5.2-2.1.4v29.2c.7.2 1.4.4 2.1.4 3.6 0 6.4-2.9 6.4-6.4V36.4c.1-3.5-2.8-6.4-6.4-6.4"/></svg>

<svg id="info" viewBox="0 0 60 60"><g fill-rule="evenodd"><path fill-rule="nonzero" d="M37.746 42.119l-.46 1.765c-1.38.512-2.482.901-3.303 1.169-.821.268-1.776.402-2.864.402-1.67 0-2.97-.385-3.897-1.148-.926-.766-1.39-1.737-1.39-2.915 0-.456.034-.925.104-1.403.07-.478.182-1.017.336-1.62l1.724-5.73a25.52 25.52 0 0 0 .389-1.56c.105-.49.156-.939.156-1.344 0-.732-.16-1.244-.482-1.531-.322-.287-.935-.433-1.845-.433-.446 0-.904.067-1.37.197-.47.13-.871.256-1.208.373l.462-1.767c1.13-.432 2.21-.802 3.242-1.109 1.033-.308 2.009-.462 2.932-.462 1.66 0 2.94.377 3.838 1.13.9.753 1.349 1.73 1.349 2.934 0 .249-.03.687-.093 1.315a8.318 8.318 0 0 1-.346 1.728l-1.717 5.708c-.14.458-.267.983-.377 1.572-.114.586-.168 1.034-.168 1.334 0 .758.18 1.276.54 1.55.364.276.99.413 1.88.413.417 0 .892-.07 1.42-.207.526-.136.91-.256 1.148-.361zm.436-23.964c0 .995-.4 1.844-1.202 2.542-.8.701-1.764 1.052-2.892 1.052-1.131 0-2.098-.35-2.907-1.052-.808-.698-1.213-1.547-1.213-2.542 0-.993.405-1.843 1.213-2.55.808-.707 1.776-1.06 2.907-1.06 1.128 0 2.092.354 2.892 1.06.803.707 1.202 1.558 1.202 2.55z"/><path d="M30 60C13.457 60 0 46.541 0 29.999S13.457 0 30 0s30 13.457 30 29.999C60.002 46.541 46.543 60 30 60zm0-56.573c-14.653 0-26.573 11.921-26.573 26.572 0 14.65 11.92 26.57 26.573 26.57 14.651 0 26.57-11.92 26.57-26.57S44.652 3.427 30 3.427z"/></g></svg>

<svg id="jfm" viewBox="0 0 78 60"><path d="M27.6 15.2c-1.4 0-2.4 1.1-2.6 2.4h5.2c-.4-1.6-1.2-2.4-2.6-2.4zm39.7 9.4c-.8.8-1.8 1.2-3.1 1.2-1.1 0-2.1-.4-3-1-.8-.7-1.4-1.5-1.8-2.4l2.4-1.3c.5 1.4 1.3 2.1 2.4 2.1 1 0 1.5-.5 1.5-1.4 0-.4-.2-.7-.6-1-.2-.1-.5-.2-.7-.3-.4-.2-1.2-.5-1.7-.7-1.5-.7-2.4-1.6-2.4-3.4 0-1 .4-1.9 1.1-2.6.7-.7 1.6-1.1 2.8-1.1 1.6 0 3 .8 3.8 2.1l-1.8 1.7c-.5-.7-1.2-1.1-2-1.1-.6 0-1.1.4-1.1 1.1 0 .5.4.9 1.1 1.2l.8.3 1 .4c.2.1.5.3.9.5s.7.4.9.7c.4.4.7 1.2.7 2.1-.1 1.1-.5 2.1-1.2 2.9zm-10.1 1.1h-3v-2.1c-1 1.5-2.2 2.3-3.7 2.3-2.2 0-3.7-1.3-3.7-3.9v-9.1h3v8.2c0 1.4.6 2.1 1.7 2.1 1.5 0 2.7-2 2.7-5.2v-5.1h3v12.8zM43 24.6c-.8.8-1.8 1.2-3.1 1.2-1.1 0-2.1-.4-3-1-.8-.7-1.4-1.5-1.8-2.4l2.4-1.3c.5 1.4 1.3 2.1 2.4 2.1 1 0 1.5-.5 1.5-1.4 0-.4-.2-.7-.6-1-.2-.1-.5-.2-.7-.3-.4-.2-1.2-.5-1.7-.7-1.5-.7-2.4-1.6-2.4-3.4 0-1 .4-1.9 1.1-2.6.7-.7 1.6-1.1 2.8-1.1 1.6 0 3 .8 3.8 2.1l-1.8 1.7c-.5-.7-1.2-1.1-2-1.1-.6 0-1.1.4-1.1 1.1 0 .5.4.9 1.1 1.2l.9.3 1 .4c.2.1.5.3.9.5s.7.4.9.7c.4.4.7 1.2.7 2.1-.1 1.1-.5 2.1-1.3 2.9zm-9.5-4.3h-8.3c.1 1.5 1.1 2.9 2.8 2.9 1.2 0 2.2-.7 2.9-2l2.4.9c-1 2.5-2.8 3.7-5.5 3.7-4.1 0-5.8-3.5-5.8-6.6s1.6-6.6 5.8-6.6c1.9 0 3.5.8 4.3 2.1.9 1.2 1.3 2.7 1.3 4.2l.1 1.4zm-14.1-.9c0 4.6-1.9 6.4-5.3 6.4-2.9 0-4.8-1.7-5.2-4.6l3.1-.7c.3 1.5 1 2.2 2.1 2.2 1.4 0 2.2-.8 2.2-3V7.9h3.1v11.5zM73.6 0H3.8C1.7 0 0 1.8 0 4v30.5c0 1.8 1.1 3.4 2.7 3.8l72.8 21.6c.9.3 1.8-.5 1.8-1.4V4c0-2.2-1.6-4-3.7-4z"/></svg>

<svg id="map" viewBox="0 0 60 60"><path d="M57.1 48.2L41 56.3V11.8l16.2-8.1v44.5zM21.9 3.7l16.2 8.1v44.4l-16.2-8.1V3.7zm-19 8.1L19 3.7v44.4L2.9 56.3V11.8zM59.3.2c-.4-.3-.9-.3-1.4-.1L39.5 9.4 21.1.2H21c-.1 0-.1 0-.2-.1H20c-.1 0-.1 0-.2.1h-.1L.7 9.7c-.4.2-.7.7-.7 1.3v47.6c0 .5.3 1 .7 1.2.2.1.5.2.7.2.2 0 .4 0 .6-.2l18.4-9.2 18.4 9.2c.1 0 .1 0 .2.1h1c.1 0 .1 0 .2-.1l19-9.5c.5-.2.8-.7.8-1.3V1.4c0-.5-.3-.9-.7-1.2z"/></svg>

<svg id="menu" viewBox="0 0 72 60"><g fill-rule="evenodd"><path d="M0 59.444h71.149V47.609H0zM0 11.833h71.149V0H0zM0 35.489h71.149V23.478H0z"/></g></svg>

<svg id="more_menu" viewBox="0 0 12 60"><path fill-rule="evenodd" d="M12 6c0-3.3-2.7-6-6-6S0 2.7 0 6s2.7 6 6 6 6-2.7 6-6zM6 24c-3.3 0-6 2.7-6 6s2.7 6 6 6 6-2.7 6-6-2.7-6-6-6zm0 24c-3.3 0-6 2.7-6 6s2.7 6 6 6 6-2.7 6-6-2.7-6-6-6z" opacity=".9"/></svg>\

<svg id="no_audio" viewBox="0 0 60 60"><path d="M12.5 10.6L23 21.1h-3.9l-8.6-8.6c-9.3 10.3-9 26.1.9 35.9 9.9 9.9 25.7 10.2 36 1l-4.2-4.2v-3.9l6.1 6.1c9.3-10.3 9-26.1-.9-36-9.8-9.8-25.6-10.1-35.9-.8zm27.3.7c.9 0 1.6.8 1.6 1.7v34c0 .9-.7 1.6-1.6 1.6L29.3 37.4h-9.7c-.6 0-1.1-.5-1.1-1.1V23.5c0-.6.5-1.1 1.1-1.1h9.8l10.4-11.1zm-31-2.5c11.7-11.7 30.7-11.7 42.4 0s11.7 30.8 0 42.4c-11.7 11.7-30.7 11.7-42.4 0s-11.7-30.7 0-42.4z"/></svg>

<svg id="online" viewBox="0 0 100 60"><path d="M95.4 51h-7.2V2.9c0-1.5-1.5-2.3-3-2.3H13.7c-1.5 0-2.7.9-2.7 2.3V51H3.7C1.8 51 .3 52.3.3 54.2v2.2c0 1.9 1.5 3.2 3.4 3.2h91.6c1.9 0 3.7-1.3 3.7-3.2v-2.2c0-1.9-1.8-3.2-3.7-3.2h.1zm-30.9 4c0 .7-.6 1.1-1.3 1.1H35.8c-.7 0-1.3-.4-1.3-1.1v-.3h29.9c.1-.1.1.3.1.3zm15.3 1.3c-.6 0-1.1-.5-1.1-1.1s.5-1.1 1.1-1.1c.6 0 1.1.5 1.1 1.1s-.4 1.1-1.1 1.1zm1.2-7.4H17.6V6.6s.4-.2.5-.2H81c.1 0 0 .2 0 .2v42.3zm4 7.4c-.6 0-1.1-.5-1.1-1.1s.5-1.1 1.1-1.1c.6 0 1.1.5 1.1 1.1s-.5 1.1-1.1 1.1zm5.1 0c-.6 0-1.1-.5-1.1-1.1s.5-1.1 1.1-1.1c.6 0 1.1.5 1.1 1.1s-.5 1.1-1.1 1.1z"/><path d="M42.6 26h.6c.1 0 .2 0 .3.1.1 0 .2.1.3.1-.2.1-.3.1-.5.1h-.4c-.2 0-.4 0-.6-.1l.1-.1.1-.1h.1c0 .1 0 .1 0 0 0 .1 0 .1 0 0m-1.3-.5c.3.1.6.2 1 .4h-.8c-.1 0-.2 0-.3-.1-.1 0-.2-.1-.2-.1-.1 0-.1-.1-.2-.1s-.1-.1-.2-.1-.1-.1-.2-.1c0 0-.1 0-.2-.1H40c-.2 0-.3.1-.5.2 0 0 0-.1-.1-.1 0 0 .2-.1.4-.1.1 0 .2-.1.3-.1h.2c.4.1.7.2 1 .3m-5.3 1c-.2-.1-.3-.2-.5-.3-.2-.1-.3-.2-.5-.3-.1-.1-.3-.2-.5-.3 0 .3-.1.6-.1 1v1c0 .7 0 1.3.1 1.9.1.6.2 1.2.4 1.9l.6 1.8c.2.6.5 1.1.8 1.6.6 1 1.3 2 2.2 2.9.4.4.9.9 1.4 1.2.5.4 1 .7 1.5 1 .1 0 .2.1.2.1.1 0 .1.1.2.1V40v-.1c.1-.2.1-.5.2-.7.1-.2.1-.5.1-.7 0-.2.1-.4.1-.6v-.6c0-.3 0-.5-.1-.8 0-.3-.1-.5-.1-.8-.1-.5-.3-.9-.5-1.3 0-.1-.1-.2-.2-.3-.1-.1-.1-.2-.2-.3-.1-.1-.1-.2-.2-.3-.1-.1-.1-.2-.2-.3.3-.1.3-.2.2-.3-.1-.1-.1-.2-.1-.3 0-.1-.1-.2-.1-.3 0-.1-.1-.2-.1-.3v-.2c0-.1 0-.1.1-.2 0 0 .1-.1.1-.2s.1-.1.1-.2h-.1s-.1 0-.1-.1c.1-.2.2-.3.3-.5 0-.1.1-.2.1-.2 0-.1.1-.1.1-.2s.1-.1.1-.2.1-.1.1-.2c.1-.1.1-.3.1-.4 0-.2-.1-.4-.2-.7H41.6l.1-.1s0-.1.1-.2c0-.1.1-.1.1-.2s.1-.2.2-.3c.1-.1.2-.1.4-.2s.4-.1.6-.1h.7c.1 0 .2 0 .3.1.1 0 .2.1.3.1.1 0 .2.1.2.1.1 0 .2.1.3.1.1 0 .2.1.2.1h.2v.2h.2c.1 0 .1 0 .1.1.1.1.1.1.2.1s.1 0 .2.1h.1s.1 0 .1.1l.1.1.1.1h.2l.2.2h.4c.1 0 .3.1.4.1.2 0 .3.1.5.2s.4.2.5.3l.6.3.6.3c.2.1.4.3.6.4.2.1.4.3.5.4.2.1.3.3.4.4s.2.3.4.4c.2.3.3.5.3.7 0 .1 0 .2-.1.3-.1.1-.2.2-.4.2v.4c0 .5-.1.8-.3 1.1-.1.2-.4.4-.6.6-.2.1-.7.3-1 .4-.3.1-.3.3-1 .4v.2c0 .1.1.2.1.3v.3c-.1.1-.1.2-.2.3-.1.1-.1.2-.2.3-.2.2-.3.4-.6.5-.2.1-.4.2-.6.2-.1 0-.2 0-.4-.1-.1-.1-.3-.2-.3-.4v.4c.1 0 .1.2.1.3v.6c0 .1 0 .2-.1.3 0 .1-.1.2-.1.3 0 .1-.1.2-.1.3-.1.1-.2.2-.2.3-.1.1-.1.2-.2.3-.1.1-.1.2-.2.3-.1.1-.1.2-.2.3 0 0 0 .1-.1.1l-.1.1c.6.1 1.1.3 1.7.3.6.1 1.2.1 1.8.1 1.3 0 2.6-.2 3.8-.5 1.2-.3 2.3-.8 3.4-1.4.5-.3 1-.7 1.5-1 .5-.4.9-.8 1.4-1.2.7-.7 1.3-1.5 1.9-2.3-.1-.1-.1-.2-.2-.4 0-.1-.1-.2-.2-.4l-.3-.9V33v-.5c0-.2.1-.4.1-.5 0-.2.1-.3.1-.5V31v-.2c0-.1-.1-.2-.1-.3-.1-.1-.1-.2-.2-.3-.1-.1-.1-.2-.2-.3-.1-.1-.1-.2-.2-.3-.1-.1-.1-.2-.2-.3-.1-.2-.1-.3-.1-.4v-.4-.2-.3-.2-.2c0-.1 0-.1-.1-.1-.1-.1-.2-.1-.3-.1h-.4c-.1 0-.2 0-.3-.1-.1 0-.2-.1-.3-.1-.1-.1-.2-.1-.4-.2.1 0 .1 0 .1-.1-.3.1-.5.2-.8.3-.3.1-.5.2-.8.2h-.1-.1-.1v-.1c-.1 0-.1.1-.2.1s-.2.1-.2.1c-.1 0-.2 0-.3.1h-.2c-.2 0-.4 0-.6-.1-.1-.1-.2-.1-.3-.2-.1-.1-.2-.1-.3-.2-.1 0-.1-.1-.2-.1s-.1-.1-.2-.1c-.1-.1-.2-.2-.2-.3-.1-.1-.1-.2-.3-.4.3-.2.2-.2.1-.2s-.2-.1-.2-.1.1-.1.2-.1h-.4c-.1-.1-.1-.2-.1-.5 0 .1.1.1.1.1h.1s.1 0 .1-.1c-.1 0-.3 0-.3-.1-.1 0-.1-.1-.1-.1s-.1 0-.1-.1l.2-.2c0-.1.1-.2.1-.2.1-.2.1-.4.1-.5 0-.2 0-.4-.1-.5-.1-.1-.1-.2-.1-.3 0-.1 0-.2.1-.4 0-.1.1-.3.2-.4.1-.3.3-.5.5-.6 0-.1.1-.1.3-.2.1 0 .1-.1.2-.1s.1-.1.2-.1c0 0 .1-.1.2-.1s.1-.1.2-.1c.1-.1.1-.2.1-.3v-.2c0-.1 0-.1.1-.3 0-.1.1-.1.1-.1l.1-.1.1-.1.1-.1.2-.2.2-.2c0-.1.1-.1.1-.1h.5c.1 0 .2 0 .2.1H56.5c.1 0 .1 0 .2-.1.1 0 .1-.1.2-.1.2 0 .3-.1.4-.1.1 0 .1 0 .2-.1.1 0 .1 0 .2-.1H58.3c.1 0 .3-.1.4-.1.1 0 .3-.1.4-.1h.2c.1 0 0 0 0 0h.1v.1c0 .1.2-.1.2-.1h.1c.1 0 .1.1.1.2s0 .2-.1.3c0 .1-.1.2-.1.3 0 .1.1.3.2.4.1.1.3.2.4.3.1 0 .2.1.3.1.1 0 .2.1.3.1 0 0 .1 0 .1.1-.3-.5-.6-1-1-1.5s-.7-.9-1.2-1.4c-.4-.4-.8-.7-1.2-1.1h-.1-.1s-.1 0-.2.1c-.1 0-.2.1-.3.1-.1.1-.2.1-.3.1-.1 0-.2.1-.3.1-.1.1-.2.1-.2.2l-.2.2c-.1.1-.2.3-.2.4v.1s0 .1.1.1c-.2.3-.4.5-.7.6-.1.1-.2 0-.4 0h-1.4c-.1 0-.1.1-.2.1s-.1.1-.2.1v-.4s0-.1-.1-.1h-.1c0-.1 0-.1.1-.2 0-.1 0-.1.1-.2.1-.2.1-.4.1-.5 0-.1 0-.2-.1-.3 0-.1-.1-.1-.2-.1 0-.1.2-.1.5-.1.1 0 .3-.1.5-.1s.3-.1.5-.1c.3-.1.6-.1.9-.2.3-.1.4-.2.4-.3 0 0 0-.1-.1-.1-.1-.3-.2-.5-.4-.6-.3-.1-.7-.2-.7-.2v-.2s-.1-.1 0-.1h.3c.2 0 .3 0 .3-.1v-.2c-.8-.4-1.6-.7-2.5-.9-1.2-.3-2.5-.5-3.8-.5-.7 0-1.3 0-1.9.1-.6.1-1.3.2-1.9.4-1.2.3-2.3.8-3.4 1.4-1.1.6-2 1.4-2.9 2.2l-.3.3c.1 0 .1-.1.2-.1s.1 0 .1-.1c.1-.1.2-.1.3-.1.2 0 .4.1.6.2.1.1.2.1.3.2.1.1.1.2.2.3.1.2.2.3.4.5.2.1.5.2.6.2.2 0 .3-.1.3-.2v-.1l-.1-.1-.1-.2v-.2s0-.1.1-.1c0 0 .1-.1.2-.1.1-.1.2-.3.2-.4 0-.1 0-.3-.1-.4 0-.1-.1-.2-.1-.2 0-.1-.1-.2-.1-.3 0-.1-.1-.1-.1-.2s0-.2.1-.2H42.3c.2 0 .3.1.4.2l.2.2c0 .1.1.1.1.2s.1.1.1.2.1.1.1.1c.1.1.1.1.2.1h.2s0-.1.1-.2c.1 0 .1-.1.2-.1s.3 0 .5.1c.1 0 .2.1.3.1.1.1.3.1.4.2.2.1.3.2.4.3l.3.3c.1.1.1.2.1.2 0 .1.1.1.1.2s0 .2-.1.3c-.1 0-.1.1-.2.1s-.1.1-.2.1c-.1.1-.3.1-.4.2-.1 0-.2 0-.3.1h-.2c-.1 0-.3 0-.4.1-.1 0-.2.1-.3.1-.1.1-.2.1-.2.2 0 0-.1.2-.1.3 0 .1.2.3.5.3h.2c.1 0 .1-.1.1-.1h.1c0 .1 0 .1-.1.1h-.1s-.1 0-.1.1c-.1.1-.2.1-.3.2-.1 0-.2 0-.3.1-.1 0-.2.1-.3.1-.2 0-.3.1-.3.3v.1s0 .1.1.1h-.4c-.1 0-.1 0-.2.1-.1 0-.1 0-.2.1-.1 0-.2.1-.4.2-.1.1-.2.1-.3.2v.2c0 .1.1.1 0 .1v-.2-.1-.1-.1-.1l-.1.1h-.1v.1l.1.1-.1-.1h-.1v.1s0 .1.1.1v.1c.1 0 .1 0 .1.1v.2h.1s-.1-.1-.1 0l-.1-.1h-.1l-.4.3v.1h.2l.1.2.1.2h.1v-.1c-.1 0-.3 0-.4.1-.1 0-.2 0-.3.1.4-.2.3-.1.3-.1l-.1.1c-.1.1-.1.2-.1.3v1.5c-.2-.4-.4-.8-.7-.9-.1-.1-.3-.2-.5-.2s-.4-.1-.5-.1h-.3c-.1 0-.2 0-.3.1H38.8v.2s0 .1.1.1c-.1 0-.3-.1-.4-.1h-.8c-.1 0-.2 0-.4.1s-.4.2-.6.4v.8c0 .4.1.7.3.9.2.2.4.2.7.2.3 0 .6 0 .9-.1.1 0 .3-.1.5-.2s.5-.1.5-.2V26.2l-.1.1s-.1 0-.1.1l-.1.1-.1.1v.5s0 .1-.1.1l.1.1h.2l.1-.1c.3 0 .5.1.6.2l.2.2c.1.1.1.2.2.3.1.1.1.2.2.3.1.1.2.2.2.3l.3.3c.1.1.3.1.4.2-.1 0-.2.1-.3.1h-.1l-.1.1H41c-.1 0-.2-.1-.2-.1-.1 0-.1-.1-.2-.1s-.1 0-.1-.1c0 0-.1 0-.1-.1 0 0-.1 0-.1-.1l-.1-.1c-.1 0-.2-.1-.3-.3v.1s.2 0 .2.1h.1-.2c-.1-.2-.2-.3-.4-.5l-.1-.2c-.1-.2-.2-.5-.3-.5h-.5c-.1 0-.2.1-.2.1h-.2c-.2-.1-.4-.2-.6-.2-.2-.1-.4-.1-.6-.2-.2-.1-.3-.1-.5-.2-.3-.2-.5-.2-.6-.3m12.7-15c.7 0 1.5 0 2.2.1.7.1 1.4.2 2.1.4s1.3.4 2 .7c.6.3 1.3.6 1.9.9.6.3 1.2.7 1.7 1.1.5.4 1 .9 1.5 1.4.5.5.9 1 1.4 1.5.4.5.8 1.1 1.1 1.7.3.6.7 1.2.9 1.9.3.6.5 1.3.7 2 .4 1.3.6 2.8.6 4.3s-.2 2.9-.6 4.3c-.2.7-.4 1.3-.7 2-.3.6-.6 1.3-.9 1.9s-.7 1.2-1.2 1.7c-.4.5-.9 1-1.4 1.5-.5.5-1 .9-1.5 1.4-.5.4-1.1.8-1.7 1.2-.6.3-1.2.7-1.9.9-.6.3-1.3.5-2 .7-.7.2-1.4.3-2.1.4-.7.1-1.4.1-2.2.1-.7 0-1.5 0-2.2-.1-.7-.1-1.4-.2-2.1-.4-.7-.2-1.3-.4-2-.7-.6-.3-1.3-.6-1.9-.9-.6-.3-1.2-.7-1.7-1.2-.5-.4-1-.9-1.5-1.4-.5-.5-.9-1-1.4-1.5-.4-.5-.8-1.1-1.1-1.7-.3-.6-.7-1.2-.9-1.9-.3-.6-.5-1.3-.7-2-.2-.7-.3-1.4-.4-2.1-.1-.7-.1-1.4-.1-2.2 0-.7 0-1.5.1-2.2.1-.7.2-1.4.4-2.1.2-.7.4-1.3.7-2 .3-.6.6-1.3.9-1.9.7-1.2 1.5-2.3 2.5-3.2 1-1 2-1.8 3.2-2.5.6-.3 1.2-.7 1.8-.9s1.3-.5 2-.7c.7-.2 1.4-.3 2.1-.4.9 0 1.6-.1 2.4-.1"/></svg>

<svg id="person" viewBox="0 0 49 60"><path d="M24.7.1c8.6 0 15.6 7.8 15.6 17.3s-7 17.3-15.6 17.3S9.1 27 9.1 17.4 16.1.1 24.7.1"/><path d="M9.4 33.8H10.3l.4.2.3.1.3.3.4.3.4.4.4.5.4.5.3.7.4.8.4.8.3.8.4 1 .3.9.3 1 .3 1 .3 1 .3 1 .3 1 .3 1 .3 1 .3 1 .3.9.4 1 .4.9.5.9.7.9.8.9 1.1.8 1.4.6 1.5.2 1.6-.2 1.4-.6 1.1-.8.8-1 .6-.9.5-.9.5-.9.3-.9.4-1 .3-1 .3-1 .3-1 .3-1 .3-1.1.3-1 .3-1 .3-.9.4-1 .3-.9.4-.9.4-.8.4-.7.4-.6.5-.6.4-.5.4-.4.4-.2.4-.3.4-.2.5-.1h.5l.8-.1.5.1h.9l.4.1.4.1.4.1.4.1.4.2.3.1.4.2.3.2.3.2.3.2.3.2.3.3.3.2.3.3.2.2.2.3.2.3.2.2.2.3.1.2.2.2.1.3v.2l.1.2.1.2v.1l.1.2V57l-.1.3-.1.3-.1.2-.1.3-.2.3-.1.2-.3.2-.2.2-.3.2-.2.2-.3.1-.3.1-.3.1-.4.1H3.4l-.3-.1-.3-.1-.3-.1-.3-.1-.3-.2-.3-.2-.2-.2-.2-.2-.2-.2-.1-.3-.2-.3-.1-.2v-.3L.5 57V39.2l.1-.2v-.1l.1-.2.1-.2.1-.2.2-.3.1-.3.2-.2.2-.3.3-.2.3-.3.2-.3.3-.2.3-.3.4-.2.3-.3.4-.2.4-.2.4-.2.4-.2.4-.1.4-.2.5-.2.5-.1.4-.1.5-.1h1z"/></svg>

<svg id="play_audio" viewBox="0 0 50 60"><path d="M0 0l49.2 30L0 60z"/></svg>

<svg id="play_speed" viewBox="0 0 56 60"><path d="M27.8 60C15.9 60 6.2 50.3 6.2 38.4s9.7-21.6 21.6-21.6 21.6 9.7 21.6 21.6S39.7 60 27.8 60zm-.4-40.8c-1.1 0-2 .9-2 2V34c0 1.1.9 2 2 2h.8c1.1 0 2-.9 2-2V21.2c0-1.1-.9-2-2-2h-.8zM27.4 0h.8c1.1 0 2 .9 2 2v8c0 1.1-.9 2-2 2h-.8c-1.1 0-2-.9-2-2V2c0-1.1.9-2 2-2zM41.5 2.7l.8.3c1 .4 1.5 1.6 1.1 2.6L40.3 13c-.4 1-1.6 1.5-2.6 1.1l-.7-.3c-1-.4-1.5-1.6-1.1-2.6L39 3.8c.3-1 1.5-1.5 2.5-1.1zM12.9 3l.7-.3c1-.4 2.2.1 2.6 1.1l3.1 7.4c.4 1-.1 2.2-1.1 2.6l-.7.3c-1 .4-2.2-.1-2.6-1.1l-3.1-7.4c-.4-1 .1-2.2 1.1-2.6zM.8 10.7l.6-.6c.8-.8 2-.8 2.8 0l5.7 5.7c.8.8.8 2 0 2.8l-.6.6c-.8.8-2 .8-2.8 0L.8 13.5c-.8-.7-.8-2 0-2.8zM54.9 10.2l.6.6c.8.8.8 2 0 2.8l-5.7 5.7c-.8.8-2 .8-2.8 0l-.6-.6c-.8-.8-.8-2 0-2.8l5.7-5.7c.7-.8 2-.8 2.8 0z"/></svg>

<svg id="plus" viewBox="0 0 60 60"><path fill-rule="evenodd" d="M25 25V1a1 1 0 0 1 1-1h8a1 1 0 0 1 1 1v24h24a1 1 0 0 1 1 1v8a1 1 0 0 1-1 1H35v24a1 1 0 0 1-1 1h-8a1 1 0 0 1-1-1V35H1a1 1 0 0 1-1-1v-8a1 1 0 0 1 1-1h24z"/></svg>

<svg id="profile" viewBox="0 0 58 60"><path d="M19.4.2c4.4 0 8.2 2.7 10.2 6.8-5.2 2.7-8.7 8.6-8.7 15.4 0 1.1.1 2.2.3 3.3-.6.1-1.1.2-1.7.2C13 25.9 7.9 20.1 7.9 13 7.9 6 13 .2 19.4.2M8.1 24.1h.5l.4.1.4.1.4.2.3.2.3.3.3.4.3.4.3.5.3.6.3.6.3.6.3.6.3.7.2.7.3.7.2.8.2.7.2.8.2.7.2.7.2.7.2.6c-1.7 1.6-2.7 3.5-2.7 5v4.3H3.3L3 45l-.3-.1-.3-.1H2l-.3-.2-.3-.2-.2-.2-.2-.3-.2-.3-.2-.3V43l-.1-.3V28.8l.1-.2.1-.2.1-.2.1-.2.1-.2.1-.2.2-.3.3-.3.2-.2.2-.3.2-.2.3-.2.3-.2.2-.2.3-.2.3-.2.4-.2.3-.1.3-.2.4-.1.3-.1.4-.1.4-.1.4-.1.4-.1h.8l.4-.1z"/><path d="M36.2 7.7c7.3 0 13.2 6.6 13.2 14.7s-5.9 14.7-13.2 14.7c-7.3 0-13.2-6.6-13.2-14.7S28.9 7.7 36.2 7.7"/><path d="M23.3 35.1l.6.1h.4l.5.2.4.2.4.3.4.3.4.5.3.4.4.6.4.6.3.7.4.7.3.8.3.8.3.8.2.9.3.9.2.9.3.8.2.9.3.8.2.8.3.8.3.8.3.7.3.7.4.7.4.7.6.6.7.5.9.4 1 .1 1-.1 1-.4.7-.6.6-.6.4-.7.4-.6.3-.8.3-.7.3-.8.2-.8.3-.8.2-.9.3-.8.2-.9.3-.9.3-.8.3-.9.3-.8.3-.9.3-.7.4-.8.3-.6.4-.6.5-.6.4-.4.4-.5.4-.3.5-.3.5-.2.5-.1.6-.1h1.3l.4.1h.4l.5.1.4.1.3.1.4.1.4.2.4.1.3.2.3.2.4.2.3.2.3.2.2.2.3.3.3.2.2.3.2.2.2.3.2.2.2.3.2.2.1.3.1.3.1.2.1.2v.2l.1.3v.1l.1.2v14.7l-.1.5v.4l-.1.3-.1.3-.2.4-.2.3-.2.3-.3.2-.3.3-.3.2-.3.2-.3.2-.4.1-.4.1-.4.1H18l-.3-.1-.4-.1-.4-.1-.4-.2-.3-.2-.3-.2-.3-.3-.2-.2-.2-.3-.2-.3-.2-.4-.1-.3-.1-.3-.1-.4V40.8l.1-.2v-.2l.1-.2.1-.2.1-.3.1-.2.2-.2.1-.3.3-.2.2-.3.2-.3.2-.3.3-.2.3-.3.3-.2.3-.2.4-.3.3-.2.4-.2.4-.2.4-.2.4-.1.4-.2.4-.1.5-.1.4-.1.5-.1h.4l.5-.1z"/></svg>

<svg id="radio" viewBox="0 0 48 60"><path d="M43.8 14.8L6.3 1.9S6.2 2.3 6 3l-.1.2c-.2.7-.3 1.2-.3 1.2l30.2 10.4H3.7C1.6 14.8 0 17 0 19.6v35.1c0 2.7 1.7 4.8 3.7 4.8h39.7c2.1 0 3.7-2.2 3.7-4.8V19.6c.1-2.6-1.4-4.6-3.3-4.8zM32.5 28.1c.9 0 1.6.8 1.6 1.7 0 .9-.7 1.7-1.6 1.7s-1.6-.8-1.6-1.7c0-.9.7-1.7 1.6-1.7zm-5.9 3.6c.9 0 1.6.8 1.6 1.7 0 .9-.7 1.7-1.6 1.7s-1.6-.8-1.6-1.7c0-.9.7-1.7 1.6-1.7zM14 22.8c.9 0 1.6.8 1.6 1.7 0 .9-.7 1.7-1.6 1.7s-1.6-.8-1.6-1.7c0-.9.7-1.7 1.6-1.7zM5.6 36.9c0-.9.7-1.7 1.6-1.7.9 0 1.6.8 1.6 1.7 0 .9-.7 1.7-1.6 1.7-.9-.1-1.6-.8-1.6-1.7zM9 45.6c-.9 0-1.6-.8-1.6-1.7 0-.9.7-1.7 1.6-1.7s1.6.8 1.6 1.7c.1 1-.7 1.7-1.6 1.7zm0-14.1c-.9 0-1.6-.8-1.6-1.7 0-.9.7-1.7 1.6-1.7s1.6.8 1.6 1.7c.1.9-.7 1.7-1.6 1.7zm5 19.2c-.9 0-1.6-.8-1.6-1.7 0-.9.7-1.7 1.6-1.7s1.6.8 1.6 1.7c0 1-.7 1.7-1.6 1.7zm.9-8.7c-.9 0-1.6-.8-1.6-1.7 0-.9.7-1.7 1.6-1.7.9 0 1.6.8 1.6 1.7 0 1-.7 1.7-1.6 1.7zm0-6.9c-.9 0-1.6-.8-1.6-1.7 0-.9.7-1.7 1.6-1.7.9 0 1.6.8 1.6 1.7 0 .9-.7 1.7-1.6 1.7zm5.8 17.5c-.9 0-1.6-.8-1.6-1.7 0-.9.7-1.7 1.6-1.7s1.6.8 1.6 1.7c.1 1-.7 1.7-1.6 1.7zm0-7c-.9 0-1.6-.8-1.6-1.7 0-.9.7-1.7 1.6-1.7s1.6.8 1.6 1.7c.1 1-.7 1.7-1.6 1.7zm0-7.1c-.9 0-1.6-.8-1.6-1.7 0-.9.7-1.7 1.6-1.7s1.6.8 1.6 1.7c.1 1-.7 1.7-1.6 1.7zm0-7c-.9 0-1.6-.8-1.6-1.7 0-.9.7-1.7 1.6-1.7s1.6.8 1.6 1.7c.1.9-.7 1.7-1.6 1.7zm0-7.3c-.9 0-1.6-.8-1.6-1.7 0-.9.7-1.7 1.6-1.7s1.6.8 1.6 1.7c.1.9-.7 1.7-1.6 1.7zM25 40.4c0-.9.7-1.7 1.6-1.7s1.6.8 1.6 1.7c0 .9-.7 1.7-1.6 1.7s-1.6-.8-1.6-1.7zm2.5 10.3c-.9 0-1.6-.8-1.6-1.7 0-.9.7-1.7 1.6-1.7.9 0 1.6.8 1.6 1.7 0 1-.7 1.7-1.6 1.7zm0-24.5c-.9 0-1.6-.8-1.6-1.7 0-.9.7-1.7 1.6-1.7.9 0 1.6.8 1.6 1.7 0 1-.7 1.7-1.6 1.7zm5 19.4c-.9 0-1.6-.8-1.6-1.7 0-.9.7-1.7 1.6-1.7s1.6.8 1.6 1.7c0 1-.7 1.7-1.6 1.7zm1.8-7.1c-.9 0-1.6-.8-1.6-1.7 0-.9.7-1.7 1.6-1.7.9 0 1.6.8 1.6 1.7 0 1-.7 1.7-1.6 1.7zm7.3-2.8c-1.3 0-2.4-1.1-2.4-2.5s1.1-2.5 2.4-2.5c1.3 0 2.4 1.1 2.4 2.5s-1.1 2.5-2.4 2.5zm0-10.9c-1.3 0-2.4-1.1-2.4-2.5s1.1-2.5 2.4-2.5c1.3 0 2.4 1.1 2.4 2.5s-1.1 2.5-2.4 2.5zM4.9 1.4l-2-.8c-.6-.3-1.4 0-1.6.7s0 1.4.7 1.7l2 .8.9-2.4z"/></svg>

<svg id="resources" viewBox="0 0 66 60"><path d="M61.292 18.126c-.267-2.337-.305-6.361 1.559-7.713.033-.024.058-.06.087-.09 1.523-.568 2.578-1.365 1.75-2.437L42.214 0 5.822 5.892s-4.167.694-3.794 8.234c.202 4.104 1.307 6.12 2.273 7.111l-2.986 1.048c-.829 1.072.225 1.869 1.75 2.435.028.032.053.067.086.092 1.863 1.353 1.827 5.377 1.559 7.714-6.69 2.212-4.289 2.933-4.289 2.933l1.468.414C.857 36.959-.17 39.019.023 42.926c.373 7.54 3.796 8.06 3.796 8.06L27.633 60l35.945-10.14s2.402-.722-4.29-2.934c-.27-2.334-.307-6.357 1.56-7.713.034-.024.06-.06.087-.091 1.524-.567 2.577-1.363 1.75-2.435l-1.563-.55c1.042-.731 2.607-2.644 2.852-7.611.17-3.417-.596-5.418-1.482-6.597l3.088-.87c0 .002 2.403-.72-4.288-2.933zm-30.066-.097l6.045-1.447 20.427-4.888 3.043-.73c-.972 2.073-.932 4.91-.77 6.733.035.413.075.79.115 1.076l-3.332.964-25.782 7.47.254-9.178zM5.261 25.366l3.043.729 19.617 4.696 1.714.41 5.14 1.23.253 9.177L8.53 33.93l-2.612-.756c.038-.287.079-.663.116-1.076.16-1.822.201-4.66-.772-6.732zM4.08 13.763c-.037-2.005.27-3.456.89-4.193C5.364 9.1 5.83 9 6.15 9c.17 0 .29.028.299.028l15.68 5.953 7.823 2.97-.257 9.242L7.748 20.03l-1.159-.378a.61.61 0 0 0-.144-.026c-.09-.008-2.26-.24-2.366-5.862zm23.61 42.233L4.587 48.452a.598.598 0 0 0-.145-.026c-.092-.007-2.263-.24-2.368-5.86-.037-2.008.271-3.457.89-4.195.396-.47.862-.569 1.181-.569.17 0 .29.027.3.027l23.5 8.925-.254 9.242zm30.276-9.498c.036.413.077.79.116 1.076L28.967 56.01l.254-9.178 6.225-1.49.919.259 3.445-1.304 15.882-3.801 3.045-.73c-.974 2.073-.934 4.91-.772 6.733zm1.603-12.473a.487.487 0 0 0-.155.028l-2.196.715-20.908 6.828-.256-9.242 6.86-2.606 16.61-6.308a1.556 1.556 0 0 1 1.513.531c.62.737.927 2.188.89 4.193-.108 5.62-2.279 5.853-2.358 5.86z"/></svg>

<svg id="search" viewBox="0 0 58 60"><path fill-rule="evenodd" d="M56.22 50.144L44.112 37.702a24.923 24.923 0 0 0 3.707-13.128C47.82 11.024 37.094 0 23.91 0S0 11.024 0 24.574c0 13.55 10.726 24.574 23.91 24.574a23.28 23.28 0 0 0 12.218-3.459L48.34 58.242c5.21 5.356 13.094-2.737 7.878-8.098zM6.206 23.794c0-9.698 7.889-17.587 17.586-17.587s17.586 7.889 17.586 17.586S33.49 41.38 23.793 41.38 6.207 33.49 6.207 23.793z"/></svg>

<svg id="search1" viewBox="0 0 62 60"><path d="M27.7 50.9c-12.8 0-23.2-10.4-23.2-23.2S14.9 4.5 27.7 4.5s23.2 10.4 23.2 23.2-10.4 23.2-23.2 23.2M61 56.1L49.6 44.7c3.7-4.7 5.8-10.6 5.8-17C55.4 12.4 43 0 27.7 0 12.4 0 0 12.4 0 27.7 0 43 12.4 55.4 27.7 55.4c7.3 0 13.9-2.8 18.8-7.4l11.3 11.3c.4.4 1 .7 1.6.7.6 0 1.2-.2 1.6-.7.9-.8.9-2.3 0-3.2"/></svg>

<svg id="send" viewBox="0 0 84 60"><path d="M62.6 45.4c-1.7.6-4.8 1.3-10.5 1.3-3.7 0-8-.3-12.8-.8-1.1-.1-2-.2-2.9-.4L78.1 7.7c-4 8.9-10.4 23.6-15.5 37.7zm-38.5-1.8l37.2-25.8L31 45.5c-.2.2-.4.4-.5.7l-3 7.9-3.4-10.5zM83.7 0S68.1 7.3 50.3 15.1c-1.2.5-2.4 1-3.6 1.6-4.2 1.8-8.5 3.7-12.7 5.4-.6.3-1.2.5-1.8.7l-3.6 1.5c-1.8.7-3.5 1.4-5.2 2.1-2.8 1.1-5.5 2.1-8 3.1-3.5 1.3-6.7 2.4-9.3 3.1l-2.1.6c-1.7.4-3 .7-4 .7 1.3 1.1 2.9 2 4.6 2.9l1.8.9c.3.1.6.3.9.4l3.6 1.5c1.2.4 2.4.9 3.5 1.2 4.2 1.4 7.5 2.1 7.5 2.1l5.3 16.9 11.9-12c.5.1 1.4.2 1.5.2.5 0 1.5.1 1.5.2.5 0 1 .1 1.5.1h.1c.5 0 1 .1 1.5.1h.1c.5 0 1 .1 1.5.1h.2c.5 0 1 .1 1.5.1H58.5c.1 0 .2 0 .4-.1.1 0 .3 0 .4-.1.1 0 .2 0 .4-.1.1 0 .2 0 .4-.1.1 0 .2 0 .4-.1.1 0 .2 0 .3-.1.1 0 .2-.1.3-.1.1 0 .2-.1.3-.1.1 0 .2-.1.3-.1.1 0 .2-.1.3-.1.1 0 .2-.1.3-.1.1 0 .2-.1.3-.1.1 0 .2-.1.4-.1.1 0 .1-.1.2-.1.2-.1.3-.1.5-.2h.1c3.2-9.2 7.1-18.6 10.5-26.6.3-.6.5-1.2.8-1.8.5-1.2 1-2.3 1.5-3.5.7-1.7 1.4-3.2 2.1-4.7C81.8 4 83.7 0 83.7 0z"/></svg>

<svg id="settings" viewBox="0 0 60 60"><path d="M56.929 23.702l-4.212-.715a23.78 23.78 0 0 0-1.692-4.086l2.482-3.472a3.695 3.695 0 0 0-.401-4.775l-3.735-3.735a3.68 3.68 0 0 0-2.62-1.09c-.777 0-1.516.237-2.143.689l-3.484 2.481a23.532 23.532 0 0 0-4.237-1.742l-.702-4.161A3.703 3.703 0 0 0 32.525 0H27.25a3.703 3.703 0 0 0-3.66 3.096l-.727 4.261a23.194 23.194 0 0 0-4.074 1.718l-3.447-2.482a3.68 3.68 0 0 0-2.155-.69c-.99 0-1.93.389-2.62 1.09L6.818 10.73a3.71 3.71 0 0 0-.4 4.775l2.506 3.523a23.227 23.227 0 0 0-1.667 4.098l-4.161.702A3.703 3.703 0 0 0 0 27.487v5.277a3.703 3.703 0 0 0 3.096 3.66l4.261.727a23.194 23.194 0 0 0 1.718 4.073l-2.47 3.434a3.695 3.695 0 0 0 .401 4.776l3.736 3.735a3.68 3.68 0 0 0 2.62 1.09c.776 0 1.516-.238 2.142-.689l3.522-2.507a23.711 23.711 0 0 0 3.961 1.63l.702 4.211A3.703 3.703 0 0 0 27.349 60h5.29a3.703 3.703 0 0 0 3.66-3.096l.714-4.211A23.78 23.78 0 0 0 41.099 51l3.471 2.481a3.68 3.68 0 0 0 2.156.69 3.68 3.68 0 0 0 2.62-1.09l3.735-3.736a3.71 3.71 0 0 0 .401-4.775L51 41.086A23.61 23.61 0 0 0 52.692 37l4.212-.702A3.703 3.703 0 0 0 60 32.638v-5.276a3.658 3.658 0 0 0-3.071-3.66zm-.288 8.936c0 .163-.113.301-.276.326l-5.264.878a1.683 1.683 0 0 0-1.354 1.24 20.065 20.065 0 0 1-2.181 5.252 1.695 1.695 0 0 0 .075 1.843l3.096 4.362a.341.341 0 0 1-.037.426L46.964 50.7a.318.318 0 0 1-.238.1.308.308 0 0 1-.188-.063l-4.349-3.095a1.694 1.694 0 0 0-1.842-.076 20.065 20.065 0 0 1-5.252 2.181 1.664 1.664 0 0 0-1.241 1.354l-.89 5.264a.325.325 0 0 1-.326.276h-5.277a.325.325 0 0 1-.325-.276l-.878-5.264a1.683 1.683 0 0 0-1.24-1.354 20.834 20.834 0 0 1-5.14-2.105 1.735 1.735 0 0 0-.852-.226c-.338 0-.69.1-.977.313l-4.387 3.121a.373.373 0 0 1-.188.063.336.336 0 0 1-.239-.1L9.4 47.078a.34.34 0 0 1-.037-.427l3.083-4.324a1.716 1.716 0 0 0 .075-1.855 19.876 19.876 0 0 1-2.206-5.24 1.716 1.716 0 0 0-1.353-1.24L3.66 33.09a.325.325 0 0 1-.276-.326v-5.277c0-.163.113-.3.276-.326l5.227-.877a1.695 1.695 0 0 0 1.366-1.254 20.045 20.045 0 0 1 2.143-5.264c.338-.577.3-1.291-.088-1.83l-3.12-4.387a.341.341 0 0 1 .037-.426l3.735-3.735a.318.318 0 0 1 .238-.1c.075 0 .138.025.188.062l4.324 3.084a1.716 1.716 0 0 0 1.855.075 19.876 19.876 0 0 1 5.24-2.206 1.716 1.716 0 0 0 1.24-1.354l.903-5.302a.325.325 0 0 1 .326-.275h5.276c.163 0 .301.112.326.275l.878 5.227a1.695 1.695 0 0 0 1.253 1.366 20.344 20.344 0 0 1 5.377 2.206 1.695 1.695 0 0 0 1.843-.075l4.324-3.108a.373.373 0 0 1 .188-.063c.05 0 .15.012.238.1l3.735 3.735a.34.34 0 0 1 .038.426l-3.096 4.35a1.694 1.694 0 0 0-.075 1.842 20.065 20.065 0 0 1 2.18 5.252c.163.652.702 1.14 1.354 1.24l5.264.89a.325.325 0 0 1 .276.327v5.276h-.012z"/><path d="M30 17.42c-6.942 0-12.58 5.638-12.58 12.58S23.057 42.58 30 42.58 42.58 36.943 42.58 30 36.943 17.42 30 17.42zm0 21.872c-5.127 0-9.292-4.165-9.292-9.292s4.165-9.292 9.292-9.292 9.292 4.165 9.292 9.292-4.165 9.292-9.292 9.292z"/></svg>

<svg id="share" viewBox="0 0 49 60"><path d="M24.3 34.3v-8.5c-8.7.3-15.7 7.8-15.7 17.1s7 16.8 15.7 17.1C10.9 60 0 48.5 0 34.3S10.9 8.6 24.3 8.6V0l24.3 17.1-24.3 17.2z"/></svg>

<svg id="timer" viewBox="0 0 60 60"><path d="M33 34.2c-1.3 1.4-3.4 1.4-4.8 0-.9-.9-1.2-2.3-.8-3.4L12.6 16l2-1.9 14.7 14.6c.8-.4 1.7-.4 2.6-.1l11.5-11.5 2 2-11.6 11.6c.4 1.1.1 2.6-.8 3.5M30 0C13.4 0 0 13.4 0 30s13.4 30 30 30 30-13.4 30-30S46.6 0 30 0"/></svg>

<svg id="upload" viewBox="0 0 48 60"><path d="M44.753 23.342h-9.77a2.314 2.314 0 0 0-2.307 2.308 2.314 2.314 0 0 0 2.307 2.308h7.423v27.307H4.714V27.958h8.192a2.314 2.314 0 0 0 2.308-2.308 2.314 2.314 0 0 0-2.308-2.308H2.368c-1.27 0-2.27 1.154-2.27 2.423v32c0 1.27 1 2.116 2.27 2.116h42.385c1.269 0 2.269-.847 2.269-2.116v-32c0-1.269-1-2.423-2.27-2.423z"/><path d="M23.176 40.65a2.314 2.314 0 0 0 2.307-2.308V7.072l9.846 8.77c.424.385 1 .577 1.539.577.654 0 1.27-.27 1.73-.77.847-.96.77-2.422-.192-3.268L25.137.573a2.322 2.322 0 0 0-2.962-.077c-.423.192-.769.539-1 .923l-11.5 11.039a2.31 2.31 0 0 0-.077 3.269 2.31 2.31 0 0 0 3.27.077l8-7.693v30.231a2.315 2.315 0 0 0 2.308 2.308z"/></svg>

<svg id="volume" viewBox="0 0 81 61"><g opacity=".9"><path d="M.7 17h13.5c.4 0 .7.3.7.7v28.6c0 .4-.3.7-.7.7H.7c-.4 0-.7-.3-.7-.7V17.7c0-.4.3-.7.7-.7zm18.8 1.9L47.9 1c.3-.2.8-.1 1 .2.1.1.1.2.1.4v58.6c0 .4-.3.7-.7.7-.1 0-.2 0-.4-.1L19.5 44.7c-.2-.1-.4-.4-.4-.6V19.5c.1-.3.2-.5.4-.6zm34.4 18.9c-.9-.8-.8-2.3 0-3.2 1-1.2 1.4-2.3 1.4-3.6 0-1.4-.5-2.7-1.4-3.6-.8-.9-.9-2.3 0-3.2.8-.9 2.2-.9 3 0 1.8 1.8 2.7 4.3 2.7 6.9s-.8 4.9-2.6 6.7c-.9.9-2.2.8-3.1 0z"/><path d="M61.9 49.1c-.6 0-1.1-.2-1.5-.7-.8-.9-.8-2.4 0-3.2C64 41.4 66 36.3 66 30.9s-2-10.5-5.7-14.3c-.9-.9-.9-2.3 0-3.2.8-.9 2.2-.9 3.1 0 4.5 4.7 7 10.9 7 17.6 0 6.6-2.5 12.9-7 17.6-.4.3-1 .5-1.5.5z"/><path d="M68.3 59.9c-.6 0-1.1-.2-1.6-.7-.8-.9-.8-2.4 0-3.3 6.4-6.7 9.9-15.5 9.9-25 0-9.4-3.5-18.3-9.9-25-.9-.9-.9-2.4 0-3.3.8-.9 2.2-.9 3.1 0C77 10.2 81 20.3 81 30.9c0 10.7-4 20.7-11.2 28.3-.4.4-1 .7-1.5.7z"/></g></svg>

<svg id="volume_down" viewBox="0 0 68 60"><path d="M67 26.7v6.2c0 .4-.3.7-.6.7H43.5c-.4 0-.7-.3-.7-.7v-6.2c0-.4.3-.7.7-.7h22.9c.4 0 .6.3.6.7zM33.9 0c1.5 0 2.6 1.2 2.6 2.6V57c0 1.5-1.2 2.6-2.6 2.6l-16.7-18H1.8c-1 0-1.8-.8-1.8-1.7V19.4c0-1 .8-1.7 1.8-1.7h15.7L33.9 0z"/></svg>

<svg id="volume_up" viewBox="0 0 65 60"><path d="M33.9 0c1.5 0 2.6 1.2 2.6 2.6V57c0 1.5-1.2 2.6-2.6 2.6l-16.7-18H1.8c-1 0-1.8-.8-1.8-1.7V19.4c0-1 .8-1.7 1.8-1.7h15.7L33.9 0zM49 17.9h6.2c.4 0 .7.3.7.6v7.7h7.7c.4 0 .6.3.6.7v6.2c0 .4-.3.7-.6.7h-7.7v7.7c0 .4-.3.7-.7.7H49c-.4 0-.6-.3-.6-.7v-7.7h-7.7c-.4 0-.7-.3-.7-.7v-6.2c0-.4.3-.7.7-.7h7.7v-7.7c0-.3.3-.6.6-.6"/></svg>

<svg id="world" viewBox="0 0 60 60"><path d="M53.3 44.5H42.7c1.9-4.4 3-8.8 3.2-13.2h11.5c-.2 4.8-1.7 9.3-4.1 13.2zM34.8 57c2.7-3.3 5-6.6 6.7-10h10c-4.1 5.2-10 8.8-16.7 10zm-2.6-10h6.3c-1.7 3-3.8 6.1-6.3 9.1V47zm0-15.7h11.1c-.2 4.4-1.4 8.8-3.5 13.2h-7.7V31.3zm0-15.9h8c1.6 3.5 2.8 7.6 3.1 12.1v1.2H32.2V15.4zm0-11.8c1.6 1.7 4.4 4.9 6.7 9.2h-6.7V3.6zm19.2 9.3h-9.5c-2.2-4.3-4.8-7.7-6.7-9.8 6.5 1.2 12.2 4.8 16.2 9.8zm6 15.8H45.9v-1.3c-.3-4.4-1.4-8.5-2.8-11.9h10.2c2.4 3.8 3.9 8.4 4.1 13.2zM29.7 12.9h-7c2.5-4.6 5.5-7.9 7-9.5v9.5zm0 15.8H18.3v-1.2c.3-4.5 1.5-8.6 3.1-12.1h8.3v13.3zm0 15.8h-8c-2.1-4.4-3.2-8.8-3.5-13.2h11.4v13.2zm0 11.9C27 53.3 24.8 50.2 23 47h6.6v9.4zM8.5 47h11.7c1.8 3.5 4.1 6.9 6.9 10.3C19.6 56.5 13 52.6 8.5 47zM2.6 31.3h13.1c.2 4.4 1.3 8.8 3.2 13.2H6.7c-2.4-3.9-3.9-8.4-4.1-13.2zm4.1-15.9h11.8c-1.5 3.5-2.6 7.5-2.8 11.9v1.3H2.6c.2-4.7 1.7-9.3 4.1-13.2zm20-12.6c-2 2.1-4.7 5.6-7 10.1H8.6c4.3-5.5 10.8-9.3 18.1-10.1zM30 0C13.5 0 0 13.5 0 30s13.5 30 30 30 30-13.5 30-30S46.5 0 30 0z"/></svg>

<svg id="zoom_in" viewBox="0 0 59 60"><path d="M30.8 20.2h-5v-5c0-1.6-1.3-2.9-2.9-2.9-1.6 0-2.9 1.3-2.9 2.9v5h-5c-1.6 0-2.9 1.3-2.9 2.9 0 1.6 1.3 2.9 2.9 2.9h5v5c0 1.6 1.3 2.9 2.9 2.9 1.6 0 2.9-1.3 2.9-2.9v-5h5c1.6 0 2.9-1.3 2.9-2.9-.1-1.6-1.4-2.9-2.9-2.9"/><path d="M22.9 37.4c-7.8 0-14.1-6.3-14.1-14.1S15.1 9.2 22.9 9.2 37 15.5 37 23.3c.1 7.8-6.3 14.1-14.1 14.1m33.6 10.4L43.6 34.9c-.2-.2-.4-.3-.6-.5 1.9-3.3 2.9-7.1 2.9-11.1C45.9 10.6 35.6.4 22.9.4 10.3.3 0 10.6 0 23.3s10.3 23 22.9 23c3.6 0 6.9-.8 9.9-2.3.2.3.5.7.8 1l12.9 12.9c2.8 2.7 7.3 2.7 10 0 2.7-2.9 2.7-7.4 0-10.1"/></svg>

<svg id="zoom_out" viewBox="0 0 59 60"><path d="M23.2 37.4c-7.8 0-14.1-6.3-14.1-14.1S15.4 9.2 23.2 9.2s14.1 6.3 14.1 14.1S31 37.4 23.2 37.4m33.6 10.4L43.9 34.9c-.2-.2-.4-.3-.6-.5 1.8-3.3 2.9-7.1 2.9-11.1C46.2 10.6 35.9.4 23.3.4 10.6.3.3 10.6.3 23.3s10.3 23 22.9 23c3.5 0 6.8-.8 9.8-2.3.3.3.5.7.8 1l12.9 12.9c2.7 2.7 7.2 2.7 10 0 2.8-2.9 2.8-7.4.1-10.1"/><path d="M30.9 20.2H15.1c-1.6 0-2.9 1.3-2.9 2.9 0 1.6 1.3 2.9 2.9 2.9h15.8c1.6 0 2.9-1.3 2.9-2.9 0-1.6-1.3-2.9-2.9-2.9"/></svg>

<svg id="books-chapters" width="24" height="28"><path d="M23.414 22.721l.586-.07V0H3.43C1.538 0 0 1.42 0 3.172v22.256l.065-.006C.367 26.888 1.757 28 3.43 28h19.996v-1.06c-.177 0-.615-.738-.615-2.112.006-1.344.42-2.078.603-2.107zM3.385 1.077h.428v11.79l2.43-3.265 2.432 3.265V1.077h14.234V21.79H3.385c-.885 0-1.688.322-2.294.825V3.201c-.006-1.176 1.028-2.124 2.294-2.124z" fill-rule="evenodd"/></svg>

<svg id="pause" width="18" height="24"><path d="M1 0h4a1 1 0 0 1 1 1v22a1 1 0 0 1-1 1H1a1 1 0 0 1-1-1V1a1 1 0 0 1 1-1zm12 0h4a1 1 0 0 1 1 1v22a1 1 0 0 1-1 1h-4a1 1 0 0 1-1-1V1a1 1 0 0 1 1-1z" fill-rule="evenodd"/></svg>

</svg>