<svg xmlns="http://www.w3.org/2000/svg" id="check_copy_4">
    <path d="M13.493,16 L2.507,16 C1.1225507,16 0,14.8778356 0,13.493 L0,2.508 C0,1.12305081 1.12266448,0 2.507,0 L13.493,0 C14.8773355,0 16,1.12305081 16,2.508 L16,13.493 C16,14.8778356 14.8774493,16 13.493,16 Z" fill="#6FBC8F"/>
    <path d="M12.6534739,4.64641931 C12.8487511,4.45117224 13.1653336,4.45119669 13.3605807,4.64647391 C13.5558278,4.84175113 13.5558033,5.15833362 13.3605261,5.35358069 L6.88452609,11.8285807 C6.68925953,12.0238171 6.37269809,12.0238049 6.17744661,11.8285534 L3.14644661,8.79755339 C2.95118446,8.60229124 2.95118446,8.28570876 3.14644661,8.09044661 C3.34170876,7.89518446 3.65829124,7.89518446 3.85355339,8.09044661 L6.5310273,10.7679205 L12.6534739,4.64641931 Z" fill="#FFFFFF"/>
</svg>
