<svg xmlns="http://www.w3.org/2000/svg"> <symbol id="bible.is_logo" width="81" height="26" fill="#fff"><path fill-rule="evenodd" d="M.548 5.168c0-.153.103-.255.256-.255h7.062c3.874 0 5.66 1.86 5.66 4.614 0 1.785-.816 3.034-2.117 3.723v.05c1.275.485 2.422 1.938 2.422 3.952 0 3.39-2.396 4.997-6.042 4.997H.804c-.153 0-.256-.102-.256-.255V5.168zm4.641 13.69h2.04c1.401 0 2.115-.688 2.115-1.962 0-1.2-.714-1.94-2.115-1.94H5.19c-.102 0-.154.052-.154.154v3.595c0 .102.052.153.154.153zM7 11.873c1.351 0 2.065-.587 2.065-1.785 0-1.224-.688-1.784-2.065-1.784H5.19c-.102 0-.154.05-.154.152v3.263c0 .103.052.154.154.154H7zm8.97 10.376a.242.242 0 0 1-.255-.255V10.088c0-.153.103-.255.255-.255h3.773c.153 0 .256.102.256.255v11.906c0 .152-.103.255-.256.255h-3.773zm0-14.022c-.152 0-.255-.102-.255-.255V5.167c0-.152.103-.254.255-.254h3.773c.153 0 .256.102.256.254v2.805c0 .153-.103.255-.256.255h-3.773zM26.56 21.076h-.025v.918c0 .152-.103.255-.256.255h-3.773c-.152 0-.255-.102-.255-.255V5.168c0-.154.103-.256.255-.256h3.773c.153 0 .256.103.256.256v5.837h.025c.561-.867 1.607-1.478 3.187-1.478 2.09 0 3.467 1.046 4.104 2.984.306.994.434 1.987.434 3.544 0 1.529-.128 2.521-.434 3.517-.637 1.938-2.014 2.983-4.104 2.983-1.58 0-2.626-.613-3.187-1.48zm3.212-3.085c.127-.407.179-.866.179-1.936 0-1.098-.052-1.557-.179-1.964-.255-.714-.765-1.046-1.53-1.046-.739 0-1.274.332-1.504 1.046-.153.407-.203.866-.203 1.964 0 1.07.05 1.529.203 1.936.23.713.765 1.044 1.504 1.044.765 0 1.275-.33 1.53-1.044zm10.604 4.41c-3.084 0-4.308-1.248-4.308-4.36V5.169c0-.153.101-.255.255-.255h3.773c.154 0 .255.102.255.255V17.61c0 .84.358 1.223 1.046 1.223h.534c.154 0 .255.102.255.255v3.059c0 .152-.101.255-.255.255h-1.555zm3.184-3.492c-.255-.739-.408-1.555-.408-2.855 0-1.327.153-2.168.383-2.88.765-2.32 2.779-3.647 5.558-3.647 2.957 0 4.894 1.326 5.608 3.594.255.765.408 1.71.408 3.876 0 .153-.102.255-.281.255h-7.367c-.103 0-.154.051-.154.152.026.18.05.358.102.511.28.866 1.199 1.35 2.397 1.35 1.07 0 1.988-.356 2.779-.994.153-.127.255-.127.383 0l1.81 1.861c.127.103.102.281-.026.382-1.301 1.25-3.187 2.04-5.405 2.04-3.033 0-5.047-1.35-5.787-3.645zm7.266-4.257c.102 0 .153-.052.153-.154 0-.332-.026-.56-.102-.765-.23-.713-.842-1.122-1.734-1.122-.867 0-1.504.41-1.734 1.122a2.916 2.916 0 0 0-.102.765c0 .102.05.154.154.154h3.365zm5.933 3.823c0-.153.102-.254.255-.254h3.543c.154 0 .256.101.256.254v3.52c0 .151-.102.253-.256.253h-3.543c-.153 0-.255-.102-.255-.254v-3.519zm6.626 3.774c-.153 0-.255-.103-.255-.255V10.088c0-.153.102-.255.255-.255h3.772c.154 0 .256.102.256.255v11.906c0 .152-.102.255-.256.255h-3.772zm0-14.022c-.153 0-.255-.102-.255-.255V5.167c0-.152.102-.254.255-.254h3.772c.154 0 .256.102.256.254v2.805c0 .153-.102.255-.256.255h-3.772zm5.45 12.415c-.102-.102-.129-.254-.026-.357l1.81-2.167c.102-.102.23-.127.356-.05 1.352.891 2.704 1.325 4.03 1.325 1.096 0 1.58-.382 1.58-.893 0-.433-.255-.662-1.555-.815l-1.378-.128c-2.728-.306-4.282-1.605-4.282-3.952 0-2.447 1.964-4.078 5.354-4.078 2.269 0 4.154.662 5.353 1.555.127.102.127.254.05.382l-1.606 2.04c-.102.127-.229.152-.382.076a6.75 6.75 0 0 0-3.466-.969c-.893 0-1.3.306-1.3.765 0 .408.229.663 1.427.765l1.376.153c3.238.331 4.436 1.81 4.41 3.927-.025 2.6-2.14 4.333-5.838 4.333-2.6 0-4.614-.816-5.913-1.912zM80.3 5.77c0 .443-.157.821-.47 1.135a1.55 1.55 0 0 1-1.135.47 1.55 1.55 0 0 1-1.135-.47 1.55 1.55 0 0 1-.47-1.135c0-.443.157-.82.47-1.135a1.55 1.55 0 0 1 1.135-.47c.443 0 .82.157 1.135.47.313.314.47.692.47 1.135zm-.216 0c0-.383-.135-.712-.406-.987a1.331 1.331 0 0 0-.983-.412c-.384 0-.711.137-.982.412a1.354 1.354 0 0 0-.408.987c0 .383.136.712.408.987.27.275.598.412.982.412.383 0 .712-.137.983-.412.27-.275.406-.604.406-.987zm-.356.816h-.413l-.615-.658h-.3v.658h-.306V4.888h.579c.116 0 .212.005.287.015.075.01.15.034.223.072a.44.44 0 0 1 .172.153.44.44 0 0 1 .054.225c0 .121-.035.22-.105.3a.705.705 0 0 1-.29.19l.714.742zm-.653-1.21a.257.257 0 0 0-.026-.12.194.194 0 0 0-.087-.085.333.333 0 0 0-.122-.04 1.222 1.222 0 0 0-.163-.01H78.4v.573h.236a.949.949 0 0 0 .198-.018.303.303 0 0 0 .137-.06.263.263 0 0 0 .08-.102.351.351 0 0 0 .024-.139z"/></symbol></svg>
