<svg xmlns="http://www.w3.org/2000/svg" id="email" width="30px" height="30px" fill="#fff" viewBox="0 0 80 60"><path
        fill-rule="evenodd"
                                                                              d="M75.08 51.194V9.377L54.233 29.968 75.08 51.194zm-3.485 3.8L50.623 34.087 47.2 37.445c-1.964 1.964-4.434 2.977-7.349 2.977-2.851 0-5.322-1.013-7.285-2.977l-3.422-3.358L8.173 54.994h63.422zm.126-50.559H8.047L34.72 31.109c2.344 2.345 4.056 3.548 5.132 3.548 1.141 0 2.851-1.203 5.196-3.548L71.721 4.435zM25.533 29.968L4.69 9.378v41.816l20.844-21.226zm54.171 25.09c0 1.837-.316 3.168-1.077 3.865-.697.76-1.901 1.077-3.612 1.077H4.69c-1.267 0-2.344-.316-3.168-1.077C.507 58.036 0 56.768 0 55.06V4.562c0-1.204.507-2.28 1.458-3.168C2.47.444 3.549 0 4.688 0h70.327c1.584 0 2.789.444 3.548 1.268.761.887 1.141 1.964 1.141 3.294V55.06z"/></svg>
