<svg id="search" height="30px" width="30px" viewBox="0 0 58 60" xmlns="http://www.w3.org/2000/svg">
    <path fill="#fff" fill-rule="evenodd" d="M56.22 50.144L44.112 37.702a24.923 24.923 0 0 0 3.707-13.128C47.82 11.024 37.094 0 23.91 0S0 11.024 0 24.574c0 13.55 10.726 24.574 23.91 24.574a23.28 23.28 0 0 0 12.218-3.459L48.34 58.242c5.21 5.356 13.094-2.737 7.878-8.098zM6.206 23.794c0-9.698 7.889-17.587 17.586-17.587s17.586 7.889 17.586 17.586S33.49 41.38 23.793 41.38 6.207 33.49 6.207 23.793z"/>
</svg>
