<svg xmlns="http://www.w3.org/2000/svg"><symbol id="bible.is_logo_light" width="81" height="19"><path d="M.5481 1.1677c0-.153.103-.255.256-.255h7.062c3.874 0 5.659 1.861 5.659 4.614 0 1.785-.815 3.034-2.116 3.723v.05c1.275.485 2.422 1.938 2.422 3.952 0 3.391-2.396 4.997-6.042 4.997H.8041c-.153 0-.256-.102-.256-.255V1.1677zm4.641 13.69h2.04c1.401 0 2.115-.688 2.115-1.962 0-1.199-.714-1.939-2.115-1.939h-2.04c-.102 0-.154.051-.154.153v3.595c0 .102.052.153.154.153zm1.81-6.985c1.351 0 2.065-.587 2.065-1.785 0-1.224-.688-1.784-2.065-1.784h-1.81c-.102 0-.154.051-.154.152v3.263c0 .103.052.154.154.154h1.81zm8.9697 10.3761c-.152 0-.255-.103-.255-.255V6.0878c0-.153.103-.255.255-.255h3.773c.153 0 .256.102.256.255v11.906c0 .152-.103.255-.256.255h-3.773zm0-14.022c-.152 0-.255-.102-.255-.255v-2.805c0-.152.103-.254.255-.254h3.773c.153 0 .256.102.256.254v2.805c0 .153-.103.255-.256.255h-3.773zM26.561 17.0755h-.025v.918c0 .153-.103.255-.256.255h-3.773c-.152 0-.255-.102-.255-.255V1.1675c0-.153.103-.255.255-.255h3.773c.153 0 .256.102.256.255v5.838h.025c.561-.867 1.607-1.478 3.187-1.478 2.09 0 3.467 1.045 4.104 2.983.306.994.434 1.987.434 3.544 0 1.529-.128 2.522-.434 3.517-.637 1.938-2.014 2.983-4.104 2.983-1.58 0-2.626-.612-3.187-1.479zm3.212-3.084c.127-.408.179-.867.179-1.937 0-1.098-.052-1.557-.179-1.964-.255-.714-.765-1.046-1.53-1.046-.739 0-1.274.332-1.504 1.046-.153.407-.203.866-.203 1.964 0 1.07.05 1.529.203 1.937.23.713.765 1.044 1.504 1.044.765 0 1.275-.331 1.53-1.044zm10.6045 4.4102c-3.084 0-4.308-1.249-4.308-4.36V1.1677c0-.153.101-.255.254-.255h3.774c.153 0 .255.102.255.255v12.442c0 .841.357 1.223 1.045 1.223h.535c.153 0 .255.102.255.255v3.059c0 .152-.102.255-.255.255h-1.555zm3.1833-3.4925c-.255-.739-.408-1.555-.408-2.855 0-1.327.153-2.168.383-2.881.765-2.32 2.779-3.646 5.558-3.646 2.957 0 4.894 1.326 5.608 3.594.255.765.408 1.709.408 3.876 0 .153-.102.255-.281.255h-7.367c-.103 0-.154.051-.154.152.026.18.051.358.102.511.281.866 1.199 1.35 2.397 1.35 1.071 0 1.988-.356 2.779-.994.153-.127.255-.127.383 0l1.81 1.861c.127.103.102.281-.026.382-1.301 1.25-3.187 2.04-5.405 2.04-3.033 0-5.047-1.351-5.787-3.645zm7.266-4.257c.102 0 .153-.052.153-.154 0-.332-.026-.561-.102-.765-.23-.713-.842-1.122-1.734-1.122-.867 0-1.504.409-1.734 1.122-.051.204-.102.433-.102.765 0 .102.051.154.154.154h3.365zm5.9335 3.8232c0-.153.102-.254.255-.254h3.543c.154 0 .256.101.256.254v3.519c0 .152-.102.254-.256.254h-3.543c-.153 0-.255-.102-.255-.254v-3.519zm6.6255 3.7734c-.153 0-.255-.103-.255-.255V6.0878c0-.153.102-.255.255-.255h3.772c.154 0 .256.102.256.255v11.906c0 .152-.102.255-.256.255h-3.772zm0-14.022c-.153 0-.255-.102-.255-.255v-2.805c0-.152.102-.254.255-.254h3.772c.154 0 .256.102.256.254v2.805c0 .153-.102.255-.256.255h-3.772zm5.4497 12.4156c-.102-.102-.128-.254-.026-.357l1.811-2.167c.101-.102.229-.127.356-.051 1.351.892 2.703 1.326 4.029 1.326 1.096 0 1.58-.382 1.58-.893 0-.433-.255-.662-1.555-.815l-1.377-.128c-2.728-.306-4.282-1.605-4.282-3.952 0-2.447 1.963-4.078 5.353-4.078 2.269 0 4.155.662 5.353 1.555.128.102.128.254.051.382l-1.606 2.04c-.102.127-.229.152-.382.076-.918-.561-2.141-.969-3.467-.969-.892 0-1.3.306-1.3.765 0 .408.229.663 1.427.765l1.377.153c3.238.331 4.436 1.81 4.41 3.927-.025 2.599-2.141 4.333-5.838 4.333-2.6 0-4.614-.816-5.914-1.912zM80.2998 1.7693c0 .443-.157.821-.47 1.135-.314.313-.692.47-1.135.47-.443 0-.821-.157-1.135-.47-.313-.314-.47-.692-.47-1.135 0-.443.157-.821.47-1.135.314-.313.692-.47 1.135-.47.443 0 .821.157 1.135.47.313.314.47.692.47 1.135zm-.216 0c0-.383-.135-.712-.406-.987s-.6-.412-.983-.412c-.384 0-.711.137-.982.412-.272.275-.408.604-.408.987s.136.712.408.987c.271.275.598.412.982.412.383 0 .712-.137.983-.412.271-.275.406-.604.406-.987zm-.356.816h-.413l-.615-.658h-.3v.658h-.306V.8883h.579c.116 0 .212.005.287.015.075.009.15.034.223.072.078.042.135.093.172.153.035.06.054.135.054.225 0 .121-.035.22-.105.3-.069.08-.166.143-.289.19l.713.742zm-.653-1.211c0-.044-.008-.084-.026-.119-.017-.035-.046-.063-.087-.085-.038-.022-.079-.035-.122-.041-.043-.006-.098-.009-.163-.009h-.277v.573h.236c.076 0 .143-.006.198-.018.056-.011.102-.031.137-.06.039-.031.065-.065.081-.102.016-.037.023-.083.023-.139z" fill="#9E1E35" fill-rule="evenodd"/></symbol></svg>
