<svg version="1.1" id="en" xmlns="http://www.w3.org/2000/svg" xmlns:xlink="http://www.w3.org/1999/xlink" x="0px" y="0px"
	 viewBox="0 0 164.9 37.9" style="enable-background:new 0 0 164.9 37.9;" xml:space="preserve">
<path fill="#ffffff"
      d="M0,2.1c0-0.3,0.2-0.5,0.5-0.5c0,0,0,0,0.1,0h14.5c8,0,11.7,3.8,11.7,9.5c0.2,3.2-1.5,6.2-4.4,7.7v0.1
	c2.6,1,5,4,5,8.1c0,7-4.9,10.3-12.4,10.3H0.5c-0.3,0-0.5-0.2-0.5-0.5c0,0,0,0,0-0.1V2.1z M13.3,15.9c2.8,0,4.3-1.2,4.3-3.7
	s-1.4-3.7-4.3-3.7H9.6c-0.2,0-0.3,0.1-0.3,0.2c0,0,0,0.1,0,0.1v6.7c0,0.2,0.1,0.3,0.2,0.3c0,0,0.1,0,0.1,0L13.3,15.9z M9.6,30.3h4.2
	c2.9,0,4.4-1.4,4.4-4c0-2.5-1.5-4-4.4-4H9.6c-0.2,0-0.3,0.1-0.3,0.2c0,0,0,0.1,0,0.1V30C9.2,30.2,9.4,30.3,9.6,30.3
	C9.5,30.3,9.5,30.3,9.6,30.3z"/>
<path fill="#ffffff" d="M31.8,8.4c-0.3,0-0.5-0.2-0.5-0.5c0,0,0,0,0-0.1V2.1c0-0.3,0.2-0.5,0.5-0.5c0,0,0,0,0.1,0h7.8
	c0.3,0,0.5,0.2,0.5,0.5c0,0,0,0,0,0.1v5.8c0,0.3-0.2,0.5-0.5,0.5c0,0,0,0-0.1,0H31.8z M31.8,37.3c-0.3,0-0.5-0.2-0.5-0.5
	c0,0,0,0,0-0.1V12.2c0-0.3,0.2-0.5,0.5-0.5c0,0,0,0,0.1,0h7.8c0.3,0,0.5,0.2,0.5,0.5c0,0,0,0,0,0.1v24.5c0,0.3-0.2,0.5-0.5,0.5
	c0,0,0,0-0.1,0L31.8,37.3z"/>
<path fill="#ffffff"
      d="M53.6,34.8L53.6,34.8l0,1.9c0,0.3-0.2,0.5-0.5,0.5c0,0,0,0-0.1,0h-7.8c-0.3,0-0.5-0.2-0.5-0.5c0,0,0,0,0,0V2.1
	c0-0.3,0.2-0.5,0.5-0.5c0,0,0,0,0.1,0H53c0.3,0,0.5,0.2,0.5,0.5c0,0,0,0,0,0.1v12h0c1.2-1.8,3.3-3,6.6-3c3.9-0.2,7.5,2.3,8.5,6.1
	c0.7,2.4,1,4.8,0.9,7.3c0.1,2.4-0.2,4.9-0.9,7.3c-1,3.8-4.5,6.4-8.5,6.2C56.9,37.9,54.8,36.6,53.6,34.8z M60.2,28.5
	c0.3-1.3,0.5-2.7,0.4-4c0.1-1.3,0-2.7-0.4-4c-0.4-1.4-1.7-2.3-3.2-2.1c-1.4-0.1-2.7,0.8-3.1,2.1c-0.4,1.3-0.5,2.7-0.4,4
	c-0.1,1.3,0,2.7,0.4,4c0.4,1.4,1.7,2.3,3.1,2.1C58.5,30.7,59.8,29.8,60.2,28.5L60.2,28.5z"/>
<path fill="#ffffff" d="M82.1,37.6c-6.3,0-8.9-2.6-8.9-9V2.1c0-0.3,0.2-0.5,0.5-0.5c0,0,0,0,0.1,0h7.8C81.7,1.5,82,1.7,82,2
	c0,0,0,0,0,0.1v25.6c0,1.7,0.7,2.5,2.2,2.5h1.1c0.3,0,0.5,0.2,0.5,0.5c0,0,0,0,0,0.1V37c0,0.3-0.2,0.5-0.5,0.5c0,0,0,0-0.1,0
	L82.1,37.6z"/>
<path fill="#ffffff"
      d="M88.6,30.4c-0.6-1.9-0.9-3.9-0.8-5.9c-0.1-2,0.2-4,0.8-5.9c1.6-4.8,5.7-7.6,11.4-7.6c6.1,0,10.1,2.7,11.6,7.4
	c0.5,1.6,0.8,3.5,0.8,8c0,0.3-0.2,0.5-0.5,0.5c0,0-0.1,0-0.1,0H96.7c-0.2,0-0.3,0.1-0.3,0.2c0,0,0,0.1,0,0.1c0,0.4,0.1,0.7,0.2,1
	c0.6,1.8,2.5,2.8,4.9,2.8c2.1,0,4.1-0.7,5.7-2c0.3-0.3,0.5-0.3,0.8,0l3.7,3.8c0.2,0.2,0.2,0.5,0.1,0.7c0,0-0.1,0.1-0.1,0.1
	c-3,2.8-7,4.3-11.1,4.2C94.3,37.9,90.1,35.1,88.6,30.4z M103.6,21.6c0.2,0,0.3-0.1,0.3-0.2c0,0,0-0.1,0-0.1c0-0.5,0-1.1-0.2-1.6
	c-0.5-1.5-2-2.5-3.6-2.3c-1.6-0.1-3,0.8-3.6,2.3c-0.1,0.5-0.2,1-0.2,1.6c0,0.2,0.1,0.3,0.2,0.3c0,0,0.1,0,0.1,0H103.6z"/>
<path fill="#ffffff" d="M115.8,29.5c0-0.3,0.2-0.5,0.5-0.5c0,0,0,0,0.1,0h7.3c0.3,0,0.5,0.2,0.5,0.5c0,0,0,0,0,0.1v7.3
	c0,0.3-0.2,0.5-0.5,0.5c0,0,0,0-0.1,0h-7.3c-0.3,0-0.5-0.2-0.5-0.5c0,0,0,0,0-0.1V29.5z"/>
<path fill="#ffffff" d="M129.5,8.4c-0.3,0-0.5-0.2-0.5-0.5c0,0,0,0,0-0.1V2.1c0-0.3,0.2-0.5,0.5-0.5c0,0,0,0,0.1,0h7.8
	c0.3,0,0.5,0.2,0.5,0.5c0,0,0,0,0,0.1v5.8c0,0.3-0.2,0.5-0.5,0.5c0,0,0,0-0.1,0H129.5z M129.5,37.3c-0.3,0-0.5-0.2-0.5-0.5
	c0,0,0,0,0-0.1V12.2c0-0.3,0.2-0.5,0.5-0.5c0,0,0,0,0.1,0h7.8c0.3,0,0.5,0.2,0.5,0.5c0,0,0,0,0,0.1v24.5c0,0.3-0.2,0.5-0.5,0.5
	c0,0,0,0-0.1,0L129.5,37.3z"/>
<path fill="#ffffff"
      d="M140.7,34c-0.2-0.2-0.2-0.5-0.1-0.7c0,0,0,0,0,0l3.7-4.5c0.2-0.2,0.5-0.3,0.7-0.1c2.4,1.7,5.3,2.7,8.3,2.7
	c2.3,0,3.3-0.8,3.3-1.8c0-0.9-0.5-1.4-3.2-1.7l-2.8-0.3c-5.6-0.6-8.8-3.3-8.8-8.1c0-5,4-8.4,11-8.4c3.9-0.1,7.8,1,11,3.2
	c0.2,0.2,0.3,0.5,0.2,0.7l-3.3,4.2c-0.2,0.3-0.5,0.3-0.8,0.2c-2.2-1.3-4.6-2-7.1-2c-1.9,0-2.8,0.6-2.8,1.6s0.5,1.4,2.9,1.6l2.8,0.3
	c6.7,0.7,9.1,3.7,9.1,8.1c-0.1,5.4-4.4,8.9-12,8.9C147.5,37.9,143.4,36.2,140.7,34z"/>
<path fill="#ffffff"
      d="M164.3,3.3c0,0.9-0.4,1.7-1,2.3c-1.3,1.3-3.4,1.3-4.7,0c0,0,0,0,0,0c-0.6-0.6-1-1.5-1-2.3c0-0.9,0.4-1.7,1-2.3
	c1.3-1.3,3.4-1.3,4.7,0c0,0,0,0,0,0C164,1.6,164.3,2.4,164.3,3.3z M163.9,3.3c0-0.8-0.3-1.5-0.8-2c-1.1-1.1-2.9-1.1-4,0
	c-0.5,0.5-0.8,1.2-0.8,2c0,0.8,0.3,1.5,0.8,2c1.1,1.1,2.9,1.1,4,0C163.6,4.8,163.9,4.1,163.9,3.3L163.9,3.3z M163.1,5h-0.9L161,3.6
	h-0.6V5h-0.6V1.5h1.3c0.2,0,0.4,0,0.6,0c0.2,0,0.3,0.1,0.5,0.1c0.1,0.1,0.3,0.2,0.4,0.3c0.1,0.1,0.1,0.3,0.1,0.5
	c0,0.2-0.1,0.4-0.2,0.6c-0.2,0.2-0.4,0.3-0.6,0.4L163.1,5z M161.8,2.5c0-0.1,0-0.2-0.1-0.3c0-0.1-0.1-0.1-0.2-0.2
	c-0.1,0-0.2-0.1-0.3-0.1H161h-0.6v1.2h0.5c0.1,0,0.3,0,0.4,0c0.1,0,0.2-0.1,0.3-0.1c0.1-0.1,0.1-0.1,0.2-0.2
	C161.8,2.7,161.8,2.6,161.8,2.5L161.8,2.5z"/>
</svg>