<?xml version="1.0" encoding="UTF-8"?>
<svg width="153px" height="132px" viewBox="0 0 153 132" version="1.1" xmlns="http://www.w3.org/2000/svg" xmlns:xlink="http://www.w3.org/1999/xlink">
    <!-- Generator: Sketch 51.3 (57544) - http://www.bohemiancoding.com/sketch -->
    <title>Icons/Dark/Play</title>
    <desc>Created with Sketch.</desc>
    <defs></defs>
    <g id="Navigation-Symbols" stroke="none" stroke-width="1" fill="none" fill-rule="evenodd">
        <g id="Gospel-Film-Overlay-Copy" transform="translate(-385.000000, -134.000000)" fill="#FEFEFE" fill-rule="nonzero">
            <g id="Group" transform="translate(154.000000, 45.000000)">
                <g id="Icons/Dark/Replay" transform="translate(197.000000, 55.000000)">
                    <path d="M183.759685,100.027002 C186.191578,100.03086 187.712009,102.580658 186.494072,104.625125 L162.266687,145.248302 C161.024869,146.455694 159.006916,146.455694 157.761118,145.248302 L133.505871,104.594265 C132.287935,102.553655 133.808365,100 136.244239,100 L157.692307,100.012189 C157.692308,68.1901331 131.808611,42.3076923 100,42.3076923 C68.1857892,42.3076923 42.3076923,68.1901331 42.3076923,100.0028 C42.3076923,131.815467 68.1857892,157.692308 100,157.692308 C112.161881,157.692308 123.45761,153.909421 132.771604,147.458237 C133.365003,147.047229 136.437225,145.536449 138.231135,148.412072 C140.025044,151.287696 137.627334,153.486131 136.968795,153.938333 C126.453316,161.159042 113.72022,165.384615 100,165.384615 C63.8886242,165.384615 34.6153846,136.112671 34.6153846,100.002892 C34.6153846,63.8931142 63.8886242,34.6153846 100,34.6153846 C136.111376,34.6153846 165.384615,63.8931142 165.384615,100.002892 C165.384615,100.00593 171.509639,100.013966 183.759685,100.027002 Z" id="Combined-Shape"></path>
                </g>
            </g>
        </g>
    </g>
</svg>