<svg xmlns="http://www.w3.org/2000/svg">

    <symbol id="dark"  width="55" height="55"><g fill="none" fill-rule="evenodd"><circle fill="#1B1F24" cx="27.5" cy="27.5" r="20"/><circle stroke="#FFFFFF" cx="27.5" cy="27.5" r="19.556" stroke-opacity=".5" stroke-width=".889"/><g stroke="#6FBC8F" stroke-width="2"><circle cx="27.5" cy="27.5" r="26.5"/></g></g></symbol>

    <symbol id="light"  width="55" height="55"><g fill="none" fill-rule="evenodd"><circle fill="#FDF9F3" cx="27.5" cy="27.5" r="20"/><circle stroke="#B2BBC6" cx="27.5" cy="27.5" r="19.556" stroke-width=".889"/><g stroke="#6FBC8F" stroke-width="2"><circle cx="27.5" cy="27.5" r="26.5"/></g></g></symbol>

    <symbol id="red"  width="55" height="55"><g fill="none" fill-rule="evenodd"><circle fill="#9E1E35" cx="27.5" cy="27.5" r="20"/><circle stroke="#B2BBC6" cx="27.5" cy="27.5" r="19.556" stroke-width=".889"/><g stroke="#6FBC8F" stroke-width="2"><circle cx="27.5" cy="27.5" r="26.5"/></g></g></symbol>

    <symbol id="ring" width="55" height="55"><circle cx="27.5" cy="27.5" r="26.5" fill-rule="evenodd" stroke-width="2"/></symbol>

    <symbol id="arrow_left" width="26" height="26"><path fill-rule="nonzero" d="M16.863 19.836a.5.5 0 0 1-.708.708L9.38 13.769a1.302 1.302 0 0 1 0-1.839l6.784-6.784a.5.5 0 0 1 .708.708l-6.784 6.784a.301.301 0 0 0 0 .424l6.775 6.774z"/></symbol>

    <symbol id="additional_settings" width="26" height="26"><path fill-rule="evenodd" d="M14.658 12.609a1.61 1.61 0 1 1-3.22 0 1.61 1.61 0 0 1 3.22 0zm-6.439 0a1.61 1.61 0 1 1-3.219 0 1.61 1.61 0 0 1 3.219 0zm12.877 0a1.61 1.61 0 1 1-3.219 0 1.61 1.61 0 0 1 3.219 0z"/></symbol>

    <symbol id="arrow_right" width="26" height="26"><path fill-rule="nonzero" d="M9.155 5.854a.5.5 0 1 1 .708-.708l6.775 6.775a1.3 1.3 0 0 1 0 1.839l-6.784 6.784a.5.5 0 0 1-.708-.708l6.784-6.784a.3.3 0 0 0 0-.423L9.155 5.854z"/></symbol>

    <symbol id="arrow_up" width="26" height="26"><path fill-rule="nonzero" d="M5.854 16.863a.5.5 0 0 1-.708-.707l6.775-6.774a1.298 1.298 0 0 1 1.839 0l6.784 6.783a.5.5 0 0 1-.708.707l-6.784-6.784a.299.299 0 0 0-.423 0l-6.775 6.775z"/></symbol>

    <symbol id="arrow_down" width="26" height="26"><path fill-rule="nonzero" d="M19.836 9.156a.5.5 0 0 1 .708.708l-6.775 6.773a1.298 1.298 0 0 1-1.839 0L5.146 9.855a.5.5 0 1 1 .708-.708l6.784 6.785a.299.299 0 0 0 .423 0l6.775-6.775z"/></symbol>

    <symbol id="audio" width="26" height="26"><path fill-rule="nonzero" d="M6.122 13.203v.755c.111-.012.225-.019.34-.019h1.376a1.27 1.27 0 0 1 1.274 1.266v6.028c0 .7-.57 1.266-1.274 1.266H6.462a3.021 3.021 0 0 1-3.032-3.011v-2.539c0-1.244.76-2.312 1.845-2.77v-.977a1.263 1.263 0 0 1-.846-1.19c0-4.7 3.838-8.512 8.572-8.512 4.734 0 8.571 3.811 8.571 8.513 0 .55-.354 1.017-.848 1.19v.976a3.01 3.01 0 0 1 1.846 2.77v2.539c0 1.663-1.358 3.011-3.033 3.011h-1.376a1.27 1.27 0 0 1-1.274-1.266v-6.028c0-.7.57-1.266 1.274-1.266h1.376c.115 0 .229.007.34.02v-.757a1.263 1.263 0 0 1-.845-1.19c0-3.307-2.7-5.989-6.03-5.989-3.332 0-6.032 2.682-6.032 5.99 0 .55-.354 1.017-.848 1.19z"/></symbol>

    <symbol id="bibles" width="26" height="26"><path fill-rule="nonzero" d="M7 20c0 .563.48 1 .941 1H19.5c.227 0 .499.272.499.5 0 .228-.272.5-.499.5H7.941c-1.052 0-1.91-.952-1.94-2.006L6 4.89c0-1.04.84-1.883 1.878-1.883L19.195 3c.444 0 .805.362.805.808V18.31c0 .384-.31.694-.693.694l-11.366.007c-.617 0-.941.37-.941.989z"/></symbol>

    <symbol id="audio_copy" width="26" height="26"><path fill-rule="evenodd" stroke-linecap="round" d="M3 13a1.5 1.5 0 0 1 1.5 1.5v1a1.5 1.5 0 0 0 3 0v-6a1.5 1.5 0 0 1 3 0v10a1.5 1.5 0 0 0 3 0v-12a1.5 1.5 0 0 1 3 0v7a1.5 1.5 0 0 0 3 0v-2A1.5 1.5 0 0 1 21 11a1.49 1.49 0 0 1 1.49 1.5l-.007.973A1.517 1.517 0 0 0 24 15"/></symbol>

    <symbol id="bible.is_logo" width="81" height="26" fill="#fff"><path fill-rule="evenodd" d="M.548 5.168c0-.153.103-.255.256-.255h7.062c3.874 0 5.66 1.86 5.66 4.614 0 1.785-.816 3.034-2.117 3.723v.05c1.275.485 2.422 1.938 2.422 3.952 0 3.39-2.396 4.997-6.042 4.997H.804c-.153 0-.256-.102-.256-.255V5.168zm4.641 13.69h2.04c1.401 0 2.115-.688 2.115-1.962 0-1.2-.714-1.94-2.115-1.94H5.19c-.102 0-.154.052-.154.154v3.595c0 .102.052.153.154.153zM7 11.873c1.351 0 2.065-.587 2.065-1.785 0-1.224-.688-1.784-2.065-1.784H5.19c-.102 0-.154.05-.154.152v3.263c0 .103.052.154.154.154H7zm8.97 10.376a.242.242 0 0 1-.255-.255V10.088c0-.153.103-.255.255-.255h3.773c.153 0 .256.102.256.255v11.906c0 .152-.103.255-.256.255h-3.773zm0-14.022c-.152 0-.255-.102-.255-.255V5.167c0-.152.103-.254.255-.254h3.773c.153 0 .256.102.256.254v2.805c0 .153-.103.255-.256.255h-3.773zM26.56 21.076h-.025v.918c0 .152-.103.255-.256.255h-3.773c-.152 0-.255-.102-.255-.255V5.168c0-.154.103-.256.255-.256h3.773c.153 0 .256.103.256.256v5.837h.025c.561-.867 1.607-1.478 3.187-1.478 2.09 0 3.467 1.046 4.104 2.984.306.994.434 1.987.434 3.544 0 1.529-.128 2.521-.434 3.517-.637 1.938-2.014 2.983-4.104 2.983-1.58 0-2.626-.613-3.187-1.48zm3.212-3.085c.127-.407.179-.866.179-1.936 0-1.098-.052-1.557-.179-1.964-.255-.714-.765-1.046-1.53-1.046-.739 0-1.274.332-1.504 1.046-.153.407-.203.866-.203 1.964 0 1.07.05 1.529.203 1.936.23.713.765 1.044 1.504 1.044.765 0 1.275-.33 1.53-1.044zm10.604 4.41c-3.084 0-4.308-1.248-4.308-4.36V5.169c0-.153.101-.255.255-.255h3.773c.154 0 .255.102.255.255V17.61c0 .84.358 1.223 1.046 1.223h.534c.154 0 .255.102.255.255v3.059c0 .152-.101.255-.255.255h-1.555zm3.184-3.492c-.255-.739-.408-1.555-.408-2.855 0-1.327.153-2.168.383-2.88.765-2.32 2.779-3.647 5.558-3.647 2.957 0 4.894 1.326 5.608 3.594.255.765.408 1.71.408 3.876 0 .153-.102.255-.281.255h-7.367c-.103 0-.154.051-.154.152.026.18.05.358.102.511.28.866 1.199 1.35 2.397 1.35 1.07 0 1.988-.356 2.779-.994.153-.127.255-.127.383 0l1.81 1.861c.127.103.102.281-.026.382-1.301 1.25-3.187 2.04-5.405 2.04-3.033 0-5.047-1.35-5.787-3.645zm7.266-4.257c.102 0 .153-.052.153-.154 0-.332-.026-.56-.102-.765-.23-.713-.842-1.122-1.734-1.122-.867 0-1.504.41-1.734 1.122a2.916 2.916 0 0 0-.102.765c0 .102.05.154.154.154h3.365zm5.933 3.823c0-.153.102-.254.255-.254h3.543c.154 0 .256.101.256.254v3.52c0 .151-.102.253-.256.253h-3.543c-.153 0-.255-.102-.255-.254v-3.519zm6.626 3.774c-.153 0-.255-.103-.255-.255V10.088c0-.153.102-.255.255-.255h3.772c.154 0 .256.102.256.255v11.906c0 .152-.102.255-.256.255h-3.772zm0-14.022c-.153 0-.255-.102-.255-.255V5.167c0-.152.102-.254.255-.254h3.772c.154 0 .256.102.256.254v2.805c0 .153-.102.255-.256.255h-3.772zm5.45 12.415c-.102-.102-.129-.254-.026-.357l1.81-2.167c.102-.102.23-.127.356-.05 1.352.891 2.704 1.325 4.03 1.325 1.096 0 1.58-.382 1.58-.893 0-.433-.255-.662-1.555-.815l-1.378-.128c-2.728-.306-4.282-1.605-4.282-3.952 0-2.447 1.964-4.078 5.354-4.078 2.269 0 4.154.662 5.353 1.555.127.102.127.254.05.382l-1.606 2.04c-.102.127-.229.152-.382.076a6.75 6.75 0 0 0-3.466-.969c-.893 0-1.3.306-1.3.765 0 .408.229.663 1.427.765l1.376.153c3.238.331 4.436 1.81 4.41 3.927-.025 2.6-2.14 4.333-5.838 4.333-2.6 0-4.614-.816-5.913-1.912zM80.3 5.77c0 .443-.157.821-.47 1.135a1.55 1.55 0 0 1-1.135.47 1.55 1.55 0 0 1-1.135-.47 1.55 1.55 0 0 1-.47-1.135c0-.443.157-.82.47-1.135a1.55 1.55 0 0 1 1.135-.47c.443 0 .82.157 1.135.47.313.314.47.692.47 1.135zm-.216 0c0-.383-.135-.712-.406-.987a1.331 1.331 0 0 0-.983-.412c-.384 0-.711.137-.982.412a1.354 1.354 0 0 0-.408.987c0 .383.136.712.408.987.27.275.598.412.982.412.383 0 .712-.137.983-.412.27-.275.406-.604.406-.987zm-.356.816h-.413l-.615-.658h-.3v.658h-.306V4.888h.579c.116 0 .212.005.287.015.075.01.15.034.223.072a.44.44 0 0 1 .172.153.44.44 0 0 1 .054.225c0 .121-.035.22-.105.3a.705.705 0 0 1-.29.19l.714.742zm-.653-1.21a.257.257 0 0 0-.026-.12.194.194 0 0 0-.087-.085.333.333 0 0 0-.122-.04 1.222 1.222 0 0 0-.163-.01H78.4v.573h.236a.949.949 0 0 0 .198-.018.303.303 0 0 0 .137-.06.263.263 0 0 0 .08-.102.351.351 0 0 0 .024-.139z"/></symbol>

    <symbol id="bible.is_logo_light" width="81" height="19"><path d="M.5481 1.1677c0-.153.103-.255.256-.255h7.062c3.874 0 5.659 1.861 5.659 4.614 0 1.785-.815 3.034-2.116 3.723v.05c1.275.485 2.422 1.938 2.422 3.952 0 3.391-2.396 4.997-6.042 4.997H.8041c-.153 0-.256-.102-.256-.255V1.1677zm4.641 13.69h2.04c1.401 0 2.115-.688 2.115-1.962 0-1.199-.714-1.939-2.115-1.939h-2.04c-.102 0-.154.051-.154.153v3.595c0 .102.052.153.154.153zm1.81-6.985c1.351 0 2.065-.587 2.065-1.785 0-1.224-.688-1.784-2.065-1.784h-1.81c-.102 0-.154.051-.154.152v3.263c0 .103.052.154.154.154h1.81zm8.9697 10.3761c-.152 0-.255-.103-.255-.255V6.0878c0-.153.103-.255.255-.255h3.773c.153 0 .256.102.256.255v11.906c0 .152-.103.255-.256.255h-3.773zm0-14.022c-.152 0-.255-.102-.255-.255v-2.805c0-.152.103-.254.255-.254h3.773c.153 0 .256.102.256.254v2.805c0 .153-.103.255-.256.255h-3.773zM26.561 17.0755h-.025v.918c0 .153-.103.255-.256.255h-3.773c-.152 0-.255-.102-.255-.255V1.1675c0-.153.103-.255.255-.255h3.773c.153 0 .256.102.256.255v5.838h.025c.561-.867 1.607-1.478 3.187-1.478 2.09 0 3.467 1.045 4.104 2.983.306.994.434 1.987.434 3.544 0 1.529-.128 2.522-.434 3.517-.637 1.938-2.014 2.983-4.104 2.983-1.58 0-2.626-.612-3.187-1.479zm3.212-3.084c.127-.408.179-.867.179-1.937 0-1.098-.052-1.557-.179-1.964-.255-.714-.765-1.046-1.53-1.046-.739 0-1.274.332-1.504 1.046-.153.407-.203.866-.203 1.964 0 1.07.05 1.529.203 1.937.23.713.765 1.044 1.504 1.044.765 0 1.275-.331 1.53-1.044zm10.6045 4.4102c-3.084 0-4.308-1.249-4.308-4.36V1.1677c0-.153.101-.255.254-.255h3.774c.153 0 .255.102.255.255v12.442c0 .841.357 1.223 1.045 1.223h.535c.153 0 .255.102.255.255v3.059c0 .152-.102.255-.255.255h-1.555zm3.1833-3.4925c-.255-.739-.408-1.555-.408-2.855 0-1.327.153-2.168.383-2.881.765-2.32 2.779-3.646 5.558-3.646 2.957 0 4.894 1.326 5.608 3.594.255.765.408 1.709.408 3.876 0 .153-.102.255-.281.255h-7.367c-.103 0-.154.051-.154.152.026.18.051.358.102.511.281.866 1.199 1.35 2.397 1.35 1.071 0 1.988-.356 2.779-.994.153-.127.255-.127.383 0l1.81 1.861c.127.103.102.281-.026.382-1.301 1.25-3.187 2.04-5.405 2.04-3.033 0-5.047-1.351-5.787-3.645zm7.266-4.257c.102 0 .153-.052.153-.154 0-.332-.026-.561-.102-.765-.23-.713-.842-1.122-1.734-1.122-.867 0-1.504.409-1.734 1.122-.051.204-.102.433-.102.765 0 .102.051.154.154.154h3.365zm5.9335 3.8232c0-.153.102-.254.255-.254h3.543c.154 0 .256.101.256.254v3.519c0 .152-.102.254-.256.254h-3.543c-.153 0-.255-.102-.255-.254v-3.519zm6.6255 3.7734c-.153 0-.255-.103-.255-.255V6.0878c0-.153.102-.255.255-.255h3.772c.154 0 .256.102.256.255v11.906c0 .152-.102.255-.256.255h-3.772zm0-14.022c-.153 0-.255-.102-.255-.255v-2.805c0-.152.102-.254.255-.254h3.772c.154 0 .256.102.256.254v2.805c0 .153-.102.255-.256.255h-3.772zm5.4497 12.4156c-.102-.102-.128-.254-.026-.357l1.811-2.167c.101-.102.229-.127.356-.051 1.351.892 2.703 1.326 4.029 1.326 1.096 0 1.58-.382 1.58-.893 0-.433-.255-.662-1.555-.815l-1.377-.128c-2.728-.306-4.282-1.605-4.282-3.952 0-2.447 1.963-4.078 5.353-4.078 2.269 0 4.155.662 5.353 1.555.128.102.128.254.051.382l-1.606 2.04c-.102.127-.229.152-.382.076-.918-.561-2.141-.969-3.467-.969-.892 0-1.3.306-1.3.765 0 .408.229.663 1.427.765l1.377.153c3.238.331 4.436 1.81 4.41 3.927-.025 2.599-2.141 4.333-5.838 4.333-2.6 0-4.614-.816-5.914-1.912zM80.2998 1.7693c0 .443-.157.821-.47 1.135-.314.313-.692.47-1.135.47-.443 0-.821-.157-1.135-.47-.313-.314-.47-.692-.47-1.135 0-.443.157-.821.47-1.135.314-.313.692-.47 1.135-.47.443 0 .821.157 1.135.47.313.314.47.692.47 1.135zm-.216 0c0-.383-.135-.712-.406-.987s-.6-.412-.983-.412c-.384 0-.711.137-.982.412-.272.275-.408.604-.408.987s.136.712.408.987c.271.275.598.412.982.412.383 0 .712-.137.983-.412.271-.275.406-.604.406-.987zm-.356.816h-.413l-.615-.658h-.3v.658h-.306V.8883h.579c.116 0 .212.005.287.015.075.009.15.034.223.072.078.042.135.093.172.153.035.06.054.135.054.225 0 .121-.035.22-.105.3-.069.08-.166.143-.289.19l.713.742zm-.653-1.211c0-.044-.008-.084-.026-.119-.017-.035-.046-.063-.087-.085-.038-.022-.079-.035-.122-.041-.043-.006-.098-.009-.163-.009h-.277v.573h.236c.076 0 .143-.006.198-.018.056-.011.102-.031.137-.06.039-.031.065-.065.081-.102.016-.037.023-.083.023-.139z" fill="#9E1E35" fill-rule="evenodd"/></symbol>

    <symbol id="bookmark" width="26" height="26"><path fill-rule="nonzero" d="M7 4.038C7 3.46 7.48 3 8.06 3h10.88c.58 0 1.06.46 1.06 1.038v16.914c0 .812-.9 1.298-1.601.894l-4.807-2.786a.08.08 0 0 0-.077 0l-4.922 2.8C7.89 22.256 7 21.768 7 20.96V4.039zm1 0v16.923c0 .026.052.055.099.029l4.922-2.8a1.08 1.08 0 0 1 1.073.005L18.9 20.98c.046.027.1-.002.1-.028V4.038c0-.016-.023-.038-.06-.038H8.06c-.037 0-.06.022-.06.038z"/></symbol>

    <symbol id="bookmark_in_verse" width="26" height="26"><path fill-rule="nonzero" d="M7 4.038C7 3.46 7.48 3 8.06 3h10.88c.58 0 1.06.46 1.06 1.038v16.914c0 .812-.9 1.298-1.601.894l-4.807-2.786a.08.08 0 0 0-.077 0l-4.922 2.799c-.7.398-1.593-.09-1.593-.898V4.038z"/></symbol>

    <symbol id="cancel" width="26" height="26"><path fill-rule="nonzero" d="M12.849 12.143l6.987-6.988a.5.5 0 0 1 .708.708l-7.695 7.694-7.703-7.703a.5.5 0 0 1 .708-.708l6.995 6.997zm0 1.414l-6.987 6.987a.5.5 0 1 1-.707-.707l7.694-7.695 7.703 7.704a.5.5 0 0 1-.707.707l-6.996-6.996z"/></symbol>

    <symbol id="copyright" width="26" height="26"><path fill-rule="evenodd" d="M13 3.5a9.5 9.5 0 1 1-.001 19.002 9.5 9.5 0 0 1 0-19.002zm0 1c-4.687 0-8.5 3.813-8.5 8.5 0 4.687 3.813 8.5 8.5 8.5 4.687 0 8.5-3.813 8.5-8.5 0-4.687-3.813-8.5-8.5-8.5zm.169 12.335c-1.157 0-2.058-.355-2.703-1.065-.644-.711-.966-1.73-.966-3.059 0-1.347.325-2.386.978-3.116.651-.73 1.58-1.095 2.786-1.095.391 0 .778.04 1.161.121.383.08.7.184.949.311l-.403 1.099c-.679-.254-1.258-.381-1.736-.381-.811 0-1.409.255-1.795.765-.385.511-.578 1.271-.578 2.282 0 .971.193 1.715.578 2.23.386.515.958.773 1.714.773.708 0 1.404-.157 2.088-.469v1.172c-.557.288-1.248.432-2.073.432z"/></symbol>

    <symbol id="country" width="26" height="26"><path fill-rule="evenodd" d="M18.025 19.852l-.275-.098 1.339-1.254.294.107a8.521 8.521 0 0 0 1.419-2.234l-.606.69c-.027.024-1.884 1.99-1.91 2.015l-1.434.692-.479-.369 1.493-2.316a.77.77 0 0 0 .144-.635l-.112-1.086-1.652-.013-1.098-.979.038-1.415 1.369-1.813 1.678-.322 1.307.952 1.087-.13.086-.514-.369-.088-.337-.349.015.364-.272-.092-.462-.781-.634-.411.671.759-.142-.041.009.15-.453.137.295-.287-.758-.622s-.497.092-.504.09c-.007 0-.277.783-.277.783l-.877.28-.58-.23-.227-.923 1.065-.045-.505-.675.578-.177.276-.442.386-.432.81.13.192-.488-.453-.757-.396.01.45.747-.322.234-.51-.342-.205.17-.804-.724.24-.244-.109-.635.372-.654.242.02a8.438 8.438 0 0 0-2.74-.953.372.372 0 0 1 .028.09l.203 1.2a.366.366 0 0 1-.164.37l-1.12.714-.295.769-.709.091-.611-.934a.357.357 0 0 1-.06-.209l.028-1.182-.786-.488-.653.561.322.717a.364.364 0 0 1-.069.402l-.365.384a.366.366 0 0 1-.393.092l-.779-.29.521-.628-.214-.202-.66.597.096.193-.503.065-.67.56a.366.366 0 0 0-.054.504l.541.698.497-.795a.376.376 0 0 0 .047-.118l.164-.775.87.154-.076.542.48-.233.95.807c.059.048.1.115.12.189l.285 1.135-.315.16-.27-.128-1.668.324-.058.425-.827.265-.064.647-.805.477-.034 1.076-.115.102-.496-.757-.325.206-.269-.206-.406.336.089 1.09h.31l.132-.433h.635l-.331.864.63.202s-.094.526 0 .672c.094.147.414.063.414.063l.695-.434 1.421.268a.362.362 0 0 1 .124.047l1.586.973s-.053.265.014.379c.048.08 1.072.373 1.658.535a.366.366 0 0 1 .238.496c-.24.565-.664 1.555-.702 1.61-.052.08-.729.125-.729.125l-.621 1.276-.09.629.124.447a8.507 8.507 0 0 0 6.731-1.476zm-7.426 1.303l-.147-.242a.368.368 0 0 1-.173-.195l-.784-2.077-.531-.54-.91-.706a.36.36 0 0 1-.122-.17l-.266-.778.186-.592-.179-.619-.316.027-1.246-.984-.488-.037-.76-1a.345.345 0 0 1-.046-.078l-.3-.71c-.011.181-.017.363-.017.546 0 3.854 2.577 7.116 6.099 8.155zm2.4-17.655c5.247 0 9.501 4.253 9.501 9.5s-4.254 9.5-9.5 9.5A9.5 9.5 0 0 1 3.5 13 9.5 9.5 0 0 1 13 3.5zm3.105 4.73l-.16.003.065.369-.48-.026-.065-.304.102-.195.43.027-.18-.237-.25-.252h.52l.163.462.551.353.198.263-.699.233-.134-.005.107-.243-.117-.065.09-.226-.141-.158zM14.92 6.524l.833.337-.032.26-1.077.05-.443-.255.078-.314.64-.078z"/></symbol>

    <symbol id="delete" width="26" height="26"><path fill-rule="evenodd" d="M16.958 21H9.042c-.65 0-1.176-.615-1.176-1.372L7 7.417c0-.23.187-.417.417-.417h11.166c.23 0 .417.187.417.417l-.866 12.21c0 .758-.527 1.373-1.176 1.373zm2.72-16.603c.453 0 .822.358.822.8a.812.812 0 0 1-.822.803H6.322a.812.812 0 0 1-.822-.802c0-.443.368-.801.822-.801H9.26a.212.212 0 0 0 .208-.195C9.54 3.522 9.981 3 10.516 3h4.757c.534 0 .976.523 1.047 1.202a.212.212 0 0 0 .209.195h3.15zM15.782 9.98l-.282 7a.5.5 0 0 0 1 .04l.282-7a.5.5 0 0 0-1-.04zM12.5 10v7a.5.5 0 1 0 1 0v-7a.5.5 0 1 0-1 0zm-3.28.02l.28 7a.5.5 0 0 0 1-.04l-.28-7a.5.5 0 0 0-1 .04z"/></symbol>

    <symbol id="dot" width="26" height="26"><circle cx="13" cy="13" r="8" fill-rule="evenodd"/></symbol>

    <symbol id="e-mail" width="26" height="26"><path fill-rule="nonzero" d="M21.193 18.812l-5.566-4.682-1.508 1.268c-.6.505-1.47.505-2.07 0l-1.51-1.27-5.566 4.682a.254.254 0 0 0 .244.204h15.734a.253.253 0 0 0 .242-.202zm.007-1.301v-8.07l-4.796 4.035 4.796 4.035zm-16.233-.003l4.794-4.033-4.794-4.031v8.064zm.008-9.364l7.718 6.49a.604.604 0 0 0 .783-.001L21.19 8.14a.252.252 0 0 0-.24-.193H5.217a.253.253 0 0 0-.242.196zm15.976 11.87H5.217c-.692 0-1.25-.568-1.25-1.264V8.212c0-.696.558-1.264 1.25-1.264h15.734c.692 0 1.249.568 1.249 1.264V18.75c0 .696-.557 1.264-1.25 1.264z"/></symbol>

    <symbol id="download" width="26" height="26"><path fill-rule="nonzero" d="M13.065 15.996a.496.496 0 0 1-.154-.004.991.991 0 0 1-.604-.288l-4.24-4.24a.5.5 0 0 1 .706-.708l3.727 3.727V1.509c0-.281.224-.509.5-.509s.5.228.5.509v13l3.747-3.747a.5.5 0 1 1 .707.708l-4.234 4.234a.997.997 0 0 1-.655.292zM10.5 8v1H7.507C6.675 9 6 9.675 6 10.508v10.985C6 22.325 6.675 23 7.507 23h10.986c.832 0 1.507-.675 1.507-1.507V10.508C20 9.675 19.325 9 18.493 9H15.5V8h2.993A2.508 2.508 0 0 1 21 10.508v10.985A2.507 2.507 0 0 1 18.493 24H7.507A2.507 2.507 0 0 1 5 21.493V10.508A2.508 2.508 0 0 1 7.507 8H10.5z"/></symbol>

    <symbol id="edit_note" width="26" height="26"><path fill-rule="evenodd" d="M11.015 17.386a3.052 3.052 0 0 1-.184.074H8.725a.455.455 0 0 1-.456-.452c0-.25.204-.452.456-.452h1.66a.696.696 0 0 1 .009-.028l.7-2.094c.068-.202.182-.386.333-.536l9.836-9.746a1.099 1.099 0 0 1 1.545 0l.896.888a1.087 1.087 0 0 1 0 1.544L18.47 11.77v8.07c0 1.078-.88 1.95-1.966 1.95h-9.47a1.959 1.959 0 0 1-1.967-1.95v-.988h-.955a.455.455 0 0 1-.456-.452c0-.251.204-.453.456-.453h.955V16.07h-.955a.454.454 0 0 1-.456-.453c0-.25.204-.452.456-.452h.955v-1.876h-.955a.454.454 0 0 1-.456-.453c0-.25.204-.452.456-.452h.955v-1.877h-.955a.455.455 0 0 1-.456-.452c0-.25.204-.452.456-.452h.955V7.725h-.955a.455.455 0 0 1-.456-.452c0-.25.204-.453.456-.453h.955v-.989c0-1.076.88-1.948 1.966-1.948h9.471c1.038 0 1.884.801 1.955 1.812a.142.142 0 0 1-.042.11l-.749.741c-.043.043-.111.044-.111-.029v-.686c0-.576-.471-1.044-1.053-1.044h-9.47A1.05 1.05 0 0 0 5.98 5.831v.99h.955c.252 0 .456.201.456.452 0 .25-.204.452-.456.452H5.98v1.877h.955c.252 0 .456.202.456.452s-.204.452-.456.452H5.98v1.877h.955c.252 0 .456.203.456.452 0 .25-.204.453-.456.453H5.98v1.876h.955c.252 0 .456.203.456.452 0 .251-.204.453-.456.453H5.98v1.877h.955c.252 0 .456.202.456.453 0 .25-.204.452-.456.452H5.98v.989a1.05 1.05 0 0 0 1.053 1.044h9.47a1.05 1.05 0 0 0 1.054-1.044v-7.166l-3.69 3.656c-.152.15-.337.263-.54.33l-2.112.693a.663.663 0 0 1-.201.033zm.77-1.867a.498.498 0 0 1 .454.446l.777-.255a.376.376 0 0 0 .148-.09l8.253-8.178-1.026-1.018-8.26 8.184a.378.378 0 0 0-.09.146l-.256.765zm9.316-9.799l1.026 1.018.872-.864a.087.087 0 0 0 0-.124l-.895-.888a.1.1 0 0 0-.137 0l-.866.858zm-10.529 8.054c.072 0 .041.063.041.063s-.094.18-.127.33c-.034.149-.092.401-.095.456-.002.055-.055.056-.055.056h-1.61a.454.454 0 0 1-.457-.453c0-.25.204-.452.457-.452h1.846zm-1.847-2.781h4.325c.093 0 .025.062.025.062l-.783.776a.228.228 0 0 1-.16.066H8.724a.455.455 0 0 1-.456-.452c0-.25.204-.452.456-.452zm0-2.782h7.11c.086 0 .03.08.03.08l-.764.756a.234.234 0 0 1-.167.069H8.725a.455.455 0 0 1-.456-.452c0-.25.204-.453.456-.453z"/></symbol>

    <symbol id="empty_box" width="26" height="26"><path fill-rule="nonzero" d="M18.493 20c.832 0 1.507-.675 1.507-1.507V7.508C20 6.675 19.325 6 18.493 6H7.507C6.675 6 6 6.675 6 7.508v10.985C6 19.325 6.675 20 7.507 20h10.986zm0 1H7.507A2.507 2.507 0 0 1 5 18.493V7.508A2.508 2.508 0 0 1 7.507 5h10.986A2.508 2.508 0 0 1 21 7.508v10.985A2.507 2.507 0 0 1 18.493 21z"/></symbol>

    <symbol id="facebook" width="26" height="26"><path fill-rule="evenodd" d="M21.007 4H4.993A.993.993 0 0 0 4 4.993v16.014c0 .548.445.993.993.993h8.621v-6.97H11.27v-2.717h2.345V10.31c0-2.325 1.42-3.591 3.494-3.591.994 0 1.848.074 2.096.107v2.43h-1.438c-1.128 0-1.346.536-1.346 1.322v1.735h2.69l-.35 2.716h-2.34V22h4.587a.993.993 0 0 0 .993-.993V4.993A.993.993 0 0 0 21.007 4"/></symbol>

    <symbol id="highlight" width="26" height="26"><path fill-rule="nonzero" d="M5.781 21.38l-1.238 1.23L3 21.373l1.398-1.375-.332-.331 1.128-2.773.11-.166L18.065 3.967a1.324 1.324 0 0 1 1.564-.23.501.501 0 0 1 .78-.09L22.163 5.4a.5.5 0 0 1-.092.78c.27.5.194 1.14-.23 1.563L9.37 20.218a.508.508 0 0 1-.041.042l-.247.246-.165.11-2.772 1.127-.363-.363zm.21-3.791l-.748 1.84 1.139 1.138 1.839-.748-2.23-2.23zm.64-.774l2.364 2.364 12.14-12.142a.322.322 0 0 0 0-.456L19.23 4.674a.323.323 0 0 0-.456 0L6.631 16.814z"/></symbol>

    <symbol id="language" width="26" height="26"><path fill-rule="nonzero" d="M8.005 13.413c.034 1.322.229 2.565.548 3.674H12.5v-3.674H8.005zm0-.826H12.5V8.913H8.553a14.705 14.705 0 0 0-.548 3.674zm9.99.826H13.5v3.674h3.947c.32-1.109.514-2.352.548-3.674zm0-.826a14.705 14.705 0 0 0-.548-3.674H13.5v3.674h4.495zm-13.986.826A8.95 8.95 0 0 0 5 17.127v-.04h2.515a15.85 15.85 0 0 1-.51-3.674H4.009zm0-.826h2.996a15.85 15.85 0 0 1 .51-3.674H5v-.04a8.95 8.95 0 0 0-.99 3.714zm17.982.826h-2.996a15.85 15.85 0 0 1-.51 3.674h2.429v.203a8.95 8.95 0 0 0 1.077-3.877zm0-.826A8.95 8.95 0 0 0 21 8.873v.04h-2.515c.3 1.131.479 2.372.51 3.674h2.996zM8.823 17.913c.817 2.226 2.165 3.76 3.677 4.04v-4.04H8.823zm8.354 0H13.5v4.04c1.512-.28 2.86-1.814 3.677-4.04zm-11.719 0a9.031 9.031 0 0 0 4.237 3.46c-.802-.876-1.465-2.065-1.932-3.46H5.458zm15.084 0h-2.305c-.467 1.395-1.13 2.584-1.932 3.46a9.031 9.031 0 0 0 4.237-3.46zM8.822 8.087H12.5v-4.04c-1.512.28-2.86 1.814-3.677 4.04zm8.355 0c-.817-2.226-2.165-3.76-3.677-4.04v4.04h3.677zm-11.719 0h2.305c.467-1.395 1.13-2.584 1.932-3.46a9.031 9.031 0 0 0-4.237 3.46zm15.084 0a9.031 9.031 0 0 0-4.237-3.46c.802.876 1.465 2.065 1.932 3.46h2.305zM13 23C7.477 23 3 18.523 3 13S7.477 3 13 3s10 4.477 10 10-4.477 10-10 10z"/></symbol>

    <symbol id="info" width="20" height="20"><path d="M9.99958.5C15.24612.5 19.5 4.75388 19.5 10.00042c0 5.2457-4.25388 9.49958-9.50042 9.49958S.5 15.24612.5 10.00042C.5 4.75388 4.75304.5 9.99958.5zm0 1C5.31253 1.5 1.5 5.31335 1.5 10.00041 1.5 14.68665 5.31252 18.5 9.99959 18.5c4.68706 0 8.50041-3.81335 8.50041-8.49959C18.5 5.31335 14.68665 1.5 9.99959 1.5zm.16942 12.335c-1.157 0-2.058-.355-2.703-1.065-.644-.711-.966-1.73-.966-3.059 0-1.347.325-2.386.978-3.116.651-.73 1.58-1.095 2.786-1.095.391 0 .778.04 1.161.121.383.08.7.184.949.311l-.403 1.099c-.679-.254-1.258-.381-1.736-.381-.811 0-1.409.255-1.795.765-.385.511-.578 1.271-.578 2.282 0 .971.193 1.715.578 2.23.386.515.958.773 1.714.773.708 0 1.404-.157 2.088-.469v1.172c-.557.288-1.248.432-2.073.432z" fill-rule="evenodd"/></symbol>

    <symbol id="minus" width="26" height="26"><path fill-rule="nonzero" d="M5.51 14a.505.505 0 0 1-.51-.5c0-.276.228-.5.51-.5h14.98c.282 0 .51.224.51.5s-.228.5-.51.5H5.51z"/></symbol>

    <symbol id="like_one-color" width="26" height="26"><path fill-rule="evenodd" d="M4.032 13.862c0-.326.267-.591.595-.591h3.57c.328 0 .595.265.595.591v7.394a.593.593 0 0 1-.595.591h-3.57a.593.593 0 0 1-.595-.591v-7.394zm5.575 6.71v-6.395l.735-.618 2.482-4.514a1.972 1.972 0 0 0 .29-1.195l-.196-2.532c.171-.096.365-.147.564-.147 1.07 0 1.989 1.68 1.989 3.055 0 .191-.015.383-.044.57l-.432 2.741h5.38c.344 0 .683.141.931.386.23.229.358.521.355.823-.003.374-.18.72-.486.947l-.5.373.546.303c.383.214.622.614.622 1.045 0 .529-.345.989-.858 1.146l-.56.171.353.46c.162.211.247.46.247.721 0 .588-.43 1.084-1.021 1.182l-.56.092.262.495c.091.172.138.357.138.55a1.21 1.21 0 0 1-1.144 1.196l-7.052.002c-.02 0-.874-.016-1.498-.537a1.672 1.672 0 0 0-.393-.253l-.15-.067z"/></symbol>

    <symbol id="lock" width="26" height="26"><path fill-rule="nonzero" d="M13.54 15.812v1.447a.5.5 0 1 1-1 0v-1.447a1.75 1.75 0 0 1-1.282-1.675c0-.964.797-1.745 1.782-1.745.983 0 1.78.781 1.78 1.745a1.75 1.75 0 0 1-1.28 1.675zM8.39 9V6.626C8.39 4.066 10.499 2 13.09 2v2a2.836 2.836 0 0 0-.102 0V2h.102v2h-.102V2c2.592 0 4.7 2.066 4.7 4.626V9h.376C19.13 9 20 9.82 20 10.835v8.33C20 20.18 19.131 21 18.064 21H7.936C6.87 21 6 20.18 6 19.165v-8.33C6 9.82 6.869 9 7.936 9h.454zm2 0h5.299V6.626c0-1.43-1.177-2.6-2.65-2.626-1.472.027-2.65 1.197-2.65 2.626V9zm7.669 11c.522 0 .941-.392.941-.87v-8.26c0-.478-.419-.87-.941-.87H7.94c-.522 0-.941.392-.941.87v8.26c0 .478.419.87.941.87H18.06z"/></symbol>

    <symbol id="next" width="26" height="26"><path fill-rule="evenodd" d="M17.901 11.948l.004-6.432c0-.285.222-.516.496-.516.275 0 .497.231.497.517l-.007 13.967a.507.507 0 0 1-.497.516.507.507 0 0 1-.496-.517l.003-6.91a.8.8 0 0 1-.171.253L7.191 18.92A.794.794 0 0 1 6 18.232l.007-11.938a.794.794 0 0 1 1.192-.687l10.531 6.087a.796.796 0 0 1 .171.254z"/></symbol>

    <symbol id="music" width="26" height="26"><path fill-rule="evenodd" d="M18.005 14.694l.005-8.534L10.058 7.9l-.005 10.158a.5.5 0 0 1-.024.153c.001.318-.097.647-.294.987-.321.553-.81.966-1.468 1.24-.657.271-1.296.325-1.914.161-.618-.165-1.03-.494-1.234-.987-.205-.494-.145-1.014.179-1.56.324-.547.814-.957 1.472-1.229.658-.273 1.295-.33 1.91-.172.134.034.259.077.374.127l.004-9.272a.5.5 0 0 1 .383-.486l8.952-1.982a.5.5 0 0 1 .617.486V15.92c.061.387-.03.793-.276 1.215-.32.554-.81.967-1.468 1.24-.657.272-1.295.326-1.914.16-.618-.164-1.03-.492-1.234-.985-.204-.495-.144-1.014.18-1.561.323-.547.813-.956 1.471-1.23.658-.271 1.295-.33 1.91-.17.116.029.224.064.326.106z"/></symbol>

    <symbol id="no_fill" width="26" height="26"><path fill-rule="evenodd" d="M18.644 6.65A8.466 8.466 0 0 0 13 4.5c-4.687 0-8.5 3.813-8.5 8.5 0 2.164.813 4.142 2.15 5.644L18.643 6.649zm.707.706L7.356 19.351A8.465 8.465 0 0 0 13 21.5c4.687 0 8.5-3.813 8.5-8.5a8.466 8.466 0 0 0-2.15-5.644zM13 3.5a9.5 9.5 0 1 1-.001 19.002 9.5 9.5 0 0 1 0-19.002z"/></symbol>

    <symbol id="no_sound" width="26" height="26"><path fill-rule="evenodd" d="M11.788 9.673L9.39 7.275l1.732-1.437a.46.46 0 0 1 .666.412v3.423zM3.514 2.806a.505.505 0 0 0 .041.048l19.45 19.45a.5.5 0 0 1-.753.656l-3.213-3.214a8.146 8.146 0 0 1-3.938 1.008v-1c1.148 0 2.234-.27 3.197-.75l-1.716-1.715a4.94 4.94 0 0 1-1.481.226v-1c.222 0 .44-.019.653-.054l-3.966-3.966v6.4a.46.46 0 0 1-.666.411L7.826 16.4a1.468 1.468 0 0 0-.65-.153H3.647a.74.74 0 0 1-.74-.74V9.898c0-.41.331-.742.74-.742h3.01c.226 0 .448-.052.65-.153l.54-.448-5.7-5.701a.5.5 0 1 1 .707-.708l.66.66zm17.162 15.755l-.708-.708a7.18 7.18 0 0 0-4.867-12.462v-1a8.18 8.18 0 0 1 5.575 14.17zm-2.293-2.293l-.709-.709a3.942 3.942 0 0 0-2.574-6.93v-1a4.942 4.942 0 0 1 3.283 8.639zm-2.08-2.08l-1.202-1.203V10.56a2.014 2.014 0 0 1 1.202 3.629z"/></symbol>

    <symbol id="no_music" width="26" height="26"><path fill-rule="evenodd" d="M10.058 7.942l-.82-.82a.499.499 0 0 1 .203-.101l8.952-1.982a.5.5 0 0 1 .617.486V15.92c.044.28.008.57-.108.868l-2.264-2.265a2.752 2.752 0 0 1 1.367.172l.005-8.534L10.058 7.9v.041zM3.514 2.806a.505.505 0 0 0 .041.048l19.45 19.45a.5.5 0 0 1-.753.656l-4.712-4.713a3.701 3.701 0 0 1-.274.127c-.657.272-1.295.326-1.914.16-.618-.164-1.03-.492-1.234-.985-.204-.495-.144-1.014.18-1.561.12-.204.263-.388.43-.553l-4.672-4.672-.003 7.296a.5.5 0 0 1-.024.153c.001.318-.097.647-.294.987-.321.553-.81.966-1.468 1.24-.657.271-1.296.325-1.914.161-.618-.165-1.03-.494-1.234-.987-.205-.494-.145-1.014.179-1.56.324-.547.814-.957 1.472-1.229.658-.273 1.295-.33 1.91-.172.134.034.259.077.374.127l.003-7.015-6.91-6.91a.5.5 0 1 1 .707-.708l.66.66z"/></symbol>

    <symbol id="notebook" width="26" height="26"><path fill-rule="nonzero" d="M13.173 4.51v4.82a.163.163 0 0 1-.246.142l-1.397-.85a.165.165 0 0 0-.168 0l-1.43.853a.163.163 0 0 1-.246-.141V4.51H4.11a.983.983 0 0 0-.978.989v.934h.882a.5.5 0 0 1 0 1h-.882V9.2h.882a.5.5 0 0 1 0 1h-.882v1.766h.882a.5.5 0 1 1 0 1h-.882v1.767h.882a.5.5 0 1 1 0 1h-.882V17.5h.882a.5.5 0 1 1 0 1h-.882v.934c0 .547.439.988.978.988h9.273c.54 0 .978-.441.978-.988V5.5a.984.984 0 0 0-.978-.989h-.209zM2.131 18.5H1.25a.5.5 0 1 1 0-1h.881v-1.767H1.25a.5.5 0 1 1 0-1h.881v-1.767H1.25a.5.5 0 1 1 0-1h.881V10.2H1.25a.5.5 0 0 1 0-1h.881V7.433H1.25a.5.5 0 1 1 0-1h.881v-.934c0-1.098.885-1.989 1.978-1.989h9.273c1.094 0 1.978.891 1.978 1.989v13.935a1.983 1.983 0 0 1-1.978 1.988H4.109a1.983 1.983 0 0 1-1.978-1.988V18.5zm23.477-.83a.51.51 0 0 1 0 .018v.26l-.039.193-.86 2.056h-.462l-.004 1.1-1.392.154.01-1.254h-.428l-.861-2.056-.039-.193V5.078c0-.449.271-.835.659-1a.5.5 0 0 1 .5-.487h1.757a.5.5 0 0 1 .5.486c.388.166.66.552.66 1.001v12.591zm-2.936.509l.426 1.018h.945l.427-1.018h-1.798zm-.139-1h2.075V5.078a.084.084 0 0 0-.082-.087h-1.91a.085.085 0 0 0-.083.087v12.1zm-4.395 2.004a.498.498 0 0 1 .618 0l.354-.71a.374.374 0 0 0 .04-.166v-11.5h-1.406v11.5c0 .057.014.114.039.165l.355.711zm-.394-13.376h1.405v-1.21a.083.083 0 0 0-.082-.086h-1.24a.084.084 0 0 0-.083.086v1.21zm2.262 13.11l-.978 1.96a.65.65 0 0 1-1.163 0l-.977-1.96a1.374 1.374 0 0 1-.144-.61V4.597c0-.6.484-1.086 1.082-1.086h1.241c.599 0 1.082.486 1.082 1.086v13.71c0 .212-.05.421-.143.61z"/></symbol>

    <symbol id="note_in_verse" width="26" height="26"><path fill-rule="nonzero" d="M7.273 18.917h-.852a.5.5 0 1 1 0-1h.852V16.15h-.852a.5.5 0 1 1 0-1h.852v-1.766h-.852a.5.5 0 1 1 0-1h.852v-1.767h-.852a.5.5 0 1 1 0-1h.852V7.85h-.852a.5.5 0 0 1 0-1h.852v-.934c0-1.095.868-1.988 1.947-1.988h9.076c1.079 0 1.947.893 1.947 1.988v13.935c0 1.096-.868 1.988-1.947 1.988H9.22c-1.079 0-1.947-.893-1.947-1.988v-.934zm1 0v.934c0 .55.427.988.947.988h9.076c.52 0 .947-.439.947-.988V5.916c0-.549-.427-.988-.947-.988H9.22c-.52 0-.947.44-.947.988v.934h.853a.5.5 0 0 1 0 1h-.853v1.767h.853a.5.5 0 0 1 0 1h-.853v1.767h.853a.5.5 0 1 1 0 1h-.853v1.766h.853a.5.5 0 1 1 0 1h-.853v1.767h.853a.5.5 0 1 1 0 1h-.853zm2.593-9.684a.5.5 0 1 1 0-1h6.807a.5.5 0 1 1 0 1h-6.807zm0 2.767a.5.5 0 1 1 0-1h6.807a.5.5 0 1 1 0 1h-6.807zm0 2.767a.5.5 0 1 1 0-1h6.807a.5.5 0 1 1 0 1h-6.807zm0 2.767a.5.5 0 1 1 0-1h6.807a.5.5 0 1 1 0 1h-6.807z"/></symbol>

    <symbol id="notes" width="26" height="26"><path fill-rule="nonzero" d="M16.084 21.84h-9.43a1.995 1.995 0 0 1-2.003-1.99V5.917c0-1.099.898-1.988 2.003-1.988h9.43c1.105 0 2.003.89 2.003 1.988v13.935c0 1.1-.898 1.988-2.003 1.988zm0-1a.995.995 0 0 0 1.003-.99V5.917a.996.996 0 0 0-1.003-.988h-9.43a.996.996 0 0 0-1.003.988v13.935c0 .545.448.988 1.003.988h9.43zm4.833-1.232a.498.498 0 0 1 .635 0l.366-.72a.363.363 0 0 0 .039-.164v-11.5H20.51v11.5c0 .056.014.111.04.163l.366.721zM20.51 6.224h1.446v-1.21c0-.046-.04-.086-.092-.086h-1.262c-.052 0-.092.04-.092.086v1.21zm2.3 13.114l-.995 1.96a.654.654 0 0 1-1.164 0l-.992-1.957a1.352 1.352 0 0 1-.149-.617V5.014c0-.6.49-1.086 1.092-1.086h1.262c.602 0 1.092.485 1.092 1.086v13.71c0 .213-.05.424-.147.614zM3.745 7.85a.5.5 0 0 1 0-1h2.81a.5.5 0 1 1 0 1h-2.81zm0 2.767a.5.5 0 1 1 0-1h2.81a.5.5 0 1 1 0 1h-2.81zm0 2.767a.5.5 0 1 1 0-1h2.81a.5.5 0 1 1 0 1h-2.81zm0 2.766a.5.5 0 1 1 0-1h2.81a.5.5 0 1 1 0 1h-2.81zm0 2.767a.5.5 0 1 1 0-1h2.81a.5.5 0 1 1 0 1h-2.81z"/></symbol>

    <symbol id="pause" width="26" height="26"><path fill-rule="nonzero" d="M8.007 5.516c0-.285.223-.516.497-.516S9 5.231 9 5.517l-.007 13.967a.507.507 0 0 1-.497.516.507.507 0 0 1-.496-.517l.007-13.967zm9 0c.001-.285.223-.516.497-.516s.496.231.496.517l-.008 13.967a.506.506 0 0 1-.496.516.506.506 0 0 1-.496-.517l.008-13.967z"/></symbol>

    <symbol id="playback_0.75x" width="26" height="26"><path fill-rule="evenodd" d="M5.793 13.42a8.69 8.69 0 0 1-.125 1.549c-.083.455-.216.841-.4 1.157a1.93 1.93 0 0 1-.71.723c-.29.166-.642.249-1.055.249-.384 0-.719-.083-1.003-.25a1.986 1.986 0 0 1-.708-.722 3.713 3.713 0 0 1-.42-1.157 7.799 7.799 0 0 1-.14-1.548c0-.576.042-1.092.125-1.548.083-.456.215-.84.395-1.155.181-.314.415-.554.704-.72.288-.166.637-.249 1.047-.249.387 0 .724.082 1.01.247.287.164.525.403.714.717.188.315.33.7.424 1.155.095.456.142.973.142 1.553zm-3.657 0c0 .49.024.916.073 1.28.049.365.127.668.234.91.108.243.249.426.423.548.174.122.386.183.637.183.25 0 .464-.06.64-.18.175-.121.32-.302.432-.543.112-.24.193-.544.244-.91.05-.367.076-.796.076-1.287 0-.488-.026-.915-.076-1.28a3.206 3.206 0 0 0-.244-.908 1.303 1.303 0 0 0-.432-.542 1.104 1.104 0 0 0-.64-.18c-.25 0-.463.06-.637.18s-.315.302-.423.542c-.107.241-.185.544-.234.909a9.767 9.767 0 0 0-.073 1.279zm4.843 3.038c0-.124.017-.229.05-.315a.565.565 0 0 1 .131-.21.498.498 0 0 1 .195-.117.783.783 0 0 1 .245-.037.79.79 0 0 1 .241.037.496.496 0 0 1 .198.117c.055.054.1.124.132.21a.895.895 0 0 1 .049.315.88.88 0 0 1-.05.31.59.59 0 0 1-.13.212.506.506 0 0 1-.199.123.745.745 0 0 1-.241.039.738.738 0 0 1-.245-.04.509.509 0 0 1-.195-.122.59.59 0 0 1-.132-.212.88.88 0 0 1-.049-.31zm3.335.542l2.75-6.328H9.381v-.81h4.59v.707L11.262 17h-.948zm6.797-4.38c.323 0 .623.045.901.134.279.09.521.223.728.398.206.176.368.394.486.655.117.26.175.561.175.903 0 .371-.055.705-.166 1-.11.297-.275.548-.493.753a2.19 2.19 0 0 1-.808.471c-.32.11-.69.164-1.106.164a4.88 4.88 0 0 1-.954-.096 3.03 3.03 0 0 1-.423-.12 2.063 2.063 0 0 1-.361-.17v-.84c.107.075.233.142.378.2.145.059.297.108.457.147.16.039.32.069.48.09.162.021.31.032.448.032.257 0 .486-.03.688-.09.202-.06.373-.154.513-.281.14-.127.247-.287.322-.479a1.88 1.88 0 0 0 .112-.683c0-.466-.143-.822-.43-1.067-.286-.246-.703-.369-1.25-.369-.087 0-.183.004-.285.012a6.564 6.564 0 0 0-.6.074 7.887 7.887 0 0 0-.242.041l-.44-.278.269-3.36h3.369v.81H16.28l-.19 2.047c.104-.02.242-.04.412-.064.171-.022.374-.034.608-.034zm4.966 1.64l-1.85-2.621h1l1.382 2.021 1.368-2.021h.99l-1.85 2.622L25.07 17h-1l-1.46-2.139L21.13 17h-.991l1.938-2.74z"/></symbol>

    <symbol id="play" width="26" height="26"><path fill-rule="evenodd" d="M6 20.059c0 .724.775 1.175 1.394.814l12.331-7.208a.953.953 0 0 0 0-1.339L7.403 5.127c-.62-.361-1.394.09-1.395.813L6 20.059z"/></symbol>

    <symbol id="playback_1.5x" width="26" height="26"><path fill-rule="evenodd" d="M6.98 17h-.86v-4.458a44.167 44.167 0 0 1 .012-.925 163.826 163.826 0 0 1 .027-.838 7.498 7.498 0 0 1-.146.152 3.028 3.028 0 0 1-.13.122l-.139.124a9.838 9.838 0 0 1-.176.154l-.722.59-.469-.6 1.87-1.46h.732V17zm2.753-.542c0-.124.017-.229.05-.315a.565.565 0 0 1 .131-.21.498.498 0 0 1 .195-.117.783.783 0 0 1 .245-.037.79.79 0 0 1 .241.037.496.496 0 0 1 .198.117c.055.054.1.124.132.21a.895.895 0 0 1 .049.315.88.88 0 0 1-.05.31.59.59 0 0 1-.131.212.506.506 0 0 1-.198.123.745.745 0 0 1-.241.039.738.738 0 0 1-.245-.04.509.509 0 0 1-.195-.122.59.59 0 0 1-.132-.212.88.88 0 0 1-.049-.31zm4.624-3.838c.323 0 .623.045.901.134.279.09.521.223.728.398.207.176.368.394.486.655.117.26.175.561.175.903 0 .371-.055.705-.166 1-.11.297-.275.548-.493.753a2.19 2.19 0 0 1-.808.471c-.32.11-.69.164-1.106.164a4.88 4.88 0 0 1-.954-.096 3.03 3.03 0 0 1-.423-.12 2.063 2.063 0 0 1-.361-.17v-.84c.107.075.233.142.378.2.145.059.297.108.457.147.16.039.32.069.48.09.162.021.31.032.448.032.257 0 .486-.03.688-.09.202-.06.373-.154.513-.281.14-.127.247-.287.322-.479a1.88 1.88 0 0 0 .112-.683c0-.466-.143-.822-.43-1.067-.286-.246-.702-.369-1.25-.369-.087 0-.182.004-.285.012a6.564 6.564 0 0 0-.6.074 7.887 7.887 0 0 0-.242.041l-.44-.278.269-3.36h3.369v.81h-2.598l-.19 2.047c.104-.02.242-.04.413-.064.17-.022.373-.034.607-.034zm4.966 1.64l-1.85-2.621h1l1.382 2.021 1.368-2.021h.99l-1.85 2.622L22.316 17h-1l-1.46-2.139L18.375 17h-.991l1.938-2.74z"/></symbol>

    <symbol id="playback_1.25x" width="26" height="26"><path fill-rule="evenodd" d="M4.226 17h-.86v-4.458a44.167 44.167 0 0 1 .012-.925 163.826 163.826 0 0 1 .027-.838 7.498 7.498 0 0 1-.146.152 3.028 3.028 0 0 1-.13.122l-.139.124a9.838 9.838 0 0 1-.176.154l-.722.59-.469-.6 1.87-1.46h.733V17zm2.753-.542c0-.124.017-.229.05-.315a.565.565 0 0 1 .131-.21.498.498 0 0 1 .195-.117.783.783 0 0 1 .245-.037.79.79 0 0 1 .241.037.496.496 0 0 1 .198.117c.055.054.1.124.132.21a.895.895 0 0 1 .049.315.88.88 0 0 1-.05.31.59.59 0 0 1-.13.212.506.506 0 0 1-.199.123.745.745 0 0 1-.241.039.738.738 0 0 1-.245-.04.509.509 0 0 1-.195-.122.59.59 0 0 1-.132-.212.88.88 0 0 1-.049-.31zm6.885.542H9.411v-.762l1.71-1.86c.243-.264.461-.505.653-.723.192-.218.356-.431.491-.64.135-.208.239-.417.31-.627.072-.21.108-.438.108-.686 0-.192-.028-.361-.083-.508a1.002 1.002 0 0 0-.6-.605 1.336 1.336 0 0 0-.47-.078c-.309 0-.588.062-.837.188a3.437 3.437 0 0 0-.71.48l-.499-.58c.13-.118.27-.227.42-.33.15-.102.311-.191.484-.266.172-.075.355-.134.547-.178.192-.044.393-.066.605-.066.313 0 .595.044.847.132.252.088.467.214.642.378.176.164.312.365.408.6.096.237.144.503.144.799 0 .277-.043.54-.13.791-.086.25-.204.497-.356.74a5.984 5.984 0 0 1-.542.73c-.21.244-.437.498-.68.761L10.5 16.15v.04h3.364V17zm3.247-4.38c.323 0 .623.045.901.134.279.09.521.223.728.398.206.176.368.394.486.655.117.26.175.561.175.903 0 .371-.055.705-.166 1-.11.297-.275.548-.493.753a2.19 2.19 0 0 1-.808.471c-.32.11-.69.164-1.106.164a4.88 4.88 0 0 1-.954-.096 3.03 3.03 0 0 1-.423-.12 2.063 2.063 0 0 1-.361-.17v-.84c.107.075.233.142.378.2.145.059.297.108.457.147.16.039.32.069.48.09.162.021.31.032.448.032.257 0 .486-.03.688-.09.202-.06.373-.154.513-.281.14-.127.247-.287.322-.479a1.88 1.88 0 0 0 .112-.683c0-.466-.143-.822-.43-1.067-.286-.246-.703-.369-1.25-.369-.087 0-.183.004-.285.012a6.564 6.564 0 0 0-.6.074 7.887 7.887 0 0 0-.242.041l-.44-.278.269-3.36h3.369v.81H16.28l-.19 2.047c.104-.02.242-.04.412-.064.171-.022.374-.034.608-.034zm4.966 1.64l-1.85-2.621h1l1.382 2.021 1.368-2.021h.99l-1.85 2.622L25.07 17h-1l-1.46-2.139L21.13 17h-.991l1.938-2.74z"/></symbol>

    <symbol id="playback_1x" width="26" height="26"><path fill-rule="evenodd" d="M11.074 17h-.86v-4.458a44.167 44.167 0 0 1 .013-.925 163.826 163.826 0 0 1 .026-.838 7.498 7.498 0 0 1-.146.152 3.028 3.028 0 0 1-.13.122l-.139.124a9.838 9.838 0 0 1-.175.154l-.723.59-.469-.6 1.87-1.46h.733V17zm4.155-2.74l-1.85-2.621h1l1.382 2.021 1.367-2.021h.992l-1.851 2.622L18.222 17h-1l-1.46-2.139L14.281 17h-.991l1.938-2.74z"/></symbol>

    <symbol id="playback_2x" width="26" height="26"><path fill-rule="evenodd" d="M12.524 17H8.07v-.762l1.709-1.86c.244-.264.462-.505.654-.723.192-.218.356-.431.49-.64.136-.208.24-.417.31-.627.072-.21.108-.438.108-.686 0-.192-.027-.361-.083-.508a1.002 1.002 0 0 0-.6-.605 1.336 1.336 0 0 0-.47-.078c-.308 0-.587.062-.836.188a3.437 3.437 0 0 0-.71.48l-.499-.58c.13-.118.27-.227.42-.33.15-.102.31-.191.483-.266.173-.075.355-.134.547-.178.192-.044.394-.066.606-.066.312 0 .595.044.847.132.252.088.466.214.642.378s.312.365.408.6c.096.237.144.503.144.799 0 .277-.043.54-.13.791-.086.25-.205.497-.356.74a5.984 5.984 0 0 1-.542.73c-.21.244-.437.498-.681.761L9.16 16.15v.04h3.364V17zm2.705-2.74l-1.85-2.621h1l1.382 2.021 1.367-2.021h.992l-1.851 2.622L18.222 17h-1l-1.46-2.139L14.281 17h-.991l1.938-2.74z"/></symbol>

    <symbol id="plus" width="26" height="26"><path fill-rule="nonzero" d="M12.5 13V6.01c0-.282.224-.51.5-.51s.5.228.5.51V13h6.99c.282 0 .51.224.51.5s-.228.5-.51.5H13.5v6.99c0 .282-.224.51-.5.51a.505.505 0 0 1-.5-.51V14H5.51a.505.505 0 0 1-.51-.5c0-.276.228-.5.51-.5h6.99z"/></symbol>

    <symbol id="profile" width="26" height="26"><path fill-rule="evenodd" d="M19 19.016A8.473 8.473 0 0 0 21.5 13c0-4.687-3.813-8.5-8.5-8.5-4.687 0-8.5 3.813-8.5 8.5 0 2.348.957 4.476 2.5 6.016.029-.89.712-1.611 2.052-2.166 1.37-.566 2.685-.85 3.948-.85s2.579.284 3.948.85c1.339.555 2.023 1.276 2.051 2.166zM13 3.5a9.5 9.5 0 1 1-.001 19.002 9.5 9.5 0 0 1 0-19.002zm2.118 10.623A2.896 2.896 0 0 1 13 15c-.824 0-1.53-.292-2.118-.877A2.863 2.863 0 0 1 10 12.018c0-.82.294-1.527.882-2.123C11.47 9.298 12.176 9 13 9c.824 0 1.53.298 2.118.895.588.596.882 1.304.882 2.123 0 .82-.294 1.52-.882 2.105z"/></symbol>

    <symbol id="avatar_placeholder" viewBox="0 0 150 150" style="enable-background:new 0 0 150 150;" xml:space="preserve"><g id="Icons_x2F_Light_x2F_Profile"><path d="M122.361,122.494c12.19-12.156,19.744-28.959,19.744-47.491 C142.105,38,112,7.895,74.997,7.895S7.895,38,7.895,75.003c0,18.533,7.553,35.337,19.744,47.494 c0.22-7.025,5.614-12.721,16.196-17.103c10.806-4.468,21.194-6.709,31.162-6.709c9.975,0,20.363,2.241,31.169,6.709 C116.739,109.775,122.14,115.471,122.361,122.494z M74.997,0C116.417,0,150,33.583,150,75.003C150,116.417,116.417,150,74.997,150 S0,116.417,0,75.003C0,33.583,33.577,0,74.997,0z M91.72,83.866c-4.647,4.62-10.218,6.923-16.72,6.923s-12.08-2.303-16.72-6.923 c-4.64-4.613-6.964-10.152-6.964-16.623c0-6.464,2.324-12.05,6.964-16.758c4.64-4.715,10.218-7.065,16.72-7.065 s12.073,2.351,16.72,7.065c4.64,4.708,6.964,10.294,6.964,16.758C98.684,73.714,96.361,79.253,91.72,83.866z" /></g></symbol>

    <symbol id="previous" width="26" height="26"><path fill-rule="evenodd" d="M7.997 12.556L8 19.483a.507.507 0 0 1-.496.517.507.507 0 0 1-.497-.516L7 5.517C7 5.23 7.222 5 7.496 5s.497.23.497.516l.003 6.45a.796.796 0 0 1 .179-.272l10.53-6.087a.794.794 0 0 1 1.193.687l.007 11.938a.794.794 0 0 1-1.191.688l-10.54-6.094a.8.8 0 0 1-.177-.27z"/></symbol>

    <symbol id="radio" width="26" height="26"><path fill-rule="nonzero" d="M18.493 21H7.507A2.507 2.507 0 0 1 5 18.493V7.508A2.508 2.508 0 0 1 7.507 5h10.986A2.508 2.508 0 0 1 21 7.508v10.985A2.507 2.507 0 0 1 18.493 21zm0-1c.832 0 1.507-.675 1.507-1.507V7.508C20 6.675 19.325 6 18.493 6H7.507C6.675 6 6 6.675 6 7.508v10.985C6 19.325 6.675 20 7.507 20h10.986zM9 8h8a1 1 0 0 1 1 1v8a1 1 0 0 1-1 1H9a1 1 0 0 1-1-1V9a1 1 0 0 1 1-1z"/></symbol>

    <symbol id="search" width="26" height="26"><path fill-rule="evenodd" d="M15.352 16.04l-.972-.971a.488.488 0 0 1-.078-.101 6.822 6.822 0 1 1 .666-.666c.036.021.07.047.101.078l.972.972a1.462 1.462 0 0 1 1.664.286l3.867 3.866a1.462 1.462 0 0 1-2.068 2.068l-3.866-3.867a1.463 1.463 0 0 1-.286-1.664zM9.822 3.976a5.854 5.854 0 0 1 5.848 5.847 5.854 5.854 0 0 1-5.848 5.848 5.854 5.854 0 0 1-5.847-5.848 5.854 5.854 0 0 1 5.847-5.847"/></symbol>

    <symbol id="switch_off" width="48" height="32"><path fill-rule="nonzero" d="M16 6.154h16c5.438 0 9.846 4.408 9.846 9.846S37.438 25.846 32 25.846H16c-5.438 0-9.846-4.408-9.846-9.846S10.562 6.154 16 6.154zm0 1.23a8.615 8.615 0 0 0 0 17.231h16a8.615 8.615 0 0 0 0-17.23H16zm0 18.462c-5.438 0-9.846-4.408-9.846-9.846S10.562 6.154 16 6.154s9.846 4.408 9.846 9.846-4.408 9.846-9.846 9.846zm0-2.461a7.385 7.385 0 1 0 0-14.77 7.385 7.385 0 0 0 0 14.77z"/></symbol>

    <symbol id="share" width="26" height="26"><path fill-rule="nonzero" d="M12.98 1a.5.5 0 0 1 .023 0 .993.993 0 0 1 .712.294l4.24 4.24a.5.5 0 0 1-.707.707L13.5 2.493v12.998c0 .281-.224.509-.5.509a.504.504 0 0 1-.5-.509V2.508L8.774 6.235a.5.5 0 1 1-.708-.707L12.3 1.294A.998.998 0 0 1 12.98 1zM10.5 8v1H7.507C6.675 9 6 9.675 6 10.508v10.985C6 22.325 6.675 23 7.507 23h10.986c.832 0 1.507-.675 1.507-1.507V10.508C20 9.675 19.325 9 18.493 9H15.5V8h2.993A2.508 2.508 0 0 1 21 10.508v10.985A2.507 2.507 0 0 1 18.493 24H7.507A2.507 2.507 0 0 1 5 21.493V10.508A2.508 2.508 0 0 1 7.507 8H10.5z"/></symbol>

    <symbol id="text_options" width="26" height="26"><path fill-rule="evenodd" d="M14.869 14.094l1.348-3.835h2.776l3.794 10.752H20.34l-.776-2.55H15.66l-.776 2.55h-2.446l1.888-5.372c-1.6-.639-2.862-1.39-4.032-2.392a14.528 14.528 0 0 1-2.608 1.73c-.812.413-1.57.719-2.834 1.144A5.353 5.353 0 0 0 4 14.697c2.382-.651 3.859-1.343 5.229-2.474a12.435 12.435 0 0 1-1.57-2.129c-.505-.865-.745-1.438-1.197-2.794h-.626c-.625 0-1.144.026-1.623.079V5.876c.506.067.958.093 1.663.093h3.539v-.944c0-.4-.026-.719-.092-1.025h1.689a4.703 4.703 0 0 0-.093 1.011v.958h3.712c.719 0 1.185-.026 1.677-.093v1.503a13.799 13.799 0 0 0-1.623-.079h-.706c-.345 1.237-.558 1.782-1.037 2.674-.453.839-.945 1.53-1.571 2.249a11.5 11.5 0 0 0 3.498 1.87zM7.992 7.3c.333 1.011.545 1.49 1.011 2.275a9.451 9.451 0 0 0 1.278 1.663 9.71 9.71 0 0 0 1.211-1.676c.398-.719.598-1.185.917-2.262H7.992zm11.03 9.258a699.245 699.245 0 0 1-1.212-3.918 10.598 10.598 0 0 1-.194-.72c-.161.627-.623 2.172-1.385 4.638h2.79z"/></symbol>

    <symbol id="switch_on" width="48" height="32"><g fill-rule="evenodd"><path fill-rule="nonzero" d="M16 7.385a8.615 8.615 0 1 0 0 17.23h16a8.615 8.615 0 1 0 0-17.23H16zm0-1.231h16c5.438 0 9.846 4.408 9.846 9.846S37.438 25.846 32 25.846H16c-5.438 0-9.846-4.408-9.846-9.846S10.562 6.154 16 6.154z"/><path d="M32 24.615a8.615 8.615 0 1 0 0-17.23 8.615 8.615 0 0 0 0 17.23z" opacity=".597"/><path fill-rule="nonzero" d="M32 25.846c-5.438 0-9.846-4.408-9.846-9.846S26.562 6.154 32 6.154s9.846 4.408 9.846 9.846-4.408 9.846-9.846 9.846zm0-2.461a7.385 7.385 0 1 0 0-14.77 7.385 7.385 0 0 0 0 14.77z"/></g></symbol>

    <symbol id="text" width="26" height="26"><path fill-rule="evenodd" d="M7.604 22.5C6.719 22.5 6 21.712 6 20.74V5.26C6 4.288 6.719 3.5 7.604 3.5h10.793c.885 0 1.603.788 1.603 1.761V20.74c0 .972-.718 1.76-1.603 1.76H7.604zM9 7.5h8.21a.5.5 0 1 0 0-1H9a.5.5 0 0 0 0 1zm0 4h8.21a.5.5 0 1 0 0-1H9a.5.5 0 1 0 0 1zm0 4h8.21a.5.5 0 1 0 0-1H9a.5.5 0 1 0 0 1zm0 4h8.21a.5.5 0 1 0 0-1H9a.5.5 0 1 0 0 1z"/></symbol>

    <symbol id="versions" width="26" height="26"><path fill-rule="nonzero" d="M6 6V4.975C6 3.882 6.895 3 7.998 3h11.115c.497 0 .88.4.88.897v8.284c0 .435-.447.783-.88.783H8.063A1.05 1.05 0 0 0 6.999 14h-.005c0 .568.474.978 1.064.978h11.437c.276 0 .5.246.5.522s-.224.478-.5.478h-1.93a.512.512 0 0 1-.075.005H6.058c-.548 0-.996.395-1.056.9L4.995 17c0 .56.473 1.017 1.063 1.017h1.736c.088-.011.177-.017.268-.017h11.432c.276 0 .5.22.5.492a.496.496 0 0 1-.5.491H17.62a.508.508 0 0 1-.13.017H7.87c-.496.087-.87.503-.87 1 0 .56.473 1.017 1.063 1.017h11.432c.276 0 .5.22.5.491a.496.496 0 0 1-.5.492H8.062C6.925 22 6 21.107 6 20c0-.057.003-.114.008-.17h-.012V19c-1.109-.034-2-.914-2-2V7.975c0-1.093.897-1.975 2-1.975h.004z"/></symbol>

    <symbol id="volume_2" width="26" height="26"><path fill-rule="evenodd" d="M11.74 6.044a.462.462 0 0 1 .048.206v12.645a.46.46 0 0 1-.666.411L7.826 16.4a1.468 1.468 0 0 0-.65-.153H3.647a.74.74 0 0 1-.74-.74V9.898c0-.41.331-.742.74-.742h3.01c.226 0 .448-.052.65-.153l3.815-3.165a.46.46 0 0 1 .617.206zm3.36 8.542v-4.027a2.014 2.014 0 1 1 0 4.027zm0-5.956v-1a4.942 4.942 0 1 1 0 9.885v-1a3.942 3.942 0 1 0 0-7.885z"/></symbol>

    <symbol id="twitter" width="26" height="26"><path fill-rule="evenodd" d="M22 7.732a7.384 7.384 0 0 1-2.121.581 3.704 3.704 0 0 0 1.624-2.043 7.396 7.396 0 0 1-2.345.896 3.693 3.693 0 0 0-6.293 3.368 10.484 10.484 0 0 1-7.612-3.858 3.691 3.691 0 0 0 1.143 4.93 3.678 3.678 0 0 1-1.673-.462v.047a3.695 3.695 0 0 0 2.962 3.62 3.698 3.698 0 0 1-1.667.064 3.697 3.697 0 0 0 3.45 2.565A7.41 7.41 0 0 1 4 18.97a10.453 10.453 0 0 0 5.66 1.658c6.794 0 10.508-5.627 10.508-10.507 0-.16-.004-.32-.01-.478A7.506 7.506 0 0 0 22 7.732"/></symbol>

    <symbol id="volume_1" width="26" height="26"><path fill-rule="evenodd" d="M11.74 6.044a.462.462 0 0 1 .048.206v12.645a.46.46 0 0 1-.666.411L7.826 16.4a1.468 1.468 0 0 0-.65-.153H3.647a.74.74 0 0 1-.74-.74V9.898c0-.41.331-.742.74-.742h3.01c.226 0 .448-.052.65-.153l3.815-3.165a.46.46 0 0 1 .617.206zm3.36 8.542v-4.027a2.014 2.014 0 1 1 0 4.027z"/></symbol>

    <symbol id="volume_low" width="26" height="26"><path fill-rule="evenodd" d="M11.74 6.044a.46.46 0 0 0-.618-.206L7.307 9.003a1.452 1.452 0 0 1-.65.153h-3.01a.742.742 0 0 0-.74.742v5.609c0 .409.331.74.74.74h3.53c.224 0 .447.053.65.153l3.295 2.906a.458.458 0 0 0 .666-.411V6.25a.462.462 0 0 0-.049-.206"/></symbol>

    <symbol id="volume_max" width="26" height="26"><path fill-rule="evenodd" d="M11.74 6.044a.462.462 0 0 1 .048.206v12.645a.46.46 0 0 1-.666.411L7.826 16.4a1.468 1.468 0 0 0-.65-.153H3.647a.74.74 0 0 1-.74-.74V9.898c0-.41.331-.742.74-.742h3.01c.226 0 .448-.052.65-.153l3.815-3.165a.46.46 0 0 1 .617.206zm3.36 8.542v-4.027a2.014 2.014 0 1 1 0 4.027zm0-9.195v-1a8.181 8.181 0 1 1 0 16.363v-1a7.181 7.181 0 1 0 0-14.363zm0 3.239v-1a4.942 4.942 0 1 1 0 9.885v-1a3.942 3.942 0 1 0 0-7.885z"/></symbol>

    <symbol id="warning" width="26" height="26"><path fill-rule="evenodd" d="M18.493 21H7.507A2.507 2.507 0 0 1 5 18.493V7.508A2.508 2.508 0 0 1 7.507 5h10.986A2.508 2.508 0 0 1 21 7.508v10.985A2.507 2.507 0 0 1 18.493 21zm-4.556-6.345h-1.785L11.78 7.5h2.531l-.373 7.155zm-2.187 2.506c0-.23.033-.424.099-.583a.977.977 0 0 1 .274-.384 1.09 1.09 0 0 1 .41-.213c.156-.044.323-.066.504-.066.17 0 .333.022.486.066a1.014 1.014 0 0 1 .684.597c.068.159.103.353.103.583 0 .219-.035.407-.103.563a1.07 1.07 0 0 1-.684.612 1.648 1.648 0 0 1-.486.069c-.18 0-.348-.022-.504-.069a1.056 1.056 0 0 1-.684-.612 1.445 1.445 0 0 1-.099-.563z"/></symbol>

    <symbol id="google" width="26" height="26"><g fill-rule="evenodd" fill="none"><path fill="#EA4335" d="M13 7.48c1.69 0 2.83.73 3.48 1.34l2.54-2.48C17.46 4.89 15.43 4 13 4 9.48 4 6.44 6.02 4.96 8.96l2.91 2.26C8.6 9.05 10.62 7.48 13 7.48z"/><path fill="#4285F4" d="M21.64 13.2c0-.74-.06-1.28-.19-1.84H13v3.34h4.96c-.1.83-.64 2.08-1.84 2.92l2.84 2.2c1.7-1.57 2.68-3.88 2.68-6.62z"/><path fill="#FBBC05" d="M7.88 14.78a5.54 5.54 0 0 1-.3-1.78c0-.62.11-1.22.29-1.78L4.96 8.96A9.008 9.008 0 0 0 4 13c0 1.45.35 2.82.96 4.04l2.92-2.26z"/><path fill="#34A853" d="M13 22c2.43 0 4.47-.8 5.96-2.18l-2.84-2.2c-.76.53-1.78.9-3.12.9-2.38 0-4.4-1.57-5.12-3.74l-2.91 2.26C6.45 19.98 9.48 22 13 22z"/><path d="M4 4h18v18H4z"/></g></symbol>

    <symbol id="facebook_button" width="54" height="54"><path d="M0 0h54v54H0z" fill="none" fill-rule="evenodd" opacity=".09998"/></symbol>

    <symbol id="audio_only" width="116" height="94"><path d="M50.37163 10.17185c.18092.36184.27704.76327.27704 1.16469v71.49288c0 1.43043-1.1647 2.60077-2.60642 2.60077-.40143 0-.7972-.09611-1.15904-.27704L28.24813 68.72308c-1.14208-.56539-2.40288-.86504-3.675-.86504H4.62071c-2.31243 0-4.1895-1.87142-4.1895-4.18385V31.96177c0-2.31808 1.87707-4.19515 4.1895-4.19515h17.01242c1.28342 0 2.53858-.294 3.68065-.86504L46.88321 9.00715c1.28342-.63888 2.84954-.12438 3.48842 1.1647zM69.37647 58.467V35.69896c6.28708 0 11.38685 5.09412 11.38685 11.3812 0 6.29272-5.09977 11.38684-11.38685 11.38684zm0-51.98881V.82434c25.55243 0 46.25977 20.70548 46.25977 46.25977 0 25.54581-20.71017 46.25412-46.25977 46.25412v-5.65385c22.42719 0 40.60592-18.1771 40.60592-40.60027 0-22.43165-18.1759-40.60592-40.60592-40.60592zm0 18.31394v-5.65385c15.43395 0 27.9413 12.5093 27.9413 27.9413 0 15.4367-12.50638 27.94697-27.9413 27.94697V69.3727c12.312 0 22.28746-9.97856 22.28746-22.29311 0-12.30967-9.97624-22.28746-22.28746-22.28746z" fill="#868686" fill-rule="evenodd" opacity=".3"/></symbol>
</svg>