<svg xmlns="http://www.w3.org/2000/svg">

		<symbol id="donate_light" width="40" height="40"><path d="M20.08806 31.1C11.35975 25.96667 6.99706 20.83333 7 15.7 7.0031 10.31 10.43281 8 13.92611 8c3.08 0 5.13398 1.01741 6.16195 3.05224C21.11343 9.0174 23.1661 8 26.2461 8c3.85 0 6.93 2.31 6.93 7.7 0 5.13333-4.36268 10.26667-13.08805 15.4zm2.51725-13.71872l.79063-1.38799c-.36292-.23959-.78415-.45026-1.26372-.63202-.47957-.18176-1.00449-.2933-1.57479-.3346V13.775h-.77767v1.26406c-.41476.03304-.8036.11566-1.1665.24785-.36293.13219-.67615.31395-.9397.54528-.26354.23133-.47092.51016-.62214.8365-.15121.32635-.22682.69606-.22682 1.10915 0 .33874.054.62996.16202.87369.108.24372.27002.45853.48604.64442.21603.1859.48605.347.81008.48331.32403.13633.70638.26232 1.14707.37798a4.96692 4.96692 0 0 0 .2333.06816 4.77455 4.77455 0 0 0 .2333.05577v2.13154c-.31107-.03304-.61133-.095-.9008-.18589-.28947-.09088-.55301-.18795-.79064-.29122-.23762-.10328-.44068-.20861-.60917-.31602-.1685-.1074-.28731-.19415-.35644-.26025l-.79063 1.47474c.4666.31395.9872.568 1.56182.76215.57462.19415 1.16435.31188 1.76921.35319V25.325h.77767v-1.3632c.4234-.01652.82736-.07642 1.21188-.1797.38451-.10326.7215-.25817 1.01097-.46472.28947-.20654.51845-.47092.68695-.79313.1685-.32221.25274-.71051.25274-1.16492 0-.40483-.06913-.74562-.20738-1.0224-.13825-.27677-.33483-.51429-.58973-.71257-.25491-.19829-.56598-.36352-.93321-.49571-.36724-.1322-.77551-.25612-1.22484-.37178l-.32403-.07436v-2.14394c.25059.02479.49253.0723.72583.14252.2333.07022.44716.14871.64158.23546.19442.08675.36291.17143.50549.25405.14257.08262.23978.15284.29163.21068zm-.79064 4.15155c0 .57833-.45796.87988-1.37389.90467v-1.99523c.43204.1322.76903.27677 1.01098.43375.24194.15697.36291.37591.36291.65681zM18.6651 17.5052c0-.60311.41043-.92945 1.23131-.97902v2.00762c-.41476-.11567-.72367-.24579-.92673-.39037-.20306-.14458-.30458-.35732-.30458-.63823z" fill="#FFF" fill-rule="nonzero"/></symbol>

		<symbol id="donate_dark" width="40" height="40"><path d="M20.07498 31.07692C11.3554 25.94872 6.99706 20.82052 7 15.69231 7.00308 10.30769 10.42938 8 13.9192 8c3.07692 0 5.12885 1.0164 6.15578 3.04919C21.09933 9.01639 23.14996 8 26.22688 8c3.84616 0 6.92308 2.3077 6.92308 7.6923 0 5.12821-4.35832 10.25642-13.07498 15.38462zm2.51474-13.70502l.78984-1.3866c-.36255-.23935-.78337-.4498-1.26246-.63139-.47908-.18158-1.00348-.293-1.57321-.33427v-1.2504h-.7769v1.26278c-.41434.03302-.80279.11555-1.16534.24761-.36255.13206-.67547.31363-.93875.54473-.26328.2311-.47045.50966-.62152.83568-.15106.32601-.2266.69536-.2266 1.10804 0 .3384.05396.62933.16186.8728.1079.24349.26976.45808.48556.64378.2158.18571.48556.34665.80927.48284.3237.13618.70568.26205 1.14592.3776a4.96192 4.96192 0 0 0 .23307.06809 4.76987 4.76987 0 0 0 .23307.05571v2.12942c-.31076-.03302-.61073-.09492-.8999-.1857-.28919-.0908-.55247-.18778-.78985-.29095-.23739-.10317-.44024-.2084-.60857-.3157-.16833-.1073-.28702-.19395-.35608-.25998l-.78984 1.47326c.46614.31363.98622.56743 1.56026.76139.57405.19396 1.16319.31157 1.76744.35284v1.37421h.7769v-1.36183c.42298-.01651.82653-.07635 1.21066-.17952.38414-.10317.72079-.25792 1.00997-.46426.28918-.20634.51793-.47045.68626-.79234.16832-.3219.25249-.7098.25249-1.16375 0-.40443-.06906-.74488-.20718-1.02138-.13811-.2765-.3345-.51378-.58914-.71187-.25465-.19808-.5654-.36315-.93228-.4952-.36687-.13207-.77473-.25587-1.2236-.37142l-.32372-.07428v-2.1418c.25034.02476.49204.07222.7251.14238.23308.07015.44672.14856.64095.23522.19422.08667.36255.17126.50498.2538.14243.08254.23954.15269.29134.21046zm-.78985 4.14741c0 .57775-.4575.879-1.37252.90377v-1.99324c.43162.13206.76827.2765 1.00997.43332.2417.15681.36255.37553.36255.65615zm-3.14643-4.0236c0-.60251.41003-.92853 1.23009-.97805v2.00562c-.41435-.11556-.72295-.24555-.9258-.38999-.20286-.14443-.30429-.35696-.30429-.63758z" fill="#232B33" fill-rule="nonzero"/></symbol>

    <symbol id="dark"  width="55" height="55"><g fill="none" fill-rule="evenodd"><circle fill="#1B1F24" cx="27.5" cy="27.5" r="20"/><circle stroke="#FFFFFF" cx="27.5" cy="27.5" r="19.556" stroke-opacity=".5" stroke-width=".889"/><g stroke="#6FBC8F" stroke-width="2"><circle cx="27.5" cy="27.5" r="26.5"/></g></g></symbol>

    <symbol id="replay" width="153" height="132"><path d="M149.75968 66.027c2.4319.00386 3.95233 2.55366 2.7344 4.59812l-24.2274 40.62318c-1.24181 1.2074-3.25976 1.2074-4.50556 0L99.50587 70.59426C98.28794 68.55366 99.80837 66 102.24424 66l21.44807.01219c0-31.82206-25.8837-57.7045-57.69231-57.7045-31.81421 0-57.6923 25.88244-57.6923 57.69511S34.18578 123.6923 66 123.6923c12.16188 0 23.45761-3.78288 32.7716-10.23406.5934-.41101 3.66563-1.9218 5.45953.95383 1.79391 2.87563-.6038 5.07406-1.26233 5.52626C92.45332 127.15904 79.72021 131.38462 66 131.38462c-36.11138 0-65.38462-29.27195-65.38462-65.38173S29.88862.6154 66 .6154s65.38461 29.27772 65.38461 65.3875c0 .00304 6.12503.01108 18.37507.02411z" fill="#FEFEFE" fill-rule="nonzero"/></symbol>

    <symbol id="light"  width="55" height="55"><g fill="none" fill-rule="evenodd"><circle fill="#FDF9F3" cx="27.5" cy="27.5" r="20"/><circle stroke="#B2BBC6" cx="27.5" cy="27.5" r="19.556" stroke-width=".889"/><g stroke="#6FBC8F" stroke-width="2"><circle cx="27.5" cy="27.5" r="26.5"/></g></g></symbol>

    <symbol id="red"  width="55" height="55"><g fill="none" fill-rule="evenodd"><circle fill="#9E1E35" cx="27.5" cy="27.5" r="20"/><circle stroke="#B2BBC6" cx="27.5" cy="27.5" r="19.556" stroke-width=".889"/><g stroke="#6FBC8F" stroke-width="2"><circle cx="27.5" cy="27.5" r="26.5"/></g></g></symbol>

    <symbol id="ring" width="55" height="55"><circle cx="27.5" cy="27.5" r="26.5" fill-rule="evenodd" stroke-width="2"/></symbol>

    <symbol id="arrow_left" width="26" height="26"><path fill-rule="nonzero" d="M16.863 19.836a.5.5 0 0 1-.708.708L9.38 13.769a1.302 1.302 0 0 1 0-1.839l6.784-6.784a.5.5 0 0 1 .708.708l-6.784 6.784a.301.301 0 0 0 0 .424l6.775 6.774z"/></symbol>

    <symbol id="additional_settings" width="26" height="26"><path fill-rule="evenodd" d="M14.658 12.609a1.61 1.61 0 1 1-3.22 0 1.61 1.61 0 0 1 3.22 0zm-6.439 0a1.61 1.61 0 1 1-3.219 0 1.61 1.61 0 0 1 3.219 0zm12.877 0a1.61 1.61 0 1 1-3.219 0 1.61 1.61 0 0 1 3.219 0z"/></symbol>

    <symbol id="arrow_right" width="26" height="26"><path fill-rule="nonzero" d="M9.155 5.854a.5.5 0 1 1 .708-.708l6.775 6.775a1.3 1.3 0 0 1 0 1.839l-6.784 6.784a.5.5 0 0 1-.708-.708l6.784-6.784a.3.3 0 0 0 0-.423L9.155 5.854z"/></symbol>

    <symbol id="arrow_up" width="26" height="26"><path fill-rule="nonzero" d="M5.854 16.863a.5.5 0 0 1-.708-.707l6.775-6.774a1.298 1.298 0 0 1 1.839 0l6.784 6.783a.5.5 0 0 1-.708.707l-6.784-6.784a.299.299 0 0 0-.423 0l-6.775 6.775z"/></symbol>

    <symbol id="arrow_down" width="26" height="26"><path fill-rule="nonzero" d="M19.836 9.156a.5.5 0 0 1 .708.708l-6.775 6.773a1.298 1.298 0 0 1-1.839 0L5.146 9.855a.5.5 0 1 1 .708-.708l6.784 6.785a.299.299 0 0 0 .423 0l6.775-6.775z"/></symbol>

    <symbol id="audio" width="26" height="26"><path fill-rule="nonzero" d="M6.122 13.203v.755c.111-.012.225-.019.34-.019h1.376a1.27 1.27 0 0 1 1.274 1.266v6.028c0 .7-.57 1.266-1.274 1.266H6.462a3.021 3.021 0 0 1-3.032-3.011v-2.539c0-1.244.76-2.312 1.845-2.77v-.977a1.263 1.263 0 0 1-.846-1.19c0-4.7 3.838-8.512 8.572-8.512 4.734 0 8.571 3.811 8.571 8.513 0 .55-.354 1.017-.848 1.19v.976a3.01 3.01 0 0 1 1.846 2.77v2.539c0 1.663-1.358 3.011-3.033 3.011h-1.376a1.27 1.27 0 0 1-1.274-1.266v-6.028c0-.7.57-1.266 1.274-1.266h1.376c.115 0 .229.007.34.02v-.757a1.263 1.263 0 0 1-.845-1.19c0-3.307-2.7-5.989-6.03-5.989-3.332 0-6.032 2.682-6.032 5.99 0 .55-.354 1.017-.848 1.19z"/></symbol>

    <symbol id="bibles" width="26" height="26"><path fill-rule="nonzero" d="M7 20c0 .563.48 1 .941 1H19.5c.227 0 .499.272.499.5 0 .228-.272.5-.499.5H7.941c-1.052 0-1.91-.952-1.94-2.006L6 4.89c0-1.04.84-1.883 1.878-1.883L19.195 3c.444 0 .805.362.805.808V18.31c0 .384-.31.694-.693.694l-11.366.007c-.617 0-.941.37-.941.989z"/></symbol>

    <symbol id="audio_copy" width="26" height="26"><path fill-rule="evenodd" stroke-linecap="round" d="M3 13a1.5 1.5 0 0 1 1.5 1.5v1a1.5 1.5 0 0 0 3 0v-6a1.5 1.5 0 0 1 3 0v10a1.5 1.5 0 0 0 3 0v-12a1.5 1.5 0 0 1 3 0v7a1.5 1.5 0 0 0 3 0v-2A1.5 1.5 0 0 1 21 11a1.49 1.49 0 0 1 1.49 1.5l-.007.973A1.517 1.517 0 0 0 24 15"/></symbol>

    <symbol id="bookmark" width="26" height="26"><path fill-rule="nonzero" d="M7 4.038C7 3.46 7.48 3 8.06 3h10.88c.58 0 1.06.46 1.06 1.038v16.914c0 .812-.9 1.298-1.601.894l-4.807-2.786a.08.08 0 0 0-.077 0l-4.922 2.8C7.89 22.256 7 21.768 7 20.96V4.039zm1 0v16.923c0 .026.052.055.099.029l4.922-2.8a1.08 1.08 0 0 1 1.073.005L18.9 20.98c.046.027.1-.002.1-.028V4.038c0-.016-.023-.038-.06-.038H8.06c-.037 0-.06.022-.06.038z"/></symbol>

    <symbol id="bookmark_in_verse" width="26" height="26"><path fill-rule="nonzero" d="M7 4.038C7 3.46 7.48 3 8.06 3h10.88c.58 0 1.06.46 1.06 1.038v16.914c0 .812-.9 1.298-1.601.894l-4.807-2.786a.08.08 0 0 0-.077 0l-4.922 2.799c-.7.398-1.593-.09-1.593-.898V4.038z"/></symbol>

    <symbol id="gospel_films" width="22" height="15"><path d="M20.04139 8.8403c-.01503.05704-.03575.12584-.05903.19844-.09184.28695-.41778.41413-.66929.26023a.07509.07509 0 0 0-.00824-.00512c-.59615-.36656-1.52208-.9598-1.52208-.9598-.57598-.37396-.54445-1.25227.05665-1.5811l1.6361-.81615c.26287-.13135.58312.01839.64765.31255.0713.32448.11164.65844.11622.99942.00733.5468-.06288 1.0813-.19798 1.59152m-2.59246 3.58866c-.27955.1649-.5769.30155-.8911.40523-.50393.16603-1.01887.2519-1.5305.26668-.05701.00151-.12685.00094-.20073-.00076-.2922-.00758-.50485-.29302-.4352-.58642a.09507.09507 0 0 0 .0022-.00986c.1661-.69616.44601-1.78466.44601-1.78466.17874-.67854 1.00091-.90257 1.47973-.40334l1.23078 1.38153c.1978.22175.15216.58225-.10119.7316m-4.07566-5.32783c.19046-.75075 1.0053-1.2898 1.73215-1.06841.70449.21474 1.15911.9672.989 1.71131-.18827.82183-.95178 1.29036-1.70943 1.08699-.66085-.17703-1.1954-1.0053-1.01172-1.7299M9.65819 9.46406c-.01888-.05572-.0396-.12452-.0605-.19787-.08249-.28999.11513-.58661.40678-.60784.00312-.0002.00642-.00057.00953-.00076.69184-.04985 1.77982-.10728 1.77982-.10728.67937-.03165 1.13747.70887.82419 1.3332l-.89532 1.63417c-.14372.2625-.48945.32808-.70466.12433-.2374-.22479-.45426-.47573-.64583-.75302-.30723-.4454-.5439-.92588-.71401-1.42493m.10009-4.35684c.13217-.30345.29477-.59496.48982-.8696.3131-.44104.68047-.82371 1.08578-1.14687.04528-.03582.1021-.07809.16297-.1215.24032-.17152.5747-.07031.68542.20944.00128.00323.00256.00626.00366.0093.26214.66393.65536 1.71434.65536 1.71434.24142.6573-.2957 1.33869-.96718 1.2263l-1.78128-.36828c-.28616-.05913-.45444-.37812-.33455-.65313m5.45402-3.2964c.32098.02578.64142.08472.95764.1812.50742.15465.98037.3821 1.4119.66659.04821.03165.10559.0726.16572.11694.23776.1757.25902.53525.04234.73805-.00238.00209-.00476.00436-.00715.00664-.51493.48028-1.3371 1.21909-1.3371 1.21909-.51604.4581-1.31823.16717-1.44398-.52388L14.73182 2.358c-.04326-.29833.18955-.57032.48048-.5472m6.74346 4.81496C21.5532 2.68362 18.07954-.1903 14.27646.00984 10.35333.21624 7.26152 4.30074 7.577 8.3113c.1153 1.4636.75893 2.81555 1.70319 3.91675.06801.06311.4977.62717 1.25901 1.199H1.69787c-.10174 0-.18441-.08245-.18588-.18764-.011-.83718-.05041-4.26455.00422-5.96563.0011-1.39327.4944-2.79375 1.40511-3.69631C4.3446 2.1675 6.35813 1.82767 8.08534 2.57672c.10119.04397.2152.00777.2735-.08832.24015-.39613.51842-.76895.8361-1.11144.0913-.09837.07132-.26118-.046-.32316C6.7101-.2339 3.65862.24525 1.61868 2.5428.57946 3.71335.06251 5.19287.03061 6.68773.02475 6.96522 0 8.00956 0 10.0393l.0275 4.56458C.02896 14.82297.2011 15 .4132 15H15.05775v-.00208a5.48721 5.48721 0 0 0 .34042-.01858c4.04523-.35102 7.00212-3.999 6.55758-8.35358" fill="#FEFEFE" fill-rule="evenodd"/></symbol>

    <symbol id="elipsis" width="17" height="4"><path d="M9.6575 1.609c0 .889-.721 1.609-1.61 1.609-.889 0-1.609-.72-1.609-1.609S7.1585 0 8.0475 0s1.61.72 1.61 1.609zm-6.4385 0c0 .889-.721 1.609-1.61 1.609C.72 3.218 0 2.498 0 1.609S.72 0 1.609 0s1.61.72 1.61 1.609zm12.877 0c0 .889-.721 1.609-1.61 1.609-.889 0-1.609-.72-1.609-1.609S13.597 0 14.486 0s1.61.72 1.61 1.609z" fill-rule="evenodd"/></symbol>

    <symbol id="fullscreen" width="18" height="18"><path d="M11.5 0H17c.55228 0 1 .44772 1 1v5.5c0 .27614-.22386.5-.5.5s-.5-.22386-.5-.5V1h-5.5c-.27614 0-.5-.22386-.5-.5s.22386-.5.5-.5zM7 .5c0 .27614-.22386.5-.5.5H1v5.5c0 .27614-.22386.5-.5.5S0 6.77614 0 6.5V1c0-.55228.44772-1 1-1h5.5c.27614 0 .5.22386.5.5zm4 17c0-.27614.22386-.5.5-.5H17v-5.5c0-.27614.22386-.5.5-.5s.5.22386.5.5V17c0 .55228-.44772 1-1 1h-5.5c-.27614 0-.5-.22386-.5-.5zm-4.5.5H1c-.55228 0-1-.44772-1-1v-5.5c0-.27614.22386-.5.5-.5s.5.22386.5.5V17h5.5c.27614 0 .5.22386.5.5s-.22386.5-.5.5z" fill-rule="nonzero"/></symbol>

    <symbol id="cancel" width="26" height="26"><path fill-rule="nonzero" d="M12.849 12.143l6.987-6.988a.5.5 0 0 1 .708.708l-7.695 7.694-7.703-7.703a.5.5 0 0 1 .708-.708l6.995 6.997zm0 1.414l-6.987 6.987a.5.5 0 1 1-.707-.707l7.694-7.695 7.703 7.704a.5.5 0 0 1-.707.707l-6.996-6.996z"/></symbol>

    <symbol id="copyright" width="26" height="26"><path fill-rule="evenodd" d="M13 3.5a9.5 9.5 0 1 1-.001 19.002 9.5 9.5 0 0 1 0-19.002zm0 1c-4.687 0-8.5 3.813-8.5 8.5 0 4.687 3.813 8.5 8.5 8.5 4.687 0 8.5-3.813 8.5-8.5 0-4.687-3.813-8.5-8.5-8.5zm.169 12.335c-1.157 0-2.058-.355-2.703-1.065-.644-.711-.966-1.73-.966-3.059 0-1.347.325-2.386.978-3.116.651-.73 1.58-1.095 2.786-1.095.391 0 .778.04 1.161.121.383.08.7.184.949.311l-.403 1.099c-.679-.254-1.258-.381-1.736-.381-.811 0-1.409.255-1.795.765-.385.511-.578 1.271-.578 2.282 0 .971.193 1.715.578 2.23.386.515.958.773 1.714.773.708 0 1.404-.157 2.088-.469v1.172c-.557.288-1.248.432-2.073.432z"/></symbol>

    <symbol id="country" width="26" height="26"><path fill-rule="evenodd" d="M18.025 19.852l-.275-.098 1.339-1.254.294.107a8.521 8.521 0 0 0 1.419-2.234l-.606.69c-.027.024-1.884 1.99-1.91 2.015l-1.434.692-.479-.369 1.493-2.316a.77.77 0 0 0 .144-.635l-.112-1.086-1.652-.013-1.098-.979.038-1.415 1.369-1.813 1.678-.322 1.307.952 1.087-.13.086-.514-.369-.088-.337-.349.015.364-.272-.092-.462-.781-.634-.411.671.759-.142-.041.009.15-.453.137.295-.287-.758-.622s-.497.092-.504.09c-.007 0-.277.783-.277.783l-.877.28-.58-.23-.227-.923 1.065-.045-.505-.675.578-.177.276-.442.386-.432.81.13.192-.488-.453-.757-.396.01.45.747-.322.234-.51-.342-.205.17-.804-.724.24-.244-.109-.635.372-.654.242.02a8.438 8.438 0 0 0-2.74-.953.372.372 0 0 1 .028.09l.203 1.2a.366.366 0 0 1-.164.37l-1.12.714-.295.769-.709.091-.611-.934a.357.357 0 0 1-.06-.209l.028-1.182-.786-.488-.653.561.322.717a.364.364 0 0 1-.069.402l-.365.384a.366.366 0 0 1-.393.092l-.779-.29.521-.628-.214-.202-.66.597.096.193-.503.065-.67.56a.366.366 0 0 0-.054.504l.541.698.497-.795a.376.376 0 0 0 .047-.118l.164-.775.87.154-.076.542.48-.233.95.807c.059.048.1.115.12.189l.285 1.135-.315.16-.27-.128-1.668.324-.058.425-.827.265-.064.647-.805.477-.034 1.076-.115.102-.496-.757-.325.206-.269-.206-.406.336.089 1.09h.31l.132-.433h.635l-.331.864.63.202s-.094.526 0 .672c.094.147.414.063.414.063l.695-.434 1.421.268a.362.362 0 0 1 .124.047l1.586.973s-.053.265.014.379c.048.08 1.072.373 1.658.535a.366.366 0 0 1 .238.496c-.24.565-.664 1.555-.702 1.61-.052.08-.729.125-.729.125l-.621 1.276-.09.629.124.447a8.507 8.507 0 0 0 6.731-1.476zm-7.426 1.303l-.147-.242a.368.368 0 0 1-.173-.195l-.784-2.077-.531-.54-.91-.706a.36.36 0 0 1-.122-.17l-.266-.778.186-.592-.179-.619-.316.027-1.246-.984-.488-.037-.76-1a.345.345 0 0 1-.046-.078l-.3-.71c-.011.181-.017.363-.017.546 0 3.854 2.577 7.116 6.099 8.155zm2.4-17.655c5.247 0 9.501 4.253 9.501 9.5s-4.254 9.5-9.5 9.5A9.5 9.5 0 0 1 3.5 13 9.5 9.5 0 0 1 13 3.5zm3.105 4.73l-.16.003.065.369-.48-.026-.065-.304.102-.195.43.027-.18-.237-.25-.252h.52l.163.462.551.353.198.263-.699.233-.134-.005.107-.243-.117-.065.09-.226-.141-.158zM14.92 6.524l.833.337-.032.26-1.077.05-.443-.255.078-.314.64-.078z"/></symbol>

    <symbol id="delete" width="26" height="26"><path fill-rule="evenodd" d="M16.958 21H9.042c-.65 0-1.176-.615-1.176-1.372L7 7.417c0-.23.187-.417.417-.417h11.166c.23 0 .417.187.417.417l-.866 12.21c0 .758-.527 1.373-1.176 1.373zm2.72-16.603c.453 0 .822.358.822.8a.812.812 0 0 1-.822.803H6.322a.812.812 0 0 1-.822-.802c0-.443.368-.801.822-.801H9.26a.212.212 0 0 0 .208-.195C9.54 3.522 9.981 3 10.516 3h4.757c.534 0 .976.523 1.047 1.202a.212.212 0 0 0 .209.195h3.15zM15.782 9.98l-.282 7a.5.5 0 0 0 1 .04l.282-7a.5.5 0 0 0-1-.04zM12.5 10v7a.5.5 0 1 0 1 0v-7a.5.5 0 1 0-1 0zm-3.28.02l.28 7a.5.5 0 0 0 1-.04l-.28-7a.5.5 0 0 0-1 .04z"/></symbol>

    <symbol id="dot" width="26" height="26"><circle cx="13" cy="13" r="8" fill-rule="evenodd"/></symbol>

    <symbol id="e-mail" width="26" height="26"><path fill-rule="nonzero" d="M21.193 18.812l-5.566-4.682-1.508 1.268c-.6.505-1.47.505-2.07 0l-1.51-1.27-5.566 4.682a.254.254 0 0 0 .244.204h15.734a.253.253 0 0 0 .242-.202zm.007-1.301v-8.07l-4.796 4.035 4.796 4.035zm-16.233-.003l4.794-4.033-4.794-4.031v8.064zm.008-9.364l7.718 6.49a.604.604 0 0 0 .783-.001L21.19 8.14a.252.252 0 0 0-.24-.193H5.217a.253.253 0 0 0-.242.196zm15.976 11.87H5.217c-.692 0-1.25-.568-1.25-1.264V8.212c0-.696.558-1.264 1.25-1.264h15.734c.692 0 1.249.568 1.249 1.264V18.75c0 .696-.557 1.264-1.25 1.264z"/></symbol>

    <symbol id="download" width="26" height="26"><path fill-rule="nonzero" d="M13.065 15.996a.496.496 0 0 1-.154-.004.991.991 0 0 1-.604-.288l-4.24-4.24a.5.5 0 0 1 .706-.708l3.727 3.727V1.509c0-.281.224-.509.5-.509s.5.228.5.509v13l3.747-3.747a.5.5 0 1 1 .707.708l-4.234 4.234a.997.997 0 0 1-.655.292zM10.5 8v1H7.507C6.675 9 6 9.675 6 10.508v10.985C6 22.325 6.675 23 7.507 23h10.986c.832 0 1.507-.675 1.507-1.507V10.508C20 9.675 19.325 9 18.493 9H15.5V8h2.993A2.508 2.508 0 0 1 21 10.508v10.985A2.507 2.507 0 0 1 18.493 24H7.507A2.507 2.507 0 0 1 5 21.493V10.508A2.508 2.508 0 0 1 7.507 8H10.5z"/></symbol>

    <symbol id="edit_note" width="26" height="26"><path fill-rule="evenodd" d="M11.015 17.386a3.052 3.052 0 0 1-.184.074H8.725a.455.455 0 0 1-.456-.452c0-.25.204-.452.456-.452h1.66a.696.696 0 0 1 .009-.028l.7-2.094c.068-.202.182-.386.333-.536l9.836-9.746a1.099 1.099 0 0 1 1.545 0l.896.888a1.087 1.087 0 0 1 0 1.544L18.47 11.77v8.07c0 1.078-.88 1.95-1.966 1.95h-9.47a1.959 1.959 0 0 1-1.967-1.95v-.988h-.955a.455.455 0 0 1-.456-.452c0-.251.204-.453.456-.453h.955V16.07h-.955a.454.454 0 0 1-.456-.453c0-.25.204-.452.456-.452h.955v-1.876h-.955a.454.454 0 0 1-.456-.453c0-.25.204-.452.456-.452h.955v-1.877h-.955a.455.455 0 0 1-.456-.452c0-.25.204-.452.456-.452h.955V7.725h-.955a.455.455 0 0 1-.456-.452c0-.25.204-.453.456-.453h.955v-.989c0-1.076.88-1.948 1.966-1.948h9.471c1.038 0 1.884.801 1.955 1.812a.142.142 0 0 1-.042.11l-.749.741c-.043.043-.111.044-.111-.029v-.686c0-.576-.471-1.044-1.053-1.044h-9.47A1.05 1.05 0 0 0 5.98 5.831v.99h.955c.252 0 .456.201.456.452 0 .25-.204.452-.456.452H5.98v1.877h.955c.252 0 .456.202.456.452s-.204.452-.456.452H5.98v1.877h.955c.252 0 .456.203.456.452 0 .25-.204.453-.456.453H5.98v1.876h.955c.252 0 .456.203.456.452 0 .251-.204.453-.456.453H5.98v1.877h.955c.252 0 .456.202.456.453 0 .25-.204.452-.456.452H5.98v.989a1.05 1.05 0 0 0 1.053 1.044h9.47a1.05 1.05 0 0 0 1.054-1.044v-7.166l-3.69 3.656c-.152.15-.337.263-.54.33l-2.112.693a.663.663 0 0 1-.201.033zm.77-1.867a.498.498 0 0 1 .454.446l.777-.255a.376.376 0 0 0 .148-.09l8.253-8.178-1.026-1.018-8.26 8.184a.378.378 0 0 0-.09.146l-.256.765zm9.316-9.799l1.026 1.018.872-.864a.087.087 0 0 0 0-.124l-.895-.888a.1.1 0 0 0-.137 0l-.866.858zm-10.529 8.054c.072 0 .041.063.041.063s-.094.18-.127.33c-.034.149-.092.401-.095.456-.002.055-.055.056-.055.056h-1.61a.454.454 0 0 1-.457-.453c0-.25.204-.452.457-.452h1.846zm-1.847-2.781h4.325c.093 0 .025.062.025.062l-.783.776a.228.228 0 0 1-.16.066H8.724a.455.455 0 0 1-.456-.452c0-.25.204-.452.456-.452zm0-2.782h7.11c.086 0 .03.08.03.08l-.764.756a.234.234 0 0 1-.167.069H8.725a.455.455 0 0 1-.456-.452c0-.25.204-.453.456-.453z"/></symbol>

    <symbol id="empty_box" width="26" height="26"><path fill-rule="nonzero" d="M18.493 20c.832 0 1.507-.675 1.507-1.507V7.508C20 6.675 19.325 6 18.493 6H7.507C6.675 6 6 6.675 6 7.508v10.985C6 19.325 6.675 20 7.507 20h10.986zm0 1H7.507A2.507 2.507 0 0 1 5 18.493V7.508A2.508 2.508 0 0 1 7.507 5h10.986A2.508 2.508 0 0 1 21 7.508v10.985A2.507 2.507 0 0 1 18.493 21z"/></symbol>

    <symbol id="facebook" width="26" height="26"><path fill-rule="evenodd" d="M21.007 4H4.993A.993.993 0 0 0 4 4.993v16.014c0 .548.445.993.993.993h8.621v-6.97H11.27v-2.717h2.345V10.31c0-2.325 1.42-3.591 3.494-3.591.994 0 1.848.074 2.096.107v2.43h-1.438c-1.128 0-1.346.536-1.346 1.322v1.735h2.69l-.35 2.716h-2.34V22h4.587a.993.993 0 0 0 .993-.993V4.993A.993.993 0 0 0 21.007 4"/></symbol>

    <symbol id="highlight" width="26" height="26"><path fill-rule="nonzero" d="M5.781 21.38l-1.238 1.23L3 21.373l1.398-1.375-.332-.331 1.128-2.773.11-.166L18.065 3.967a1.324 1.324 0 0 1 1.564-.23.501.501 0 0 1 .78-.09L22.163 5.4a.5.5 0 0 1-.092.78c.27.5.194 1.14-.23 1.563L9.37 20.218a.508.508 0 0 1-.041.042l-.247.246-.165.11-2.772 1.127-.363-.363zm.21-3.791l-.748 1.84 1.139 1.138 1.839-.748-2.23-2.23zm.64-.774l2.364 2.364 12.14-12.142a.322.322 0 0 0 0-.456L19.23 4.674a.323.323 0 0 0-.456 0L6.631 16.814z"/></symbol>

    <symbol id="language" width="26" height="26"><path fill-rule="nonzero" d="M8.005 13.413c.034 1.322.229 2.565.548 3.674H12.5v-3.674H8.005zm0-.826H12.5V8.913H8.553a14.705 14.705 0 0 0-.548 3.674zm9.99.826H13.5v3.674h3.947c.32-1.109.514-2.352.548-3.674zm0-.826a14.705 14.705 0 0 0-.548-3.674H13.5v3.674h4.495zm-13.986.826A8.95 8.95 0 0 0 5 17.127v-.04h2.515a15.85 15.85 0 0 1-.51-3.674H4.009zm0-.826h2.996a15.85 15.85 0 0 1 .51-3.674H5v-.04a8.95 8.95 0 0 0-.99 3.714zm17.982.826h-2.996a15.85 15.85 0 0 1-.51 3.674h2.429v.203a8.95 8.95 0 0 0 1.077-3.877zm0-.826A8.95 8.95 0 0 0 21 8.873v.04h-2.515c.3 1.131.479 2.372.51 3.674h2.996zM8.823 17.913c.817 2.226 2.165 3.76 3.677 4.04v-4.04H8.823zm8.354 0H13.5v4.04c1.512-.28 2.86-1.814 3.677-4.04zm-11.719 0a9.031 9.031 0 0 0 4.237 3.46c-.802-.876-1.465-2.065-1.932-3.46H5.458zm15.084 0h-2.305c-.467 1.395-1.13 2.584-1.932 3.46a9.031 9.031 0 0 0 4.237-3.46zM8.822 8.087H12.5v-4.04c-1.512.28-2.86 1.814-3.677 4.04zm8.355 0c-.817-2.226-2.165-3.76-3.677-4.04v4.04h3.677zm-11.719 0h2.305c.467-1.395 1.13-2.584 1.932-3.46a9.031 9.031 0 0 0-4.237 3.46zm15.084 0a9.031 9.031 0 0 0-4.237-3.46c.802.876 1.465 2.065 1.932 3.46h2.305zM13 23C7.477 23 3 18.523 3 13S7.477 3 13 3s10 4.477 10 10-4.477 10-10 10z"/></symbol>

    <symbol id="info" width="20" height="20"><path d="M9.99958.5C15.24612.5 19.5 4.75388 19.5 10.00042c0 5.2457-4.25388 9.49958-9.50042 9.49958S.5 15.24612.5 10.00042C.5 4.75388 4.75304.5 9.99958.5zm0 1C5.31253 1.5 1.5 5.31335 1.5 10.00041 1.5 14.68665 5.31252 18.5 9.99959 18.5c4.68706 0 8.50041-3.81335 8.50041-8.49959C18.5 5.31335 14.68665 1.5 9.99959 1.5zm.16942 12.335c-1.157 0-2.058-.355-2.703-1.065-.644-.711-.966-1.73-.966-3.059 0-1.347.325-2.386.978-3.116.651-.73 1.58-1.095 2.786-1.095.391 0 .778.04 1.161.121.383.08.7.184.949.311l-.403 1.099c-.679-.254-1.258-.381-1.736-.381-.811 0-1.409.255-1.795.765-.385.511-.578 1.271-.578 2.282 0 .971.193 1.715.578 2.23.386.515.958.773 1.714.773.708 0 1.404-.157 2.088-.469v1.172c-.557.288-1.248.432-2.073.432z" fill-rule="evenodd"/></symbol>

    <symbol id="minus" width="26" height="26"><path fill-rule="nonzero" d="M5.51 14a.505.505 0 0 1-.51-.5c0-.276.228-.5.51-.5h14.98c.282 0 .51.224.51.5s-.228.5-.51.5H5.51z"/></symbol>

    <symbol id="like_one-color" width="26" height="26"><path fill-rule="evenodd" d="M4.032 13.862c0-.326.267-.591.595-.591h3.57c.328 0 .595.265.595.591v7.394a.593.593 0 0 1-.595.591h-3.57a.593.593 0 0 1-.595-.591v-7.394zm5.575 6.71v-6.395l.735-.618 2.482-4.514a1.972 1.972 0 0 0 .29-1.195l-.196-2.532c.171-.096.365-.147.564-.147 1.07 0 1.989 1.68 1.989 3.055 0 .191-.015.383-.044.57l-.432 2.741h5.38c.344 0 .683.141.931.386.23.229.358.521.355.823-.003.374-.18.72-.486.947l-.5.373.546.303c.383.214.622.614.622 1.045 0 .529-.345.989-.858 1.146l-.56.171.353.46c.162.211.247.46.247.721 0 .588-.43 1.084-1.021 1.182l-.56.092.262.495c.091.172.138.357.138.55a1.21 1.21 0 0 1-1.144 1.196l-7.052.002c-.02 0-.874-.016-1.498-.537a1.672 1.672 0 0 0-.393-.253l-.15-.067z"/></symbol>

    <symbol id="lock" width="26" height="26"><path fill-rule="nonzero" d="M13.54 15.812v1.447a.5.5 0 1 1-1 0v-1.447a1.75 1.75 0 0 1-1.282-1.675c0-.964.797-1.745 1.782-1.745.983 0 1.78.781 1.78 1.745a1.75 1.75 0 0 1-1.28 1.675zM8.39 9V6.626C8.39 4.066 10.499 2 13.09 2v2a2.836 2.836 0 0 0-.102 0V2h.102v2h-.102V2c2.592 0 4.7 2.066 4.7 4.626V9h.376C19.13 9 20 9.82 20 10.835v8.33C20 20.18 19.131 21 18.064 21H7.936C6.87 21 6 20.18 6 19.165v-8.33C6 9.82 6.869 9 7.936 9h.454zm2 0h5.299V6.626c0-1.43-1.177-2.6-2.65-2.626-1.472.027-2.65 1.197-2.65 2.626V9zm7.669 11c.522 0 .941-.392.941-.87v-8.26c0-.478-.419-.87-.941-.87H7.94c-.522 0-.941.392-.941.87v8.26c0 .478.419.87.941.87H18.06z"/></symbol>

    <symbol id="next" width="26" height="26"><path fill-rule="evenodd" d="M17.901 11.948l.004-6.432c0-.285.222-.516.496-.516.275 0 .497.231.497.517l-.007 13.967a.507.507 0 0 1-.497.516.507.507 0 0 1-.496-.517l.003-6.91a.8.8 0 0 1-.171.253L7.191 18.92A.794.794 0 0 1 6 18.232l.007-11.938a.794.794 0 0 1 1.192-.687l10.531 6.087a.796.796 0 0 1 .171.254z"/></symbol>

    <symbol id="next_video" width="75pt" height="75pt" viewBox="0 0 75 75"><path style=" stroke:none;fill-rule:evenodd;fill-opacity:1;" d="M 51.636719 34.464844 L 51.648438 15.910156 C 51.648438 15.089844 52.289062 14.421875 53.078125 14.421875 C 53.875 14.421875 54.511719 15.089844 54.511719 15.914062 L 54.492188 56.203125 C 54.507812 57.011719 53.867188 57.675781 53.058594 57.691406 C 52.253906 57.675781 51.613281 57.007812 51.628906 56.199219 L 51.636719 36.269531 C 51.519531 36.539062 51.355469 36.789062 51.144531 37 L 20.742188 54.578125 C 20.035156 54.984375 19.160156 54.984375 18.453125 54.578125 C 17.742188 54.167969 17.308594 53.410156 17.308594 52.59375 L 17.328125 18.15625 C 17.328125 17.335938 17.765625 16.582031 18.472656 16.171875 C 19.183594 15.761719 20.058594 15.761719 20.765625 16.175781 L 51.144531 33.734375 C 51.355469 33.941406 51.523438 34.191406 51.636719 34.464844 Z M 51.636719 34.464844 "/></symbol>

    <symbol id="music" width="26" height="26"><path fill-rule="evenodd" d="M18.005 14.694l.005-8.534L10.058 7.9l-.005 10.158a.5.5 0 0 1-.024.153c.001.318-.097.647-.294.987-.321.553-.81.966-1.468 1.24-.657.271-1.296.325-1.914.161-.618-.165-1.03-.494-1.234-.987-.205-.494-.145-1.014.179-1.56.324-.547.814-.957 1.472-1.229.658-.273 1.295-.33 1.91-.172.134.034.259.077.374.127l.004-9.272a.5.5 0 0 1 .383-.486l8.952-1.982a.5.5 0 0 1 .617.486V15.92c.061.387-.03.793-.276 1.215-.32.554-.81.967-1.468 1.24-.657.272-1.295.326-1.914.16-.618-.164-1.03-.492-1.234-.985-.204-.495-.144-1.014.18-1.561.323-.547.813-.956 1.471-1.23.658-.271 1.295-.33 1.91-.17.116.029.224.064.326.106z"/></symbol>

    <symbol id="no_fill" width="26" height="26"><path fill-rule="evenodd" d="M18.644 6.65A8.466 8.466 0 0 0 13 4.5c-4.687 0-8.5 3.813-8.5 8.5 0 2.164.813 4.142 2.15 5.644L18.643 6.649zm.707.706L7.356 19.351A8.465 8.465 0 0 0 13 21.5c4.687 0 8.5-3.813 8.5-8.5a8.466 8.466 0 0 0-2.15-5.644zM13 3.5a9.5 9.5 0 1 1-.001 19.002 9.5 9.5 0 0 1 0-19.002z"/></symbol>

    <symbol id="no_sound" width="26" height="26"><path fill-rule="evenodd" d="M11.788 9.673L9.39 7.275l1.732-1.437a.46.46 0 0 1 .666.412v3.423zM3.514 2.806a.505.505 0 0 0 .041.048l19.45 19.45a.5.5 0 0 1-.753.656l-3.213-3.214a8.146 8.146 0 0 1-3.938 1.008v-1c1.148 0 2.234-.27 3.197-.75l-1.716-1.715a4.94 4.94 0 0 1-1.481.226v-1c.222 0 .44-.019.653-.054l-3.966-3.966v6.4a.46.46 0 0 1-.666.411L7.826 16.4a1.468 1.468 0 0 0-.65-.153H3.647a.74.74 0 0 1-.74-.74V9.898c0-.41.331-.742.74-.742h3.01c.226 0 .448-.052.65-.153l.54-.448-5.7-5.701a.5.5 0 1 1 .707-.708l.66.66zm17.162 15.755l-.708-.708a7.18 7.18 0 0 0-4.867-12.462v-1a8.18 8.18 0 0 1 5.575 14.17zm-2.293-2.293l-.709-.709a3.942 3.942 0 0 0-2.574-6.93v-1a4.942 4.942 0 0 1 3.283 8.639zm-2.08-2.08l-1.202-1.203V10.56a2.014 2.014 0 0 1 1.202 3.629z"/></symbol>

    <symbol id="no_music" width="26" height="26"><path fill-rule="evenodd" d="M10.058 7.942l-.82-.82a.499.499 0 0 1 .203-.101l8.952-1.982a.5.5 0 0 1 .617.486V15.92c.044.28.008.57-.108.868l-2.264-2.265a2.752 2.752 0 0 1 1.367.172l.005-8.534L10.058 7.9v.041zM3.514 2.806a.505.505 0 0 0 .041.048l19.45 19.45a.5.5 0 0 1-.753.656l-4.712-4.713a3.701 3.701 0 0 1-.274.127c-.657.272-1.295.326-1.914.16-.618-.164-1.03-.492-1.234-.985-.204-.495-.144-1.014.18-1.561.12-.204.263-.388.43-.553l-4.672-4.672-.003 7.296a.5.5 0 0 1-.024.153c.001.318-.097.647-.294.987-.321.553-.81.966-1.468 1.24-.657.271-1.296.325-1.914.161-.618-.165-1.03-.494-1.234-.987-.205-.494-.145-1.014.179-1.56.324-.547.814-.957 1.472-1.229.658-.273 1.295-.33 1.91-.172.134.034.259.077.374.127l.003-7.015-6.91-6.91a.5.5 0 1 1 .707-.708l.66.66z"/></symbol>

    <symbol id="notebook" width="26" height="26"><path fill-rule="nonzero" d="M13.173 4.51v4.82a.163.163 0 0 1-.246.142l-1.397-.85a.165.165 0 0 0-.168 0l-1.43.853a.163.163 0 0 1-.246-.141V4.51H4.11a.983.983 0 0 0-.978.989v.934h.882a.5.5 0 0 1 0 1h-.882V9.2h.882a.5.5 0 0 1 0 1h-.882v1.766h.882a.5.5 0 1 1 0 1h-.882v1.767h.882a.5.5 0 1 1 0 1h-.882V17.5h.882a.5.5 0 1 1 0 1h-.882v.934c0 .547.439.988.978.988h9.273c.54 0 .978-.441.978-.988V5.5a.984.984 0 0 0-.978-.989h-.209zM2.131 18.5H1.25a.5.5 0 1 1 0-1h.881v-1.767H1.25a.5.5 0 1 1 0-1h.881v-1.767H1.25a.5.5 0 1 1 0-1h.881V10.2H1.25a.5.5 0 0 1 0-1h.881V7.433H1.25a.5.5 0 1 1 0-1h.881v-.934c0-1.098.885-1.989 1.978-1.989h9.273c1.094 0 1.978.891 1.978 1.989v13.935a1.983 1.983 0 0 1-1.978 1.988H4.109a1.983 1.983 0 0 1-1.978-1.988V18.5zm23.477-.83a.51.51 0 0 1 0 .018v.26l-.039.193-.86 2.056h-.462l-.004 1.1-1.392.154.01-1.254h-.428l-.861-2.056-.039-.193V5.078c0-.449.271-.835.659-1a.5.5 0 0 1 .5-.487h1.757a.5.5 0 0 1 .5.486c.388.166.66.552.66 1.001v12.591zm-2.936.509l.426 1.018h.945l.427-1.018h-1.798zm-.139-1h2.075V5.078a.084.084 0 0 0-.082-.087h-1.91a.085.085 0 0 0-.083.087v12.1zm-4.395 2.004a.498.498 0 0 1 .618 0l.354-.71a.374.374 0 0 0 .04-.166v-11.5h-1.406v11.5c0 .057.014.114.039.165l.355.711zm-.394-13.376h1.405v-1.21a.083.083 0 0 0-.082-.086h-1.24a.084.084 0 0 0-.083.086v1.21zm2.262 13.11l-.978 1.96a.65.65 0 0 1-1.163 0l-.977-1.96a1.374 1.374 0 0 1-.144-.61V4.597c0-.6.484-1.086 1.082-1.086h1.241c.599 0 1.082.486 1.082 1.086v13.71c0 .212-.05.421-.143.61z"/></symbol>

    <symbol id="note_in_verse" width="26" height="26"><path fill-rule="nonzero" d="M7.273 18.917h-.852a.5.5 0 1 1 0-1h.852V16.15h-.852a.5.5 0 1 1 0-1h.852v-1.766h-.852a.5.5 0 1 1 0-1h.852v-1.767h-.852a.5.5 0 1 1 0-1h.852V7.85h-.852a.5.5 0 0 1 0-1h.852v-.934c0-1.095.868-1.988 1.947-1.988h9.076c1.079 0 1.947.893 1.947 1.988v13.935c0 1.096-.868 1.988-1.947 1.988H9.22c-1.079 0-1.947-.893-1.947-1.988v-.934zm1 0v.934c0 .55.427.988.947.988h9.076c.52 0 .947-.439.947-.988V5.916c0-.549-.427-.988-.947-.988H9.22c-.52 0-.947.44-.947.988v.934h.853a.5.5 0 0 1 0 1h-.853v1.767h.853a.5.5 0 0 1 0 1h-.853v1.767h.853a.5.5 0 1 1 0 1h-.853v1.766h.853a.5.5 0 1 1 0 1h-.853v1.767h.853a.5.5 0 1 1 0 1h-.853zm2.593-9.684a.5.5 0 1 1 0-1h6.807a.5.5 0 1 1 0 1h-6.807zm0 2.767a.5.5 0 1 1 0-1h6.807a.5.5 0 1 1 0 1h-6.807zm0 2.767a.5.5 0 1 1 0-1h6.807a.5.5 0 1 1 0 1h-6.807zm0 2.767a.5.5 0 1 1 0-1h6.807a.5.5 0 1 1 0 1h-6.807z"/></symbol>

    <symbol id="notes" width="26" height="26"><path fill-rule="nonzero" d="M16.084 21.84h-9.43a1.995 1.995 0 0 1-2.003-1.99V5.917c0-1.099.898-1.988 2.003-1.988h9.43c1.105 0 2.003.89 2.003 1.988v13.935c0 1.1-.898 1.988-2.003 1.988zm0-1a.995.995 0 0 0 1.003-.99V5.917a.996.996 0 0 0-1.003-.988h-9.43a.996.996 0 0 0-1.003.988v13.935c0 .545.448.988 1.003.988h9.43zm4.833-1.232a.498.498 0 0 1 .635 0l.366-.72a.363.363 0 0 0 .039-.164v-11.5H20.51v11.5c0 .056.014.111.04.163l.366.721zM20.51 6.224h1.446v-1.21c0-.046-.04-.086-.092-.086h-1.262c-.052 0-.092.04-.092.086v1.21zm2.3 13.114l-.995 1.96a.654.654 0 0 1-1.164 0l-.992-1.957a1.352 1.352 0 0 1-.149-.617V5.014c0-.6.49-1.086 1.092-1.086h1.262c.602 0 1.092.485 1.092 1.086v13.71c0 .213-.05.424-.147.614zM3.745 7.85a.5.5 0 0 1 0-1h2.81a.5.5 0 1 1 0 1h-2.81zm0 2.767a.5.5 0 1 1 0-1h2.81a.5.5 0 1 1 0 1h-2.81zm0 2.767a.5.5 0 1 1 0-1h2.81a.5.5 0 1 1 0 1h-2.81zm0 2.766a.5.5 0 1 1 0-1h2.81a.5.5 0 1 1 0 1h-2.81zm0 2.767a.5.5 0 1 1 0-1h2.81a.5.5 0 1 1 0 1h-2.81z"/></symbol>

    <symbol id="pause" width="26" height="26"><path fill-rule="nonzero" d="M8.007 5.516c0-.285.223-.516.497-.516S9 5.231 9 5.517l-.007 13.967a.507.507 0 0 1-.497.516.507.507 0 0 1-.496-.517l.007-13.967zm9 0c.001-.285.223-.516.497-.516s.496.231.496.517l-.008 13.967a.506.506 0 0 1-.496.516.506.506 0 0 1-.496-.517l.008-13.967z"/></symbol>

    <symbol id="pause_video" width="75pt" height="75pt" viewBox="0 0 75 75"><path style=" stroke:none;fill-rule:nonzero;fill-opacity:1;" d="M 23.097656 15.910156 C 23.097656 15.089844 23.742188 14.421875 24.53125 14.421875 C 25.320312 14.421875 25.960938 15.089844 25.960938 15.914062 L 25.941406 56.203125 C 25.957031 57.011719 25.3125 57.675781 24.507812 57.691406 C 23.699219 57.675781 23.0625 57.007812 23.078125 56.199219 Z M 49.058594 15.910156 C 49.0625 15.089844 49.703125 14.421875 50.492188 14.421875 C 51.28125 14.421875 51.921875 15.089844 51.921875 15.914062 L 51.898438 56.203125 C 51.917969 57.011719 51.277344 57.675781 50.46875 57.691406 C 50.082031 57.683594 49.710938 57.523438 49.445312 57.242188 C 49.175781 56.964844 49.03125 56.589844 49.039062 56.199219 L 49.0625 15.910156 Z M 49.058594 15.910156 "/></symbol>

    <symbol id="playback_0.75x" width="26" height="26"><path fill-rule="evenodd" d="M5.793 13.42a8.69 8.69 0 0 1-.125 1.549c-.083.455-.216.841-.4 1.157a1.93 1.93 0 0 1-.71.723c-.29.166-.642.249-1.055.249-.384 0-.719-.083-1.003-.25a1.986 1.986 0 0 1-.708-.722 3.713 3.713 0 0 1-.42-1.157 7.799 7.799 0 0 1-.14-1.548c0-.576.042-1.092.125-1.548.083-.456.215-.84.395-1.155.181-.314.415-.554.704-.72.288-.166.637-.249 1.047-.249.387 0 .724.082 1.01.247.287.164.525.403.714.717.188.315.33.7.424 1.155.095.456.142.973.142 1.553zm-3.657 0c0 .49.024.916.073 1.28.049.365.127.668.234.91.108.243.249.426.423.548.174.122.386.183.637.183.25 0 .464-.06.64-.18.175-.121.32-.302.432-.543.112-.24.193-.544.244-.91.05-.367.076-.796.076-1.287 0-.488-.026-.915-.076-1.28a3.206 3.206 0 0 0-.244-.908 1.303 1.303 0 0 0-.432-.542 1.104 1.104 0 0 0-.64-.18c-.25 0-.463.06-.637.18s-.315.302-.423.542c-.107.241-.185.544-.234.909a9.767 9.767 0 0 0-.073 1.279zm4.843 3.038c0-.124.017-.229.05-.315a.565.565 0 0 1 .131-.21.498.498 0 0 1 .195-.117.783.783 0 0 1 .245-.037.79.79 0 0 1 .241.037.496.496 0 0 1 .198.117c.055.054.1.124.132.21a.895.895 0 0 1 .049.315.88.88 0 0 1-.05.31.59.59 0 0 1-.13.212.506.506 0 0 1-.199.123.745.745 0 0 1-.241.039.738.738 0 0 1-.245-.04.509.509 0 0 1-.195-.122.59.59 0 0 1-.132-.212.88.88 0 0 1-.049-.31zm3.335.542l2.75-6.328H9.381v-.81h4.59v.707L11.262 17h-.948zm6.797-4.38c.323 0 .623.045.901.134.279.09.521.223.728.398.206.176.368.394.486.655.117.26.175.561.175.903 0 .371-.055.705-.166 1-.11.297-.275.548-.493.753a2.19 2.19 0 0 1-.808.471c-.32.11-.69.164-1.106.164a4.88 4.88 0 0 1-.954-.096 3.03 3.03 0 0 1-.423-.12 2.063 2.063 0 0 1-.361-.17v-.84c.107.075.233.142.378.2.145.059.297.108.457.147.16.039.32.069.48.09.162.021.31.032.448.032.257 0 .486-.03.688-.09.202-.06.373-.154.513-.281.14-.127.247-.287.322-.479a1.88 1.88 0 0 0 .112-.683c0-.466-.143-.822-.43-1.067-.286-.246-.703-.369-1.25-.369-.087 0-.183.004-.285.012a6.564 6.564 0 0 0-.6.074 7.887 7.887 0 0 0-.242.041l-.44-.278.269-3.36h3.369v.81H16.28l-.19 2.047c.104-.02.242-.04.412-.064.171-.022.374-.034.608-.034zm4.966 1.64l-1.85-2.621h1l1.382 2.021 1.368-2.021h.99l-1.85 2.622L25.07 17h-1l-1.46-2.139L21.13 17h-.991l1.938-2.74z"/></symbol>

    <symbol id="play" width="26" height="26"><path fill-rule="evenodd" d="M6 20.059c0 .724.775 1.175 1.394.814l12.331-7.208a.953.953 0 0 0 0-1.339L7.403 5.127c-.62-.361-1.394.09-1.395.813L6 20.059z"/></symbol>

    <symbol id="play_video" width="75pt" height="75pt" viewBox="0 0 75 75"><path style=" stroke:none;fill-rule:evenodd;fill-opacity:1;" d="M 17.308594 57.863281 C 17.308594 59.949219 19.542969 61.25 21.328125 60.210938 L 56.898438 39.417969 C 57.957031 38.347656 57.957031 36.625 56.898438 35.554688 L 21.355469 14.789062 C 19.566406 13.75 17.332031 15.050781 17.332031 17.132812 Z M 17.308594 57.863281 "/></symbol>

    <symbol id="replay_video" width="153" height="132"><path d="M149.75968 66.027c2.4319.00386 3.95233 2.55366 2.7344 4.59812l-24.2274 40.62318c-1.24181 1.2074-3.25976 1.2074-4.50556 0L99.50587 70.59426C98.28794 68.55366 99.80837 66 102.24424 66l21.44807.01219c0-31.82206-25.8837-57.7045-57.69231-57.7045-31.81421 0-57.6923 25.88244-57.6923 57.69511S34.18578 123.6923 66 123.6923c12.16188 0 23.45761-3.78288 32.7716-10.23406.5934-.41101 3.66563-1.9218 5.45953.95383 1.79391 2.87563-.6038 5.07406-1.26233 5.52626C92.45332 127.15904 79.72021 131.38462 66 131.38462c-36.11138 0-65.38462-29.27195-65.38462-65.38173S29.88862.6154 66 .6154s65.38461 29.27772 65.38461 65.3875c0 .00304 6.12503.01108 18.37507.02411z" fill="#FEFEFE" fill-rule="nonzero"/></symbol>

    <symbol id="playback_1.5x" width="26" height="26"><path fill-rule="evenodd" d="M6.98 17h-.86v-4.458a44.167 44.167 0 0 1 .012-.925 163.826 163.826 0 0 1 .027-.838 7.498 7.498 0 0 1-.146.152 3.028 3.028 0 0 1-.13.122l-.139.124a9.838 9.838 0 0 1-.176.154l-.722.59-.469-.6 1.87-1.46h.732V17zm2.753-.542c0-.124.017-.229.05-.315a.565.565 0 0 1 .131-.21.498.498 0 0 1 .195-.117.783.783 0 0 1 .245-.037.79.79 0 0 1 .241.037.496.496 0 0 1 .198.117c.055.054.1.124.132.21a.895.895 0 0 1 .049.315.88.88 0 0 1-.05.31.59.59 0 0 1-.131.212.506.506 0 0 1-.198.123.745.745 0 0 1-.241.039.738.738 0 0 1-.245-.04.509.509 0 0 1-.195-.122.59.59 0 0 1-.132-.212.88.88 0 0 1-.049-.31zm4.624-3.838c.323 0 .623.045.901.134.279.09.521.223.728.398.207.176.368.394.486.655.117.26.175.561.175.903 0 .371-.055.705-.166 1-.11.297-.275.548-.493.753a2.19 2.19 0 0 1-.808.471c-.32.11-.69.164-1.106.164a4.88 4.88 0 0 1-.954-.096 3.03 3.03 0 0 1-.423-.12 2.063 2.063 0 0 1-.361-.17v-.84c.107.075.233.142.378.2.145.059.297.108.457.147.16.039.32.069.48.09.162.021.31.032.448.032.257 0 .486-.03.688-.09.202-.06.373-.154.513-.281.14-.127.247-.287.322-.479a1.88 1.88 0 0 0 .112-.683c0-.466-.143-.822-.43-1.067-.286-.246-.702-.369-1.25-.369-.087 0-.182.004-.285.012a6.564 6.564 0 0 0-.6.074 7.887 7.887 0 0 0-.242.041l-.44-.278.269-3.36h3.369v.81h-2.598l-.19 2.047c.104-.02.242-.04.413-.064.17-.022.373-.034.607-.034zm4.966 1.64l-1.85-2.621h1l1.382 2.021 1.368-2.021h.99l-1.85 2.622L22.316 17h-1l-1.46-2.139L18.375 17h-.991l1.938-2.74z"/></symbol>

    <symbol id="playback_1.25x" width="26" height="26"><path fill-rule="evenodd" d="M4.226 17h-.86v-4.458a44.167 44.167 0 0 1 .012-.925 163.826 163.826 0 0 1 .027-.838 7.498 7.498 0 0 1-.146.152 3.028 3.028 0 0 1-.13.122l-.139.124a9.838 9.838 0 0 1-.176.154l-.722.59-.469-.6 1.87-1.46h.733V17zm2.753-.542c0-.124.017-.229.05-.315a.565.565 0 0 1 .131-.21.498.498 0 0 1 .195-.117.783.783 0 0 1 .245-.037.79.79 0 0 1 .241.037.496.496 0 0 1 .198.117c.055.054.1.124.132.21a.895.895 0 0 1 .049.315.88.88 0 0 1-.05.31.59.59 0 0 1-.13.212.506.506 0 0 1-.199.123.745.745 0 0 1-.241.039.738.738 0 0 1-.245-.04.509.509 0 0 1-.195-.122.59.59 0 0 1-.132-.212.88.88 0 0 1-.049-.31zm6.885.542H9.411v-.762l1.71-1.86c.243-.264.461-.505.653-.723.192-.218.356-.431.491-.64.135-.208.239-.417.31-.627.072-.21.108-.438.108-.686 0-.192-.028-.361-.083-.508a1.002 1.002 0 0 0-.6-.605 1.336 1.336 0 0 0-.47-.078c-.309 0-.588.062-.837.188a3.437 3.437 0 0 0-.71.48l-.499-.58c.13-.118.27-.227.42-.33.15-.102.311-.191.484-.266.172-.075.355-.134.547-.178.192-.044.393-.066.605-.066.313 0 .595.044.847.132.252.088.467.214.642.378.176.164.312.365.408.6.096.237.144.503.144.799 0 .277-.043.54-.13.791-.086.25-.204.497-.356.74a5.984 5.984 0 0 1-.542.73c-.21.244-.437.498-.68.761L10.5 16.15v.04h3.364V17zm3.247-4.38c.323 0 .623.045.901.134.279.09.521.223.728.398.206.176.368.394.486.655.117.26.175.561.175.903 0 .371-.055.705-.166 1-.11.297-.275.548-.493.753a2.19 2.19 0 0 1-.808.471c-.32.11-.69.164-1.106.164a4.88 4.88 0 0 1-.954-.096 3.03 3.03 0 0 1-.423-.12 2.063 2.063 0 0 1-.361-.17v-.84c.107.075.233.142.378.2.145.059.297.108.457.147.16.039.32.069.48.09.162.021.31.032.448.032.257 0 .486-.03.688-.09.202-.06.373-.154.513-.281.14-.127.247-.287.322-.479a1.88 1.88 0 0 0 .112-.683c0-.466-.143-.822-.43-1.067-.286-.246-.703-.369-1.25-.369-.087 0-.183.004-.285.012a6.564 6.564 0 0 0-.6.074 7.887 7.887 0 0 0-.242.041l-.44-.278.269-3.36h3.369v.81H16.28l-.19 2.047c.104-.02.242-.04.412-.064.171-.022.374-.034.608-.034zm4.966 1.64l-1.85-2.621h1l1.382 2.021 1.368-2.021h.99l-1.85 2.622L25.07 17h-1l-1.46-2.139L21.13 17h-.991l1.938-2.74z"/></symbol>

    <symbol id="playback_1x" width="26" height="26"><path fill-rule="evenodd" d="M11.074 17h-.86v-4.458a44.167 44.167 0 0 1 .013-.925 163.826 163.826 0 0 1 .026-.838 7.498 7.498 0 0 1-.146.152 3.028 3.028 0 0 1-.13.122l-.139.124a9.838 9.838 0 0 1-.175.154l-.723.59-.469-.6 1.87-1.46h.733V17zm4.155-2.74l-1.85-2.621h1l1.382 2.021 1.367-2.021h.992l-1.851 2.622L18.222 17h-1l-1.46-2.139L14.281 17h-.991l1.938-2.74z"/></symbol>

    <symbol id="playback_2x" width="26" height="26"><path fill-rule="evenodd" d="M12.524 17H8.07v-.762l1.709-1.86c.244-.264.462-.505.654-.723.192-.218.356-.431.49-.64.136-.208.24-.417.31-.627.072-.21.108-.438.108-.686 0-.192-.027-.361-.083-.508a1.002 1.002 0 0 0-.6-.605 1.336 1.336 0 0 0-.47-.078c-.308 0-.587.062-.836.188a3.437 3.437 0 0 0-.71.48l-.499-.58c.13-.118.27-.227.42-.33.15-.102.31-.191.483-.266.173-.075.355-.134.547-.178.192-.044.394-.066.606-.066.312 0 .595.044.847.132.252.088.466.214.642.378s.312.365.408.6c.096.237.144.503.144.799 0 .277-.043.54-.13.791-.086.25-.205.497-.356.74a5.984 5.984 0 0 1-.542.73c-.21.244-.437.498-.681.761L9.16 16.15v.04h3.364V17zm2.705-2.74l-1.85-2.621h1l1.382 2.021 1.367-2.021h.992l-1.851 2.622L18.222 17h-1l-1.46-2.139L14.281 17h-.991l1.938-2.74z"/></symbol>

    <symbol id="plus" width="26" height="26"><path fill-rule="nonzero" d="M12.5 13V6.01c0-.282.224-.51.5-.51s.5.228.5.51V13h6.99c.282 0 .51.224.51.5s-.228.5-.51.5H13.5v6.99c0 .282-.224.51-.5.51a.505.505 0 0 1-.5-.51V14H5.51a.505.505 0 0 1-.51-.5c0-.276.228-.5.51-.5h6.99z"/></symbol>

    <symbol id="profile" width="26" height="26"><path fill-rule="evenodd" d="M19 19.016A8.473 8.473 0 0 0 21.5 13c0-4.687-3.813-8.5-8.5-8.5-4.687 0-8.5 3.813-8.5 8.5 0 2.348.957 4.476 2.5 6.016.029-.89.712-1.611 2.052-2.166 1.37-.566 2.685-.85 3.948-.85s2.579.284 3.948.85c1.339.555 2.023 1.276 2.051 2.166zM13 3.5a9.5 9.5 0 1 1-.001 19.002 9.5 9.5 0 0 1 0-19.002zm2.118 10.623A2.896 2.896 0 0 1 13 15c-.824 0-1.53-.292-2.118-.877A2.863 2.863 0 0 1 10 12.018c0-.82.294-1.527.882-2.123C11.47 9.298 12.176 9 13 9c.824 0 1.53.298 2.118.895.588.596.882 1.304.882 2.123 0 .82-.294 1.52-.882 2.105z"/></symbol>

    <symbol id="avatar_placeholder" viewBox="0 0 150 150" style="enable-background:new 0 0 150 150;" xml:space="preserve"><g id="Icons_x2F_Light_x2F_Profile"><path d="M122.361,122.494c12.19-12.156,19.744-28.959,19.744-47.491 C142.105,38,112,7.895,74.997,7.895S7.895,38,7.895,75.003c0,18.533,7.553,35.337,19.744,47.494 c0.22-7.025,5.614-12.721,16.196-17.103c10.806-4.468,21.194-6.709,31.162-6.709c9.975,0,20.363,2.241,31.169,6.709 C116.739,109.775,122.14,115.471,122.361,122.494z M74.997,0C116.417,0,150,33.583,150,75.003C150,116.417,116.417,150,74.997,150 S0,116.417,0,75.003C0,33.583,33.577,0,74.997,0z M91.72,83.866c-4.647,4.62-10.218,6.923-16.72,6.923s-12.08-2.303-16.72-6.923 c-4.64-4.613-6.964-10.152-6.964-16.623c0-6.464,2.324-12.05,6.964-16.758c4.64-4.715,10.218-7.065,16.72-7.065 s12.073,2.351,16.72,7.065c4.64,4.708,6.964,10.294,6.964,16.758C98.684,73.714,96.361,79.253,91.72,83.866z" /></g></symbol>

    <symbol id="previous" width="26" height="26"><path fill-rule="evenodd" d="M7.997 12.556L8 19.483a.507.507 0 0 1-.496.517.507.507 0 0 1-.497-.516L7 5.517C7 5.23 7.222 5 7.496 5s.497.23.497.516l.003 6.45a.796.796 0 0 1 .179-.272l10.53-6.087a.794.794 0 0 1 1.193.687l.007 11.938a.794.794 0 0 1-1.191.688l-10.54-6.094a.8.8 0 0 1-.177-.27z"/></symbol>

    <symbol id="previous_video" width="75pt" height="75pt" viewBox="0 0 75 75"><path style=" stroke:none;fill-rule:evenodd;fill-opacity:1;" d="M 23.066406 36.21875 L 23.078125 56.199219 C 23.09375 57.007812 22.453125 57.675781 21.644531 57.691406 C 20.839844 57.675781 20.199219 57.011719 20.210938 56.203125 L 20.191406 15.914062 C 20.191406 15.085938 20.832031 14.421875 21.625 14.421875 C 22.414062 14.421875 23.058594 15.085938 23.058594 15.910156 L 23.066406 34.515625 C 23.179688 34.222656 23.355469 33.957031 23.582031 33.734375 L 53.957031 16.175781 C 54.664062 15.761719 55.539062 15.761719 56.25 16.167969 C 56.960938 16.578125 57.398438 17.335938 57.398438 18.15625 L 57.417969 52.59375 C 57.417969 53.410156 56.980469 54.167969 56.273438 54.578125 C 55.566406 54.984375 54.691406 54.984375 53.984375 54.578125 L 23.578125 37 C 23.359375 36.777344 23.183594 36.511719 23.066406 36.21875 Z M 23.066406 36.21875 "/></symbol>

    <symbol id="radio" width="26" height="26"><path fill-rule="nonzero" d="M18.493 21H7.507A2.507 2.507 0 0 1 5 18.493V7.508A2.508 2.508 0 0 1 7.507 5h10.986A2.508 2.508 0 0 1 21 7.508v10.985A2.507 2.507 0 0 1 18.493 21zm0-1c.832 0 1.507-.675 1.507-1.507V7.508C20 6.675 19.325 6 18.493 6H7.507C6.675 6 6 6.675 6 7.508v10.985C6 19.325 6.675 20 7.507 20h10.986zM9 8h8a1 1 0 0 1 1 1v8a1 1 0 0 1-1 1H9a1 1 0 0 1-1-1V9a1 1 0 0 1 1-1z"/></symbol>

    <symbol id="search" width="26" height="26"><path fill-rule="evenodd" d="M15.352 16.04l-.972-.971a.488.488 0 0 1-.078-.101 6.822 6.822 0 1 1 .666-.666c.036.021.07.047.101.078l.972.972a1.462 1.462 0 0 1 1.664.286l3.867 3.866a1.462 1.462 0 0 1-2.068 2.068l-3.866-3.867a1.463 1.463 0 0 1-.286-1.664zM9.822 3.976a5.854 5.854 0 0 1 5.848 5.847 5.854 5.854 0 0 1-5.848 5.848 5.854 5.854 0 0 1-5.847-5.848 5.854 5.854 0 0 1 5.847-5.847"/></symbol>

    <symbol id="switch_off" width="48" height="32"><path fill-rule="nonzero" d="M16 6.154h16c5.438 0 9.846 4.408 9.846 9.846S37.438 25.846 32 25.846H16c-5.438 0-9.846-4.408-9.846-9.846S10.562 6.154 16 6.154zm0 1.23a8.615 8.615 0 0 0 0 17.231h16a8.615 8.615 0 0 0 0-17.23H16zm0 18.462c-5.438 0-9.846-4.408-9.846-9.846S10.562 6.154 16 6.154s9.846 4.408 9.846 9.846-4.408 9.846-9.846 9.846zm0-2.461a7.385 7.385 0 1 0 0-14.77 7.385 7.385 0 0 0 0 14.77z"/></symbol>

    <symbol id="share" width="26" height="26"><path fill-rule="nonzero" d="M12.98 1a.5.5 0 0 1 .023 0 .993.993 0 0 1 .712.294l4.24 4.24a.5.5 0 0 1-.707.707L13.5 2.493v12.998c0 .281-.224.509-.5.509a.504.504 0 0 1-.5-.509V2.508L8.774 6.235a.5.5 0 1 1-.708-.707L12.3 1.294A.998.998 0 0 1 12.98 1zM10.5 8v1H7.507C6.675 9 6 9.675 6 10.508v10.985C6 22.325 6.675 23 7.507 23h10.986c.832 0 1.507-.675 1.507-1.507V10.508C20 9.675 19.325 9 18.493 9H15.5V8h2.993A2.508 2.508 0 0 1 21 10.508v10.985A2.507 2.507 0 0 1 18.493 24H7.507A2.507 2.507 0 0 1 5 21.493V10.508A2.508 2.508 0 0 1 7.507 8H10.5z"/></symbol>

    <symbol id="text_options" width="26" height="26"><path fill-rule="evenodd" d="M14.869 14.094l1.348-3.835h2.776l3.794 10.752H20.34l-.776-2.55H15.66l-.776 2.55h-2.446l1.888-5.372c-1.6-.639-2.862-1.39-4.032-2.392a14.528 14.528 0 0 1-2.608 1.73c-.812.413-1.57.719-2.834 1.144A5.353 5.353 0 0 0 4 14.697c2.382-.651 3.859-1.343 5.229-2.474a12.435 12.435 0 0 1-1.57-2.129c-.505-.865-.745-1.438-1.197-2.794h-.626c-.625 0-1.144.026-1.623.079V5.876c.506.067.958.093 1.663.093h3.539v-.944c0-.4-.026-.719-.092-1.025h1.689a4.703 4.703 0 0 0-.093 1.011v.958h3.712c.719 0 1.185-.026 1.677-.093v1.503a13.799 13.799 0 0 0-1.623-.079h-.706c-.345 1.237-.558 1.782-1.037 2.674-.453.839-.945 1.53-1.571 2.249a11.5 11.5 0 0 0 3.498 1.87zM7.992 7.3c.333 1.011.545 1.49 1.011 2.275a9.451 9.451 0 0 0 1.278 1.663 9.71 9.71 0 0 0 1.211-1.676c.398-.719.598-1.185.917-2.262H7.992zm11.03 9.258a699.245 699.245 0 0 1-1.212-3.918 10.598 10.598 0 0 1-.194-.72c-.161.627-.623 2.172-1.385 4.638h2.79z"/></symbol>

    <symbol id="switch_on" width="48" height="32"><g fill-rule="evenodd"><path fill-rule="nonzero" d="M16 7.385a8.615 8.615 0 1 0 0 17.23h16a8.615 8.615 0 1 0 0-17.23H16zm0-1.231h16c5.438 0 9.846 4.408 9.846 9.846S37.438 25.846 32 25.846H16c-5.438 0-9.846-4.408-9.846-9.846S10.562 6.154 16 6.154z"/><path d="M32 24.615a8.615 8.615 0 1 0 0-17.23 8.615 8.615 0 0 0 0 17.23z" opacity=".597"/><path fill-rule="nonzero" d="M32 25.846c-5.438 0-9.846-4.408-9.846-9.846S26.562 6.154 32 6.154s9.846 4.408 9.846 9.846-4.408 9.846-9.846 9.846zm0-2.461a7.385 7.385 0 1 0 0-14.77 7.385 7.385 0 0 0 0 14.77z"/></g></symbol>

    <symbol id="text" width="26" height="26"><path fill-rule="evenodd" d="M7.604 22.5C6.719 22.5 6 21.712 6 20.74V5.26C6 4.288 6.719 3.5 7.604 3.5h10.793c.885 0 1.603.788 1.603 1.761V20.74c0 .972-.718 1.76-1.603 1.76H7.604zM9 7.5h8.21a.5.5 0 1 0 0-1H9a.5.5 0 0 0 0 1zm0 4h8.21a.5.5 0 1 0 0-1H9a.5.5 0 1 0 0 1zm0 4h8.21a.5.5 0 1 0 0-1H9a.5.5 0 1 0 0 1zm0 4h8.21a.5.5 0 1 0 0-1H9a.5.5 0 1 0 0 1z"/></symbol>

    <symbol id="versions" width="26" height="26"><path fill-rule="nonzero" d="M6 6V4.975C6 3.882 6.895 3 7.998 3h11.115c.497 0 .88.4.88.897v8.284c0 .435-.447.783-.88.783H8.063A1.05 1.05 0 0 0 6.999 14h-.005c0 .568.474.978 1.064.978h11.437c.276 0 .5.246.5.522s-.224.478-.5.478h-1.93a.512.512 0 0 1-.075.005H6.058c-.548 0-.996.395-1.056.9L4.995 17c0 .56.473 1.017 1.063 1.017h1.736c.088-.011.177-.017.268-.017h11.432c.276 0 .5.22.5.492a.496.496 0 0 1-.5.491H17.62a.508.508 0 0 1-.13.017H7.87c-.496.087-.87.503-.87 1 0 .56.473 1.017 1.063 1.017h11.432c.276 0 .5.22.5.491a.496.496 0 0 1-.5.492H8.062C6.925 22 6 21.107 6 20c0-.057.003-.114.008-.17h-.012V19c-1.109-.034-2-.914-2-2V7.975c0-1.093.897-1.975 2-1.975h.004z"/></symbol>

    <symbol id="volume_2" width="26" height="26"><path fill-rule="evenodd" d="M11.74 6.044a.462.462 0 0 1 .048.206v12.645a.46.46 0 0 1-.666.411L7.826 16.4a1.468 1.468 0 0 0-.65-.153H3.647a.74.74 0 0 1-.74-.74V9.898c0-.41.331-.742.74-.742h3.01c.226 0 .448-.052.65-.153l3.815-3.165a.46.46 0 0 1 .617.206zm3.36 8.542v-4.027a2.014 2.014 0 1 1 0 4.027zm0-5.956v-1a4.942 4.942 0 1 1 0 9.885v-1a3.942 3.942 0 1 0 0-7.885z"/></symbol>

    <symbol id="twitter" width="26" height="26"><path fill-rule="evenodd" d="M22 7.732a7.384 7.384 0 0 1-2.121.581 3.704 3.704 0 0 0 1.624-2.043 7.396 7.396 0 0 1-2.345.896 3.693 3.693 0 0 0-6.293 3.368 10.484 10.484 0 0 1-7.612-3.858 3.691 3.691 0 0 0 1.143 4.93 3.678 3.678 0 0 1-1.673-.462v.047a3.695 3.695 0 0 0 2.962 3.62 3.698 3.698 0 0 1-1.667.064 3.697 3.697 0 0 0 3.45 2.565A7.41 7.41 0 0 1 4 18.97a10.453 10.453 0 0 0 5.66 1.658c6.794 0 10.508-5.627 10.508-10.507 0-.16-.004-.32-.01-.478A7.506 7.506 0 0 0 22 7.732"/></symbol>

    <symbol id="volume_1" width="26" height="26"><path fill-rule="evenodd" d="M11.74 6.044a.462.462 0 0 1 .048.206v12.645a.46.46 0 0 1-.666.411L7.826 16.4a1.468 1.468 0 0 0-.65-.153H3.647a.74.74 0 0 1-.74-.74V9.898c0-.41.331-.742.74-.742h3.01c.226 0 .448-.052.65-.153l3.815-3.165a.46.46 0 0 1 .617.206zm3.36 8.542v-4.027a2.014 2.014 0 1 1 0 4.027z"/></symbol>

    <symbol id="volume_low" width="26" height="26"><path fill-rule="evenodd" d="M11.74 6.044a.46.46 0 0 0-.618-.206L7.307 9.003a1.452 1.452 0 0 1-.65.153h-3.01a.742.742 0 0 0-.74.742v5.609c0 .409.331.74.74.74h3.53c.224 0 .447.053.65.153l3.295 2.906a.458.458 0 0 0 .666-.411V6.25a.462.462 0 0 0-.049-.206"/></symbol>

    <symbol id="volume_max" width="26" height="26"><path fill-rule="evenodd" d="M11.74 6.044a.462.462 0 0 1 .048.206v12.645a.46.46 0 0 1-.666.411L7.826 16.4a1.468 1.468 0 0 0-.65-.153H3.647a.74.74 0 0 1-.74-.74V9.898c0-.41.331-.742.74-.742h3.01c.226 0 .448-.052.65-.153l3.815-3.165a.46.46 0 0 1 .617.206zm3.36 8.542v-4.027a2.014 2.014 0 1 1 0 4.027zm0-9.195v-1a8.181 8.181 0 1 1 0 16.363v-1a7.181 7.181 0 1 0 0-14.363zm0 3.239v-1a4.942 4.942 0 1 1 0 9.885v-1a3.942 3.942 0 1 0 0-7.885z"/></symbol>

    <symbol id="warning" width="26" height="26"><path fill-rule="evenodd" d="M18.493 21H7.507A2.507 2.507 0 0 1 5 18.493V7.508A2.508 2.508 0 0 1 7.507 5h10.986A2.508 2.508 0 0 1 21 7.508v10.985A2.507 2.507 0 0 1 18.493 21zm-4.556-6.345h-1.785L11.78 7.5h2.531l-.373 7.155zm-2.187 2.506c0-.23.033-.424.099-.583a.977.977 0 0 1 .274-.384 1.09 1.09 0 0 1 .41-.213c.156-.044.323-.066.504-.066.17 0 .333.022.486.066a1.014 1.014 0 0 1 .684.597c.068.159.103.353.103.583 0 .219-.035.407-.103.563a1.07 1.07 0 0 1-.684.612 1.648 1.648 0 0 1-.486.069c-.18 0-.348-.022-.504-.069a1.056 1.056 0 0 1-.684-.612 1.445 1.445 0 0 1-.099-.563z"/></symbol>

    <symbol id="google" width="26" height="26"><g fill-rule="evenodd" fill="none"><path fill="#EA4335" d="M13 7.48c1.69 0 2.83.73 3.48 1.34l2.54-2.48C17.46 4.89 15.43 4 13 4 9.48 4 6.44 6.02 4.96 8.96l2.91 2.26C8.6 9.05 10.62 7.48 13 7.48z"/><path fill="#4285F4" d="M21.64 13.2c0-.74-.06-1.28-.19-1.84H13v3.34h4.96c-.1.83-.64 2.08-1.84 2.92l2.84 2.2c1.7-1.57 2.68-3.88 2.68-6.62z"/><path fill="#FBBC05" d="M7.88 14.78a5.54 5.54 0 0 1-.3-1.78c0-.62.11-1.22.29-1.78L4.96 8.96A9.008 9.008 0 0 0 4 13c0 1.45.35 2.82.96 4.04l2.92-2.26z"/><path fill="#34A853" d="M13 22c2.43 0 4.47-.8 5.96-2.18l-2.84-2.2c-.76.53-1.78.9-3.12.9-2.38 0-4.4-1.57-5.12-3.74l-2.91 2.26C6.45 19.98 9.48 22 13 22z"/><path d="M4 4h18v18H4z"/></g></symbol>

    <symbol id="facebook_button" width="54" height="54"><path d="M0 0h54v54H0z" fill="none" fill-rule="evenodd" opacity=".09998"/></symbol>

    <symbol id="audio_only" width="116" height="94"><path d="M50.37163 10.17185c.18092.36184.27704.76327.27704 1.16469v71.49288c0 1.43043-1.1647 2.60077-2.60642 2.60077-.40143 0-.7972-.09611-1.15904-.27704L28.24813 68.72308c-1.14208-.56539-2.40288-.86504-3.675-.86504H4.62071c-2.31243 0-4.1895-1.87142-4.1895-4.18385V31.96177c0-2.31808 1.87707-4.19515 4.1895-4.19515h17.01242c1.28342 0 2.53858-.294 3.68065-.86504L46.88321 9.00715c1.28342-.63888 2.84954-.12438 3.48842 1.1647zM69.37647 58.467V35.69896c6.28708 0 11.38685 5.09412 11.38685 11.3812 0 6.29272-5.09977 11.38684-11.38685 11.38684zm0-51.98881V.82434c25.55243 0 46.25977 20.70548 46.25977 46.25977 0 25.54581-20.71017 46.25412-46.25977 46.25412v-5.65385c22.42719 0 40.60592-18.1771 40.60592-40.60027 0-22.43165-18.1759-40.60592-40.60592-40.60592zm0 18.31394v-5.65385c15.43395 0 27.9413 12.5093 27.9413 27.9413 0 15.4367-12.50638 27.94697-27.9413 27.94697V69.3727c12.312 0 22.28746-9.97856 22.28746-22.29311 0-12.30967-9.97624-22.28746-22.28746-22.28746z" fill="#868686" fill-rule="evenodd" opacity=".3"/></symbol>
</svg>
